<?xml version="1.0" encoding="UTF-8" standalone="no"?>
<!DOCTYPE svg PUBLIC "-//W3C//DTD SVG 1.1//EN"
 "http://www.w3.org/Graphics/SVG/1.1/DTD/svg11.dtd">
<!-- Generated by graphviz version 12.2.1 (20250203.1708)
 -->
<!-- Title: G Pages: 1 -->
<svg width="1621pt" height="820pt"
 viewBox="0.00 0.00 1621.00 820.13" xmlns="http://www.w3.org/2000/svg" xmlns:xlink="http://www.w3.org/1999/xlink">
<g id="graph0" class="graph" transform="scale(1 1) rotate(0) translate(4 816.13)">
<title>G</title><style>.edge>path:hover{stroke-width:8}</style>
<polygon fill="white" stroke="none" points="-4,4 -4,-816.13 1617,-816.13 1617,4 -4,4"/>
<!-- case_py -->
<g id="node1" class="node">
<title>case_py</title><style>.edge>path:hover{stroke-width:8}</style>
<ellipse fill="#5a6335" stroke="black" cx="767.91" cy="-18" rx="32.73" ry="18"/>
<text text-anchor="middle" x="767.91" y="-14.88" font-family="Helvetica,sans-Serif" font-size="10.00" fill="#ffffff">case.py</text>
</g>
<!-- CrocoDash -->
<g id="node2" class="node">
<title>CrocoDash</title><style>.edge>path:hover{stroke-width:8}</style>
<ellipse fill="#c24747" stroke="black" cx="41.91" cy="-132.69" rx="41.91" ry="18"/>
<text text-anchor="middle" x="41.91" y="-129.56" font-family="Helvetica,sans-Serif" font-size="10.00" fill="#ffffff">CrocoDash</text>
</g>
<!-- CrocoDash&#45;&gt;case_py -->
<g id="edge1" class="edge">
<title>CrocoDash&#45;&gt;case_py</title><style>.edge>path:hover{stroke-width:8}</style>
<path fill="none" stroke="black" d="M68.96,-118.63C77.97,-114.85 88.19,-111.17 97.91,-109 134.3,-100.89 757.15,-108.69 767.91,-73"/>
<path fill="none" stroke="black" d="M767.91,-72C770.27,-64.19 770.99,-55.43 770.93,-47.31"/>
<polygon fill="#c24747" stroke="black" points="774.44,-47.4 770.46,-37.59 767.45,-47.74 774.44,-47.4"/>
</g>
<!-- CrocoDash_grid -->
<g id="node3" class="node">
<title>CrocoDash_grid</title><style>.edge>path:hover{stroke-width:8}</style>
<ellipse fill="#b83d3d" stroke="black" cx="378.91" cy="-418.88" rx="55.22" ry="18"/>
<text text-anchor="middle" x="378.91" y="-415.75" font-family="Helvetica,sans-Serif" font-size="10.00" fill="#ffffff">CrocoDash.grid</text>
</g>
<!-- CrocoDash_grid&#45;&gt;case_py -->
<g id="edge2" class="edge">
<title>CrocoDash_grid&#45;&gt;case_py</title><style>.edge>path:hover{stroke-width:8}</style>
<path fill="none" stroke="black" d="M407.91,-325.49C414.59,-267.74 532.72,-268.44 492.91,-226.08"/>
<path fill="none" stroke="black" d="M492.91,-224.08C430.24,-157.39 250.32,-204.8 307.91,-133.69"/>
</g>
<!-- CrocoDash_raw_data_access_driver -->
<g id="node6" class="node">
<title>CrocoDash_raw_data_access_driver</title><style>.edge>path:hover{stroke-width:8}</style>
<ellipse fill="#964040" stroke="black" cx="307.91" cy="-225.08" rx="72.3" ry="32.7"/>
<text text-anchor="middle" x="307.91" y="-234.7" font-family="Helvetica,sans-Serif" font-size="10.00" fill="#ffffff">CrocoDash.</text>
<text text-anchor="middle" x="307.91" y="-221.95" font-family="Helvetica,sans-Serif" font-size="10.00" fill="#ffffff">raw_data_access.</text>
<text text-anchor="middle" x="307.91" y="-209.2" font-family="Helvetica,sans-Serif" font-size="10.00" fill="#ffffff">driver</text>
</g>
<!-- CrocoDash_grid&#45;&gt;CrocoDash_raw_data_access_driver -->
<g id="edge3" class="edge">
<title>CrocoDash_grid&#45;&gt;CrocoDash_raw_data_access_driver</title><style>.edge>path:hover{stroke-width:8}</style>
<path fill="none" stroke="black" d="M386.67,-400.66C394.18,-382.8 404.86,-353.85 407.91,-327.49"/>
<path fill="none" stroke="black" d="M407.91,-325.49C411.26,-296.51 389.82,-272.96 365.95,-256.08"/>
<polygon fill="#b83d3d" stroke="black" points="367.89,-253.17 357.62,-250.55 364.01,-259 367.89,-253.17"/>
</g>
<!-- CrocoDash_raw_data_access -->
<g id="node4" class="node">
<title>CrocoDash_raw_data_access</title><style>.edge>path:hover{stroke-width:8}</style>
<ellipse fill="#c24747" stroke="black" cx="209.91" cy="-132.69" rx="70.18" ry="23.69"/>
<text text-anchor="middle" x="209.91" y="-135.94" font-family="Helvetica,sans-Serif" font-size="10.00" fill="#ffffff">CrocoDash.</text>
<text text-anchor="middle" x="209.91" y="-123.19" font-family="Helvetica,sans-Serif" font-size="10.00" fill="#ffffff">raw_data_access</text>
</g>
<!-- CrocoDash_raw_data_access&#45;&gt;case_py -->
<g id="edge4" class="edge">
<title>CrocoDash_raw_data_access&#45;&gt;case_py</title><style>.edge>path:hover{stroke-width:8}</style>
<path fill="none" stroke="black" d="M261.1,-116.22C271.86,-113.44 283.19,-110.84 293.91,-109 345.97,-100.07 752.66,-123.57 767.91,-73"/>
</g>
<!-- CrocoDash_raw_data_access_config -->
<g id="node5" class="node">
<title>CrocoDash_raw_data_access_config</title><style>.edge>path:hover{stroke-width:8}</style>
<ellipse fill="#c24747" stroke="black" cx="144.91" cy="-326.49" rx="72.3" ry="32.7"/>
<text text-anchor="middle" x="144.91" y="-336.11" font-family="Helvetica,sans-Serif" font-size="10.00" fill="#ffffff">CrocoDash.</text>
<text text-anchor="middle" x="144.91" y="-323.36" font-family="Helvetica,sans-Serif" font-size="10.00" fill="#ffffff">raw_data_access.</text>
<text text-anchor="middle" x="144.91" y="-310.61" font-family="Helvetica,sans-Serif" font-size="10.00" fill="#ffffff">config</text>
</g>
<!-- CrocoDash_raw_data_access_config&#45;&gt;case_py -->
<g id="edge5" class="edge">
<title>CrocoDash_raw_data_access_config&#45;&gt;case_py</title><style>.edge>path:hover{stroke-width:8}</style>
<path fill="none" stroke="black" d="M134.8,-294.04C129.9,-272.13 128.21,-243.77 144.91,-226.08"/>
</g>
<!-- CrocoDash_raw_data_access_config&#45;&gt;CrocoDash_raw_data_access_driver -->
<g id="edge6" class="edge">
<title>CrocoDash_raw_data_access_config&#45;&gt;CrocoDash_raw_data_access_driver</title><style>.edge>path:hover{stroke-width:8}</style>
<path fill="none" stroke="black" d="M187.31,-299.63C208.27,-286.85 233.74,-271.32 255.86,-257.82"/>
<polygon fill="#c24747" stroke="black" points="257.43,-260.96 264.15,-252.77 253.79,-254.99 257.43,-260.96"/>
</g>
<!-- CrocoDash_raw_data_access_driver&#45;&gt;case_py -->
<g id="edge7" class="edge">
<title>CrocoDash_raw_data_access_driver&#45;&gt;case_py</title><style>.edge>path:hover{stroke-width:8}</style>
<path fill="none" stroke="black" d="M298.74,-192.33C295.28,-173.31 294.88,-149.79 307.91,-133.69"/>
</g>
<!-- CrocoDash_raw_data_access_utils -->
<g id="node7" class="node">
<title>CrocoDash_raw_data_access_utils</title><style>.edge>path:hover{stroke-width:8}</style>
<ellipse fill="#b65353" stroke="black" cx="307.91" cy="-326.49" rx="72.3" ry="32.7"/>
<text text-anchor="middle" x="307.91" y="-336.11" font-family="Helvetica,sans-Serif" font-size="10.00" fill="#ffffff">CrocoDash.</text>
<text text-anchor="middle" x="307.91" y="-323.36" font-family="Helvetica,sans-Serif" font-size="10.00" fill="#ffffff">raw_data_access.</text>
<text text-anchor="middle" x="307.91" y="-310.61" font-family="Helvetica,sans-Serif" font-size="10.00" fill="#ffffff">utils</text>
</g>
<!-- CrocoDash_raw_data_access_utils&#45;&gt;CrocoDash_raw_data_access_driver -->
<g id="edge8" class="edge">
<title>CrocoDash_raw_data_access_utils&#45;&gt;CrocoDash_raw_data_access_driver</title><style>.edge>path:hover{stroke-width:8}</style>
<path fill="none" stroke="black" d="M307.91,-293.49C307.91,-285.77 307.91,-277.4 307.91,-269.27"/>
<polygon fill="#b65353" stroke="black" points="311.41,-269.53 307.91,-259.53 304.41,-269.53 311.41,-269.53"/>
</g>
<!-- CrocoDash_topo -->
<g id="node8" class="node">
<title>CrocoDash_topo</title><style>.edge>path:hover{stroke-width:8}</style>
<ellipse fill="#a44646" stroke="black" cx="492.91" cy="-326.49" rx="57.06" ry="18"/>
<text text-anchor="middle" x="492.91" y="-323.36" font-family="Helvetica,sans-Serif" font-size="10.00" fill="#ffffff">CrocoDash.topo</text>
</g>
<!-- CrocoDash_topo&#45;&gt;case_py -->
<g id="edge9" class="edge">
<title>CrocoDash_topo&#45;&gt;case_py</title><style>.edge>path:hover{stroke-width:8}</style>
<path fill="none" stroke="black" d="M499.24,-308.16C506.09,-286.02 513.48,-247.96 492.91,-226.08"/>
</g>
<!-- CrocoDash_vgrid -->
<g id="node9" class="node">
<title>CrocoDash_vgrid</title><style>.edge>path:hover{stroke-width:8}</style>
<ellipse fill="#ac4949" stroke="black" cx="253.91" cy="-418.88" rx="50.56" ry="23.69"/>
<text text-anchor="middle" x="253.91" y="-422.13" font-family="Helvetica,sans-Serif" font-size="10.00" fill="#ffffff">CrocoDash.</text>
<text text-anchor="middle" x="253.91" y="-409.38" font-family="Helvetica,sans-Serif" font-size="10.00" fill="#ffffff">vgrid</text>
</g>
<!-- CrocoDash_vgrid&#45;&gt;case_py -->
<g id="edge10" class="edge">
<title>CrocoDash_vgrid&#45;&gt;case_py</title><style>.edge>path:hover{stroke-width:8}</style>
<path fill="none" stroke="black" d="M202.93,-417.76C158.23,-414.6 95.58,-402.11 63.91,-359.19 46.65,-335.8 51.6,-320.12 63.91,-293.78 83.78,-251.28 112.7,-260.2 144.91,-226.08"/>
<path fill="none" stroke="black" d="M144.91,-224.08C192.04,-171.35 232.9,-199.54 288.91,-156.38 299.33,-148.35 299.63,-143.91 307.91,-133.69"/>
<path fill="none" stroke="black" d="M307.91,-131.69C316.19,-121.47 315.23,-115.04 326.91,-109 370.58,-86.4 753.45,-119.99 767.91,-73"/>
</g>
<!-- esmpy -->
<g id="node10" class="node">
<title>esmpy</title><style>.edge>path:hover{stroke-width:8}</style>
<ellipse fill="#59c040" stroke="black" cx="890.91" cy="-585.63" rx="29.98" ry="18"/>
<text text-anchor="middle" x="890.91" y="-582.51" font-family="Helvetica,sans-Serif" font-size="10.00" fill="#000000">esmpy</text>
</g>
<!-- mom6_bathy_mapping -->
<g id="node15" class="node">
<title>mom6_bathy_mapping</title><style>.edge>path:hover{stroke-width:8}</style>
<ellipse fill="#31724b" stroke="black" cx="854.91" cy="-418.88" rx="57.98" ry="23.69"/>
<text text-anchor="middle" x="854.91" y="-422.13" font-family="Helvetica,sans-Serif" font-size="10.00" fill="#ffffff">mom6_bathy.</text>
<text text-anchor="middle" x="854.91" y="-409.38" font-family="Helvetica,sans-Serif" font-size="10.00" fill="#ffffff">mapping</text>
</g>
<!-- esmpy&#45;&gt;mom6_bathy_mapping -->
<g id="edge11" class="edge">
<title>esmpy&#45;&gt;mom6_bathy_mapping</title><style>.edge>path:hover{stroke-width:8}</style>
<path fill="none" stroke="black" d="M908.85,-571.05C932.46,-552.41 970.36,-519.35 964.91,-503.26"/>
</g>
<!-- mom6_bathy -->
<g id="node11" class="node">
<title>mom6_bathy</title><style>.edge>path:hover{stroke-width:8}</style>
<ellipse fill="#10f96d" stroke="black" cx="378.91" cy="-585.63" rx="49.26" ry="18"/>
<text text-anchor="middle" x="378.91" y="-582.51" font-family="Helvetica,sans-Serif" font-size="10.00" fill="#000000">mom6_bathy</text>
</g>
<!-- mom6_bathy&#45;&gt;case_py -->
<g id="edge12" class="edge">
<title>mom6_bathy&#45;&gt;case_py</title><style>.edge>path:hover{stroke-width:8}</style>
<path fill="none" stroke="black" d="M351.49,-570.28C278.45,-531.42 82.52,-422.85 48.91,-359.19 4.11,-274.32 113.56,-120.99 130.91,-109 189.23,-68.69 747.06,-140.76 767.91,-73"/>
</g>
<!-- mom6_bathy&#45;&gt;CrocoDash_grid -->
<g id="edge13" class="edge">
<title>mom6_bathy&#45;&gt;CrocoDash_grid</title><style>.edge>path:hover{stroke-width:8}</style>
<path fill="none" stroke="black" d="M378.91,-501.26C377.45,-483.75 377.41,-464.06 377.75,-448.43"/>
<polygon fill="#10f96d" stroke="black" points="381.24,-448.99 378.03,-438.89 374.24,-448.78 381.24,-448.99"/>
</g>
<!-- mom6_bathy&#45;&gt;CrocoDash_topo -->
<g id="edge14" class="edge">
<title>mom6_bathy&#45;&gt;CrocoDash_topo</title><style>.edge>path:hover{stroke-width:8}</style>
<path fill="none" stroke="black" d="M378.91,-501.26C377.82,-488.15 388.51,-487.76 397.91,-478.57 416.23,-460.66 427.35,-462.91 442.91,-442.57 463.13,-416.13 477.03,-380.25 484.95,-355.62"/>
<polygon fill="#10f96d" stroke="black" points="488.22,-356.89 487.81,-346.3 481.53,-354.83 488.22,-356.89"/>
</g>
<!-- mom6_bathy&#45;&gt;CrocoDash_vgrid -->
<g id="edge15" class="edge">
<title>mom6_bathy&#45;&gt;CrocoDash_vgrid</title><style>.edge>path:hover{stroke-width:8}</style>
<path fill="none" stroke="black" d="M379.75,-567.13C380.34,-550.63 380.74,-525.22 378.91,-503.26"/>
<path fill="none" stroke="black" d="M378.91,-501.26C377.31,-482 335.08,-457.53 300.14,-440.48"/>
<polygon fill="#10f96d" stroke="black" points="301.95,-437.46 291.42,-436.31 298.94,-443.78 301.95,-437.46"/>
</g>
<!-- mom6_bathy_aux -->
<g id="node12" class="node">
<title>mom6_bathy_aux</title><style>.edge>path:hover{stroke-width:8}</style>
<ellipse fill="#31c46c" stroke="black" cx="855.91" cy="-502.26" rx="61.19" ry="18"/>
<text text-anchor="middle" x="855.91" y="-499.13" font-family="Helvetica,sans-Serif" font-size="10.00" fill="#000000">mom6_bathy.aux</text>
</g>
<!-- mom6_bathy_chl -->
<g id="node13" class="node">
<title>mom6_bathy_chl</title><style>.edge>path:hover{stroke-width:8}</style>
<ellipse fill="#3d8f5e" stroke="black" cx="664.91" cy="-326.49" rx="58.89" ry="18"/>
<text text-anchor="middle" x="664.91" y="-323.36" font-family="Helvetica,sans-Serif" font-size="10.00" fill="#ffffff">mom6_bathy.chl</text>
</g>
<!-- mom6_bathy_aux&#45;&gt;mom6_bathy_chl -->
<g id="edge16" class="edge">
<title>mom6_bathy_aux&#45;&gt;mom6_bathy_chl</title><style>.edge>path:hover{stroke-width:8}</style>
<path fill="none" stroke="black" d="M835.21,-484.87C821.33,-473.52 802.91,-457.79 787.91,-442.57 778.68,-433.2 776.96,-430.29 768.91,-419.88"/>
</g>
<!-- mom6_bathy_aux&#45;&gt;mom6_bathy_mapping -->
<g id="edge17" class="edge">
<title>mom6_bathy_aux&#45;&gt;mom6_bathy_mapping</title><style>.edge>path:hover{stroke-width:8}</style>
<path fill="none" stroke="black" d="M855.7,-484C855.59,-475.32 855.46,-464.48 855.33,-454.21"/>
<polygon fill="#31c46c" stroke="black" points="858.84,-454.45 855.22,-444.49 851.84,-454.54 858.84,-454.45"/>
</g>
<!-- mom6_bathy_topo -->
<g id="node16" class="node">
<title>mom6_bathy_topo</title><style>.edge>path:hover{stroke-width:8}</style>
<ellipse fill="#309157" stroke="black" cx="682.91" cy="-418.88" rx="57.98" ry="23.69"/>
<text text-anchor="middle" x="682.91" y="-422.13" font-family="Helvetica,sans-Serif" font-size="10.00" fill="#ffffff">mom6_bathy.</text>
<text text-anchor="middle" x="682.91" y="-409.38" font-family="Helvetica,sans-Serif" font-size="10.00" fill="#ffffff">topo</text>
</g>
<!-- mom6_bathy_aux&#45;&gt;mom6_bathy_topo -->
<g id="edge18" class="edge">
<title>mom6_bathy_aux&#45;&gt;mom6_bathy_topo</title><style>.edge>path:hover{stroke-width:8}</style>
<path fill="none" stroke="black" d="M824.58,-486.52C798.28,-474.15 760.29,-456.28 730.27,-442.16"/>
<polygon fill="#31c46c" stroke="black" points="731.93,-439.07 721.39,-437.98 728.95,-445.4 731.93,-439.07"/>
</g>
<!-- mom6_bathy_chl&#45;&gt;case_py -->
<g id="edge19" class="edge">
<title>mom6_bathy_chl&#45;&gt;case_py</title><style>.edge>path:hover{stroke-width:8}</style>
<path fill="none" stroke="black" d="M634.78,-310.75C591.42,-289.1 514.29,-248.83 492.91,-226.08"/>
</g>
<!-- mom6_bathy_grid -->
<g id="node14" class="node">
<title>mom6_bathy_grid</title><style>.edge>path:hover{stroke-width:8}</style>
<ellipse fill="#38a865" stroke="black" cx="464.91" cy="-502.26" rx="57.98" ry="23.69"/>
<text text-anchor="middle" x="464.91" y="-505.51" font-family="Helvetica,sans-Serif" font-size="10.00" fill="#ffffff">mom6_bathy.</text>
<text text-anchor="middle" x="464.91" y="-492.76" font-family="Helvetica,sans-Serif" font-size="10.00" fill="#ffffff">grid</text>
</g>
<!-- mom6_bathy_grid&#45;&gt;CrocoDash_grid -->
<g id="edge20" class="edge">
<title>mom6_bathy_grid&#45;&gt;CrocoDash_grid</title><style>.edge>path:hover{stroke-width:8}</style>
<path fill="none" stroke="black" d="M442.77,-480.3C431.04,-469.2 416.58,-455.52 404.39,-443.99"/>
<polygon fill="#38a865" stroke="black" points="407.14,-441.77 397.48,-437.44 402.33,-446.86 407.14,-441.77"/>
</g>
<!-- mom6_bathy_grid&#45;&gt;mom6_bathy_chl -->
<g id="edge21" class="edge">
<title>mom6_bathy_grid&#45;&gt;mom6_bathy_chl</title><style>.edge>path:hover{stroke-width:8}</style>
<path fill="none" stroke="black" d="M489.04,-480.29C526.51,-447.73 598.48,-385.21 637.74,-351.1"/>
<polygon fill="#38a865" stroke="black" points="639.66,-354.07 644.91,-344.86 635.07,-348.78 639.66,-354.07"/>
</g>
<!-- mom6_bathy_mapping&#45;&gt;case_py -->
<g id="edge22" class="edge">
<title>mom6_bathy_mapping&#45;&gt;case_py</title><style>.edge>path:hover{stroke-width:8}</style>
<path fill="none" stroke="black" d="M844.88,-395.09C831.94,-364.52 809.91,-308.23 799.91,-257.78 787.03,-192.8 811.4,-172 790.91,-109 785.04,-90.94 762.43,-91.18 767.91,-73"/>
</g>
<!-- mom6_bathy_topo&#45;&gt;CrocoDash_topo -->
<g id="edge23" class="edge">
<title>mom6_bathy_topo&#45;&gt;CrocoDash_topo</title><style>.edge>path:hover{stroke-width:8}</style>
<path fill="none" stroke="black" d="M645.83,-400.24C613.67,-384.94 567.19,-362.83 533.93,-347"/>
<polygon fill="#309157" stroke="black" points="535.53,-343.89 525,-342.75 532.53,-350.21 535.53,-343.89"/>
</g>
<!-- mom6_bathy_topo&#45;&gt;mom6_bathy_chl -->
<g id="edge24" class="edge">
<title>mom6_bathy_topo&#45;&gt;mom6_bathy_chl</title><style>.edge>path:hover{stroke-width:8}</style>
<path fill="none" stroke="black" d="M678.37,-395.07C676.02,-383.26 673.12,-368.72 670.62,-356.16"/>
<polygon fill="#309157" stroke="black" points="674.06,-355.48 668.67,-346.35 667.19,-356.84 674.06,-355.48"/>
</g>
<!-- mom6_bathy_vgrid -->
<g id="node17" class="node">
<title>mom6_bathy_vgrid</title><style>.edge>path:hover{stroke-width:8}</style>
<ellipse fill="#4cb375" stroke="black" cx="253.91" cy="-585.63" rx="57.98" ry="23.69"/>
<text text-anchor="middle" x="253.91" y="-588.88" font-family="Helvetica,sans-Serif" font-size="10.00" fill="#000000">mom6_bathy.</text>
<text text-anchor="middle" x="253.91" y="-576.13" font-family="Helvetica,sans-Serif" font-size="10.00" fill="#000000">vgrid</text>
</g>
<!-- mom6_bathy_vgrid&#45;&gt;CrocoDash_vgrid -->
<g id="edge25" class="edge">
<title>mom6_bathy_vgrid&#45;&gt;CrocoDash_vgrid</title><style>.edge>path:hover{stroke-width:8}</style>
<path fill="none" stroke="black" d="M253.91,-561.72C253.91,-533.77 253.91,-486.25 253.91,-453.99"/>
<polygon fill="#4cb375" stroke="black" points="257.41,-454.37 253.91,-444.37 250.41,-454.37 257.41,-454.37"/>
</g>
<!-- numpy -->
<g id="node18" class="node">
<title>numpy</title><style>.edge>path:hover{stroke-width:8}</style>
<ellipse fill="#06f9f9" stroke="black" cx="774.91" cy="-779.43" rx="30.44" ry="18"/>
<text text-anchor="middle" x="774.91" y="-776.31" font-family="Helvetica,sans-Serif" font-size="10.00" fill="#000000">numpy</text>
</g>
<!-- numpy&#45;&gt;mom6_bathy_aux -->
<g id="edge26" class="edge">
<title>numpy&#45;&gt;mom6_bathy_aux</title><style>.edge>path:hover{stroke-width:8}</style>
<path fill="none" stroke="black" d="M796.53,-766.68C822.62,-750.78 863.56,-719.68 867.91,-679.02"/>
<path fill="none" stroke="black" d="M867.91,-677.02C873.41,-625.68 785.86,-637.47 794.91,-586.63"/>
</g>
<!-- numpy&#45;&gt;mom6_bathy_chl -->
<g id="edge27" class="edge">
<title>numpy&#45;&gt;mom6_bathy_chl</title><style>.edge>path:hover{stroke-width:8}</style>
<path fill="none" stroke="black" d="M805.3,-776.38C877.81,-770.83 1057.88,-753.01 1097.91,-710.73 1136.27,-670.21 1116.91,-642.43 1116.91,-586.63 1116.91,-586.63 1116.91,-586.63 1116.91,-501.26 1116.91,-418.71 850.96,-360.56 727.06,-337.94"/>
<polygon fill="#06f9f9" stroke="black" points="727.84,-334.53 717.37,-336.2 726.59,-341.42 727.84,-334.53"/>
</g>
<!-- numpy&#45;&gt;mom6_bathy_grid -->
<g id="edge28" class="edge">
<title>numpy&#45;&gt;mom6_bathy_grid</title><style>.edge>path:hover{stroke-width:8}</style>
<path fill="none" stroke="black" d="M569.91,-677.02C534.55,-657.97 589.74,-621.57 569.91,-586.63"/>
</g>
<!-- numpy&#45;&gt;mom6_bathy_mapping -->
<g id="edge29" class="edge">
<title>numpy&#45;&gt;mom6_bathy_mapping</title><style>.edge>path:hover{stroke-width:8}</style>
<path fill="none" stroke="black" d="M867.91,-677.02C872.5,-634.19 803.04,-617.67 832.91,-586.63"/>
</g>
<!-- numpy&#45;&gt;mom6_bathy_topo -->
<g id="edge30" class="edge">
<title>numpy&#45;&gt;mom6_bathy_topo</title><style>.edge>path:hover{stroke-width:8}</style>
<path fill="none" stroke="black" d="M766.03,-761.9C748.09,-728.61 708.61,-655.78 700.91,-645.32 679.54,-616.29 634.88,-621.26 644.91,-586.63"/>
</g>
<!-- numpy&#45;&gt;mom6_bathy_vgrid -->
<g id="edge31" class="edge">
<title>numpy&#45;&gt;mom6_bathy_vgrid</title><style>.edge>path:hover{stroke-width:8}</style>
<path fill="none" stroke="black" d="M747.79,-770.99C702.46,-758.16 613.83,-731.29 588.91,-710.73 576.24,-700.27 584.37,-686.82 569.91,-679.02"/>
<path fill="none" stroke="black" d="M569.91,-677.02C554.36,-668.64 561.06,-654.42 545.91,-645.32 459.09,-593.19 419.22,-633.65 320.91,-609.32 316.35,-608.19 311.66,-606.89 306.98,-605.5"/>
<polygon fill="#06f9f9" stroke="black" points="308.16,-602.21 297.57,-602.57 306.08,-608.89 308.16,-602.21"/>
</g>
<!-- scipy -->
<g id="node24" class="node">
<title>scipy</title><style>.edge>path:hover{stroke-width:8}</style>
<ellipse fill="#3406ef" stroke="black" cx="774.91" cy="-678.02" rx="27" ry="18"/>
<text text-anchor="middle" x="774.91" y="-674.9" font-family="Helvetica,sans-Serif" font-size="10.00" fill="#ffffff">scipy</text>
</g>
<!-- numpy&#45;&gt;scipy -->
<g id="edge32" class="edge">
<title>numpy&#45;&gt;scipy</title><style>.edge>path:hover{stroke-width:8}</style>
<path fill="none" stroke="black" d="M774.91,-761.11C774.91,-746.45 774.91,-725.13 774.91,-707.89"/>
<polygon fill="#06f9f9" stroke="black" points="778.41,-707.99 774.91,-697.99 771.41,-707.99 778.41,-707.99"/>
</g>
<!-- ProConPy_config_var -->
<g id="node19" class="node">
<title>ProConPy_config_var</title><style>.edge>path:hover{stroke-width:8}</style>
<ellipse fill="#b68e53" stroke="black" cx="382.91" cy="-132.69" rx="46.85" ry="23.69"/>
<text text-anchor="middle" x="382.91" y="-135.94" font-family="Helvetica,sans-Serif" font-size="10.00" fill="#000000">ProConPy.</text>
<text text-anchor="middle" x="382.91" y="-123.19" font-family="Helvetica,sans-Serif" font-size="10.00" fill="#000000">config_var</text>
</g>
<!-- ProConPy_config_var&#45;&gt;case_py -->
<g id="edge33" class="edge">
<title>ProConPy_config_var&#45;&gt;case_py</title><style>.edge>path:hover{stroke-width:8}</style>
<path fill="none" stroke="black" d="M417.07,-116.12C424.17,-113.38 431.69,-110.82 438.91,-109 474.57,-100.01 757.3,-108.21 767.91,-73"/>
</g>
<!-- ProConPy_csp_solver -->
<g id="node20" class="node">
<title>ProConPy_csp_solver</title><style>.edge>path:hover{stroke-width:8}</style>
<ellipse fill="#b68e53" stroke="black" cx="495.91" cy="-132.69" rx="47.91" ry="23.69"/>
<text text-anchor="middle" x="495.91" y="-135.94" font-family="Helvetica,sans-Serif" font-size="10.00" fill="#000000">ProConPy.</text>
<text text-anchor="middle" x="495.91" y="-123.19" font-family="Helvetica,sans-Serif" font-size="10.00" fill="#000000">csp_solver</text>
</g>
<!-- ProConPy_csp_solver&#45;&gt;case_py -->
<g id="edge34" class="edge">
<title>ProConPy_csp_solver&#45;&gt;case_py</title><style>.edge>path:hover{stroke-width:8}</style>
<path fill="none" stroke="black" d="M531.09,-116.34C538.22,-113.61 545.73,-111.01 552.91,-109 599.57,-95.97 753.93,-119.38 767.91,-73"/>
</g>
<!-- ProConPy_dev_utils -->
<g id="node21" class="node">
<title>ProConPy_dev_utils</title><style>.edge>path:hover{stroke-width:8}</style>
<ellipse fill="#b68e53" stroke="black" cx="606.91" cy="-132.69" rx="45.25" ry="23.69"/>
<text text-anchor="middle" x="606.91" y="-135.94" font-family="Helvetica,sans-Serif" font-size="10.00" fill="#000000">ProConPy.</text>
<text text-anchor="middle" x="606.91" y="-123.19" font-family="Helvetica,sans-Serif" font-size="10.00" fill="#000000">dev_utils</text>
</g>
<!-- ProConPy_dev_utils&#45;&gt;case_py -->
<g id="edge35" class="edge">
<title>ProConPy_dev_utils&#45;&gt;case_py</title><style>.edge>path:hover{stroke-width:8}</style>
<path fill="none" stroke="black" d="M641.33,-116.79C647.8,-114.11 654.54,-111.41 660.91,-109 707.85,-91.27 753.43,-121.04 767.91,-73"/>
</g>
<!-- ProConPy_stage -->
<g id="node22" class="node">
<title>ProConPy_stage</title><style>.edge>path:hover{stroke-width:8}</style>
<ellipse fill="#b68e53" stroke="black" cx="725.91" cy="-132.69" rx="55.68" ry="18"/>
<text text-anchor="middle" x="725.91" y="-129.56" font-family="Helvetica,sans-Serif" font-size="10.00" fill="#000000">ProConPy.stage</text>
</g>
<!-- ProConPy_stage&#45;&gt;case_py -->
<g id="edge36" class="edge">
<title>ProConPy_stage&#45;&gt;case_py</title><style>.edge>path:hover{stroke-width:8}</style>
<path fill="none" stroke="black" d="M742.13,-115.36C751.78,-104.4 763.07,-89.07 767.91,-73"/>
</g>
<!-- regional_mom6 -->
<g id="node23" class="node">
<title>regional_mom6</title><style>.edge>path:hover{stroke-width:8}</style>
<ellipse fill="#4778c2" stroke="black" cx="597.91" cy="-502.26" rx="56.6" ry="18"/>
<text text-anchor="middle" x="597.91" y="-499.13" font-family="Helvetica,sans-Serif" font-size="10.00" fill="#ffffff">regional_mom6</text>
</g>
<!-- regional_mom6&#45;&gt;case_py -->
<g id="edge37" class="edge">
<title>regional_mom6&#45;&gt;case_py</title><style>.edge>path:hover{stroke-width:8}</style>
<path fill="none" stroke="black" d="M558.91,-417.88C549.63,-391.91 569.3,-319.33 558.91,-293.78 543.08,-254.86 521.69,-256.7 492.91,-226.08"/>
</g>
<!-- regional_mom6&#45;&gt;CrocoDash_topo -->
<g id="edge38" class="edge">
<title>regional_mom6&#45;&gt;CrocoDash_topo</title><style>.edge>path:hover{stroke-width:8}</style>
<path fill="none" stroke="black" d="M588.47,-484.24C579.82,-468.08 567.14,-442.89 558.91,-419.88"/>
<path fill="none" stroke="black" d="M558.91,-417.88C550.06,-393.1 532.11,-369.25 517.16,-352.27"/>
<polygon fill="#4778c2" stroke="black" points="520.02,-350.22 510.7,-345.17 514.84,-354.93 520.02,-350.22"/>
</g>
<!-- scipy&#45;&gt;mom6_bathy_aux -->
<g id="edge39" class="edge">
<title>scipy&#45;&gt;mom6_bathy_aux</title><style>.edge>path:hover{stroke-width:8}</style>
<path fill="none" stroke="black" d="M779.18,-659.78C783.55,-641.65 790.35,-612.27 794.91,-586.63"/>
<path fill="none" stroke="black" d="M794.91,-584.63C798.84,-562.54 813.9,-542.33 828.07,-527.58"/>
<polygon fill="#3406ef" stroke="black" points="830.47,-530.13 835.14,-520.61 825.56,-525.14 830.47,-530.13"/>
</g>
<!-- scipy&#45;&gt;mom6_bathy_grid -->
<g id="edge40" class="edge">
<title>scipy&#45;&gt;mom6_bathy_grid</title><style>.edge>path:hover{stroke-width:8}</style>
<path fill="none" stroke="black" d="M758.99,-663.3C743.83,-650 720.61,-628.99 701.91,-609.32 692.85,-599.79 692.8,-595.31 682.91,-586.63"/>
<path fill="none" stroke="black" d="M682.91,-584.63C676.41,-578.92 580.96,-544.4 518.54,-522.2"/>
<polygon fill="#3406ef" stroke="black" points="520.08,-519.03 509.48,-518.98 517.74,-525.63 520.08,-519.03"/>
</g>
<!-- scipy&#45;&gt;mom6_bathy_mapping -->
<g id="edge41" class="edge">
<title>scipy&#45;&gt;mom6_bathy_mapping</title><style>.edge>path:hover{stroke-width:8}</style>
<path fill="none" stroke="black" d="M782.89,-660.67C792.79,-641.46 811.06,-609.34 832.91,-586.63"/>
</g>
<!-- scipy&#45;&gt;mom6_bathy_topo -->
<g id="edge42" class="edge">
<title>scipy&#45;&gt;mom6_bathy_topo</title><style>.edge>path:hover{stroke-width:8}</style>
<path fill="none" stroke="black" d="M682.91,-584.63C655.73,-560.78 678.87,-539.2 682.91,-503.26"/>
</g>
<!-- scipy_sparse -->
<g id="node25" class="node">
<title>scipy_sparse</title><style>.edge>path:hover{stroke-width:8}</style>
<ellipse fill="#563db8" stroke="black" cx="984.91" cy="-585.63" rx="46.04" ry="18"/>
<text text-anchor="middle" x="984.91" y="-582.51" font-family="Helvetica,sans-Serif" font-size="10.00" fill="#ffffff">scipy.sparse</text>
</g>
<!-- scipy_sparse&#45;&gt;mom6_bathy_mapping -->
<g id="edge43" class="edge">
<title>scipy_sparse&#45;&gt;mom6_bathy_mapping</title><style>.edge>path:hover{stroke-width:8}</style>
<path fill="none" stroke="black" d="M981.54,-567.24C978.1,-550.59 972.24,-524.89 964.91,-503.26"/>
</g>
<!-- scipy_sparse_coo_matrix -->
<g id="node26" class="node">
<title>scipy_sparse_coo_matrix</title><style>.edge>path:hover{stroke-width:8}</style>
<ellipse fill="#6753b6" stroke="black" cx="1038.91" cy="-678.02" rx="50.03" ry="32.7"/>
<text text-anchor="middle" x="1038.91" y="-687.65" font-family="Helvetica,sans-Serif" font-size="10.00" fill="#ffffff">scipy.</text>
<text text-anchor="middle" x="1038.91" y="-674.9" font-family="Helvetica,sans-Serif" font-size="10.00" fill="#ffffff">sparse.</text>
<text text-anchor="middle" x="1038.91" y="-662.15" font-family="Helvetica,sans-Serif" font-size="10.00" fill="#ffffff">coo_matrix</text>
</g>
<!-- scipy_sparse_coo_matrix&#45;&gt;mom6_bathy_mapping -->
<g id="edge44" class="edge">
<title>scipy_sparse_coo_matrix&#45;&gt;mom6_bathy_mapping</title><style>.edge>path:hover{stroke-width:8}</style>
<path fill="none" stroke="black" d="M1046.47,-645.57C1050.6,-621.45 1052.6,-587.99 1039.91,-561.94 1021.37,-523.89 978.49,-543.34 964.91,-503.26"/>
</g>
<!-- scipy_spatial -->
<g id="node27" class="node">
<title>scipy_spatial</title><style>.edge>path:hover{stroke-width:8}</style>
<ellipse fill="#4724d0" stroke="black" cx="644.91" cy="-678.02" rx="46.5" ry="18"/>
<text text-anchor="middle" x="644.91" y="-674.9" font-family="Helvetica,sans-Serif" font-size="10.00" fill="#ffffff">scipy.spatial</text>
</g>
<!-- scipy_spatial&#45;&gt;mom6_bathy_grid -->
<g id="edge45" class="edge">
<title>scipy_spatial&#45;&gt;mom6_bathy_grid</title><style>.edge>path:hover{stroke-width:8}</style>
<path fill="none" stroke="black" d="M628.6,-661.03C611.92,-643.93 586.22,-615.36 569.91,-586.63"/>
</g>
<!-- scipy_spatial&#45;&gt;mom6_bathy_mapping -->
<g id="edge46" class="edge">
<title>scipy_spatial&#45;&gt;mom6_bathy_mapping</title><style>.edge>path:hover{stroke-width:8}</style>
<path fill="none" stroke="black" d="M680.98,-666.37C715.49,-655.23 768.18,-635.68 808.91,-609.32 821.24,-601.34 822.74,-597.21 832.91,-586.63"/>
<path fill="none" stroke="black" d="M832.91,-584.63C842.03,-575.15 841.55,-570.04 851.91,-561.94 880.73,-539.43 893.64,-543.15 925.91,-525.94 943.61,-516.51 970.97,-522.37 964.91,-503.26"/>
<path fill="none" stroke="black" d="M964.91,-501.26C956.18,-473.71 930.92,-453.97 906.8,-440.84"/>
<polygon fill="#4724d0" stroke="black" points="908.43,-437.74 897.93,-436.3 905.24,-443.97 908.43,-437.74"/>
</g>
<!-- scipy_spatial&#45;&gt;mom6_bathy_topo -->
<g id="edge47" class="edge">
<title>scipy_spatial&#45;&gt;mom6_bathy_topo</title><style>.edge>path:hover{stroke-width:8}</style>
<path fill="none" stroke="black" d="M642.09,-659.63C639.74,-641.13 637.8,-611.2 644.91,-586.63"/>
</g>
<!-- scipy_spatial_cKDTree -->
<g id="node28" class="node">
<title>scipy_spatial_cKDTree</title><style>.edge>path:hover{stroke-width:8}</style>
<ellipse fill="#583bce" stroke="black" cx="608.91" cy="-779.43" rx="39.42" ry="32.7"/>
<text text-anchor="middle" x="608.91" y="-789.06" font-family="Helvetica,sans-Serif" font-size="10.00" fill="#ffffff">scipy.</text>
<text text-anchor="middle" x="608.91" y="-776.31" font-family="Helvetica,sans-Serif" font-size="10.00" fill="#ffffff">spatial.</text>
<text text-anchor="middle" x="608.91" y="-763.56" font-family="Helvetica,sans-Serif" font-size="10.00" fill="#ffffff">cKDTree</text>
</g>
<!-- scipy_spatial_cKDTree&#45;&gt;mom6_bathy_grid -->
<g id="edge48" class="edge">
<title>scipy_spatial_cKDTree&#45;&gt;mom6_bathy_grid</title><style>.edge>path:hover{stroke-width:8}</style>
<path fill="none" stroke="black" d="M579.05,-757.53C557.16,-739.5 531.34,-711.33 531.91,-679.02"/>
<path fill="none" stroke="black" d="M531.91,-677.02C532.69,-633.45 591.42,-624.53 569.91,-586.63"/>
<path fill="none" stroke="black" d="M569.91,-584.63C556.19,-560.45 532.11,-541 510.47,-527.19"/>
<polygon fill="#583bce" stroke="black" points="512.4,-524.26 502.04,-522.03 508.74,-530.23 512.4,-524.26"/>
</g>
<!-- scipy_spatial_cKDTree&#45;&gt;mom6_bathy_mapping -->
<g id="edge49" class="edge">
<title>scipy_spatial_cKDTree&#45;&gt;mom6_bathy_mapping</title><style>.edge>path:hover{stroke-width:8}</style>
<path fill="none" stroke="black" d="M646.13,-768.18C701.39,-752.63 799.86,-723.54 810.91,-710.73 847.48,-668.3 794.07,-626.99 832.91,-586.63"/>
</g>
<!-- scipy_spatial_cKDTree&#45;&gt;mom6_bathy_topo -->
<g id="edge50" class="edge">
<title>scipy_spatial_cKDTree&#45;&gt;mom6_bathy_topo</title><style>.edge>path:hover{stroke-width:8}</style>
<path fill="none" stroke="black" d="M531.91,-677.02C532.23,-659.35 543.02,-657.4 555.91,-645.32 590.49,-612.92 631.73,-632.14 644.91,-586.63"/>
<path fill="none" stroke="black" d="M644.91,-584.63C656.02,-546.29 678.45,-542.92 682.91,-503.26"/>
<path fill="none" stroke="black" d="M682.91,-501.26C684.66,-485.75 684.9,-468.47 684.6,-453.84"/>
<polygon fill="#583bce" stroke="black" points="688.12,-454.16 684.32,-444.27 681.12,-454.37 688.12,-454.16"/>
</g>
<!-- visualCaseGen_cime_interface -->
<g id="node29" class="node">
<title>visualCaseGen_cime_interface</title><style>.edge>path:hover{stroke-width:8}</style>
<ellipse fill="#a253b6" stroke="black" cx="902.91" cy="-132.69" rx="64.88" ry="23.69"/>
<text text-anchor="middle" x="902.91" y="-135.94" font-family="Helvetica,sans-Serif" font-size="10.00" fill="#ffffff">visualCaseGen.</text>
<text text-anchor="middle" x="902.91" y="-123.19" font-family="Helvetica,sans-Serif" font-size="10.00" fill="#ffffff">cime_interface</text>
</g>
<!-- visualCaseGen_cime_interface&#45;&gt;case_py -->
<g id="edge51" class="edge">
<title>visualCaseGen_cime_interface&#45;&gt;case_py</title><style>.edge>path:hover{stroke-width:8}</style>
<path fill="none" stroke="black" d="M855.5,-116.05C815.47,-102.12 765.04,-82.51 767.91,-73"/>
</g>
<!-- visualCaseGen_custom_widget_types_case_creator -->
<g id="node30" class="node">
<title>visualCaseGen_custom_widget_types_case_creator</title><style>.edge>path:hover{stroke-width:8}</style>
<ellipse fill="#a253b6" stroke="black" cx="897.91" cy="-225.08" rx="88.74" ry="32.7"/>
<text text-anchor="middle" x="897.91" y="-234.7" font-family="Helvetica,sans-Serif" font-size="10.00" fill="#ffffff">visualCaseGen.</text>
<text text-anchor="middle" x="897.91" y="-221.95" font-family="Helvetica,sans-Serif" font-size="10.00" fill="#ffffff">custom_widget_types.</text>
<text text-anchor="middle" x="897.91" y="-209.2" font-family="Helvetica,sans-Serif" font-size="10.00" fill="#ffffff">case_creator</text>
</g>
<!-- visualCaseGen_custom_widget_types_case_creator&#45;&gt;case_py -->
<g id="edge52" class="edge">
<title>visualCaseGen_custom_widget_types_case_creator&#45;&gt;case_py</title><style>.edge>path:hover{stroke-width:8}</style>
<path fill="none" stroke="black" d="M954.94,-199.59C986.2,-182.63 1015.05,-158.68 995.91,-133.69"/>
<path fill="none" stroke="black" d="M995.91,-131.69C987.91,-121.25 988.31,-115.56 976.91,-109 936.06,-85.5 754.31,-118.12 767.91,-73"/>
</g>
<!-- visualCaseGen_custom_widget_types_case_tools -->
<g id="node31" class="node">
<title>visualCaseGen_custom_widget_types_case_tools</title><style>.edge>path:hover{stroke-width:8}</style>
<ellipse fill="#a253b6" stroke="black" cx="1092.91" cy="-225.08" rx="88.74" ry="32.7"/>
<text text-anchor="middle" x="1092.91" y="-234.7" font-family="Helvetica,sans-Serif" font-size="10.00" fill="#ffffff">visualCaseGen.</text>
<text text-anchor="middle" x="1092.91" y="-221.95" font-family="Helvetica,sans-Serif" font-size="10.00" fill="#ffffff">custom_widget_types.</text>
<text text-anchor="middle" x="1092.91" y="-209.2" font-family="Helvetica,sans-Serif" font-size="10.00" fill="#ffffff">case_tools</text>
</g>
<!-- visualCaseGen_custom_widget_types_case_tools&#45;&gt;case_py -->
<g id="edge53" class="edge">
<title>visualCaseGen_custom_widget_types_case_tools&#45;&gt;case_py</title><style>.edge>path:hover{stroke-width:8}</style>
<path fill="none" stroke="black" d="M1056.89,-194.89C1043.31,-183.35 1027.98,-169.68 1014.91,-156.38 1005.7,-146.99 1003.91,-144.13 995.91,-133.69"/>
</g>
<!-- visualCaseGen_initialize_configvars -->
<g id="node32" class="node">
<title>visualCaseGen_initialize_configvars</title><style>.edge>path:hover{stroke-width:8}</style>
<ellipse fill="#a253b6" stroke="black" cx="1103.91" cy="-132.69" rx="80.26" ry="23.69"/>
<text text-anchor="middle" x="1103.91" y="-135.94" font-family="Helvetica,sans-Serif" font-size="10.00" fill="#ffffff">visualCaseGen.</text>
<text text-anchor="middle" x="1103.91" y="-123.19" font-family="Helvetica,sans-Serif" font-size="10.00" fill="#ffffff">initialize_configvars</text>
</g>
<!-- visualCaseGen_initialize_configvars&#45;&gt;case_py -->
<g id="edge54" class="edge">
<title>visualCaseGen_initialize_configvars&#45;&gt;case_py</title><style>.edge>path:hover{stroke-width:8}</style>
<path fill="none" stroke="black" d="M1044.16,-116.42C1032.83,-113.77 1021.04,-111.17 1009.91,-109 956.54,-98.61 752.21,-125.05 767.91,-73"/>
</g>
<!-- visualCaseGen_initialize_stages -->
<g id="node33" class="node">
<title>visualCaseGen_initialize_stages</title><style>.edge>path:hover{stroke-width:8}</style>
<ellipse fill="#a253b6" stroke="black" cx="1269.91" cy="-132.69" rx="67.53" ry="23.69"/>
<text text-anchor="middle" x="1269.91" y="-135.94" font-family="Helvetica,sans-Serif" font-size="10.00" fill="#ffffff">visualCaseGen.</text>
<text text-anchor="middle" x="1269.91" y="-123.19" font-family="Helvetica,sans-Serif" font-size="10.00" fill="#ffffff">initialize_stages</text>
</g>
<!-- visualCaseGen_initialize_stages&#45;&gt;case_py -->
<g id="edge55" class="edge">
<title>visualCaseGen_initialize_stages&#45;&gt;case_py</title><style>.edge>path:hover{stroke-width:8}</style>
<path fill="none" stroke="black" d="M1221.39,-115.78C1212.03,-113.17 1202.23,-110.75 1192.91,-109 1146.33,-100.26 754.23,-118.37 767.91,-73"/>
</g>
<!-- visualCaseGen_initialize_widgets -->
<g id="node34" class="node">
<title>visualCaseGen_initialize_widgets</title><style>.edge>path:hover{stroke-width:8}</style>
<ellipse fill="#a253b6" stroke="black" cx="1426.91" cy="-132.69" rx="71.77" ry="23.69"/>
<text text-anchor="middle" x="1426.91" y="-135.94" font-family="Helvetica,sans-Serif" font-size="10.00" fill="#ffffff">visualCaseGen.</text>
<text text-anchor="middle" x="1426.91" y="-123.19" font-family="Helvetica,sans-Serif" font-size="10.00" fill="#ffffff">initialize_widgets</text>
</g>
<!-- visualCaseGen_initialize_widgets&#45;&gt;case_py -->
<g id="edge56" class="edge">
<title>visualCaseGen_initialize_widgets&#45;&gt;case_py</title><style>.edge>path:hover{stroke-width:8}</style>
<path fill="none" stroke="black" d="M1376.07,-115.51C1366.47,-112.96 1356.45,-110.63 1346.91,-109 1315.14,-103.57 758.61,-103.86 767.91,-73"/>
</g>
<!-- visualCaseGen_specs_options -->
<g id="node35" class="node">
<title>visualCaseGen_specs_options</title><style>.edge>path:hover{stroke-width:8}</style>
<ellipse fill="#a253b6" stroke="black" cx="1357.91" cy="-225.08" rx="64.88" ry="32.7"/>
<text text-anchor="middle" x="1357.91" y="-234.7" font-family="Helvetica,sans-Serif" font-size="10.00" fill="#ffffff">visualCaseGen.</text>
<text text-anchor="middle" x="1357.91" y="-221.95" font-family="Helvetica,sans-Serif" font-size="10.00" fill="#ffffff">specs.</text>
<text text-anchor="middle" x="1357.91" y="-209.2" font-family="Helvetica,sans-Serif" font-size="10.00" fill="#ffffff">options</text>
</g>
<!-- visualCaseGen_specs_options&#45;&gt;case_py -->
<g id="edge57" class="edge">
<title>visualCaseGen_specs_options&#45;&gt;case_py</title><style>.edge>path:hover{stroke-width:8}</style>
<path fill="none" stroke="black" d="M1406.26,-202.88C1448.39,-184.3 1503.46,-159.75 1507.91,-156.38 1518.39,-148.43 1531.74,-145.92 1526.91,-133.69"/>
<path fill="none" stroke="black" d="M1526.91,-131.69C1522.09,-119.45 1519.69,-114.85 1507.91,-109 1471.05,-90.69 756.03,-112.41 767.91,-73"/>
</g>
<!-- visualCaseGen_specs_relational_constraints -->
<g id="node36" class="node">
<title>visualCaseGen_specs_relational_constraints</title><style>.edge>path:hover{stroke-width:8}</style>
<ellipse fill="#a253b6" stroke="black" cx="1526.91" cy="-225.08" rx="86.09" ry="32.7"/>
<text text-anchor="middle" x="1526.91" y="-234.7" font-family="Helvetica,sans-Serif" font-size="10.00" fill="#ffffff">visualCaseGen.</text>
<text text-anchor="middle" x="1526.91" y="-221.95" font-family="Helvetica,sans-Serif" font-size="10.00" fill="#ffffff">specs.</text>
<text text-anchor="middle" x="1526.91" y="-209.2" font-family="Helvetica,sans-Serif" font-size="10.00" fill="#ffffff">relational_constraints</text>
</g>
<!-- visualCaseGen_specs_relational_constraints&#45;&gt;case_py -->
<g id="edge58" class="edge">
<title>visualCaseGen_specs_relational_constraints&#45;&gt;case_py</title><style>.edge>path:hover{stroke-width:8}</style>
<path fill="none" stroke="black" d="M1532.52,-192.06C1534.28,-174.27 1534.16,-152.08 1526.91,-133.69"/>
</g>
<!-- xesmf -->
<g id="node37" class="node">
<title>xesmf</title><style>.edge>path:hover{stroke-width:8}</style>
<ellipse fill="#d92691" stroke="black" cx="738.91" cy="-585.63" rx="28.15" ry="18"/>
<text text-anchor="middle" x="738.91" y="-582.51" font-family="Helvetica,sans-Serif" font-size="10.00" fill="#ffffff">xesmf</text>
</g>
<!-- xesmf&#45;&gt;mom6_bathy_chl -->
<g id="edge59" class="edge">
<title>xesmf&#45;&gt;mom6_bathy_chl</title><style>.edge>path:hover{stroke-width:8}</style>
<path fill="none" stroke="black" d="M766.91,-501.26C773.18,-465.62 791.03,-448.51 768.91,-419.88"/>
<path fill="none" stroke="black" d="M768.91,-417.88C760.87,-407.47 759.33,-404.38 749.91,-395.19 733.16,-378.85 712.69,-362.45 696.04,-349.88"/>
<polygon fill="#d92691" stroke="black" points="698.55,-347.39 688.44,-344.23 694.37,-353.01 698.55,-347.39"/>
</g>
<!-- xesmf&#45;&gt;mom6_bathy_mapping -->
<g id="edge60" class="edge">
<title>xesmf&#45;&gt;mom6_bathy_mapping</title><style>.edge>path:hover{stroke-width:8}</style>
<path fill="none" stroke="black" d="M766.91,-501.26C771.18,-476.95 790.38,-457.7 809.76,-444.04"/>
<polygon fill="#d92691" stroke="black" points="811.55,-447.05 817.96,-438.62 807.69,-441.21 811.55,-447.05"/>
</g>
<!-- xesmf&#45;&gt;mom6_bathy_topo -->
<g id="edge61" class="edge">
<title>xesmf&#45;&gt;mom6_bathy_topo</title><style>.edge>path:hover{stroke-width:8}</style>
<path fill="none" stroke="black" d="M746.41,-567.9C753.24,-551.73 762.85,-526.36 766.91,-503.26"/>
<path fill="none" stroke="black" d="M766.91,-501.26C771.24,-476.63 751.97,-456.87 730.8,-442.98"/>
<polygon fill="#d92691" stroke="black" points="732.67,-440.03 722.31,-437.81 729.03,-446 732.67,-440.03"/>
</g>
</g>
</svg>
