<?xml version="1.0" encoding="UTF-8" standalone="no"?>
<!DOCTYPE svg PUBLIC "-//W3C//DTD SVG 1.1//EN"
 "http://www.w3.org/Graphics/SVG/1.1/DTD/svg11.dtd">
<!-- Generated by graphviz version 12.2.1 (20250203.1708)
 -->
<!-- Title: G Pages: 1 -->
<svg width="1773pt" height="863pt"
 viewBox="0.00 0.00 1773.07 862.73" xmlns="http://www.w3.org/2000/svg" xmlns:xlink="http://www.w3.org/1999/xlink">
<g id="graph0" class="graph" transform="scale(1 1) rotate(0) translate(4 858.73)">
<title>G</title><style>.edge>path:hover{stroke-width:8}</style>
<polygon fill="white" stroke="none" points="-4,4 -4,-858.73 1769.07,-858.73 1769.07,4 -4,4"/>
<!-- case_py -->
<g id="node1" class="node">
<title>case_py</title><style>.edge>path:hover{stroke-width:8}</style>
<ellipse fill="#636335" stroke="black" cx="758.98" cy="-18" rx="32.73" ry="18"/>
<text text-anchor="middle" x="758.98" y="-14.88" font-family="Helvetica,sans-Serif" font-size="10.00" fill="#ffffff">case.py</text>
</g>
<!-- CrocoDash -->
<g id="node2" class="node">
<title>CrocoDash</title><style>.edge>path:hover{stroke-width:8}</style>
<ellipse fill="#c24747" stroke="black" cx="83.98" cy="-132.69" rx="41.91" ry="18"/>
<text text-anchor="middle" x="83.98" y="-129.56" font-family="Helvetica,sans-Serif" font-size="10.00" fill="#ffffff">CrocoDash</text>
</g>
<!-- CrocoDash&#45;&gt;case_py -->
<g id="edge1" class="edge">
<title>CrocoDash&#45;&gt;case_py</title><style>.edge>path:hover{stroke-width:8}</style>
<path fill="none" stroke="black" d="M111.04,-118.65C120.04,-114.88 130.26,-111.19 139.98,-109 173.59,-101.43 769.41,-105.83 758.98,-73"/>
<path fill="none" stroke="black" d="M758.98,-72C756.51,-64.22 755.75,-55.47 755.82,-47.36"/>
<polygon fill="#c24747" stroke="black" points="759.3,-47.79 756.32,-37.62 752.31,-47.43 759.3,-47.79"/>
</g>
<!-- CrocoDash_grid -->
<g id="node3" class="node">
<title>CrocoDash_grid</title><style>.edge>path:hover{stroke-width:8}</style>
<ellipse fill="#b83d3d" stroke="black" cx="262.98" cy="-418.88" rx="55.22" ry="18"/>
<text text-anchor="middle" x="262.98" y="-415.75" font-family="Helvetica,sans-Serif" font-size="10.00" fill="#ffffff">CrocoDash.grid</text>
</g>
<!-- CrocoDash_grid&#45;&gt;case_py -->
<g id="edge2" class="edge">
<title>CrocoDash_grid&#45;&gt;case_py</title><style>.edge>path:hover{stroke-width:8}</style>
<path fill="none" stroke="black" d="M449.98,-325.49C469.17,-268.89 464.39,-241.92 430.98,-192.38 406.13,-155.52 317.35,-163.88 349.98,-133.69"/>
</g>
<!-- CrocoDash_raw_data_access_driver -->
<g id="node6" class="node">
<title>CrocoDash_raw_data_access_driver</title><style>.edge>path:hover{stroke-width:8}</style>
<ellipse fill="#964040" stroke="black" cx="349.98" cy="-225.08" rx="72.3" ry="32.7"/>
<text text-anchor="middle" x="349.98" y="-234.7" font-family="Helvetica,sans-Serif" font-size="10.00" fill="#ffffff">CrocoDash.</text>
<text text-anchor="middle" x="349.98" y="-221.95" font-family="Helvetica,sans-Serif" font-size="10.00" fill="#ffffff">raw_data_access.</text>
<text text-anchor="middle" x="349.98" y="-209.2" font-family="Helvetica,sans-Serif" font-size="10.00" fill="#ffffff">driver</text>
</g>
<!-- CrocoDash_grid&#45;&gt;CrocoDash_raw_data_access_driver -->
<g id="edge3" class="edge">
<title>CrocoDash_grid&#45;&gt;CrocoDash_raw_data_access_driver</title><style>.edge>path:hover{stroke-width:8}</style>
<path fill="none" stroke="black" d="M302.05,-405.78C348.38,-391.19 420.68,-367.58 430.98,-359.19 443.72,-348.82 444.71,-343.04 449.98,-327.49"/>
<path fill="none" stroke="black" d="M449.98,-325.49C459.79,-296.56 436.28,-272.21 409.6,-254.85"/>
<polygon fill="#b83d3d" stroke="black" points="411.72,-252.05 401.37,-249.8 408.06,-258.02 411.72,-252.05"/>
</g>
<!-- CrocoDash_raw_data_access -->
<g id="node4" class="node">
<title>CrocoDash_raw_data_access</title><style>.edge>path:hover{stroke-width:8}</style>
<ellipse fill="#c24747" stroke="black" cx="251.98" cy="-132.69" rx="70.18" ry="23.69"/>
<text text-anchor="middle" x="251.98" y="-135.94" font-family="Helvetica,sans-Serif" font-size="10.00" fill="#ffffff">CrocoDash.</text>
<text text-anchor="middle" x="251.98" y="-123.19" font-family="Helvetica,sans-Serif" font-size="10.00" fill="#ffffff">raw_data_access</text>
</g>
<!-- CrocoDash_raw_data_access&#45;&gt;case_py -->
<g id="edge4" class="edge">
<title>CrocoDash_raw_data_access&#45;&gt;case_py</title><style>.edge>path:hover{stroke-width:8}</style>
<path fill="none" stroke="black" d="M303.63,-116.18C314.26,-113.43 325.42,-110.86 335.98,-109 382.44,-100.82 773.26,-117.96 758.98,-73"/>
</g>
<!-- CrocoDash_raw_data_access_config -->
<g id="node5" class="node">
<title>CrocoDash_raw_data_access_config</title><style>.edge>path:hover{stroke-width:8}</style>
<ellipse fill="#c24747" stroke="black" cx="186.98" cy="-326.49" rx="72.3" ry="32.7"/>
<text text-anchor="middle" x="186.98" y="-336.11" font-family="Helvetica,sans-Serif" font-size="10.00" fill="#ffffff">CrocoDash.</text>
<text text-anchor="middle" x="186.98" y="-323.36" font-family="Helvetica,sans-Serif" font-size="10.00" fill="#ffffff">raw_data_access.</text>
<text text-anchor="middle" x="186.98" y="-310.61" font-family="Helvetica,sans-Serif" font-size="10.00" fill="#ffffff">config</text>
</g>
<!-- CrocoDash_raw_data_access_config&#45;&gt;case_py -->
<g id="edge5" class="edge">
<title>CrocoDash_raw_data_access_config&#45;&gt;case_py</title><style>.edge>path:hover{stroke-width:8}</style>
<path fill="none" stroke="black" d="M176.87,-294.04C171.97,-272.13 170.28,-243.77 186.98,-226.08"/>
</g>
<!-- CrocoDash_raw_data_access_config&#45;&gt;CrocoDash_raw_data_access_driver -->
<g id="edge6" class="edge">
<title>CrocoDash_raw_data_access_config&#45;&gt;CrocoDash_raw_data_access_driver</title><style>.edge>path:hover{stroke-width:8}</style>
<path fill="none" stroke="black" d="M229.38,-299.63C250.34,-286.85 275.81,-271.32 297.93,-257.82"/>
<polygon fill="#c24747" stroke="black" points="299.5,-260.96 306.22,-252.77 295.86,-254.99 299.5,-260.96"/>
</g>
<!-- CrocoDash_raw_data_access_driver&#45;&gt;case_py -->
<g id="edge7" class="edge">
<title>CrocoDash_raw_data_access_driver&#45;&gt;case_py</title><style>.edge>path:hover{stroke-width:8}</style>
<path fill="none" stroke="black" d="M339.56,-192.23C335.28,-172.43 334.43,-148.08 349.98,-133.69"/>
</g>
<!-- CrocoDash_raw_data_access_utils -->
<g id="node7" class="node">
<title>CrocoDash_raw_data_access_utils</title><style>.edge>path:hover{stroke-width:8}</style>
<ellipse fill="#b65353" stroke="black" cx="349.98" cy="-326.49" rx="72.3" ry="32.7"/>
<text text-anchor="middle" x="349.98" y="-336.11" font-family="Helvetica,sans-Serif" font-size="10.00" fill="#ffffff">CrocoDash.</text>
<text text-anchor="middle" x="349.98" y="-323.36" font-family="Helvetica,sans-Serif" font-size="10.00" fill="#ffffff">raw_data_access.</text>
<text text-anchor="middle" x="349.98" y="-310.61" font-family="Helvetica,sans-Serif" font-size="10.00" fill="#ffffff">utils</text>
</g>
<!-- CrocoDash_raw_data_access_utils&#45;&gt;CrocoDash_raw_data_access_driver -->
<g id="edge8" class="edge">
<title>CrocoDash_raw_data_access_utils&#45;&gt;CrocoDash_raw_data_access_driver</title><style>.edge>path:hover{stroke-width:8}</style>
<path fill="none" stroke="black" d="M349.98,-293.49C349.98,-285.77 349.98,-277.4 349.98,-269.27"/>
<polygon fill="#b65353" stroke="black" points="353.48,-269.53 349.98,-259.53 346.48,-269.53 353.48,-269.53"/>
</g>
<!-- CrocoDash_topo -->
<g id="node8" class="node">
<title>CrocoDash_topo</title><style>.edge>path:hover{stroke-width:8}</style>
<ellipse fill="#a44646" stroke="black" cx="402.98" cy="-418.88" rx="57.06" ry="18"/>
<text text-anchor="middle" x="402.98" y="-415.75" font-family="Helvetica,sans-Serif" font-size="10.00" fill="#ffffff">CrocoDash.topo</text>
</g>
<!-- CrocoDash_topo&#45;&gt;case_py -->
<g id="edge9" class="edge">
<title>CrocoDash_topo&#45;&gt;case_py</title><style>.edge>path:hover{stroke-width:8}</style>
<path fill="none" stroke="black" d="M431.34,-402.95C456.11,-387.64 488.1,-361.31 487.98,-327.49"/>
<path fill="none" stroke="black" d="M487.98,-325.49C487.81,-277.34 447.18,-145.15 478.98,-109 520.42,-61.9 777.98,-132.79 758.98,-73"/>
</g>
<!-- CrocoDash_vgrid -->
<g id="node9" class="node">
<title>CrocoDash_vgrid</title><style>.edge>path:hover{stroke-width:8}</style>
<ellipse fill="#ac4949" stroke="black" cx="127.98" cy="-418.88" rx="50.56" ry="23.69"/>
<text text-anchor="middle" x="127.98" y="-422.13" font-family="Helvetica,sans-Serif" font-size="10.00" fill="#ffffff">CrocoDash.</text>
<text text-anchor="middle" x="127.98" y="-409.38" font-family="Helvetica,sans-Serif" font-size="10.00" fill="#ffffff">vgrid</text>
</g>
<!-- CrocoDash_vgrid&#45;&gt;case_py -->
<g id="edge10" class="edge">
<title>CrocoDash_vgrid&#45;&gt;case_py</title><style>.edge>path:hover{stroke-width:8}</style>
<path fill="none" stroke="black" d="M116.45,-395.77C104.76,-370.12 90.42,-327.08 105.98,-293.78 125.85,-251.28 154.77,-260.2 186.98,-226.08"/>
<path fill="none" stroke="black" d="M186.98,-224.08C233.87,-171.13 274.97,-199.54 330.98,-156.38 341.4,-148.35 340.26,-142.55 349.98,-133.69"/>
<path fill="none" stroke="black" d="M349.98,-131.69C359.7,-122.83 357.33,-115.11 368.98,-109 407.53,-88.79 772.33,-114.42 758.98,-73"/>
</g>
<!-- driver -->
<g id="node10" class="node">
<title>driver</title><style>.edge>path:hover{stroke-width:8}</style>
<ellipse fill="#85b653" stroke="black" cx="404.98" cy="-132.69" rx="27.23" ry="18"/>
<text text-anchor="middle" x="404.98" y="-129.56" font-family="Helvetica,sans-Serif" font-size="10.00" fill="#000000">driver</text>
</g>
<!-- driver&#45;&gt;case_py -->
<g id="edge11" class="edge">
<title>driver&#45;&gt;case_py</title><style>.edge>path:hover{stroke-width:8}</style>
<path fill="none" stroke="black" d="M423.88,-119.21C430.6,-115.33 438.39,-111.43 445.98,-109 512.66,-87.64 780.18,-139.73 758.98,-73"/>
</g>
<!-- esmpy -->
<g id="node11" class="node">
<title>esmpy</title><style>.edge>path:hover{stroke-width:8}</style>
<ellipse fill="#40c040" stroke="black" cx="1017.98" cy="-663.32" rx="29.98" ry="18"/>
<text text-anchor="middle" x="1017.98" y="-660.19" font-family="Helvetica,sans-Serif" font-size="10.00" fill="#000000">esmpy</text>
</g>
<!-- mom6_bathy_mapping -->
<g id="node16" class="node">
<title>mom6_bathy_mapping</title><style>.edge>path:hover{stroke-width:8}</style>
<ellipse fill="#2e6b4c" stroke="black" cx="835.98" cy="-502.26" rx="57.98" ry="23.69"/>
<text text-anchor="middle" x="835.98" y="-505.51" font-family="Helvetica,sans-Serif" font-size="10.00" fill="#ffffff">mom6_bathy.</text>
<text text-anchor="middle" x="835.98" y="-492.76" font-family="Helvetica,sans-Serif" font-size="10.00" fill="#ffffff">mapping</text>
</g>
<!-- esmpy&#45;&gt;mom6_bathy_mapping -->
<g id="edge12" class="edge">
<title>esmpy&#45;&gt;mom6_bathy_mapping</title><style>.edge>path:hover{stroke-width:8}</style>
<path fill="none" stroke="black" d="M994.6,-651.85C971.3,-639.91 937.15,-617.91 923.98,-586.63"/>
</g>
<!-- mom6_bathy -->
<g id="node12" class="node">
<title>mom6_bathy</title><style>.edge>path:hover{stroke-width:8}</style>
<ellipse fill="#10f985" stroke="black" cx="182.98" cy="-585.63" rx="49.26" ry="18"/>
<text text-anchor="middle" x="182.98" y="-582.51" font-family="Helvetica,sans-Serif" font-size="10.00" fill="#000000">mom6_bathy</text>
</g>
<!-- mom6_bathy&#45;&gt;case_py -->
<g id="edge13" class="edge">
<title>mom6_bathy&#45;&gt;case_py</title><style>.edge>path:hover{stroke-width:8}</style>
<path fill="none" stroke="black" d="M162.83,-568.91C146.08,-553.84 125.36,-529.56 127.98,-503.26"/>
<path fill="none" stroke="black" d="M127.98,-501.26C131.68,-464.14 82.45,-476.95 67.98,-442.57 59.82,-423.16 65.25,-416.07 67.98,-395.19 76.77,-328.02 117.71,-148.16 172.98,-109 226.21,-71.29 778.7,-135.18 758.98,-73"/>
</g>
<!-- mom6_bathy&#45;&gt;CrocoDash_grid -->
<g id="edge14" class="edge">
<title>mom6_bathy&#45;&gt;CrocoDash_grid</title><style>.edge>path:hover{stroke-width:8}</style>
<path fill="none" stroke="black" d="M127.98,-501.26C130.1,-480.04 179.67,-454.49 218.13,-437.76"/>
<polygon fill="#10f985" stroke="black" points="219.42,-441.01 227.25,-433.87 216.67,-434.57 219.42,-441.01"/>
</g>
<!-- mom6_bathy&#45;&gt;CrocoDash_topo -->
<g id="edge15" class="edge">
<title>mom6_bathy&#45;&gt;CrocoDash_topo</title><style>.edge>path:hover{stroke-width:8}</style>
<path fill="none" stroke="black" d="M127.98,-501.26C137.12,-409.5 238.58,-468.8 326.98,-442.57 335.06,-440.17 343.62,-437.62 351.97,-435.13"/>
<polygon fill="#10f985" stroke="black" points="352.73,-438.56 361.31,-432.35 350.73,-431.85 352.73,-438.56"/>
</g>
<!-- mom6_bathy&#45;&gt;CrocoDash_vgrid -->
<g id="edge16" class="edge">
<title>mom6_bathy&#45;&gt;CrocoDash_vgrid</title><style>.edge>path:hover{stroke-width:8}</style>
<path fill="none" stroke="black" d="M127.98,-501.26C129.53,-485.73 129.74,-468.45 129.48,-453.82"/>
<polygon fill="#10f985" stroke="black" points="132.99,-454.16 129.23,-444.25 125.99,-454.34 132.99,-454.16"/>
</g>
<!-- mom6_bathy_aux -->
<g id="node13" class="node">
<title>mom6_bathy_aux</title><style>.edge>path:hover{stroke-width:8}</style>
<ellipse fill="#24d07a" stroke="black" cx="631.98" cy="-585.63" rx="61.19" ry="18"/>
<text text-anchor="middle" x="631.98" y="-582.51" font-family="Helvetica,sans-Serif" font-size="10.00" fill="#000000">mom6_bathy.aux</text>
</g>
<!-- mom6_bathy_chl -->
<g id="node14" class="node">
<title>mom6_bathy_chl</title><style>.edge>path:hover{stroke-width:8}</style>
<ellipse fill="#3d8f66" stroke="black" cx="574.98" cy="-418.88" rx="58.89" ry="18"/>
<text text-anchor="middle" x="574.98" y="-415.75" font-family="Helvetica,sans-Serif" font-size="10.00" fill="#ffffff">mom6_bathy.chl</text>
</g>
<!-- mom6_bathy_aux&#45;&gt;mom6_bathy_chl -->
<g id="edge17" class="edge">
<title>mom6_bathy_aux&#45;&gt;mom6_bathy_chl</title><style>.edge>path:hover{stroke-width:8}</style>
<path fill="none" stroke="black" d="M678.59,-573.59C717.2,-561.7 763.68,-539.45 749.98,-503.26"/>
<path fill="none" stroke="black" d="M749.98,-501.26C733.49,-457.67 683.27,-437.43 640.83,-428.03"/>
<polygon fill="#24d07a" stroke="black" points="641.65,-424.62 631.16,-426.06 640.26,-431.48 641.65,-424.62"/>
</g>
<!-- mom6_bathy_grid -->
<g id="node15" class="node">
<title>mom6_bathy_grid</title><style>.edge>path:hover{stroke-width:8}</style>
<ellipse fill="#339966" stroke="black" cx="500.98" cy="-502.26" rx="57.98" ry="23.69"/>
<text text-anchor="middle" x="500.98" y="-505.51" font-family="Helvetica,sans-Serif" font-size="10.00" fill="#ffffff">mom6_bathy.</text>
<text text-anchor="middle" x="500.98" y="-492.76" font-family="Helvetica,sans-Serif" font-size="10.00" fill="#ffffff">grid</text>
</g>
<!-- mom6_bathy_aux&#45;&gt;mom6_bathy_grid -->
<g id="edge18" class="edge">
<title>mom6_bathy_aux&#45;&gt;mom6_bathy_grid</title><style>.edge>path:hover{stroke-width:8}</style>
<path fill="none" stroke="black" d="M606.72,-568.94C588.37,-557.54 563.13,-541.86 541.91,-528.68"/>
<polygon fill="#24d07a" stroke="black" points="543.8,-525.73 533.46,-523.43 540.11,-531.68 543.8,-525.73"/>
</g>
<!-- mom6_bathy_aux&#45;&gt;mom6_bathy_mapping -->
<g id="edge19" class="edge">
<title>mom6_bathy_aux&#45;&gt;mom6_bathy_mapping</title><style>.edge>path:hover{stroke-width:8}</style>
<path fill="none" stroke="black" d="M667.05,-570.64C699.5,-557.7 748.14,-538.29 784.91,-523.63"/>
<polygon fill="#24d07a" stroke="black" points="786.02,-526.95 794.01,-520 783.43,-520.45 786.02,-526.95"/>
</g>
<!-- mom6_bathy_topo -->
<g id="node17" class="node">
<title>mom6_bathy_topo</title><style>.edge>path:hover{stroke-width:8}</style>
<ellipse fill="#309161" stroke="black" cx="634.98" cy="-502.26" rx="57.98" ry="23.69"/>
<text text-anchor="middle" x="634.98" y="-505.51" font-family="Helvetica,sans-Serif" font-size="10.00" fill="#ffffff">mom6_bathy.</text>
<text text-anchor="middle" x="634.98" y="-492.76" font-family="Helvetica,sans-Serif" font-size="10.00" fill="#ffffff">topo</text>
</g>
<!-- mom6_bathy_aux&#45;&gt;mom6_bathy_topo -->
<g id="edge20" class="edge">
<title>mom6_bathy_aux&#45;&gt;mom6_bathy_topo</title><style>.edge>path:hover{stroke-width:8}</style>
<path fill="none" stroke="black" d="M632.62,-567.37C632.94,-558.7 633.34,-547.86 633.72,-537.58"/>
<polygon fill="#24d07a" stroke="black" points="637.2,-537.99 634.08,-527.87 630.21,-537.73 637.2,-537.99"/>
</g>
<!-- mom6_bathy_chl&#45;&gt;case_py -->
<g id="edge21" class="edge">
<title>mom6_bathy_chl&#45;&gt;case_py</title><style>.edge>path:hover{stroke-width:8}</style>
<path fill="none" stroke="black" d="M545.58,-402.83C520.38,-387.6 488.11,-361.47 487.98,-327.49"/>
</g>
<!-- mom6_bathy_grid&#45;&gt;CrocoDash_grid -->
<g id="edge22" class="edge">
<title>mom6_bathy_grid&#45;&gt;CrocoDash_grid</title><style>.edge>path:hover{stroke-width:8}</style>
<path fill="none" stroke="black" d="M457.33,-486.33C415.85,-472.15 353.62,-450.87 310.82,-436.23"/>
<polygon fill="#339966" stroke="black" points="312.13,-432.98 301.54,-433.06 309.87,-439.61 312.13,-432.98"/>
</g>
<!-- mom6_bathy_grid&#45;&gt;mom6_bathy_chl -->
<g id="edge23" class="edge">
<title>mom6_bathy_grid&#45;&gt;mom6_bathy_chl</title><style>.edge>path:hover{stroke-width:8}</style>
<path fill="none" stroke="black" d="M520.43,-479.87C530.16,-469.17 542,-456.15 552.16,-444.98"/>
<polygon fill="#339966" stroke="black" points="554.72,-447.37 558.86,-437.61 549.54,-442.66 554.72,-447.37"/>
</g>
<!-- mom6_bathy_mapping&#45;&gt;case_py -->
<g id="edge24" class="edge">
<title>mom6_bathy_mapping&#45;&gt;case_py</title><style>.edge>path:hover{stroke-width:8}</style>
<path fill="none" stroke="black" d="M829.92,-478.42C816.72,-423.3 791.44,-281.02 854.98,-192.38 879.6,-158.03 919.43,-191.46 942.98,-156.38 954.72,-138.89 956.37,-125.26 942.98,-109 890.02,-44.67 784.54,-152.31 758.98,-73"/>
</g>
<!-- mom6_bathy_topo&#45;&gt;CrocoDash_topo -->
<g id="edge25" class="edge">
<title>mom6_bathy_topo&#45;&gt;CrocoDash_topo</title><style>.edge>path:hover{stroke-width:8}</style>
<path fill="none" stroke="black" d="M591.62,-486.04C551.53,-471.98 492.07,-451.13 450.66,-436.6"/>
<polygon fill="#309161" stroke="black" points="452.04,-433.38 441.44,-433.37 449.72,-439.98 452.04,-433.38"/>
</g>
<!-- mom6_bathy_topo&#45;&gt;mom6_bathy_chl -->
<g id="edge26" class="edge">
<title>mom6_bathy_topo&#45;&gt;mom6_bathy_chl</title><style>.edge>path:hover{stroke-width:8}</style>
<path fill="none" stroke="black" d="M618.9,-479.45C611.28,-469.11 602.11,-456.67 594.13,-445.85"/>
<polygon fill="#309161" stroke="black" points="597.14,-444.03 588.39,-438.06 591.51,-448.19 597.14,-444.03"/>
</g>
<!-- mom6_bathy_vgrid -->
<g id="node18" class="node">
<title>mom6_bathy_vgrid</title><style>.edge>path:hover{stroke-width:8}</style>
<ellipse fill="#4cb380" stroke="black" cx="57.98" cy="-585.63" rx="57.98" ry="23.69"/>
<text text-anchor="middle" x="57.98" y="-588.88" font-family="Helvetica,sans-Serif" font-size="10.00" fill="#000000">mom6_bathy.</text>
<text text-anchor="middle" x="57.98" y="-576.13" font-family="Helvetica,sans-Serif" font-size="10.00" fill="#000000">vgrid</text>
</g>
<!-- mom6_bathy_vgrid&#45;&gt;CrocoDash_vgrid -->
<g id="edge27" class="edge">
<title>mom6_bathy_vgrid&#45;&gt;CrocoDash_vgrid</title><style>.edge>path:hover{stroke-width:8}</style>
<path fill="none" stroke="black" d="M67.57,-562.07C79.58,-533.8 100.25,-485.15 114.02,-452.75"/>
<polygon fill="#4cb380" stroke="black" points="117.12,-454.4 117.81,-443.83 110.68,-451.66 117.12,-454.4"/>
</g>
<!-- mpi4py -->
<g id="node19" class="node">
<title>mpi4py</title><style>.edge>path:hover{stroke-width:8}</style>
<ellipse fill="#53b6b6" stroke="black" cx="827.98" cy="-663.32" rx="32.28" ry="18"/>
<text text-anchor="middle" x="827.98" y="-660.19" font-family="Helvetica,sans-Serif" font-size="10.00" fill="#000000">mpi4py</text>
</g>
<!-- mpi4py&#45;&gt;mom6_bathy_mapping -->
<g id="edge28" class="edge">
<title>mpi4py&#45;&gt;mom6_bathy_mapping</title><style>.edge>path:hover{stroke-width:8}</style>
<path fill="none" stroke="black" d="M851.33,-650.37C882.04,-633.83 931.31,-604.04 923.98,-586.63"/>
</g>
<!-- numpy -->
<g id="node20" class="node">
<title>numpy</title><style>.edge>path:hover{stroke-width:8}</style>
<ellipse fill="#067ff9" stroke="black" cx="655.98" cy="-836.73" rx="30.44" ry="18"/>
<text text-anchor="middle" x="655.98" y="-833.6" font-family="Helvetica,sans-Serif" font-size="10.00" fill="#ffffff">numpy</text>
</g>
<!-- numpy&#45;&gt;mom6_bathy_aux -->
<g id="edge29" class="edge">
<title>numpy&#45;&gt;mom6_bathy_aux</title><style>.edge>path:hover{stroke-width:8}</style>
<path fill="none" stroke="black" d="M653.65,-818.45C649.95,-787.26 644.28,-719.64 655.98,-664.32"/>
</g>
<!-- numpy&#45;&gt;mom6_bathy_chl -->
<g id="edge30" class="edge">
<title>numpy&#45;&gt;mom6_bathy_chl</title><style>.edge>path:hover{stroke-width:8}</style>
<path fill="none" stroke="black" d="M686.6,-834.96C797.6,-831.91 1174.37,-818.94 1212.98,-782.73 1251.86,-746.27 1231.98,-717.62 1231.98,-664.32 1231.98,-664.32 1231.98,-664.32 1231.98,-584.63 1231.98,-464.57 813.95,-431.22 644.79,-422.64"/>
<polygon fill="#067ff9" stroke="black" points="644.96,-419.14 634.8,-422.15 644.62,-426.13 644.96,-419.14"/>
</g>
<!-- numpy&#45;&gt;mom6_bathy_grid -->
<g id="edge31" class="edge">
<title>numpy&#45;&gt;mom6_bathy_grid</title><style>.edge>path:hover{stroke-width:8}</style>
<path fill="none" stroke="black" d="M391.98,-662.32C370.67,-636.3 380.8,-618.36 391.98,-586.63"/>
<path fill="none" stroke="black" d="M391.98,-584.63C401.5,-557.64 426.43,-537.97 450.05,-524.73"/>
<polygon fill="#067ff9" stroke="black" points="451.5,-527.93 458.71,-520.16 448.23,-521.74 451.5,-527.93"/>
</g>
<!-- numpy&#45;&gt;mom6_bathy_mapping -->
<g id="edge32" class="edge">
<title>numpy&#45;&gt;mom6_bathy_mapping</title><style>.edge>path:hover{stroke-width:8}</style>
<path fill="none" stroke="black" d="M686.86,-836.2C771.51,-836.83 1004.5,-833.77 1056.98,-782.73 1095.19,-745.56 1103.89,-709.73 1075.98,-664.32"/>
</g>
<!-- numpy&#45;&gt;mom6_bathy_topo -->
<g id="edge33" class="edge">
<title>numpy&#45;&gt;mom6_bathy_topo</title><style>.edge>path:hover{stroke-width:8}</style>
<path fill="none" stroke="black" d="M391.98,-662.32C361.17,-626.77 504.42,-558.52 584.32,-524.14"/>
<polygon fill="#067ff9" stroke="black" points="585.47,-527.46 593.29,-520.31 582.72,-521.02 585.47,-527.46"/>
</g>
<!-- numpy&#45;&gt;mom6_bathy_vgrid -->
<g id="edge34" class="edge">
<title>numpy&#45;&gt;mom6_bathy_vgrid</title><style>.edge>path:hover{stroke-width:8}</style>
<path fill="none" stroke="black" d="M625.6,-833.65C586.05,-829.6 516.38,-817.66 468.98,-782.73 418.45,-745.48 419.39,-720.79 391.98,-664.32"/>
<path fill="none" stroke="black" d="M391.98,-662.32C312.74,-570.9 241.86,-640.57 124.98,-609.32 120.51,-608.12 115.9,-606.79 111.3,-605.38"/>
<polygon fill="#067ff9" stroke="black" points="112.65,-602.14 102.06,-602.45 110.54,-608.81 112.65,-602.14"/>
</g>
<!-- scipy -->
<g id="node26" class="node">
<title>scipy</title><style>.edge>path:hover{stroke-width:8}</style>
<ellipse fill="#7a06ef" stroke="black" cx="504.98" cy="-750.02" rx="27" ry="18"/>
<text text-anchor="middle" x="504.98" y="-746.9" font-family="Helvetica,sans-Serif" font-size="10.00" fill="#ffffff">scipy</text>
</g>
<!-- numpy&#45;&gt;scipy -->
<g id="edge35" class="edge">
<title>numpy&#45;&gt;scipy</title><style>.edge>path:hover{stroke-width:8}</style>
<path fill="none" stroke="black" d="M630.67,-826.52C606.61,-817.22 569.91,-801.55 540.98,-782.73 536.62,-779.89 532.25,-776.55 528.13,-773.12"/>
<polygon fill="#067ff9" stroke="black" points="530.57,-770.61 520.75,-766.64 525.95,-775.87 530.57,-770.61"/>
</g>
<!-- ProConPy_config_var -->
<g id="node21" class="node">
<title>ProConPy_config_var</title><style>.edge>path:hover{stroke-width:8}</style>
<ellipse fill="#b68553" stroke="black" cx="534.98" cy="-132.69" rx="46.85" ry="23.69"/>
<text text-anchor="middle" x="534.98" y="-135.94" font-family="Helvetica,sans-Serif" font-size="10.00" fill="#000000">ProConPy.</text>
<text text-anchor="middle" x="534.98" y="-123.19" font-family="Helvetica,sans-Serif" font-size="10.00" fill="#000000">config_var</text>
</g>
<!-- ProConPy_config_var&#45;&gt;case_py -->
<g id="edge36" class="edge">
<title>ProConPy_config_var&#45;&gt;case_py</title><style>.edge>path:hover{stroke-width:8}</style>
<path fill="none" stroke="black" d="M569.9,-116.46C576.81,-113.75 584.06,-111.13 590.98,-109 627.48,-97.79 770.54,-109.39 758.98,-73"/>
</g>
<!-- ProConPy_csp_solver -->
<g id="node22" class="node">
<title>ProConPy_csp_solver</title><style>.edge>path:hover{stroke-width:8}</style>
<ellipse fill="#b68553" stroke="black" cx="647.98" cy="-132.69" rx="47.91" ry="23.69"/>
<text text-anchor="middle" x="647.98" y="-135.94" font-family="Helvetica,sans-Serif" font-size="10.00" fill="#000000">ProConPy.</text>
<text text-anchor="middle" x="647.98" y="-123.19" font-family="Helvetica,sans-Serif" font-size="10.00" fill="#000000">csp_solver</text>
</g>
<!-- ProConPy_csp_solver&#45;&gt;case_py -->
<g id="edge37" class="edge">
<title>ProConPy_csp_solver&#45;&gt;case_py</title><style>.edge>path:hover{stroke-width:8}</style>
<path fill="none" stroke="black" d="M683.9,-116.76C717.33,-102.29 761.63,-81.34 758.98,-73"/>
</g>
<!-- ProConPy_dev_utils -->
<g id="node23" class="node">
<title>ProConPy_dev_utils</title><style>.edge>path:hover{stroke-width:8}</style>
<ellipse fill="#b68553" stroke="black" cx="758.98" cy="-132.69" rx="45.25" ry="23.69"/>
<text text-anchor="middle" x="758.98" y="-135.94" font-family="Helvetica,sans-Serif" font-size="10.00" fill="#000000">ProConPy.</text>
<text text-anchor="middle" x="758.98" y="-123.19" font-family="Helvetica,sans-Serif" font-size="10.00" fill="#000000">dev_utils</text>
</g>
<!-- ProConPy_dev_utils&#45;&gt;case_py -->
<g id="edge38" class="edge">
<title>ProConPy_dev_utils&#45;&gt;case_py</title><style>.edge>path:hover{stroke-width:8}</style>
<path fill="none" stroke="black" d="M762.17,-108.62C762.9,-97.6 762.59,-84.36 758.98,-73"/>
</g>
<!-- ProConPy_stage -->
<g id="node24" class="node">
<title>ProConPy_stage</title><style>.edge>path:hover{stroke-width:8}</style>
<ellipse fill="#b68553" stroke="black" cx="877.98" cy="-132.69" rx="55.68" ry="18"/>
<text text-anchor="middle" x="877.98" y="-129.56" font-family="Helvetica,sans-Serif" font-size="10.00" fill="#000000">ProConPy.stage</text>
</g>
<!-- ProConPy_stage&#45;&gt;case_py -->
<g id="edge39" class="edge">
<title>ProConPy_stage&#45;&gt;case_py</title><style>.edge>path:hover{stroke-width:8}</style>
<path fill="none" stroke="black" d="M844.34,-118.02C810.17,-103.69 761.85,-82.03 758.98,-73"/>
</g>
<!-- regional_mom6 -->
<g id="node25" class="node">
<title>regional_mom6</title><style>.edge>path:hover{stroke-width:8}</style>
<ellipse fill="#4747c2" stroke="black" cx="306.98" cy="-585.63" rx="56.6" ry="18"/>
<text text-anchor="middle" x="306.98" y="-582.51" font-family="Helvetica,sans-Serif" font-size="10.00" fill="#ffffff">regional_mom6</text>
</g>
<!-- regional_mom6&#45;&gt;case_py -->
<g id="edge40" class="edge">
<title>regional_mom6&#45;&gt;case_py</title><style>.edge>path:hover{stroke-width:8}</style>
<path fill="none" stroke="black" d="M414.98,-501.26C422.75,-490.64 425.17,-488.33 433.98,-478.57 448.93,-462 458.93,-462.49 468.98,-442.57 492.34,-396.29 491.74,-379.19 487.98,-327.49"/>
</g>
<!-- regional_mom6&#45;&gt;CrocoDash_topo -->
<g id="edge41" class="edge">
<title>regional_mom6&#45;&gt;CrocoDash_topo</title><style>.edge>path:hover{stroke-width:8}</style>
<path fill="none" stroke="black" d="M335.06,-569.79C359.33,-555.64 393.76,-532.24 414.98,-503.26"/>
<path fill="none" stroke="black" d="M414.98,-501.26C426.26,-485.85 422.49,-464.34 416.3,-447.3"/>
<polygon fill="#4747c2" stroke="black" points="419.63,-446.19 412.6,-438.26 413.15,-448.84 419.63,-446.19"/>
</g>
<!-- scipy&#45;&gt;mom6_bathy_aux -->
<g id="edge42" class="edge">
<title>scipy&#45;&gt;mom6_bathy_aux</title><style>.edge>path:hover{stroke-width:8}</style>
<path fill="none" stroke="black" d="M519.61,-734.41C525.86,-728.63 533.44,-722.23 540.98,-717.32 588.15,-686.62 644.34,-719.38 655.98,-664.32"/>
<path fill="none" stroke="black" d="M655.98,-662.32C659.44,-645.98 654.25,-628.16 647.83,-613.92"/>
<polygon fill="#7a06ef" stroke="black" points="651.06,-612.56 643.47,-605.16 644.79,-615.67 651.06,-612.56"/>
</g>
<!-- scipy&#45;&gt;mom6_bathy_grid -->
<g id="edge43" class="edge">
<title>scipy&#45;&gt;mom6_bathy_grid</title><style>.edge>path:hover{stroke-width:8}</style>
<path fill="none" stroke="black" d="M491.42,-734.27C476.18,-717.56 450.84,-689.38 429.98,-664.32"/>
<path fill="none" stroke="black" d="M429.98,-662.32C405.91,-633.38 379.47,-622.13 391.98,-586.63"/>
</g>
<!-- scipy&#45;&gt;mom6_bathy_mapping -->
<g id="edge44" class="edge">
<title>scipy&#45;&gt;mom6_bathy_mapping</title><style>.edge>path:hover{stroke-width:8}</style>
<path fill="none" stroke="black" d="M518.36,-734.04C524.63,-727.92 532.57,-721.35 540.98,-717.32 625.6,-676.79 664.53,-722.18 748.98,-681.32 759.18,-676.38 757.63,-668.92 767.98,-664.32"/>
<path fill="none" stroke="black" d="M767.98,-662.32C778.34,-657.72 777.43,-651.41 786.98,-645.32 842.85,-609.72 949.68,-647.68 923.98,-586.63"/>
<path fill="none" stroke="black" d="M923.98,-584.63C914.41,-561.89 894.82,-542.75 876.55,-528.76"/>
<polygon fill="#7a06ef" stroke="black" points="879.09,-526.29 868.96,-523.21 874.96,-531.94 879.09,-526.29"/>
</g>
<!-- scipy&#45;&gt;mom6_bathy_topo -->
<g id="edge45" class="edge">
<title>scipy&#45;&gt;mom6_bathy_topo</title><style>.edge>path:hover{stroke-width:8}</style>
<path fill="none" stroke="black" d="M496.83,-732.64C487.58,-711.71 475.23,-674.67 486.98,-645.32 500.39,-611.85 527.25,-619.07 542.98,-586.63"/>
<path fill="none" stroke="black" d="M542.98,-584.63C553.2,-561.5 573.7,-542.33 592.75,-528.43"/>
<polygon fill="#7a06ef" stroke="black" points="594.49,-531.48 600.7,-522.89 590.49,-525.74 594.49,-531.48"/>
</g>
<!-- scipy_sparse -->
<g id="node27" class="node">
<title>scipy_sparse</title><style>.edge>path:hover{stroke-width:8}</style>
<ellipse fill="#7a3db8" stroke="black" cx="923.98" cy="-663.32" rx="46.04" ry="18"/>
<text text-anchor="middle" x="923.98" y="-660.19" font-family="Helvetica,sans-Serif" font-size="10.00" fill="#ffffff">scipy.sparse</text>
</g>
<!-- scipy_sparse&#45;&gt;mom6_bathy_mapping -->
<g id="edge46" class="edge">
<title>scipy_sparse&#45;&gt;mom6_bathy_mapping</title><style>.edge>path:hover{stroke-width:8}</style>
<path fill="none" stroke="black" d="M927.67,-645.04C930.22,-629.19 931.89,-605.4 923.98,-586.63"/>
</g>
<!-- scipy_sparse_coo_matrix -->
<g id="node28" class="node">
<title>scipy_sparse_coo_matrix</title><style>.edge>path:hover{stroke-width:8}</style>
<ellipse fill="#8553b6" stroke="black" cx="1153.98" cy="-750.02" rx="50.03" ry="32.7"/>
<text text-anchor="middle" x="1153.98" y="-759.65" font-family="Helvetica,sans-Serif" font-size="10.00" fill="#ffffff">scipy.</text>
<text text-anchor="middle" x="1153.98" y="-746.9" font-family="Helvetica,sans-Serif" font-size="10.00" fill="#ffffff">sparse.</text>
<text text-anchor="middle" x="1153.98" y="-734.15" font-family="Helvetica,sans-Serif" font-size="10.00" fill="#ffffff">coo_matrix</text>
</g>
<!-- scipy_sparse_coo_matrix&#45;&gt;mom6_bathy_mapping -->
<g id="edge47" class="edge">
<title>scipy_sparse_coo_matrix&#45;&gt;mom6_bathy_mapping</title><style>.edge>path:hover{stroke-width:8}</style>
<path fill="none" stroke="black" d="M1125.03,-723.02C1108.88,-707.3 1089.38,-686.12 1075.98,-664.32"/>
</g>
<!-- scipy_sparse_csc_matrix -->
<g id="node29" class="node">
<title>scipy_sparse_csc_matrix</title><style>.edge>path:hover{stroke-width:8}</style>
<ellipse fill="#8553b6" stroke="black" cx="998.98" cy="-750.02" rx="48.97" ry="32.7"/>
<text text-anchor="middle" x="998.98" y="-759.65" font-family="Helvetica,sans-Serif" font-size="10.00" fill="#ffffff">scipy.</text>
<text text-anchor="middle" x="998.98" y="-746.9" font-family="Helvetica,sans-Serif" font-size="10.00" fill="#ffffff">sparse.</text>
<text text-anchor="middle" x="998.98" y="-734.15" font-family="Helvetica,sans-Serif" font-size="10.00" fill="#ffffff">csc_matrix</text>
</g>
<!-- scipy_sparse_csc_matrix&#45;&gt;mom6_bathy_mapping -->
<g id="edge48" class="edge">
<title>scipy_sparse_csc_matrix&#45;&gt;mom6_bathy_mapping</title><style>.edge>path:hover{stroke-width:8}</style>
<path fill="none" stroke="black" d="M1037.56,-729.4C1063.81,-713.28 1091.23,-689.12 1075.98,-664.32"/>
<path fill="none" stroke="black" d="M1075.98,-662.32C1036.47,-598.02 953.26,-656.19 923.98,-586.63"/>
</g>
<!-- scipy_spatial -->
<g id="node30" class="node">
<title>scipy_spatial</title><style>.edge>path:hover{stroke-width:8}</style>
<ellipse fill="#7a24d0" stroke="black" cx="542.98" cy="-663.32" rx="46.5" ry="18"/>
<text text-anchor="middle" x="542.98" y="-660.19" font-family="Helvetica,sans-Serif" font-size="10.00" fill="#ffffff">scipy.spatial</text>
</g>
<!-- scipy_spatial&#45;&gt;mom6_bathy_grid -->
<g id="edge49" class="edge">
<title>scipy_spatial&#45;&gt;mom6_bathy_grid</title><style>.edge>path:hover{stroke-width:8}</style>
<path fill="none" stroke="black" d="M538.41,-644.99C531.6,-619.21 518.67,-570.23 509.93,-537.16"/>
<polygon fill="#7a24d0" stroke="black" points="513.36,-536.43 507.42,-527.65 506.59,-538.21 513.36,-536.43"/>
</g>
<!-- scipy_spatial&#45;&gt;mom6_bathy_mapping -->
<g id="edge50" class="edge">
<title>scipy_spatial&#45;&gt;mom6_bathy_mapping</title><style>.edge>path:hover{stroke-width:8}</style>
<path fill="none" stroke="black" d="M582.11,-653.35C615.28,-644.8 663.46,-630.15 701.98,-609.32 741.14,-588.15 780.43,-555.36 806.24,-531.84"/>
<polygon fill="#7a24d0" stroke="black" points="808.38,-534.64 813.35,-525.28 803.63,-529.5 808.38,-534.64"/>
</g>
<!-- scipy_spatial&#45;&gt;mom6_bathy_topo -->
<g id="edge51" class="edge">
<title>scipy_spatial&#45;&gt;mom6_bathy_topo</title><style>.edge>path:hover{stroke-width:8}</style>
<path fill="none" stroke="black" d="M539.13,-644.97C536.47,-629.07 534.73,-605.25 542.98,-586.63"/>
</g>
<!-- scipy_spatial_cKDTree -->
<g id="node31" class="node">
<title>scipy_spatial_cKDTree</title><style>.edge>path:hover{stroke-width:8}</style>
<ellipse fill="#853bce" stroke="black" cx="588.98" cy="-750.02" rx="39.42" ry="32.7"/>
<text text-anchor="middle" x="588.98" y="-759.65" font-family="Helvetica,sans-Serif" font-size="10.00" fill="#ffffff">scipy.</text>
<text text-anchor="middle" x="588.98" y="-746.9" font-family="Helvetica,sans-Serif" font-size="10.00" fill="#ffffff">spatial.</text>
<text text-anchor="middle" x="588.98" y="-734.15" font-family="Helvetica,sans-Serif" font-size="10.00" fill="#ffffff">cKDTree</text>
</g>
<!-- scipy_spatial_cKDTree&#45;&gt;mom6_bathy_grid -->
<g id="edge52" class="edge">
<title>scipy_spatial_cKDTree&#45;&gt;mom6_bathy_grid</title><style>.edge>path:hover{stroke-width:8}</style>
<path fill="none" stroke="black" d="M558.91,-728.25C553.05,-724.47 546.89,-720.66 540.98,-717.32 493.39,-690.41 464.95,-706.34 429.98,-664.32"/>
</g>
<!-- scipy_spatial_cKDTree&#45;&gt;mom6_bathy_mapping -->
<g id="edge53" class="edge">
<title>scipy_spatial_cKDTree&#45;&gt;mom6_bathy_mapping</title><style>.edge>path:hover{stroke-width:8}</style>
<path fill="none" stroke="black" d="M625.61,-737.41C659.17,-725.89 709.5,-706.35 748.98,-681.32 758.55,-675.25 757.63,-668.92 767.98,-664.32"/>
</g>
<!-- scipy_spatial_cKDTree&#45;&gt;mom6_bathy_topo -->
<g id="edge54" class="edge">
<title>scipy_spatial_cKDTree&#45;&gt;mom6_bathy_topo</title><style>.edge>path:hover{stroke-width:8}</style>
<path fill="none" stroke="black" d="M599.47,-718.35C604.97,-697.06 608.76,-668.48 598.98,-645.32 584.96,-612.11 528.37,-619.59 542.98,-586.63"/>
</g>
<!-- visualCaseGen_cime_interface -->
<g id="node32" class="node">
<title>visualCaseGen_cime_interface</title><style>.edge>path:hover{stroke-width:8}</style>
<ellipse fill="#b653b6" stroke="black" cx="1054.98" cy="-132.69" rx="64.88" ry="23.69"/>
<text text-anchor="middle" x="1054.98" y="-135.94" font-family="Helvetica,sans-Serif" font-size="10.00" fill="#ffffff">visualCaseGen.</text>
<text text-anchor="middle" x="1054.98" y="-123.19" font-family="Helvetica,sans-Serif" font-size="10.00" fill="#ffffff">cime_interface</text>
</g>
<!-- visualCaseGen_cime_interface&#45;&gt;case_py -->
<g id="edge55" class="edge">
<title>visualCaseGen_cime_interface&#45;&gt;case_py</title><style>.edge>path:hover{stroke-width:8}</style>
<path fill="none" stroke="black" d="M1006.33,-116.76C996.34,-113.97 985.87,-111.23 975.98,-109 928.3,-98.24 773.78,-119.59 758.98,-73"/>
</g>
<!-- visualCaseGen_custom_widget_types_case_creator -->
<g id="node33" class="node">
<title>visualCaseGen_custom_widget_types_case_creator</title><style>.edge>path:hover{stroke-width:8}</style>
<ellipse fill="#b653b6" stroke="black" cx="952.98" cy="-225.08" rx="88.74" ry="32.7"/>
<text text-anchor="middle" x="952.98" y="-234.7" font-family="Helvetica,sans-Serif" font-size="10.00" fill="#ffffff">visualCaseGen.</text>
<text text-anchor="middle" x="952.98" y="-221.95" font-family="Helvetica,sans-Serif" font-size="10.00" fill="#ffffff">custom_widget_types.</text>
<text text-anchor="middle" x="952.98" y="-209.2" font-family="Helvetica,sans-Serif" font-size="10.00" fill="#ffffff">case_creator</text>
</g>
<!-- visualCaseGen_custom_widget_types_case_creator&#45;&gt;case_py -->
<g id="edge56" class="edge">
<title>visualCaseGen_custom_widget_types_case_creator&#45;&gt;case_py</title><style>.edge>path:hover{stroke-width:8}</style>
<path fill="none" stroke="black" d="M1018.52,-202.71C1060.54,-188.29 1110.54,-169.56 1128.98,-156.38 1139.68,-148.73 1151.9,-146.24 1147.98,-133.69"/>
<path fill="none" stroke="black" d="M1147.98,-131.69C1144.06,-119.13 1140.62,-115.14 1128.98,-109 1055.91,-70.46 783.99,-151.73 758.98,-73"/>
</g>
<!-- visualCaseGen_custom_widget_types_case_tools -->
<g id="node34" class="node">
<title>visualCaseGen_custom_widget_types_case_tools</title><style>.edge>path:hover{stroke-width:8}</style>
<ellipse fill="#b653b6" stroke="black" cx="1147.98" cy="-225.08" rx="88.74" ry="32.7"/>
<text text-anchor="middle" x="1147.98" y="-234.7" font-family="Helvetica,sans-Serif" font-size="10.00" fill="#ffffff">visualCaseGen.</text>
<text text-anchor="middle" x="1147.98" y="-221.95" font-family="Helvetica,sans-Serif" font-size="10.00" fill="#ffffff">custom_widget_types.</text>
<text text-anchor="middle" x="1147.98" y="-209.2" font-family="Helvetica,sans-Serif" font-size="10.00" fill="#ffffff">case_tools</text>
</g>
<!-- visualCaseGen_custom_widget_types_case_tools&#45;&gt;case_py -->
<g id="edge57" class="edge">
<title>visualCaseGen_custom_widget_types_case_tools&#45;&gt;case_py</title><style>.edge>path:hover{stroke-width:8}</style>
<path fill="none" stroke="black" d="M1152.57,-192.01C1153.96,-174.4 1153.83,-152.41 1147.98,-133.69"/>
</g>
<!-- visualCaseGen_initialize_configvars -->
<g id="node35" class="node">
<title>visualCaseGen_initialize_configvars</title><style>.edge>path:hover{stroke-width:8}</style>
<ellipse fill="#b653b6" stroke="black" cx="1255.98" cy="-132.69" rx="80.26" ry="23.69"/>
<text text-anchor="middle" x="1255.98" y="-135.94" font-family="Helvetica,sans-Serif" font-size="10.00" fill="#ffffff">visualCaseGen.</text>
<text text-anchor="middle" x="1255.98" y="-123.19" font-family="Helvetica,sans-Serif" font-size="10.00" fill="#ffffff">initialize_configvars</text>
</g>
<!-- visualCaseGen_initialize_configvars&#45;&gt;case_py -->
<g id="edge58" class="edge">
<title>visualCaseGen_initialize_configvars&#45;&gt;case_py</title><style>.edge>path:hover{stroke-width:8}</style>
<path fill="none" stroke="black" d="M1197.34,-116.12C1185.69,-113.43 1173.5,-110.89 1161.98,-109 1117.62,-101.71 772.59,-115.85 758.98,-73"/>
</g>
<!-- visualCaseGen_initialize_stages -->
<g id="node36" class="node">
<title>visualCaseGen_initialize_stages</title><style>.edge>path:hover{stroke-width:8}</style>
<ellipse fill="#b653b6" stroke="black" cx="1421.98" cy="-132.69" rx="67.53" ry="23.69"/>
<text text-anchor="middle" x="1421.98" y="-135.94" font-family="Helvetica,sans-Serif" font-size="10.00" fill="#ffffff">visualCaseGen.</text>
<text text-anchor="middle" x="1421.98" y="-123.19" font-family="Helvetica,sans-Serif" font-size="10.00" fill="#ffffff">initialize_stages</text>
</g>
<!-- visualCaseGen_initialize_stages&#45;&gt;case_py -->
<g id="edge59" class="edge">
<title>visualCaseGen_initialize_stages&#45;&gt;case_py</title><style>.edge>path:hover{stroke-width:8}</style>
<path fill="none" stroke="black" d="M1373.91,-115.72C1364.41,-113.08 1354.45,-110.66 1344.98,-109 1312.86,-103.35 768.86,-104.09 758.98,-73"/>
</g>
<!-- visualCaseGen_initialize_widgets -->
<g id="node37" class="node">
<title>visualCaseGen_initialize_widgets</title><style>.edge>path:hover{stroke-width:8}</style>
<ellipse fill="#b653b6" stroke="black" cx="1578.98" cy="-132.69" rx="71.77" ry="23.69"/>
<text text-anchor="middle" x="1578.98" y="-135.94" font-family="Helvetica,sans-Serif" font-size="10.00" fill="#ffffff">visualCaseGen.</text>
<text text-anchor="middle" x="1578.98" y="-123.19" font-family="Helvetica,sans-Serif" font-size="10.00" fill="#ffffff">initialize_widgets</text>
</g>
<!-- visualCaseGen_initialize_widgets&#45;&gt;case_py -->
<g id="edge60" class="edge">
<title>visualCaseGen_initialize_widgets&#45;&gt;case_py</title><style>.edge>path:hover{stroke-width:8}</style>
<path fill="none" stroke="black" d="M1528.59,-115.52C1518.86,-112.93 1508.67,-110.59 1498.98,-109 1458.37,-102.34 771.44,-112.23 758.98,-73"/>
</g>
<!-- visualCaseGen_specs_options -->
<g id="node38" class="node">
<title>visualCaseGen_specs_options</title><style>.edge>path:hover{stroke-width:8}</style>
<ellipse fill="#b653b6" stroke="black" cx="1509.98" cy="-225.08" rx="64.88" ry="32.7"/>
<text text-anchor="middle" x="1509.98" y="-234.7" font-family="Helvetica,sans-Serif" font-size="10.00" fill="#ffffff">visualCaseGen.</text>
<text text-anchor="middle" x="1509.98" y="-221.95" font-family="Helvetica,sans-Serif" font-size="10.00" fill="#ffffff">specs.</text>
<text text-anchor="middle" x="1509.98" y="-209.2" font-family="Helvetica,sans-Serif" font-size="10.00" fill="#ffffff">options</text>
</g>
<!-- visualCaseGen_specs_options&#45;&gt;case_py -->
<g id="edge61" class="edge">
<title>visualCaseGen_specs_options&#45;&gt;case_py</title><style>.edge>path:hover{stroke-width:8}</style>
<path fill="none" stroke="black" d="M1558.33,-202.88C1600.46,-184.3 1655.53,-159.75 1659.98,-156.38 1670.46,-148.43 1683.89,-145.89 1678.98,-133.69"/>
<path fill="none" stroke="black" d="M1678.98,-131.69C1674.08,-119.49 1671.79,-114.8 1659.98,-109 1615.02,-86.9 774.15,-120.74 758.98,-73"/>
</g>
<!-- visualCaseGen_specs_relational_constraints -->
<g id="node39" class="node">
<title>visualCaseGen_specs_relational_constraints</title><style>.edge>path:hover{stroke-width:8}</style>
<ellipse fill="#b653b6" stroke="black" cx="1678.98" cy="-225.08" rx="86.09" ry="32.7"/>
<text text-anchor="middle" x="1678.98" y="-234.7" font-family="Helvetica,sans-Serif" font-size="10.00" fill="#ffffff">visualCaseGen.</text>
<text text-anchor="middle" x="1678.98" y="-221.95" font-family="Helvetica,sans-Serif" font-size="10.00" fill="#ffffff">specs.</text>
<text text-anchor="middle" x="1678.98" y="-209.2" font-family="Helvetica,sans-Serif" font-size="10.00" fill="#ffffff">relational_constraints</text>
</g>
<!-- visualCaseGen_specs_relational_constraints&#45;&gt;case_py -->
<g id="edge62" class="edge">
<title>visualCaseGen_specs_relational_constraints&#45;&gt;case_py</title><style>.edge>path:hover{stroke-width:8}</style>
<path fill="none" stroke="black" d="M1684.69,-192.02C1686.48,-174.22 1686.36,-152.03 1678.98,-133.69"/>
</g>
<!-- xesmf -->
<g id="node40" class="node">
<title>xesmf</title><style>.edge>path:hover{stroke-width:8}</style>
<ellipse fill="#d92680" stroke="black" cx="711.98" cy="-663.32" rx="28.15" ry="18"/>
<text text-anchor="middle" x="711.98" y="-660.19" font-family="Helvetica,sans-Serif" font-size="10.00" fill="#ffffff">xesmf</text>
</g>
<!-- xesmf&#45;&gt;mom6_bathy_chl -->
<g id="edge63" class="edge">
<title>xesmf&#45;&gt;mom6_bathy_chl</title><style>.edge>path:hover{stroke-width:8}</style>
<path fill="none" stroke="black" d="M733.01,-651.17C753.98,-638.67 784.78,-616.22 796.98,-586.63"/>
<path fill="none" stroke="black" d="M796.98,-584.63C812.91,-546.02 764.77,-542.32 749.98,-503.26"/>
</g>
<!-- xesmf&#45;&gt;mom6_bathy_mapping -->
<g id="edge64" class="edge">
<title>xesmf&#45;&gt;mom6_bathy_mapping</title><style>.edge>path:hover{stroke-width:8}</style>
<path fill="none" stroke="black" d="M796.98,-584.63C803.71,-568.32 812.07,-550.6 819.32,-535.88"/>
<polygon fill="#d92680" stroke="black" points="822.37,-537.62 823.69,-527.1 816.1,-534.49 822.37,-537.62"/>
</g>
<!-- xesmf&#45;&gt;mom6_bathy_topo -->
<g id="edge65" class="edge">
<title>xesmf&#45;&gt;mom6_bathy_topo</title><style>.edge>path:hover{stroke-width:8}</style>
<path fill="none" stroke="black" d="M713.97,-644.91C715.55,-623.99 715.61,-588.41 701.98,-561.94 695.62,-549.59 685.48,-538.68 674.98,-529.72"/>
<polygon fill="#d92680" stroke="black" points="677.34,-527.12 667.34,-523.61 672.97,-532.59 677.34,-527.12"/>
</g>
</g>
</svg>
