<?xml version="1.0" encoding="UTF-8" standalone="no"?>
<!DOCTYPE svg PUBLIC "-//W3C//DTD SVG 1.1//EN"
 "http://www.w3.org/Graphics/SVG/1.1/DTD/svg11.dtd">
<!-- Generated by graphviz version 12.2.1 (20250203.1708)
 -->
<!-- Title: G Pages: 1 -->
<svg width="1825pt" height="863pt"
 viewBox="0.00 0.00 1825.00 862.73" xmlns="http://www.w3.org/2000/svg" xmlns:xlink="http://www.w3.org/1999/xlink">
<g id="graph0" class="graph" transform="scale(1 1) rotate(0) translate(4 858.73)">
<title>G</title><style>.edge>path:hover{stroke-width:8}</style>
<polygon fill="white" stroke="none" points="-4,4 -4,-858.73 1821,-858.73 1821,4 -4,4"/>
<!-- case_py -->
<g id="node1" class="node">
<title>case_py</title><style>.edge>path:hover{stroke-width:8}</style>
<ellipse fill="#636035" stroke="black" cx="810.91" cy="-18" rx="32.73" ry="18"/>
<text text-anchor="middle" x="810.91" y="-14.88" font-family="Helvetica,sans-Serif" font-size="10.00" fill="#ffffff">case.py</text>
</g>
<!-- CrocoDash -->
<g id="node2" class="node">
<title>CrocoDash</title><style>.edge>path:hover{stroke-width:8}</style>
<ellipse fill="#c24747" stroke="black" cx="41.91" cy="-132.69" rx="41.91" ry="18"/>
<text text-anchor="middle" x="41.91" y="-129.56" font-family="Helvetica,sans-Serif" font-size="10.00" fill="#ffffff">CrocoDash</text>
</g>
<!-- CrocoDash&#45;&gt;case_py -->
<g id="edge1" class="edge">
<title>CrocoDash&#45;&gt;case_py</title><style>.edge>path:hover{stroke-width:8}</style>
<path fill="none" stroke="black" d="M68.96,-118.61C77.96,-114.83 88.18,-111.15 97.91,-109 136.64,-100.43 808.87,-112.61 810.91,-73"/>
<path fill="none" stroke="black" d="M810.91,-72C811.32,-64.07 811.45,-55.46 811.45,-47.53"/>
<polygon fill="#c24747" stroke="black" points="814.95,-47.68 811.37,-37.71 807.95,-47.74 814.95,-47.68"/>
</g>
<!-- CrocoDash_grid -->
<g id="node3" class="node">
<title>CrocoDash_grid</title><style>.edge>path:hover{stroke-width:8}</style>
<ellipse fill="#b83d3d" stroke="black" cx="284.91" cy="-418.88" rx="55.22" ry="18"/>
<text text-anchor="middle" x="284.91" y="-415.75" font-family="Helvetica,sans-Serif" font-size="10.00" fill="#ffffff">CrocoDash.grid</text>
</g>
<!-- CrocoDash_grid&#45;&gt;case_py -->
<g id="edge2" class="edge">
<title>CrocoDash_grid&#45;&gt;case_py</title><style>.edge>path:hover{stroke-width:8}</style>
<path fill="none" stroke="black" d="M470.91,-325.49C473.12,-309.24 473.3,-274.29 388.91,-192.38 357.01,-161.41 278.4,-166.94 307.91,-133.69"/>
</g>
<!-- CrocoDash_raw_data_access_driver -->
<g id="node6" class="node">
<title>CrocoDash_raw_data_access_driver</title><style>.edge>path:hover{stroke-width:8}</style>
<ellipse fill="#964040" stroke="black" cx="307.91" cy="-225.08" rx="72.3" ry="32.7"/>
<text text-anchor="middle" x="307.91" y="-234.7" font-family="Helvetica,sans-Serif" font-size="10.00" fill="#ffffff">CrocoDash.</text>
<text text-anchor="middle" x="307.91" y="-221.95" font-family="Helvetica,sans-Serif" font-size="10.00" fill="#ffffff">raw_data_access.</text>
<text text-anchor="middle" x="307.91" y="-209.2" font-family="Helvetica,sans-Serif" font-size="10.00" fill="#ffffff">driver</text>
</g>
<!-- CrocoDash_grid&#45;&gt;CrocoDash_raw_data_access_driver -->
<g id="edge3" class="edge">
<title>CrocoDash_grid&#45;&gt;CrocoDash_raw_data_access_driver</title><style>.edge>path:hover{stroke-width:8}</style>
<path fill="none" stroke="black" d="M323.75,-405.77C369.81,-391.17 441.67,-367.55 451.91,-359.19 464.64,-348.81 468.7,-343.76 470.91,-327.49"/>
<path fill="none" stroke="black" d="M470.91,-325.49C473.13,-309.21 464.1,-304.8 451.91,-293.78 439.02,-282.12 403.99,-265.56 371.71,-251.73"/>
<polygon fill="#b83d3d" stroke="black" points="373.32,-248.62 362.75,-247.94 370.59,-255.06 373.32,-248.62"/>
</g>
<!-- CrocoDash_raw_data_access -->
<g id="node4" class="node">
<title>CrocoDash_raw_data_access</title><style>.edge>path:hover{stroke-width:8}</style>
<ellipse fill="#c24747" stroke="black" cx="209.91" cy="-132.69" rx="70.18" ry="23.69"/>
<text text-anchor="middle" x="209.91" y="-135.94" font-family="Helvetica,sans-Serif" font-size="10.00" fill="#ffffff">CrocoDash.</text>
<text text-anchor="middle" x="209.91" y="-123.19" font-family="Helvetica,sans-Serif" font-size="10.00" fill="#ffffff">raw_data_access</text>
</g>
<!-- CrocoDash_raw_data_access&#45;&gt;case_py -->
<g id="edge4" class="edge">
<title>CrocoDash_raw_data_access&#45;&gt;case_py</title><style>.edge>path:hover{stroke-width:8}</style>
<path fill="none" stroke="black" d="M261.09,-116.17C271.85,-113.39 283.19,-110.8 293.91,-109 322.31,-104.22 809.43,-101.75 810.91,-73"/>
</g>
<!-- CrocoDash_raw_data_access_config -->
<g id="node5" class="node">
<title>CrocoDash_raw_data_access_config</title><style>.edge>path:hover{stroke-width:8}</style>
<ellipse fill="#c24747" stroke="black" cx="207.91" cy="-326.49" rx="72.3" ry="32.7"/>
<text text-anchor="middle" x="207.91" y="-336.11" font-family="Helvetica,sans-Serif" font-size="10.00" fill="#ffffff">CrocoDash.</text>
<text text-anchor="middle" x="207.91" y="-323.36" font-family="Helvetica,sans-Serif" font-size="10.00" fill="#ffffff">raw_data_access.</text>
<text text-anchor="middle" x="207.91" y="-310.61" font-family="Helvetica,sans-Serif" font-size="10.00" fill="#ffffff">config</text>
</g>
<!-- CrocoDash_raw_data_access_config&#45;&gt;case_py -->
<g id="edge5" class="edge">
<title>CrocoDash_raw_data_access_config&#45;&gt;case_py</title><style>.edge>path:hover{stroke-width:8}</style>
<path fill="none" stroke="black" d="M198.83,-293.76C194.77,-272.56 193.66,-245.16 207.91,-226.08"/>
</g>
<!-- CrocoDash_raw_data_access_config&#45;&gt;CrocoDash_raw_data_access_driver -->
<g id="edge6" class="edge">
<title>CrocoDash_raw_data_access_config&#45;&gt;CrocoDash_raw_data_access_driver</title><style>.edge>path:hover{stroke-width:8}</style>
<path fill="none" stroke="black" d="M237.38,-296.2C247.75,-285.89 259.55,-274.15 270.5,-263.27"/>
<polygon fill="#c24747" stroke="black" points="272.96,-265.76 277.59,-256.23 268.03,-260.79 272.96,-265.76"/>
</g>
<!-- CrocoDash_raw_data_access_driver&#45;&gt;case_py -->
<g id="edge7" class="edge">
<title>CrocoDash_raw_data_access_driver&#45;&gt;case_py</title><style>.edge>path:hover{stroke-width:8}</style>
<path fill="none" stroke="black" d="M298.32,-192.34C294.6,-173.09 294.06,-149.3 307.91,-133.69"/>
</g>
<!-- CrocoDash_raw_data_access_utils -->
<g id="node7" class="node">
<title>CrocoDash_raw_data_access_utils</title><style>.edge>path:hover{stroke-width:8}</style>
<ellipse fill="#b65353" stroke="black" cx="370.91" cy="-326.49" rx="72.3" ry="32.7"/>
<text text-anchor="middle" x="370.91" y="-336.11" font-family="Helvetica,sans-Serif" font-size="10.00" fill="#ffffff">CrocoDash.</text>
<text text-anchor="middle" x="370.91" y="-323.36" font-family="Helvetica,sans-Serif" font-size="10.00" fill="#ffffff">raw_data_access.</text>
<text text-anchor="middle" x="370.91" y="-310.61" font-family="Helvetica,sans-Serif" font-size="10.00" fill="#ffffff">utils</text>
</g>
<!-- CrocoDash_raw_data_access_utils&#45;&gt;CrocoDash_raw_data_access_driver -->
<g id="edge8" class="edge">
<title>CrocoDash_raw_data_access_utils&#45;&gt;CrocoDash_raw_data_access_driver</title><style>.edge>path:hover{stroke-width:8}</style>
<path fill="none" stroke="black" d="M351.32,-294.58C345.69,-285.7 339.47,-275.87 333.53,-266.51"/>
<polygon fill="#b65353" stroke="black" points="336.61,-264.82 328.3,-258.25 330.7,-268.57 336.61,-264.82"/>
</g>
<!-- CrocoDash_topo -->
<g id="node8" class="node">
<title>CrocoDash_topo</title><style>.edge>path:hover{stroke-width:8}</style>
<ellipse fill="#a44646" stroke="black" cx="426.91" cy="-418.88" rx="57.06" ry="18"/>
<text text-anchor="middle" x="426.91" y="-415.75" font-family="Helvetica,sans-Serif" font-size="10.00" fill="#ffffff">CrocoDash.topo</text>
</g>
<!-- CrocoDash_topo&#45;&gt;case_py -->
<g id="edge9" class="edge">
<title>CrocoDash_topo&#45;&gt;case_py</title><style>.edge>path:hover{stroke-width:8}</style>
<path fill="none" stroke="black" d="M455.27,-402.95C480.04,-387.64 512.03,-361.31 511.91,-327.49"/>
<path fill="none" stroke="black" d="M511.91,-325.49C511.56,-228.9 464.01,-178.66 530.91,-109 574.37,-63.75 807.68,-135.65 810.91,-73"/>
</g>
<!-- CrocoDash_vgrid -->
<g id="node9" class="node">
<title>CrocoDash_vgrid</title><style>.edge>path:hover{stroke-width:8}</style>
<ellipse fill="#ac4949" stroke="black" cx="148.91" cy="-418.88" rx="50.56" ry="23.69"/>
<text text-anchor="middle" x="148.91" y="-422.13" font-family="Helvetica,sans-Serif" font-size="10.00" fill="#ffffff">CrocoDash.</text>
<text text-anchor="middle" x="148.91" y="-409.38" font-family="Helvetica,sans-Serif" font-size="10.00" fill="#ffffff">vgrid</text>
</g>
<!-- CrocoDash_vgrid&#45;&gt;case_py -->
<g id="edge10" class="edge">
<title>CrocoDash_vgrid&#45;&gt;case_py</title><style>.edge>path:hover{stroke-width:8}</style>
<path fill="none" stroke="black" d="M137.38,-395.77C125.69,-370.12 111.35,-327.08 126.91,-293.78 146.78,-251.28 179.84,-263.67 207.91,-226.08"/>
<path fill="none" stroke="black" d="M207.91,-224.08C217.32,-210.61 215.22,-203.91 226.91,-192.38 249.6,-170 264.54,-176.9 288.91,-156.38 298.97,-147.9 299.36,-143.68 307.91,-133.69"/>
<path fill="none" stroke="black" d="M307.91,-131.69C316.47,-121.7 315.21,-115 326.91,-109 374.9,-84.39 808.24,-126.86 810.91,-73"/>
</g>
<!-- driver -->
<g id="node10" class="node">
<title>driver</title><style>.edge>path:hover{stroke-width:8}</style>
<ellipse fill="#90b653" stroke="black" cx="362.91" cy="-132.69" rx="27.23" ry="18"/>
<text text-anchor="middle" x="362.91" y="-129.56" font-family="Helvetica,sans-Serif" font-size="10.00" fill="#000000">driver</text>
</g>
<!-- driver&#45;&gt;case_py -->
<g id="edge11" class="edge">
<title>driver&#45;&gt;case_py</title><style>.edge>path:hover{stroke-width:8}</style>
<path fill="none" stroke="black" d="M380.38,-118.35C386.01,-114.71 392.47,-111.17 398.91,-109 442.46,-94.34 808.55,-118.89 810.91,-73"/>
</g>
<!-- eo_driver -->
<g id="node11" class="node">
<title>eo_driver</title><style>.edge>path:hover{stroke-width:8}</style>
<ellipse fill="#63b653" stroke="black" cx="445.91" cy="-132.69" rx="37.78" ry="18"/>
<text text-anchor="middle" x="445.91" y="-129.56" font-family="Helvetica,sans-Serif" font-size="10.00" fill="#000000">eo_driver</text>
</g>
<!-- eo_driver&#45;&gt;case_py -->
<g id="edge12" class="edge">
<title>eo_driver&#45;&gt;case_py</title><style>.edge>path:hover{stroke-width:8}</style>
<path fill="none" stroke="black" d="M471.02,-118.94C479.39,-115.18 488.88,-111.43 497.91,-109 531.72,-99.9 809.11,-107.96 810.91,-73"/>
</g>
<!-- esmpy -->
<g id="node12" class="node">
<title>esmpy</title><style>.edge>path:hover{stroke-width:8}</style>
<ellipse fill="#40c067" stroke="black" cx="1039.91" cy="-663.32" rx="29.98" ry="18"/>
<text text-anchor="middle" x="1039.91" y="-660.19" font-family="Helvetica,sans-Serif" font-size="10.00" fill="#000000">esmpy</text>
</g>
<!-- mom6_bathy_mapping -->
<g id="node17" class="node">
<title>mom6_bathy_mapping</title><style>.edge>path:hover{stroke-width:8}</style>
<ellipse fill="#2e6b5d" stroke="black" cx="887.91" cy="-502.26" rx="57.98" ry="23.69"/>
<text text-anchor="middle" x="887.91" y="-505.51" font-family="Helvetica,sans-Serif" font-size="10.00" fill="#ffffff">mom6_bathy.</text>
<text text-anchor="middle" x="887.91" y="-492.76" font-family="Helvetica,sans-Serif" font-size="10.00" fill="#ffffff">mapping</text>
</g>
<!-- esmpy&#45;&gt;mom6_bathy_mapping -->
<g id="edge13" class="edge">
<title>esmpy&#45;&gt;mom6_bathy_mapping</title><style>.edge>path:hover{stroke-width:8}</style>
<path fill="none" stroke="black" d="M1015.66,-652.54C991.26,-641.05 955.88,-619.3 945.91,-586.63"/>
</g>
<!-- mom6_bathy -->
<g id="node13" class="node">
<title>mom6_bathy</title><style>.edge>path:hover{stroke-width:8}</style>
<ellipse fill="#10f9c3" stroke="black" cx="204.91" cy="-585.63" rx="49.26" ry="18"/>
<text text-anchor="middle" x="204.91" y="-582.51" font-family="Helvetica,sans-Serif" font-size="10.00" fill="#000000">mom6_bathy</text>
</g>
<!-- mom6_bathy&#45;&gt;case_py -->
<g id="edge14" class="edge">
<title>mom6_bathy&#45;&gt;case_py</title><style>.edge>path:hover{stroke-width:8}</style>
<path fill="none" stroke="black" d="M184.42,-568.98C167.39,-553.96 146.31,-529.71 148.91,-503.26"/>
<path fill="none" stroke="black" d="M148.91,-501.26C152.57,-464.13 103.38,-476.95 88.91,-442.57 68.44,-393.91 35.45,-195.99 130.91,-109 186.84,-58.04 806.67,-148.54 810.91,-73"/>
</g>
<!-- mom6_bathy&#45;&gt;CrocoDash_grid -->
<g id="edge15" class="edge">
<title>mom6_bathy&#45;&gt;CrocoDash_grid</title><style>.edge>path:hover{stroke-width:8}</style>
<path fill="none" stroke="black" d="M148.91,-501.26C151.01,-479.92 200.96,-454.4 239.72,-437.7"/>
<polygon fill="#10f9c3" stroke="black" points="241.06,-440.94 248.91,-433.82 238.34,-434.49 241.06,-440.94"/>
</g>
<!-- mom6_bathy&#45;&gt;CrocoDash_topo -->
<g id="edge16" class="edge">
<title>mom6_bathy&#45;&gt;CrocoDash_topo</title><style>.edge>path:hover{stroke-width:8}</style>
<path fill="none" stroke="black" d="M148.91,-501.26C148.95,-500.89 294.56,-458.43 375,-434.99"/>
<polygon fill="#10f9c3" stroke="black" points="375.82,-438.4 384.45,-432.24 373.87,-431.68 375.82,-438.4"/>
</g>
<!-- mom6_bathy&#45;&gt;CrocoDash_vgrid -->
<g id="edge17" class="edge">
<title>mom6_bathy&#45;&gt;CrocoDash_vgrid</title><style>.edge>path:hover{stroke-width:8}</style>
<path fill="none" stroke="black" d="M148.91,-501.26C150.44,-485.72 150.65,-468.44 150.39,-453.82"/>
<polygon fill="#10f9c3" stroke="black" points="153.9,-454.16 150.15,-444.25 146.91,-454.34 153.9,-454.16"/>
</g>
<!-- mom6_bathy_aux -->
<g id="node14" class="node">
<title>mom6_bathy_aux</title><style>.edge>path:hover{stroke-width:8}</style>
<ellipse fill="#24d0a9" stroke="black" cx="653.91" cy="-585.63" rx="61.19" ry="18"/>
<text text-anchor="middle" x="653.91" y="-582.51" font-family="Helvetica,sans-Serif" font-size="10.00" fill="#000000">mom6_bathy.aux</text>
</g>
<!-- mom6_bathy_chl -->
<g id="node15" class="node">
<title>mom6_bathy_chl</title><style>.edge>path:hover{stroke-width:8}</style>
<ellipse fill="#3d8f7c" stroke="black" cx="598.91" cy="-418.88" rx="58.89" ry="18"/>
<text text-anchor="middle" x="598.91" y="-415.75" font-family="Helvetica,sans-Serif" font-size="10.00" fill="#ffffff">mom6_bathy.chl</text>
</g>
<!-- mom6_bathy_aux&#45;&gt;mom6_bathy_chl -->
<g id="edge18" class="edge">
<title>mom6_bathy_aux&#45;&gt;mom6_bathy_chl</title><style>.edge>path:hover{stroke-width:8}</style>
<path fill="none" stroke="black" d="M708.9,-577.42C755.69,-568.16 813.6,-547.63 801.91,-503.26"/>
<path fill="none" stroke="black" d="M801.91,-501.26C787.61,-446.95 722.08,-428.23 669.28,-422.11"/>
<polygon fill="#24d0a9" stroke="black" points="669.7,-418.63 659.4,-421.11 668.99,-425.6 669.7,-418.63"/>
</g>
<!-- mom6_bathy_grid -->
<g id="node16" class="node">
<title>mom6_bathy_grid</title><style>.edge>path:hover{stroke-width:8}</style>
<ellipse fill="#339981" stroke="black" cx="521.91" cy="-502.26" rx="57.98" ry="23.69"/>
<text text-anchor="middle" x="521.91" y="-505.51" font-family="Helvetica,sans-Serif" font-size="10.00" fill="#ffffff">mom6_bathy.</text>
<text text-anchor="middle" x="521.91" y="-492.76" font-family="Helvetica,sans-Serif" font-size="10.00" fill="#ffffff">grid</text>
</g>
<!-- mom6_bathy_aux&#45;&gt;mom6_bathy_grid -->
<g id="edge19" class="edge">
<title>mom6_bathy_aux&#45;&gt;mom6_bathy_grid</title><style>.edge>path:hover{stroke-width:8}</style>
<path fill="none" stroke="black" d="M628.46,-568.94C609.88,-557.49 584.3,-541.72 562.86,-528.5"/>
<polygon fill="#24d0a9" stroke="black" points="564.98,-525.69 554.63,-523.42 561.31,-531.65 564.98,-525.69"/>
</g>
<!-- mom6_bathy_aux&#45;&gt;mom6_bathy_mapping -->
<g id="edge20" class="edge">
<title>mom6_bathy_aux&#45;&gt;mom6_bathy_mapping</title><style>.edge>path:hover{stroke-width:8}</style>
<path fill="none" stroke="black" d="M692.29,-571.28C730.9,-557.86 790.76,-537.04 834.1,-521.97"/>
<polygon fill="#24d0a9" stroke="black" points="835.02,-525.36 843.31,-518.76 832.72,-518.74 835.02,-525.36"/>
</g>
<!-- mom6_bathy_topo -->
<g id="node18" class="node">
<title>mom6_bathy_topo</title><style>.edge>path:hover{stroke-width:8}</style>
<ellipse fill="#30917b" stroke="black" cx="655.91" cy="-502.26" rx="57.98" ry="23.69"/>
<text text-anchor="middle" x="655.91" y="-505.51" font-family="Helvetica,sans-Serif" font-size="10.00" fill="#ffffff">mom6_bathy.</text>
<text text-anchor="middle" x="655.91" y="-492.76" font-family="Helvetica,sans-Serif" font-size="10.00" fill="#ffffff">topo</text>
</g>
<!-- mom6_bathy_aux&#45;&gt;mom6_bathy_topo -->
<g id="edge21" class="edge">
<title>mom6_bathy_aux&#45;&gt;mom6_bathy_topo</title><style>.edge>path:hover{stroke-width:8}</style>
<path fill="none" stroke="black" d="M654.34,-567.37C654.55,-558.7 654.82,-547.86 655.07,-537.58"/>
<polygon fill="#24d0a9" stroke="black" points="658.56,-537.95 655.31,-527.87 651.56,-537.78 658.56,-537.95"/>
</g>
<!-- mom6_bathy_chl&#45;&gt;case_py -->
<g id="edge22" class="edge">
<title>mom6_bathy_chl&#45;&gt;case_py</title><style>.edge>path:hover{stroke-width:8}</style>
<path fill="none" stroke="black" d="M569.51,-402.83C544.31,-387.6 512.04,-361.47 511.91,-327.49"/>
</g>
<!-- mom6_bathy_grid&#45;&gt;CrocoDash_grid -->
<g id="edge23" class="edge">
<title>mom6_bathy_grid&#45;&gt;CrocoDash_grid</title><style>.edge>path:hover{stroke-width:8}</style>
<path fill="none" stroke="black" d="M478.17,-486.23C436.83,-472.04 374.97,-450.8 332.43,-436.2"/>
<polygon fill="#339981" stroke="black" points="333.82,-432.97 323.22,-433.03 331.54,-439.59 333.82,-432.97"/>
</g>
<!-- mom6_bathy_grid&#45;&gt;mom6_bathy_chl -->
<g id="edge24" class="edge">
<title>mom6_bathy_grid&#45;&gt;mom6_bathy_chl</title><style>.edge>path:hover{stroke-width:8}</style>
<path fill="none" stroke="black" d="M542.14,-479.87C552.37,-469.07 564.83,-455.89 575.48,-444.65"/>
<polygon fill="#339981" stroke="black" points="577.82,-447.26 582.15,-437.59 572.74,-442.45 577.82,-447.26"/>
</g>
<!-- mom6_bathy_mapping&#45;&gt;case_py -->
<g id="edge25" class="edge">
<title>mom6_bathy_mapping&#45;&gt;case_py</title><style>.edge>path:hover{stroke-width:8}</style>
<path fill="none" stroke="black" d="M881.85,-478.42C868.65,-423.3 843.37,-281.02 906.91,-192.38 931.53,-158.03 971.36,-191.46 994.91,-156.38 1006.65,-138.89 1008.3,-125.26 994.91,-109 941.95,-44.67 806.78,-156.23 810.91,-73"/>
</g>
<!-- mom6_bathy_topo&#45;&gt;CrocoDash_topo -->
<g id="edge26" class="edge">
<title>mom6_bathy_topo&#45;&gt;CrocoDash_topo</title><style>.edge>path:hover{stroke-width:8}</style>
<path fill="none" stroke="black" d="M612.84,-485.95C573.44,-471.95 515.25,-451.27 474.49,-436.79"/>
<polygon fill="#30917b" stroke="black" points="475.77,-433.52 465.17,-433.47 473.42,-440.12 475.77,-433.52"/>
</g>
<!-- mom6_bathy_topo&#45;&gt;mom6_bathy_chl -->
<g id="edge27" class="edge">
<title>mom6_bathy_topo&#45;&gt;mom6_bathy_chl</title><style>.edge>path:hover{stroke-width:8}</style>
<path fill="none" stroke="black" d="M640.34,-479.02C633.22,-468.86 624.74,-456.75 617.31,-446.14"/>
<polygon fill="#30917b" stroke="black" points="620.33,-444.35 611.72,-438.17 614.59,-448.36 620.33,-444.35"/>
</g>
<!-- mom6_bathy_vgrid -->
<g id="node19" class="node">
<title>mom6_bathy_vgrid</title><style>.edge>path:hover{stroke-width:8}</style>
<ellipse fill="#4cb39b" stroke="black" cx="79.91" cy="-585.63" rx="57.98" ry="23.69"/>
<text text-anchor="middle" x="79.91" y="-588.88" font-family="Helvetica,sans-Serif" font-size="10.00" fill="#000000">mom6_bathy.</text>
<text text-anchor="middle" x="79.91" y="-576.13" font-family="Helvetica,sans-Serif" font-size="10.00" fill="#000000">vgrid</text>
</g>
<!-- mom6_bathy_vgrid&#45;&gt;CrocoDash_vgrid -->
<g id="edge28" class="edge">
<title>mom6_bathy_vgrid&#45;&gt;CrocoDash_vgrid</title><style>.edge>path:hover{stroke-width:8}</style>
<path fill="none" stroke="black" d="M89.36,-562.07C101.2,-533.8 121.58,-485.15 135.15,-452.75"/>
<polygon fill="#4cb39b" stroke="black" points="138.25,-454.4 138.88,-443.83 131.79,-451.7 138.25,-454.4"/>
</g>
<!-- mpi4py -->
<g id="node20" class="node">
<title>mpi4py</title><style>.edge>path:hover{stroke-width:8}</style>
<ellipse fill="#539fb6" stroke="black" cx="849.91" cy="-663.32" rx="32.28" ry="18"/>
<text text-anchor="middle" x="849.91" y="-660.19" font-family="Helvetica,sans-Serif" font-size="10.00" fill="#000000">mpi4py</text>
</g>
<!-- mpi4py&#45;&gt;mom6_bathy_mapping -->
<g id="edge29" class="edge">
<title>mpi4py&#45;&gt;mom6_bathy_mapping</title><style>.edge>path:hover{stroke-width:8}</style>
<path fill="none" stroke="black" d="M873.01,-650.42C903.13,-634.07 951.41,-604.65 945.91,-586.63"/>
</g>
<!-- numpy -->
<g id="node21" class="node">
<title>numpy</title><style>.edge>path:hover{stroke-width:8}</style>
<ellipse fill="#0651f9" stroke="black" cx="677.91" cy="-836.73" rx="30.44" ry="18"/>
<text text-anchor="middle" x="677.91" y="-833.6" font-family="Helvetica,sans-Serif" font-size="10.00" fill="#ffffff">numpy</text>
</g>
<!-- numpy&#45;&gt;mom6_bathy_aux -->
<g id="edge30" class="edge">
<title>numpy&#45;&gt;mom6_bathy_aux</title><style>.edge>path:hover{stroke-width:8}</style>
<path fill="none" stroke="black" d="M675.58,-818.45C671.88,-787.26 666.21,-719.64 677.91,-664.32"/>
</g>
<!-- numpy&#45;&gt;mom6_bathy_chl -->
<g id="edge31" class="edge">
<title>numpy&#45;&gt;mom6_bathy_chl</title><style>.edge>path:hover{stroke-width:8}</style>
<path fill="none" stroke="black" d="M708.53,-834.96C819.53,-831.91 1196.3,-818.94 1234.91,-782.73 1273.79,-746.27 1253.91,-717.62 1253.91,-664.32 1253.91,-664.32 1253.91,-664.32 1253.91,-584.63 1253.91,-464.98 837.65,-431.4 668.81,-422.7"/>
<polygon fill="#0651f9" stroke="black" points="669,-419.2 658.84,-422.2 668.65,-426.19 669,-419.2"/>
</g>
<!-- numpy&#45;&gt;mom6_bathy_grid -->
<g id="edge32" class="edge">
<title>numpy&#45;&gt;mom6_bathy_grid</title><style>.edge>path:hover{stroke-width:8}</style>
<path fill="none" stroke="black" d="M413.91,-662.32C392.59,-636.3 402.8,-618.38 413.91,-586.63"/>
<path fill="none" stroke="black" d="M413.91,-584.63C423.31,-557.78 448.02,-538.11 471.43,-524.85"/>
<polygon fill="#0651f9" stroke="black" points="472.83,-528.07 480,-520.27 469.53,-521.89 472.83,-528.07"/>
</g>
<!-- numpy&#45;&gt;mom6_bathy_mapping -->
<g id="edge33" class="edge">
<title>numpy&#45;&gt;mom6_bathy_mapping</title><style>.edge>path:hover{stroke-width:8}</style>
<path fill="none" stroke="black" d="M708.79,-836.2C793.44,-836.83 1026.43,-833.77 1078.91,-782.73 1117.12,-745.56 1125.82,-709.73 1097.91,-664.32"/>
</g>
<!-- numpy&#45;&gt;mom6_bathy_topo -->
<g id="edge34" class="edge">
<title>numpy&#45;&gt;mom6_bathy_topo</title><style>.edge>path:hover{stroke-width:8}</style>
<path fill="none" stroke="black" d="M413.91,-662.32C383.18,-626.87 525.86,-558.57 605.45,-524.16"/>
<polygon fill="#0651f9" stroke="black" points="606.57,-527.49 614.38,-520.33 603.81,-521.06 606.57,-527.49"/>
</g>
<!-- numpy&#45;&gt;mom6_bathy_vgrid -->
<g id="edge35" class="edge">
<title>numpy&#45;&gt;mom6_bathy_vgrid</title><style>.edge>path:hover{stroke-width:8}</style>
<path fill="none" stroke="black" d="M647.53,-833.65C607.98,-829.6 538.31,-817.66 490.91,-782.73 440.38,-745.48 441.32,-720.79 413.91,-664.32"/>
<path fill="none" stroke="black" d="M413.91,-662.32C334.67,-570.9 263.79,-640.57 146.91,-609.32 142.44,-608.12 137.83,-606.79 133.23,-605.38"/>
<polygon fill="#0651f9" stroke="black" points="134.58,-602.14 123.99,-602.45 132.47,-608.81 134.58,-602.14"/>
</g>
<!-- scipy -->
<g id="node27" class="node">
<title>scipy</title><style>.edge>path:hover{stroke-width:8}</style>
<ellipse fill="#9506ef" stroke="black" cx="526.91" cy="-750.02" rx="27" ry="18"/>
<text text-anchor="middle" x="526.91" y="-746.9" font-family="Helvetica,sans-Serif" font-size="10.00" fill="#ffffff">scipy</text>
</g>
<!-- numpy&#45;&gt;scipy -->
<g id="edge36" class="edge">
<title>numpy&#45;&gt;scipy</title><style>.edge>path:hover{stroke-width:8}</style>
<path fill="none" stroke="black" d="M652.6,-826.52C628.54,-817.22 591.84,-801.55 562.91,-782.73 558.55,-779.89 554.18,-776.55 550.06,-773.12"/>
<polygon fill="#0651f9" stroke="black" points="552.5,-770.61 542.68,-766.64 547.88,-775.87 552.5,-770.61"/>
</g>
<!-- ProConPy_config_var -->
<g id="node22" class="node">
<title>ProConPy_config_var</title><style>.edge>path:hover{stroke-width:8}</style>
<ellipse fill="#b68153" stroke="black" cx="586.91" cy="-132.69" rx="46.85" ry="23.69"/>
<text text-anchor="middle" x="586.91" y="-135.94" font-family="Helvetica,sans-Serif" font-size="10.00" fill="#000000">ProConPy.</text>
<text text-anchor="middle" x="586.91" y="-123.19" font-family="Helvetica,sans-Serif" font-size="10.00" fill="#000000">config_var</text>
</g>
<!-- ProConPy_config_var&#45;&gt;case_py -->
<g id="edge37" class="edge">
<title>ProConPy_config_var&#45;&gt;case_py</title><style>.edge>path:hover{stroke-width:8}</style>
<path fill="none" stroke="black" d="M621.83,-116.46C628.74,-113.75 635.99,-111.13 642.91,-109 679.41,-97.79 808.95,-111.13 810.91,-73"/>
</g>
<!-- ProConPy_csp_solver -->
<g id="node23" class="node">
<title>ProConPy_csp_solver</title><style>.edge>path:hover{stroke-width:8}</style>
<ellipse fill="#b68153" stroke="black" cx="699.91" cy="-132.69" rx="47.91" ry="23.69"/>
<text text-anchor="middle" x="699.91" y="-135.94" font-family="Helvetica,sans-Serif" font-size="10.00" fill="#000000">ProConPy.</text>
<text text-anchor="middle" x="699.91" y="-123.19" font-family="Helvetica,sans-Serif" font-size="10.00" fill="#000000">csp_solver</text>
</g>
<!-- ProConPy_csp_solver&#45;&gt;case_py -->
<g id="edge38" class="edge">
<title>ProConPy_csp_solver&#45;&gt;case_py</title><style>.edge>path:hover{stroke-width:8}</style>
<path fill="none" stroke="black" d="M735.45,-116.52C767.76,-102.2 810.47,-81.65 810.91,-73"/>
</g>
<!-- ProConPy_dev_utils -->
<g id="node24" class="node">
<title>ProConPy_dev_utils</title><style>.edge>path:hover{stroke-width:8}</style>
<ellipse fill="#b68153" stroke="black" cx="810.91" cy="-132.69" rx="45.25" ry="23.69"/>
<text text-anchor="middle" x="810.91" y="-135.94" font-family="Helvetica,sans-Serif" font-size="10.00" fill="#000000">ProConPy.</text>
<text text-anchor="middle" x="810.91" y="-123.19" font-family="Helvetica,sans-Serif" font-size="10.00" fill="#000000">dev_utils</text>
</g>
<!-- ProConPy_dev_utils&#45;&gt;case_py -->
<g id="edge39" class="edge">
<title>ProConPy_dev_utils&#45;&gt;case_py</title><style>.edge>path:hover{stroke-width:8}</style>
<path fill="none" stroke="black" d="M810.36,-108.54C810.25,-97.73 810.31,-84.7 810.91,-73"/>
</g>
<!-- ProConPy_stage -->
<g id="node25" class="node">
<title>ProConPy_stage</title><style>.edge>path:hover{stroke-width:8}</style>
<ellipse fill="#b68153" stroke="black" cx="929.91" cy="-132.69" rx="55.68" ry="18"/>
<text text-anchor="middle" x="929.91" y="-129.56" font-family="Helvetica,sans-Serif" font-size="10.00" fill="#000000">ProConPy.stage</text>
</g>
<!-- ProConPy_stage&#45;&gt;case_py -->
<g id="edge40" class="edge">
<title>ProConPy_stage&#45;&gt;case_py</title><style>.edge>path:hover{stroke-width:8}</style>
<path fill="none" stroke="black" d="M895.31,-118.31C860,-104.13 810.42,-82.49 810.91,-73"/>
</g>
<!-- regional_mom6 -->
<g id="node26" class="node">
<title>regional_mom6</title><style>.edge>path:hover{stroke-width:8}</style>
<ellipse fill="#5a47c2" stroke="black" cx="328.91" cy="-585.63" rx="56.6" ry="18"/>
<text text-anchor="middle" x="328.91" y="-582.51" font-family="Helvetica,sans-Serif" font-size="10.00" fill="#ffffff">regional_mom6</text>
</g>
<!-- regional_mom6&#45;&gt;case_py -->
<g id="edge41" class="edge">
<title>regional_mom6&#45;&gt;case_py</title><style>.edge>path:hover{stroke-width:8}</style>
<path fill="none" stroke="black" d="M435.91,-501.26C443.82,-490.75 445.9,-488.15 454.91,-478.57 470.85,-461.62 482,-463.12 492.91,-442.57 517.22,-396.78 515.17,-379.22 511.91,-327.49"/>
</g>
<!-- regional_mom6&#45;&gt;CrocoDash_topo -->
<g id="edge42" class="edge">
<title>regional_mom6&#45;&gt;CrocoDash_topo</title><style>.edge>path:hover{stroke-width:8}</style>
<path fill="none" stroke="black" d="M356.51,-569.56C380.41,-555.28 414.43,-531.78 435.91,-503.26"/>
<path fill="none" stroke="black" d="M435.91,-501.26C447.35,-486.07 444.38,-464.55 438.94,-447.45"/>
<polygon fill="#5a47c2" stroke="black" points="442.35,-446.59 435.65,-438.39 435.77,-448.98 442.35,-446.59"/>
</g>
<!-- scipy&#45;&gt;mom6_bathy_aux -->
<g id="edge43" class="edge">
<title>scipy&#45;&gt;mom6_bathy_aux</title><style>.edge>path:hover{stroke-width:8}</style>
<path fill="none" stroke="black" d="M541.54,-734.41C547.79,-728.63 555.37,-722.23 562.91,-717.32 610.08,-686.62 666.27,-719.38 677.91,-664.32"/>
<path fill="none" stroke="black" d="M677.91,-662.32C681.37,-645.98 676.18,-628.16 669.76,-613.92"/>
<polygon fill="#9506ef" stroke="black" points="672.99,-612.56 665.4,-605.16 666.72,-615.67 672.99,-612.56"/>
</g>
<!-- scipy&#45;&gt;mom6_bathy_grid -->
<g id="edge44" class="edge">
<title>scipy&#45;&gt;mom6_bathy_grid</title><style>.edge>path:hover{stroke-width:8}</style>
<path fill="none" stroke="black" d="M513.35,-734.27C498.11,-717.56 472.77,-689.38 451.91,-664.32"/>
<path fill="none" stroke="black" d="M451.91,-662.32C427.84,-633.38 401.48,-622.16 413.91,-586.63"/>
</g>
<!-- scipy&#45;&gt;mom6_bathy_mapping -->
<g id="edge45" class="edge">
<title>scipy&#45;&gt;mom6_bathy_mapping</title><style>.edge>path:hover{stroke-width:8}</style>
<path fill="none" stroke="black" d="M540.29,-734.04C546.56,-727.92 554.5,-721.35 562.91,-717.32 647.53,-676.79 686.46,-722.18 770.91,-681.32 781.11,-676.38 779.56,-668.92 789.91,-664.32"/>
<path fill="none" stroke="black" d="M789.91,-662.32C800.27,-657.72 799.36,-651.41 808.91,-645.32 864.78,-609.72 965.25,-649.99 945.91,-586.63"/>
<path fill="none" stroke="black" d="M945.91,-584.63C940.13,-565.67 927.95,-547.42 916.24,-533.02"/>
<polygon fill="#9506ef" stroke="black" points="919.19,-531.1 910.05,-525.74 913.86,-535.63 919.19,-531.1"/>
</g>
<!-- scipy&#45;&gt;mom6_bathy_topo -->
<g id="edge46" class="edge">
<title>scipy&#45;&gt;mom6_bathy_topo</title><style>.edge>path:hover{stroke-width:8}</style>
<path fill="none" stroke="black" d="M518.76,-732.64C509.51,-711.71 497.16,-674.67 508.91,-645.32 522.32,-611.85 549.27,-619.11 564.91,-586.63"/>
<path fill="none" stroke="black" d="M564.91,-584.63C574.96,-561.72 595.09,-542.63 613.87,-528.72"/>
<polygon fill="#9506ef" stroke="black" points="615.84,-531.61 621.98,-522.98 611.8,-525.9 615.84,-531.61"/>
</g>
<!-- scipy_sparse -->
<g id="node28" class="node">
<title>scipy_sparse</title><style>.edge>path:hover{stroke-width:8}</style>
<ellipse fill="#893db8" stroke="black" cx="945.91" cy="-663.32" rx="46.04" ry="18"/>
<text text-anchor="middle" x="945.91" y="-660.19" font-family="Helvetica,sans-Serif" font-size="10.00" fill="#ffffff">scipy.sparse</text>
</g>
<!-- scipy_sparse&#45;&gt;mom6_bathy_mapping -->
<g id="edge47" class="edge">
<title>scipy_sparse&#45;&gt;mom6_bathy_mapping</title><style>.edge>path:hover{stroke-width:8}</style>
<path fill="none" stroke="black" d="M948.73,-645.07C950.62,-629.44 951.82,-605.99 945.91,-586.63"/>
</g>
<!-- scipy_sparse_coo_matrix -->
<g id="node29" class="node">
<title>scipy_sparse_coo_matrix</title><style>.edge>path:hover{stroke-width:8}</style>
<ellipse fill="#9053b6" stroke="black" cx="1175.91" cy="-750.02" rx="50.03" ry="32.7"/>
<text text-anchor="middle" x="1175.91" y="-759.65" font-family="Helvetica,sans-Serif" font-size="10.00" fill="#ffffff">scipy.</text>
<text text-anchor="middle" x="1175.91" y="-746.9" font-family="Helvetica,sans-Serif" font-size="10.00" fill="#ffffff">sparse.</text>
<text text-anchor="middle" x="1175.91" y="-734.15" font-family="Helvetica,sans-Serif" font-size="10.00" fill="#ffffff">coo_matrix</text>
</g>
<!-- scipy_sparse_coo_matrix&#45;&gt;mom6_bathy_mapping -->
<g id="edge48" class="edge">
<title>scipy_sparse_coo_matrix&#45;&gt;mom6_bathy_mapping</title><style>.edge>path:hover{stroke-width:8}</style>
<path fill="none" stroke="black" d="M1146.96,-723.02C1130.81,-707.3 1111.31,-686.12 1097.91,-664.32"/>
</g>
<!-- scipy_sparse_csc_matrix -->
<g id="node30" class="node">
<title>scipy_sparse_csc_matrix</title><style>.edge>path:hover{stroke-width:8}</style>
<ellipse fill="#9053b6" stroke="black" cx="1020.91" cy="-750.02" rx="48.97" ry="32.7"/>
<text text-anchor="middle" x="1020.91" y="-759.65" font-family="Helvetica,sans-Serif" font-size="10.00" fill="#ffffff">scipy.</text>
<text text-anchor="middle" x="1020.91" y="-746.9" font-family="Helvetica,sans-Serif" font-size="10.00" fill="#ffffff">sparse.</text>
<text text-anchor="middle" x="1020.91" y="-734.15" font-family="Helvetica,sans-Serif" font-size="10.00" fill="#ffffff">csc_matrix</text>
</g>
<!-- scipy_sparse_csc_matrix&#45;&gt;mom6_bathy_mapping -->
<g id="edge49" class="edge">
<title>scipy_sparse_csc_matrix&#45;&gt;mom6_bathy_mapping</title><style>.edge>path:hover{stroke-width:8}</style>
<path fill="none" stroke="black" d="M1059.49,-729.4C1085.74,-713.28 1113.16,-689.12 1097.91,-664.32"/>
<path fill="none" stroke="black" d="M1097.91,-662.32C1058.4,-598.02 967.94,-658.81 945.91,-586.63"/>
</g>
<!-- scipy_spatial -->
<g id="node31" class="node">
<title>scipy_spatial</title><style>.edge>path:hover{stroke-width:8}</style>
<ellipse fill="#8e24d0" stroke="black" cx="564.91" cy="-663.32" rx="46.5" ry="18"/>
<text text-anchor="middle" x="564.91" y="-660.19" font-family="Helvetica,sans-Serif" font-size="10.00" fill="#ffffff">scipy.spatial</text>
</g>
<!-- scipy_spatial&#45;&gt;mom6_bathy_grid -->
<g id="edge50" class="edge">
<title>scipy_spatial&#45;&gt;mom6_bathy_grid</title><style>.edge>path:hover{stroke-width:8}</style>
<path fill="none" stroke="black" d="M560.23,-644.99C553.26,-619.21 540.02,-570.23 531.08,-537.16"/>
<polygon fill="#8e24d0" stroke="black" points="534.5,-536.39 528.51,-527.65 527.74,-538.21 534.5,-536.39"/>
</g>
<!-- scipy_spatial&#45;&gt;mom6_bathy_mapping -->
<g id="edge51" class="edge">
<title>scipy_spatial&#45;&gt;mom6_bathy_mapping</title><style>.edge>path:hover{stroke-width:8}</style>
<path fill="none" stroke="black" d="M602.9,-652.58C635.79,-643.47 684.18,-628.41 723.91,-609.32 749.04,-597.25 809.56,-556.92 849.63,-529.62"/>
<polygon fill="#8e24d0" stroke="black" points="851.56,-532.54 857.84,-524.01 847.61,-526.76 851.56,-532.54"/>
</g>
<!-- scipy_spatial&#45;&gt;mom6_bathy_topo -->
<g id="edge52" class="edge">
<title>scipy_spatial&#45;&gt;mom6_bathy_topo</title><style>.edge>path:hover{stroke-width:8}</style>
<path fill="none" stroke="black" d="M561.08,-644.98C558.44,-629.09 556.71,-605.27 564.91,-586.63"/>
</g>
<!-- scipy_spatial_cKDTree -->
<g id="node32" class="node">
<title>scipy_spatial_cKDTree</title><style>.edge>path:hover{stroke-width:8}</style>
<ellipse fill="#963bce" stroke="black" cx="610.91" cy="-750.02" rx="39.42" ry="32.7"/>
<text text-anchor="middle" x="610.91" y="-759.65" font-family="Helvetica,sans-Serif" font-size="10.00" fill="#ffffff">scipy.</text>
<text text-anchor="middle" x="610.91" y="-746.9" font-family="Helvetica,sans-Serif" font-size="10.00" fill="#ffffff">spatial.</text>
<text text-anchor="middle" x="610.91" y="-734.15" font-family="Helvetica,sans-Serif" font-size="10.00" fill="#ffffff">cKDTree</text>
</g>
<!-- scipy_spatial_cKDTree&#45;&gt;mom6_bathy_grid -->
<g id="edge53" class="edge">
<title>scipy_spatial_cKDTree&#45;&gt;mom6_bathy_grid</title><style>.edge>path:hover{stroke-width:8}</style>
<path fill="none" stroke="black" d="M580.84,-728.25C574.98,-724.47 568.82,-720.66 562.91,-717.32 515.32,-690.41 486.88,-706.34 451.91,-664.32"/>
</g>
<!-- scipy_spatial_cKDTree&#45;&gt;mom6_bathy_mapping -->
<g id="edge54" class="edge">
<title>scipy_spatial_cKDTree&#45;&gt;mom6_bathy_mapping</title><style>.edge>path:hover{stroke-width:8}</style>
<path fill="none" stroke="black" d="M647.54,-737.41C681.1,-725.89 731.43,-706.35 770.91,-681.32 780.48,-675.25 779.56,-668.92 789.91,-664.32"/>
</g>
<!-- scipy_spatial_cKDTree&#45;&gt;mom6_bathy_topo -->
<g id="edge55" class="edge">
<title>scipy_spatial_cKDTree&#45;&gt;mom6_bathy_topo</title><style>.edge>path:hover{stroke-width:8}</style>
<path fill="none" stroke="black" d="M621.4,-718.35C626.9,-697.06 630.69,-668.48 620.91,-645.32 606.89,-612.11 550.39,-619.63 564.91,-586.63"/>
</g>
<!-- visualCaseGen_cime_interface -->
<g id="node33" class="node">
<title>visualCaseGen_cime_interface</title><style>.edge>path:hover{stroke-width:8}</style>
<ellipse fill="#b653ae" stroke="black" cx="1106.91" cy="-132.69" rx="64.88" ry="23.69"/>
<text text-anchor="middle" x="1106.91" y="-135.94" font-family="Helvetica,sans-Serif" font-size="10.00" fill="#ffffff">visualCaseGen.</text>
<text text-anchor="middle" x="1106.91" y="-123.19" font-family="Helvetica,sans-Serif" font-size="10.00" fill="#ffffff">cime_interface</text>
</g>
<!-- visualCaseGen_cime_interface&#45;&gt;case_py -->
<g id="edge56" class="edge">
<title>visualCaseGen_cime_interface&#45;&gt;case_py</title><style>.edge>path:hover{stroke-width:8}</style>
<path fill="none" stroke="black" d="M1058.26,-116.76C1048.27,-113.97 1037.8,-111.23 1027.91,-109 980.23,-98.24 808.4,-121.82 810.91,-73"/>
</g>
<!-- visualCaseGen_custom_widget_types_case_creator -->
<g id="node34" class="node">
<title>visualCaseGen_custom_widget_types_case_creator</title><style>.edge>path:hover{stroke-width:8}</style>
<ellipse fill="#b653ae" stroke="black" cx="1004.91" cy="-225.08" rx="88.74" ry="32.7"/>
<text text-anchor="middle" x="1004.91" y="-234.7" font-family="Helvetica,sans-Serif" font-size="10.00" fill="#ffffff">visualCaseGen.</text>
<text text-anchor="middle" x="1004.91" y="-221.95" font-family="Helvetica,sans-Serif" font-size="10.00" fill="#ffffff">custom_widget_types.</text>
<text text-anchor="middle" x="1004.91" y="-209.2" font-family="Helvetica,sans-Serif" font-size="10.00" fill="#ffffff">case_creator</text>
</g>
<!-- visualCaseGen_custom_widget_types_case_creator&#45;&gt;case_py -->
<g id="edge57" class="edge">
<title>visualCaseGen_custom_widget_types_case_creator&#45;&gt;case_py</title><style>.edge>path:hover{stroke-width:8}</style>
<path fill="none" stroke="black" d="M1070.45,-202.71C1112.46,-188.29 1162.47,-169.56 1180.91,-156.38 1191.61,-148.73 1203.83,-146.24 1199.91,-133.69"/>
<path fill="none" stroke="black" d="M1199.91,-131.69C1195.99,-119.13 1192.55,-115.14 1180.91,-109 1144.38,-89.73 808.79,-114.25 810.91,-73"/>
</g>
<!-- visualCaseGen_custom_widget_types_case_tools -->
<g id="node35" class="node">
<title>visualCaseGen_custom_widget_types_case_tools</title><style>.edge>path:hover{stroke-width:8}</style>
<ellipse fill="#b653ae" stroke="black" cx="1199.91" cy="-225.08" rx="88.74" ry="32.7"/>
<text text-anchor="middle" x="1199.91" y="-234.7" font-family="Helvetica,sans-Serif" font-size="10.00" fill="#ffffff">visualCaseGen.</text>
<text text-anchor="middle" x="1199.91" y="-221.95" font-family="Helvetica,sans-Serif" font-size="10.00" fill="#ffffff">custom_widget_types.</text>
<text text-anchor="middle" x="1199.91" y="-209.2" font-family="Helvetica,sans-Serif" font-size="10.00" fill="#ffffff">case_tools</text>
</g>
<!-- visualCaseGen_custom_widget_types_case_tools&#45;&gt;case_py -->
<g id="edge58" class="edge">
<title>visualCaseGen_custom_widget_types_case_tools&#45;&gt;case_py</title><style>.edge>path:hover{stroke-width:8}</style>
<path fill="none" stroke="black" d="M1204.5,-192.01C1205.89,-174.4 1205.76,-152.41 1199.91,-133.69"/>
</g>
<!-- visualCaseGen_initialize_configvars -->
<g id="node36" class="node">
<title>visualCaseGen_initialize_configvars</title><style>.edge>path:hover{stroke-width:8}</style>
<ellipse fill="#b653ae" stroke="black" cx="1307.91" cy="-132.69" rx="80.26" ry="23.69"/>
<text text-anchor="middle" x="1307.91" y="-135.94" font-family="Helvetica,sans-Serif" font-size="10.00" fill="#ffffff">visualCaseGen.</text>
<text text-anchor="middle" x="1307.91" y="-123.19" font-family="Helvetica,sans-Serif" font-size="10.00" fill="#ffffff">initialize_configvars</text>
</g>
<!-- visualCaseGen_initialize_configvars&#45;&gt;case_py -->
<g id="edge59" class="edge">
<title>visualCaseGen_initialize_configvars&#45;&gt;case_py</title><style>.edge>path:hover{stroke-width:8}</style>
<path fill="none" stroke="black" d="M1249.27,-116.12C1237.62,-113.43 1225.43,-110.89 1213.91,-109 1169.55,-101.71 808.6,-117.9 810.91,-73"/>
</g>
<!-- visualCaseGen_initialize_stages -->
<g id="node37" class="node">
<title>visualCaseGen_initialize_stages</title><style>.edge>path:hover{stroke-width:8}</style>
<ellipse fill="#b653ae" stroke="black" cx="1473.91" cy="-132.69" rx="67.53" ry="23.69"/>
<text text-anchor="middle" x="1473.91" y="-135.94" font-family="Helvetica,sans-Serif" font-size="10.00" fill="#ffffff">visualCaseGen.</text>
<text text-anchor="middle" x="1473.91" y="-123.19" font-family="Helvetica,sans-Serif" font-size="10.00" fill="#ffffff">initialize_stages</text>
</g>
<!-- visualCaseGen_initialize_stages&#45;&gt;case_py -->
<g id="edge60" class="edge">
<title>visualCaseGen_initialize_stages&#45;&gt;case_py</title><style>.edge>path:hover{stroke-width:8}</style>
<path fill="none" stroke="black" d="M1425.84,-115.72C1416.34,-113.08 1406.38,-110.66 1396.91,-109 1364.79,-103.35 809.23,-105.57 810.91,-73"/>
</g>
<!-- visualCaseGen_initialize_widgets -->
<g id="node38" class="node">
<title>visualCaseGen_initialize_widgets</title><style>.edge>path:hover{stroke-width:8}</style>
<ellipse fill="#b653ae" stroke="black" cx="1630.91" cy="-132.69" rx="71.77" ry="23.69"/>
<text text-anchor="middle" x="1630.91" y="-135.94" font-family="Helvetica,sans-Serif" font-size="10.00" fill="#ffffff">visualCaseGen.</text>
<text text-anchor="middle" x="1630.91" y="-123.19" font-family="Helvetica,sans-Serif" font-size="10.00" fill="#ffffff">initialize_widgets</text>
</g>
<!-- visualCaseGen_initialize_widgets&#45;&gt;case_py -->
<g id="edge61" class="edge">
<title>visualCaseGen_initialize_widgets&#45;&gt;case_py</title><style>.edge>path:hover{stroke-width:8}</style>
<path fill="none" stroke="black" d="M1580.52,-115.52C1570.79,-112.93 1560.6,-110.59 1550.91,-109 1510.3,-102.34 808.79,-114.11 810.91,-73"/>
</g>
<!-- visualCaseGen_specs_options -->
<g id="node39" class="node">
<title>visualCaseGen_specs_options</title><style>.edge>path:hover{stroke-width:8}</style>
<ellipse fill="#b653ae" stroke="black" cx="1561.91" cy="-225.08" rx="64.88" ry="32.7"/>
<text text-anchor="middle" x="1561.91" y="-234.7" font-family="Helvetica,sans-Serif" font-size="10.00" fill="#ffffff">visualCaseGen.</text>
<text text-anchor="middle" x="1561.91" y="-221.95" font-family="Helvetica,sans-Serif" font-size="10.00" fill="#ffffff">specs.</text>
<text text-anchor="middle" x="1561.91" y="-209.2" font-family="Helvetica,sans-Serif" font-size="10.00" fill="#ffffff">options</text>
</g>
<!-- visualCaseGen_specs_options&#45;&gt;case_py -->
<g id="edge62" class="edge">
<title>visualCaseGen_specs_options&#45;&gt;case_py</title><style>.edge>path:hover{stroke-width:8}</style>
<path fill="none" stroke="black" d="M1610.26,-202.88C1652.39,-184.3 1707.46,-159.75 1711.91,-156.38 1722.39,-148.43 1735.82,-145.89 1730.91,-133.69"/>
<path fill="none" stroke="black" d="M1730.91,-131.69C1726.01,-119.49 1723.72,-114.8 1711.91,-109 1666.95,-86.9 808.33,-123.03 810.91,-73"/>
</g>
<!-- visualCaseGen_specs_relational_constraints -->
<g id="node40" class="node">
<title>visualCaseGen_specs_relational_constraints</title><style>.edge>path:hover{stroke-width:8}</style>
<ellipse fill="#b653ae" stroke="black" cx="1730.91" cy="-225.08" rx="86.09" ry="32.7"/>
<text text-anchor="middle" x="1730.91" y="-234.7" font-family="Helvetica,sans-Serif" font-size="10.00" fill="#ffffff">visualCaseGen.</text>
<text text-anchor="middle" x="1730.91" y="-221.95" font-family="Helvetica,sans-Serif" font-size="10.00" fill="#ffffff">specs.</text>
<text text-anchor="middle" x="1730.91" y="-209.2" font-family="Helvetica,sans-Serif" font-size="10.00" fill="#ffffff">relational_constraints</text>
</g>
<!-- visualCaseGen_specs_relational_constraints&#45;&gt;case_py -->
<g id="edge63" class="edge">
<title>visualCaseGen_specs_relational_constraints&#45;&gt;case_py</title><style>.edge>path:hover{stroke-width:8}</style>
<path fill="none" stroke="black" d="M1736.62,-192.02C1738.4,-174.22 1738.29,-152.03 1730.91,-133.69"/>
</g>
<!-- xesmf -->
<g id="node41" class="node">
<title>xesmf</title><style>.edge>path:hover{stroke-width:8}</style>
<ellipse fill="#d92679" stroke="black" cx="733.91" cy="-663.32" rx="28.15" ry="18"/>
<text text-anchor="middle" x="733.91" y="-660.19" font-family="Helvetica,sans-Serif" font-size="10.00" fill="#ffffff">xesmf</text>
</g>
<!-- xesmf&#45;&gt;mom6_bathy_chl -->
<g id="edge64" class="edge">
<title>xesmf&#45;&gt;mom6_bathy_chl</title><style>.edge>path:hover{stroke-width:8}</style>
<path fill="none" stroke="black" d="M753.29,-649.88C772.63,-636.49 801.84,-613.48 818.91,-586.63"/>
<path fill="none" stroke="black" d="M818.91,-584.63C838.74,-553.45 811.33,-538.98 801.91,-503.26"/>
</g>
<!-- xesmf&#45;&gt;mom6_bathy_mapping -->
<g id="edge65" class="edge">
<title>xesmf&#45;&gt;mom6_bathy_mapping</title><style>.edge>path:hover{stroke-width:8}</style>
<path fill="none" stroke="black" d="M818.91,-584.63C830.54,-566.34 845.96,-547.76 859.27,-532.99"/>
<polygon fill="#d92679" stroke="black" points="861.62,-535.61 865.8,-525.87 856.46,-530.88 861.62,-535.61"/>
</g>
<!-- xesmf&#45;&gt;mom6_bathy_topo -->
<g id="edge66" class="edge">
<title>xesmf&#45;&gt;mom6_bathy_topo</title><style>.edge>path:hover{stroke-width:8}</style>
<path fill="none" stroke="black" d="M735.93,-644.89C737.54,-623.96 737.64,-588.36 723.91,-561.94 717.45,-549.51 707.15,-538.57 696.5,-529.62"/>
<polygon fill="#d92679" stroke="black" points="698.76,-526.94 688.74,-523.51 694.43,-532.44 698.76,-526.94"/>
</g>
</g>
</svg>
