<?xml version="1.0" encoding="UTF-8" standalone="no"?>
<!DOCTYPE svg PUBLIC "-//W3C//DTD SVG 1.1//EN"
 "http://www.w3.org/Graphics/SVG/1.1/DTD/svg11.dtd">
<!-- Generated by graphviz version 12.2.1 (20250203.1708)
 -->
<!-- Title: G Pages: 1 -->
<svg width="1847pt" height="870pt"
 viewBox="0.00 0.00 1847.34 870.44" xmlns="http://www.w3.org/2000/svg" xmlns:xlink="http://www.w3.org/1999/xlink">
<g id="graph0" class="graph" transform="scale(1 1) rotate(0) translate(4 866.44)">
<title>G</title><style>.edge>path:hover{stroke-width:8}</style>
<polygon fill="white" stroke="none" points="-4,4 -4,-866.44 1843.34,-866.44 1843.34,4 -4,4"/>
<!-- case_py -->
<g id="node1" class="node">
<title>case_py</title><style>.edge>path:hover{stroke-width:8}</style>
<ellipse fill="#636335" stroke="black" cx="1189.47" cy="-18" rx="32.73" ry="18"/>
<text text-anchor="middle" x="1189.47" y="-14.88" font-family="Helvetica,sans-Serif" font-size="10.00" fill="#ffffff">case.py</text>
</g>
<!-- cftime -->
<g id="node2" class="node">
<title>cftime</title><style>.edge>path:hover{stroke-width:8}</style>
<ellipse fill="#7aac49" stroke="black" cx="132.47" cy="-132.69" rx="28.6" ry="18"/>
<text text-anchor="middle" x="132.47" y="-129.56" font-family="Helvetica,sans-Serif" font-size="10.00" fill="#000000">cftime</text>
</g>
<!-- cftime&#45;&gt;case_py -->
<g id="edge1" class="edge">
<title>cftime&#45;&gt;case_py</title><style>.edge>path:hover{stroke-width:8}</style>
<path fill="none" stroke="black" d="M161,-129.66C219.92,-125.5 359.36,-115.82 476.47,-109 516.06,-106.69 1168.18,-106.46 1189.47,-73"/>
<path fill="none" stroke="black" d="M1189.47,-72C1194.03,-64.82 1195.3,-55.92 1195.06,-47.47"/>
<polygon fill="#7aac49" stroke="black" points="1198.55,-47.16 1194.05,-37.57 1191.58,-47.87 1198.55,-47.16"/>
</g>
<!-- cftime__cftime -->
<g id="node3" class="node">
<title>cftime__cftime</title><style>.edge>path:hover{stroke-width:8}</style>
<ellipse fill="#85b653" stroke="black" cx="52.47" cy="-225.08" rx="52.47" ry="18"/>
<text text-anchor="middle" x="52.47" y="-221.95" font-family="Helvetica,sans-Serif" font-size="10.00" fill="#000000">cftime._cftime</text>
</g>
<!-- cftime__cftime&#45;&gt;cftime -->
<g id="edge2" class="edge">
<title>cftime__cftime&#45;&gt;cftime</title><style>.edge>path:hover{stroke-width:8}</style>
<path fill="none" stroke="black" d="M67.14,-207.5C79.62,-193.4 97.7,-172.97 111.67,-157.18"/>
<polygon fill="#85b653" stroke="black" points="113.94,-159.9 117.95,-150.09 108.7,-155.26 113.94,-159.9"/>
</g>
<!-- CrocoDash -->
<g id="node4" class="node">
<title>CrocoDash</title><style>.edge>path:hover{stroke-width:8}</style>
<ellipse fill="#ce3b3b" stroke="black" cx="527.47" cy="-132.69" rx="41.91" ry="18"/>
<text text-anchor="middle" x="527.47" y="-129.56" font-family="Helvetica,sans-Serif" font-size="10.00" fill="#ffffff">CrocoDash</text>
</g>
<!-- CrocoDash&#45;&gt;case_py -->
<g id="edge3" class="edge">
<title>CrocoDash&#45;&gt;case_py</title><style>.edge>path:hover{stroke-width:8}</style>
<path fill="none" stroke="black" d="M554.52,-118.66C563.53,-114.89 573.75,-111.2 583.47,-109 649.26,-94.14 1153.26,-129.91 1189.47,-73"/>
</g>
<!-- CrocoDash_forcing_configurations -->
<g id="node5" class="node">
<title>CrocoDash_forcing_configurations</title><style>.edge>path:hover{stroke-width:8}</style>
<ellipse fill="#8f3d3d" stroke="black" cx="1131.47" cy="-132.69" rx="87.68" ry="23.69"/>
<text text-anchor="middle" x="1131.47" y="-135.94" font-family="Helvetica,sans-Serif" font-size="10.00" fill="#ffffff">CrocoDash.</text>
<text text-anchor="middle" x="1131.47" y="-123.19" font-family="Helvetica,sans-Serif" font-size="10.00" fill="#ffffff">forcing_configurations</text>
</g>
<!-- CrocoDash_forcing_configurations&#45;&gt;case_py -->
<g id="edge4" class="edge">
<title>CrocoDash_forcing_configurations&#45;&gt;case_py</title><style>.edge>path:hover{stroke-width:8}</style>
<path fill="none" stroke="black" d="M1157.7,-109.72C1168.68,-99.46 1180.85,-86.54 1189.47,-73"/>
</g>
<!-- CrocoDash_grid -->
<g id="node6" class="node">
<title>CrocoDash_grid</title><style>.edge>path:hover{stroke-width:8}</style>
<ellipse fill="#ac4949" stroke="black" cx="680.47" cy="-132.69" rx="55.22" ry="18"/>
<text text-anchor="middle" x="680.47" y="-129.56" font-family="Helvetica,sans-Serif" font-size="10.00" fill="#ffffff">CrocoDash.grid</text>
</g>
<!-- CrocoDash_grid&#45;&gt;case_py -->
<g id="edge5" class="edge">
<title>CrocoDash_grid&#45;&gt;case_py</title><style>.edge>path:hover{stroke-width:8}</style>
<path fill="none" stroke="black" d="M713.87,-118C723.59,-114.53 734.32,-111.17 744.47,-109 792.98,-98.63 1162.84,-114.85 1189.47,-73"/>
</g>
<!-- CrocoDash_logging -->
<g id="node7" class="node">
<title>CrocoDash_logging</title><style>.edge>path:hover{stroke-width:8}</style>
<ellipse fill="#c24747" stroke="black" cx="1087.47" cy="-427.89" rx="50.56" ry="23.69"/>
<text text-anchor="middle" x="1087.47" y="-431.14" font-family="Helvetica,sans-Serif" font-size="10.00" fill="#ffffff">CrocoDash.</text>
<text text-anchor="middle" x="1087.47" y="-418.39" font-family="Helvetica,sans-Serif" font-size="10.00" fill="#ffffff">logging</text>
</g>
<!-- CrocoDash_logging&#45;&gt;CrocoDash_forcing_configurations -->
<g id="edge6" class="edge">
<title>CrocoDash_logging&#45;&gt;CrocoDash_forcing_configurations</title><style>.edge>path:hover{stroke-width:8}</style>
<path fill="none" stroke="black" d="M1114.13,-407.55C1128.43,-395.47 1144.68,-378.54 1152.47,-359.19 1178.31,-294.96 1158.67,-212.41 1143.89,-167.12"/>
<polygon fill="#c24747" stroke="black" points="1147.28,-166.22 1140.75,-157.88 1140.65,-168.47 1147.28,-166.22"/>
</g>
<!-- CrocoDash_raw_data_access_base -->
<g id="node9" class="node">
<title>CrocoDash_raw_data_access_base</title><style>.edge>path:hover{stroke-width:8}</style>
<ellipse fill="#ac4949" stroke="black" cx="580.47" cy="-225.08" rx="72.3" ry="32.7"/>
<text text-anchor="middle" x="580.47" y="-234.7" font-family="Helvetica,sans-Serif" font-size="10.00" fill="#ffffff">CrocoDash.</text>
<text text-anchor="middle" x="580.47" y="-221.95" font-family="Helvetica,sans-Serif" font-size="10.00" fill="#ffffff">raw_data_access.</text>
<text text-anchor="middle" x="580.47" y="-209.2" font-family="Helvetica,sans-Serif" font-size="10.00" fill="#ffffff">base</text>
</g>
<!-- CrocoDash_logging&#45;&gt;CrocoDash_raw_data_access_base -->
<g id="edge7" class="edge">
<title>CrocoDash_logging&#45;&gt;CrocoDash_raw_data_access_base</title><style>.edge>path:hover{stroke-width:8}</style>
<path fill="none" stroke="black" d="M1040.51,-418.78C1000.62,-409.88 943.74,-392.23 904.47,-359.19 878.74,-337.55 893.6,-313.63 866.47,-293.78 806.94,-250.24 776.21,-274.92 704.47,-257.78 687.89,-253.82 670.12,-249.39 653.35,-245.12"/>
<polygon fill="#c24747" stroke="black" points="654.52,-241.81 643.97,-242.73 652.79,-248.59 654.52,-241.81"/>
</g>
<!-- CrocoDash_raw_data_access -->
<g id="node8" class="node">
<title>CrocoDash_raw_data_access</title><style>.edge>path:hover{stroke-width:8}</style>
<ellipse fill="#c24747" stroke="black" cx="1345.47" cy="-132.69" rx="70.18" ry="23.69"/>
<text text-anchor="middle" x="1345.47" y="-135.94" font-family="Helvetica,sans-Serif" font-size="10.00" fill="#ffffff">CrocoDash.</text>
<text text-anchor="middle" x="1345.47" y="-123.19" font-family="Helvetica,sans-Serif" font-size="10.00" fill="#ffffff">raw_data_access</text>
</g>
<!-- CrocoDash_raw_data_access&#45;&gt;case_py -->
<g id="edge8" class="edge">
<title>CrocoDash_raw_data_access&#45;&gt;case_py</title><style>.edge>path:hover{stroke-width:8}</style>
<path fill="none" stroke="black" d="M1292.14,-116.84C1244.58,-102.87 1183.31,-82.67 1189.47,-73"/>
</g>
<!-- CrocoDash_raw_data_access_base&#45;&gt;case_py -->
<g id="edge9" class="edge">
<title>CrocoDash_raw_data_access_base&#45;&gt;case_py</title><style>.edge>path:hover{stroke-width:8}</style>
<path fill="none" stroke="black" d="M575.35,-192.36C573.84,-170.29 576.71,-143.21 597.47,-133.69"/>
</g>
<!-- CrocoDash_raw_data_access_datasets -->
<g id="node10" class="node">
<title>CrocoDash_raw_data_access_datasets</title><style>.edge>path:hover{stroke-width:8}</style>
<ellipse fill="#b65353" stroke="black" cx="345.47" cy="-427.89" rx="72.3" ry="32.7"/>
<text text-anchor="middle" x="345.47" y="-437.52" font-family="Helvetica,sans-Serif" font-size="10.00" fill="#ffffff">CrocoDash.</text>
<text text-anchor="middle" x="345.47" y="-424.77" font-family="Helvetica,sans-Serif" font-size="10.00" fill="#ffffff">raw_data_access.</text>
<text text-anchor="middle" x="345.47" y="-412.02" font-family="Helvetica,sans-Serif" font-size="10.00" fill="#ffffff">datasets</text>
</g>
<!-- CrocoDash_raw_data_access_registry -->
<g id="node12" class="node">
<title>CrocoDash_raw_data_access_registry</title><style>.edge>path:hover{stroke-width:8}</style>
<ellipse fill="#a83838" stroke="black" cx="307.47" cy="-326.49" rx="72.3" ry="32.7"/>
<text text-anchor="middle" x="307.47" y="-336.11" font-family="Helvetica,sans-Serif" font-size="10.00" fill="#ffffff">CrocoDash.</text>
<text text-anchor="middle" x="307.47" y="-323.36" font-family="Helvetica,sans-Serif" font-size="10.00" fill="#ffffff">raw_data_access.</text>
<text text-anchor="middle" x="307.47" y="-310.61" font-family="Helvetica,sans-Serif" font-size="10.00" fill="#ffffff">registry</text>
</g>
<!-- CrocoDash_raw_data_access_datasets&#45;&gt;CrocoDash_raw_data_access_registry -->
<g id="edge10" class="edge">
<title>CrocoDash_raw_data_access_datasets&#45;&gt;CrocoDash_raw_data_access_registry</title><style>.edge>path:hover{stroke-width:8}</style>
<path fill="none" stroke="black" d="M333.34,-395.17C330.22,-387.02 326.82,-378.12 323.54,-369.54"/>
<polygon fill="#b65353" stroke="black" points="326.86,-368.42 320.02,-360.33 320.32,-370.92 326.86,-368.42"/>
</g>
<!-- CrocoDash_raw_data_access_datasets_load_all_datasets -->
<g id="node11" class="node">
<title>CrocoDash_raw_data_access_datasets_load_all_datasets</title><style>.edge>path:hover{stroke-width:8}</style>
<ellipse fill="#b65353" stroke="black" cx="245.47" cy="-538.32" rx="72.3" ry="41.72"/>
<text text-anchor="middle" x="245.47" y="-554.32" font-family="Helvetica,sans-Serif" font-size="10.00" fill="#ffffff">CrocoDash.</text>
<text text-anchor="middle" x="245.47" y="-541.57" font-family="Helvetica,sans-Serif" font-size="10.00" fill="#ffffff">raw_data_access.</text>
<text text-anchor="middle" x="245.47" y="-528.82" font-family="Helvetica,sans-Serif" font-size="10.00" fill="#ffffff">datasets.</text>
<text text-anchor="middle" x="245.47" y="-516.07" font-family="Helvetica,sans-Serif" font-size="10.00" fill="#ffffff">load_all_datasets</text>
</g>
<!-- CrocoDash_raw_data_access_datasets_load_all_datasets&#45;&gt;CrocoDash_raw_data_access_registry -->
<g id="edge11" class="edge">
<title>CrocoDash_raw_data_access_datasets_load_all_datasets&#45;&gt;CrocoDash_raw_data_access_registry</title><style>.edge>path:hover{stroke-width:8}</style>
<path fill="none" stroke="black" d="M246.29,-496.39C247.97,-467.37 252.54,-427.94 264.47,-395.19 267.93,-385.69 272.89,-376.12 278.22,-367.3"/>
<polygon fill="#b65353" stroke="black" points="281.1,-369.29 283.52,-358.97 275.2,-365.53 281.1,-369.29"/>
</g>
<!-- CrocoDash_raw_data_access_registry&#45;&gt;case_py -->
<g id="edge12" class="edge">
<title>CrocoDash_raw_data_access_registry&#45;&gt;case_py</title><style>.edge>path:hover{stroke-width:8}</style>
<path fill="none" stroke="black" d="M296.53,-293.89C290.95,-271.31 288.76,-242.18 307.47,-226.08"/>
</g>
<!-- CrocoDash_raw_data_access_registry&#45;&gt;CrocoDash_raw_data_access_base -->
<g id="edge13" class="edge">
<title>CrocoDash_raw_data_access_registry&#45;&gt;CrocoDash_raw_data_access_base</title><style>.edge>path:hover{stroke-width:8}</style>
<path fill="none" stroke="black" d="M364.36,-306C402.66,-292.73 454.25,-274.6 499.47,-257.78 505.04,-255.71 510.82,-253.53 516.6,-251.31"/>
<polygon fill="#a83838" stroke="black" points="517.49,-254.72 525.56,-247.86 514.97,-248.19 517.49,-254.72"/>
</g>
<!-- CrocoDash_topo -->
<g id="node13" class="node">
<title>CrocoDash_topo</title><style>.edge>path:hover{stroke-width:8}</style>
<ellipse fill="#a44646" stroke="black" cx="968.47" cy="-132.69" rx="57.06" ry="18"/>
<text text-anchor="middle" x="968.47" y="-129.56" font-family="Helvetica,sans-Serif" font-size="10.00" fill="#ffffff">CrocoDash.topo</text>
</g>
<!-- CrocoDash_topo&#45;&gt;case_py -->
<g id="edge14" class="edge">
<title>CrocoDash_topo&#45;&gt;case_py</title><style>.edge>path:hover{stroke-width:8}</style>
<path fill="none" stroke="black" d="M1004.91,-118.41C1014.47,-115.14 1024.8,-111.78 1034.47,-109 1102.44,-89.48 1151.5,-132.67 1189.47,-73"/>
</g>
<!-- CrocoDash_vgrid -->
<g id="node14" class="node">
<title>CrocoDash_vgrid</title><style>.edge>path:hover{stroke-width:8}</style>
<ellipse fill="#ac4949" stroke="black" cx="804.47" cy="-132.69" rx="50.56" ry="23.69"/>
<text text-anchor="middle" x="804.47" y="-135.94" font-family="Helvetica,sans-Serif" font-size="10.00" fill="#ffffff">CrocoDash.</text>
<text text-anchor="middle" x="804.47" y="-123.19" font-family="Helvetica,sans-Serif" font-size="10.00" fill="#ffffff">vgrid</text>
</g>
<!-- CrocoDash_vgrid&#45;&gt;case_py -->
<g id="edge15" class="edge">
<title>CrocoDash_vgrid&#45;&gt;case_py</title><style>.edge>path:hover{stroke-width:8}</style>
<path fill="none" stroke="black" d="M842.55,-116.8C851.28,-113.84 860.61,-111.02 869.47,-109 939.24,-93.11 1151.05,-133.37 1189.47,-73"/>
</g>
<!-- esmpy -->
<g id="node15" class="node">
<title>esmpy</title><style>.edge>path:hover{stroke-width:8}</style>
<ellipse fill="#33cc33" stroke="black" cx="1092.47" cy="-844.44" rx="29.98" ry="18"/>
<text text-anchor="middle" x="1092.47" y="-841.32" font-family="Helvetica,sans-Serif" font-size="10.00" fill="#000000">esmpy</text>
</g>
<!-- mom6_bathy_mapping -->
<g id="node21" class="node">
<title>mom6_bathy_mapping</title><style>.edge>path:hover{stroke-width:8}</style>
<ellipse fill="#267373" stroke="black" cx="799.47" cy="-326.49" rx="57.98" ry="23.69"/>
<text text-anchor="middle" x="799.47" y="-329.74" font-family="Helvetica,sans-Serif" font-size="10.00" fill="#ffffff">mom6_bathy.</text>
<text text-anchor="middle" x="799.47" y="-316.99" font-family="Helvetica,sans-Serif" font-size="10.00" fill="#ffffff">mapping</text>
</g>
<!-- esmpy&#45;&gt;mom6_bathy_mapping -->
<g id="edge16" class="edge">
<title>esmpy&#45;&gt;mom6_bathy_mapping</title><style>.edge>path:hover{stroke-width:8}</style>
<path fill="none" stroke="black" d="M1092.47,-789.44C1019.75,-705.36 1131.52,-643.4 1092.47,-539.32"/>
</g>
<!-- xesmf_util -->
<g id="node42" class="node">
<title>xesmf_util</title><style>.edge>path:hover{stroke-width:8}</style>
<polygon fill="blue" stroke="black" points="376.47,-753.44 312.47,-753.44 312.47,-717.44 376.47,-717.44 376.47,-753.44"/>
<text text-anchor="middle" x="344.47" y="-732.32" font-family="Helvetica,sans-Serif" font-size="10.00" fill="white">xesmf.util</text>
</g>
<!-- esmpy&#45;&gt;xesmf_util -->
<g id="edge17" class="edge">
<title>esmpy&#45;&gt;xesmf_util</title><style>.edge>path:hover{stroke-width:8}</style>
<path fill="none" stroke="black" d="M1097.66,-826.66C1100.1,-815.13 1100.89,-800.19 1092.47,-790.44"/>
<path fill="none" stroke="black" d="M1092.47,-789.44C1046.25,-736 540.5,-735.09 387.84,-736.04"/>
<polygon fill="#33cc33" stroke="black" points="388.13,-732.54 378.16,-736.11 388.18,-739.54 388.13,-732.54"/>
</g>
<!-- importlib_metadata_version -->
<g id="node16" class="node">
<title>importlib_metadata_version</title><style>.edge>path:hover{stroke-width:8}</style>
<ellipse fill="#53b685" stroke="black" cx="132.47" cy="-427.89" rx="46.85" ry="32.7"/>
<text text-anchor="middle" x="132.47" y="-437.52" font-family="Helvetica,sans-Serif" font-size="10.00" fill="#000000">importlib.</text>
<text text-anchor="middle" x="132.47" y="-424.77" font-family="Helvetica,sans-Serif" font-size="10.00" fill="#000000">metadata.</text>
<text text-anchor="middle" x="132.47" y="-412.02" font-family="Helvetica,sans-Serif" font-size="10.00" fill="#000000">version</text>
</g>
<!-- importlib_metadata_version&#45;&gt;cftime -->
<g id="edge18" class="edge">
<title>importlib_metadata_version&#45;&gt;cftime</title><style>.edge>path:hover{stroke-width:8}</style>
<path fill="none" stroke="black" d="M132.47,-394.96C132.47,-337.42 132.47,-217.22 132.47,-162.24"/>
<polygon fill="#53b685" stroke="black" points="135.97,-162.46 132.47,-152.46 128.97,-162.46 135.97,-162.46"/>
</g>
<!-- mom6_bathy -->
<g id="node17" class="node">
<title>mom6_bathy</title><style>.edge>path:hover{stroke-width:8}</style>
<ellipse fill="#10f9f9" stroke="black" cx="962.47" cy="-326.49" rx="49.26" ry="18"/>
<text text-anchor="middle" x="962.47" y="-323.36" font-family="Helvetica,sans-Serif" font-size="10.00" fill="#000000">mom6_bathy</text>
</g>
<!-- mom6_bathy&#45;&gt;case_py -->
<g id="edge19" class="edge">
<title>mom6_bathy&#45;&gt;case_py</title><style>.edge>path:hover{stroke-width:8}</style>
<path fill="none" stroke="black" d="M965.52,-308.07C968.49,-288.09 971.83,-254.42 966.47,-226.08"/>
<path fill="none" stroke="black" d="M966.47,-224.08C958.78,-183.39 917.77,-194.85 902.47,-156.38 894.68,-136.81 888.54,-124.79 902.47,-109 945,-60.8 1154.91,-127.2 1189.47,-73"/>
</g>
<!-- mom6_bathy&#45;&gt;CrocoDash_forcing_configurations -->
<g id="edge20" class="edge">
<title>mom6_bathy&#45;&gt;CrocoDash_forcing_configurations</title><style>.edge>path:hover{stroke-width:8}</style>
<path fill="none" stroke="black" d="M967.46,-308.41C975.27,-282.86 990.91,-236.57 1004.47,-226.08"/>
</g>
<!-- mom6_bathy&#45;&gt;CrocoDash_grid -->
<g id="edge21" class="edge">
<title>mom6_bathy&#45;&gt;CrocoDash_grid</title><style>.edge>path:hover{stroke-width:8}</style>
<path fill="none" stroke="black" d="M936.75,-310.73C925.57,-304.8 912.15,-298.31 899.47,-293.78 818.57,-264.94 739.03,-309.47 718.47,-226.08"/>
</g>
<!-- mom6_bathy&#45;&gt;CrocoDash_topo -->
<g id="edge22" class="edge">
<title>mom6_bathy&#45;&gt;CrocoDash_topo</title><style>.edge>path:hover{stroke-width:8}</style>
<path fill="none" stroke="black" d="M966.47,-224.08C962.61,-203.65 963.27,-180.17 964.82,-162.26"/>
<polygon fill="#10f9f9" stroke="black" points="968.3,-162.66 965.83,-152.36 961.33,-161.95 968.3,-162.66"/>
</g>
<!-- mom6_bathy&#45;&gt;CrocoDash_vgrid -->
<g id="edge23" class="edge">
<title>mom6_bathy&#45;&gt;CrocoDash_vgrid</title><style>.edge>path:hover{stroke-width:8}</style>
<path fill="none" stroke="black" d="M952.78,-308.54C937.35,-282.25 905.46,-230.7 871.47,-192.38 861.59,-181.24 849.67,-170.18 838.63,-160.71"/>
<polygon fill="#10f9f9" stroke="black" points="841.1,-158.21 831.19,-154.47 836.6,-163.58 841.1,-158.21"/>
</g>
<!-- mom6_bathy_aux -->
<g id="node18" class="node">
<title>mom6_bathy_aux</title><style>.edge>path:hover{stroke-width:8}</style>
<ellipse fill="#26d9d9" stroke="black" cx="580.47" cy="-427.89" rx="61.19" ry="18"/>
<text text-anchor="middle" x="580.47" y="-424.77" font-family="Helvetica,sans-Serif" font-size="10.00" fill="#000000">mom6_bathy.aux</text>
</g>
<!-- mom6_bathy_chl -->
<g id="node19" class="node">
<title>mom6_bathy_chl</title><style>.edge>path:hover{stroke-width:8}</style>
<ellipse fill="#409696" stroke="black" cx="431.47" cy="-225.08" rx="58.89" ry="18"/>
<text text-anchor="middle" x="431.47" y="-221.95" font-family="Helvetica,sans-Serif" font-size="10.00" fill="#ffffff">mom6_bathy.chl</text>
</g>
<!-- mom6_bathy_aux&#45;&gt;mom6_bathy_chl -->
<g id="edge24" class="edge">
<title>mom6_bathy_aux&#45;&gt;mom6_bathy_chl</title><style>.edge>path:hover{stroke-width:8}</style>
<path fill="none" stroke="black" d="M582.53,-409.54C584.82,-382.26 585.39,-328.82 560.47,-293.78 554.78,-285.79 508.59,-262.61 473.08,-245.59"/>
<polygon fill="#26d9d9" stroke="black" points="474.83,-242.55 464.3,-241.4 471.82,-248.87 474.83,-242.55"/>
</g>
<!-- mom6_bathy_grid -->
<g id="node20" class="node">
<title>mom6_bathy_grid</title><style>.edge>path:hover{stroke-width:8}</style>
<ellipse fill="#35a1a1" stroke="black" cx="493.47" cy="-326.49" rx="57.98" ry="23.69"/>
<text text-anchor="middle" x="493.47" y="-329.74" font-family="Helvetica,sans-Serif" font-size="10.00" fill="#000000">mom6_bathy.</text>
<text text-anchor="middle" x="493.47" y="-316.99" font-family="Helvetica,sans-Serif" font-size="10.00" fill="#000000">grid</text>
</g>
<!-- mom6_bathy_aux&#45;&gt;mom6_bathy_grid -->
<g id="edge25" class="edge">
<title>mom6_bathy_aux&#45;&gt;mom6_bathy_grid</title><style>.edge>path:hover{stroke-width:8}</style>
<path fill="none" stroke="black" d="M565.71,-410.03C553.24,-395.79 535.07,-375.03 520.07,-357.89"/>
<polygon fill="#26d9d9" stroke="black" points="522.78,-355.67 513.57,-350.45 517.52,-360.28 522.78,-355.67"/>
</g>
<!-- mom6_bathy_aux&#45;&gt;mom6_bathy_mapping -->
<g id="edge26" class="edge">
<title>mom6_bathy_aux&#45;&gt;mom6_bathy_mapping</title><style>.edge>path:hover{stroke-width:8}</style>
<path fill="none" stroke="black" d="M613.48,-412.45C644.33,-398.89 691.64,-377.94 732.47,-359.19 738.91,-356.23 745.69,-353.07 752.36,-349.95"/>
<polygon fill="#26d9d9" stroke="black" points="753.75,-353.16 761.31,-345.73 750.77,-346.82 753.75,-353.16"/>
</g>
<!-- mom6_bathy_topo -->
<g id="node22" class="node">
<title>mom6_bathy_topo</title><style>.edge>path:hover{stroke-width:8}</style>
<ellipse fill="#339999" stroke="black" cx="665.47" cy="-326.49" rx="57.98" ry="23.69"/>
<text text-anchor="middle" x="665.47" y="-329.74" font-family="Helvetica,sans-Serif" font-size="10.00" fill="#ffffff">mom6_bathy.</text>
<text text-anchor="middle" x="665.47" y="-316.99" font-family="Helvetica,sans-Serif" font-size="10.00" fill="#ffffff">topo</text>
</g>
<!-- mom6_bathy_aux&#45;&gt;mom6_bathy_topo -->
<g id="edge27" class="edge">
<title>mom6_bathy_aux&#45;&gt;mom6_bathy_topo</title><style>.edge>path:hover{stroke-width:8}</style>
<path fill="none" stroke="black" d="M594.89,-410.03C607.07,-395.79 624.82,-375.03 639.47,-357.89"/>
<polygon fill="#26d9d9" stroke="black" points="641.98,-360.34 645.82,-350.46 636.66,-355.79 641.98,-360.34"/>
</g>
<!-- mom6_bathy_chl&#45;&gt;case_py -->
<g id="edge28" class="edge">
<title>mom6_bathy_chl&#45;&gt;case_py</title><style>.edge>path:hover{stroke-width:8}</style>
<path fill="none" stroke="black" d="M462.59,-209.5C474.16,-204.1 487.4,-197.94 499.47,-192.38 534.51,-176.22 547.76,-179.75 578.47,-156.38 588.93,-148.41 585.51,-139.17 597.47,-133.69"/>
</g>
<!-- mom6_bathy_grid&#45;&gt;CrocoDash_grid -->
<g id="edge29" class="edge">
<title>mom6_bathy_grid&#45;&gt;CrocoDash_grid</title><style>.edge>path:hover{stroke-width:8}</style>
<path fill="none" stroke="black" d="M537.97,-310.85C604.88,-288.16 723.17,-245.15 718.47,-226.08"/>
<path fill="none" stroke="black" d="M718.47,-224.08C713.03,-202.04 702.95,-178.44 694.54,-160.88"/>
<polygon fill="#35a1a1" stroke="black" points="697.8,-159.58 690.24,-152.16 691.52,-162.67 697.8,-159.58"/>
</g>
<!-- mom6_bathy_grid&#45;&gt;mom6_bathy_chl -->
<g id="edge30" class="edge">
<title>mom6_bathy_grid&#45;&gt;mom6_bathy_chl</title><style>.edge>path:hover{stroke-width:8}</style>
<path fill="none" stroke="black" d="M479.71,-303.43C470.4,-288.5 458.06,-268.71 448.18,-252.88"/>
<polygon fill="#35a1a1" stroke="black" points="451.17,-251.06 442.91,-244.43 445.23,-254.77 451.17,-251.06"/>
</g>
<!-- mom6_bathy_mapping&#45;&gt;case_py -->
<g id="edge31" class="edge">
<title>mom6_bathy_mapping&#45;&gt;case_py</title><style>.edge>path:hover{stroke-width:8}</style>
<path fill="none" stroke="black" d="M766.8,-306.49C747.32,-294.17 722.87,-276.89 704.47,-257.78 680.33,-232.73 684.89,-218.09 661.47,-192.38 635.48,-163.85 562.39,-149.77 597.47,-133.69"/>
</g>
<!-- mom6_bathy_mapping&#45;&gt;CrocoDash_forcing_configurations -->
<g id="edge32" class="edge">
<title>mom6_bathy_mapping&#45;&gt;CrocoDash_forcing_configurations</title><style>.edge>path:hover{stroke-width:8}</style>
<path fill="none" stroke="black" d="M842.8,-310.52C886.42,-294.13 954.25,-264.91 1004.47,-226.08"/>
<path fill="none" stroke="black" d="M1004.47,-224.08C1032.66,-202.28 1065.45,-178.99 1090.65,-161.51"/>
<polygon fill="#267373" stroke="black" points="1092.43,-164.54 1098.67,-155.97 1088.45,-158.78 1092.43,-164.54"/>
</g>
<!-- mom6_bathy_topo&#45;&gt;CrocoDash_topo -->
<g id="edge33" class="edge">
<title>mom6_bathy_topo&#45;&gt;CrocoDash_topo</title><style>.edge>path:hover{stroke-width:8}</style>
<path fill="none" stroke="black" d="M700.75,-307.27C710.83,-302.48 721.94,-297.6 732.47,-293.78 792.46,-272.04 818.1,-292.78 871.47,-257.78 908.98,-233.19 938.25,-189.16 954.43,-160.7"/>
<polygon fill="#339999" stroke="black" points="957.49,-162.4 959.25,-151.95 951.36,-159.02 957.49,-162.4"/>
</g>
<!-- mom6_bathy_topo&#45;&gt;mom6_bathy_chl -->
<g id="edge34" class="edge">
<title>mom6_bathy_topo&#45;&gt;mom6_bathy_chl</title><style>.edge>path:hover{stroke-width:8}</style>
<path fill="none" stroke="black" d="M627.5,-308.35C616.56,-303.53 604.58,-298.36 593.47,-293.78 552.09,-276.76 540.66,-275.25 499.47,-257.78 490.59,-254.02 481.16,-249.78 472.24,-245.66"/>
<polygon fill="#339999" stroke="black" points="473.98,-242.61 463.44,-241.55 471.02,-248.95 473.98,-242.61"/>
</g>
<!-- mom6_bathy_vgrid -->
<g id="node23" class="node">
<title>mom6_bathy_vgrid</title><style>.edge>path:hover{stroke-width:8}</style>
<ellipse fill="#53b6b6" stroke="black" cx="804.47" cy="-225.08" rx="57.98" ry="23.69"/>
<text text-anchor="middle" x="804.47" y="-228.33" font-family="Helvetica,sans-Serif" font-size="10.00" fill="#000000">mom6_bathy.</text>
<text text-anchor="middle" x="804.47" y="-215.58" font-family="Helvetica,sans-Serif" font-size="10.00" fill="#000000">vgrid</text>
</g>
<!-- mom6_bathy_vgrid&#45;&gt;CrocoDash_vgrid -->
<g id="edge35" class="edge">
<title>mom6_bathy_vgrid&#45;&gt;CrocoDash_vgrid</title><style>.edge>path:hover{stroke-width:8}</style>
<path fill="none" stroke="black" d="M804.47,-201.27C804.47,-191.28 804.47,-179.35 804.47,-168.3"/>
<polygon fill="#53b6b6" stroke="black" points="807.97,-168.32 804.47,-158.32 800.97,-168.32 807.97,-168.32"/>
</g>
<!-- mpi4py -->
<g id="node24" class="node">
<title>mpi4py</title><style>.edge>path:hover{stroke-width:8}</style>
<ellipse fill="#5385b6" stroke="black" cx="958.47" cy="-538.32" rx="32.28" ry="18"/>
<text text-anchor="middle" x="958.47" y="-535.19" font-family="Helvetica,sans-Serif" font-size="10.00" fill="#ffffff">mpi4py</text>
</g>
<!-- mpi4py&#45;&gt;mom6_bathy_mapping -->
<g id="edge36" class="edge">
<title>mpi4py&#45;&gt;mom6_bathy_mapping</title><style>.edge>path:hover{stroke-width:8}</style>
<path fill="none" stroke="black" d="M945.94,-521.62C930.86,-501.53 906.55,-465 898.47,-428.89"/>
</g>
<!-- ProConPy_config_var -->
<g id="node25" class="node">
<title>ProConPy_config_var</title><style>.edge>path:hover{stroke-width:8}</style>
<ellipse fill="#c28547" stroke="black" cx="1284.47" cy="-326.49" rx="46.85" ry="23.69"/>
<text text-anchor="middle" x="1284.47" y="-329.74" font-family="Helvetica,sans-Serif" font-size="10.00" fill="#000000">ProConPy.</text>
<text text-anchor="middle" x="1284.47" y="-316.99" font-family="Helvetica,sans-Serif" font-size="10.00" fill="#000000">config_var</text>
</g>
<!-- ProConPy_config_var&#45;&gt;case_py -->
<g id="edge37" class="edge">
<title>ProConPy_config_var&#45;&gt;case_py</title><style>.edge>path:hover{stroke-width:8}</style>
<path fill="none" stroke="black" d="M1247.47,-224.08C1229.8,-188 1259.93,-171.88 1247.47,-133.69"/>
</g>
<!-- ProConPy_config_var&#45;&gt;CrocoDash_forcing_configurations -->
<g id="edge38" class="edge">
<title>ProConPy_config_var&#45;&gt;CrocoDash_forcing_configurations</title><style>.edge>path:hover{stroke-width:8}</style>
<path fill="none" stroke="black" d="M1277.46,-302.85C1270.79,-282.35 1259.94,-251.55 1247.47,-226.08"/>
<path fill="none" stroke="black" d="M1247.47,-224.08C1233.95,-196.47 1207.49,-174.83 1183.25,-159.66"/>
<polygon fill="#c28547" stroke="black" points="1185.07,-156.67 1174.69,-154.54 1181.47,-162.68 1185.07,-156.67"/>
</g>
<!-- ProConPy_dev_utils -->
<g id="node26" class="node">
<title>ProConPy_dev_utils</title><style>.edge>path:hover{stroke-width:8}</style>
<ellipse fill="#b68553" stroke="black" cx="1478.47" cy="-132.69" rx="45.25" ry="23.69"/>
<text text-anchor="middle" x="1478.47" y="-135.94" font-family="Helvetica,sans-Serif" font-size="10.00" fill="#000000">ProConPy.</text>
<text text-anchor="middle" x="1478.47" y="-123.19" font-family="Helvetica,sans-Serif" font-size="10.00" fill="#000000">dev_utils</text>
</g>
<!-- ProConPy_dev_utils&#45;&gt;case_py -->
<g id="edge39" class="edge">
<title>ProConPy_dev_utils&#45;&gt;case_py</title><style>.edge>path:hover{stroke-width:8}</style>
<path fill="none" stroke="black" d="M1445.22,-116.22C1438.46,-113.5 1431.32,-110.93 1424.47,-109 1373.62,-94.66 1161.1,-117.57 1189.47,-73"/>
</g>
<!-- ProConPy_stage -->
<g id="node27" class="node">
<title>ProConPy_stage</title><style>.edge>path:hover{stroke-width:8}</style>
<ellipse fill="#b68553" stroke="black" cx="1597.47" cy="-132.69" rx="55.68" ry="18"/>
<text text-anchor="middle" x="1597.47" y="-129.56" font-family="Helvetica,sans-Serif" font-size="10.00" fill="#000000">ProConPy.stage</text>
</g>
<!-- ProConPy_stage&#45;&gt;case_py -->
<g id="edge40" class="edge">
<title>ProConPy_stage&#45;&gt;case_py</title><style>.edge>path:hover{stroke-width:8}</style>
<path fill="none" stroke="black" d="M1563.15,-118.05C1553.37,-114.62 1542.61,-111.27 1532.47,-109 1495.07,-100.63 1168.9,-105.33 1189.47,-73"/>
</g>
<!-- regional_mom6 -->
<g id="node28" class="node">
<title>regional_mom6</title><style>.edge>path:hover{stroke-width:8}</style>
<ellipse fill="#4747c2" stroke="black" cx="1086.47" cy="-326.49" rx="56.6" ry="18"/>
<text text-anchor="middle" x="1086.47" y="-323.36" font-family="Helvetica,sans-Serif" font-size="10.00" fill="#ffffff">regional_mom6</text>
</g>
<!-- regional_mom6&#45;&gt;case_py -->
<g id="edge41" class="edge">
<title>regional_mom6&#45;&gt;case_py</title><style>.edge>path:hover{stroke-width:8}</style>
<path fill="none" stroke="black" d="M1106.41,-309.34C1152.43,-271.19 1261.12,-175.54 1247.47,-133.69"/>
<path fill="none" stroke="black" d="M1247.47,-131.69C1241.28,-115.23 1189.3,-73.26 1189.47,-73"/>
</g>
<!-- regional_mom6&#45;&gt;CrocoDash_topo -->
<g id="edge42" class="edge">
<title>regional_mom6&#45;&gt;CrocoDash_topo</title><style>.edge>path:hover{stroke-width:8}</style>
<path fill="none" stroke="black" d="M1076,-308.47C1055.4,-274.98 1009.47,-200.34 984.84,-160.29"/>
<polygon fill="#4747c2" stroke="black" points="987.93,-158.64 979.71,-151.96 981.97,-162.31 987.93,-158.64"/>
</g>
<!-- scipy -->
<g id="node29" class="node">
<title>scipy</title><style>.edge>path:hover{stroke-width:8}</style>
<ellipse fill="#7f06f9" stroke="black" cx="631.47" cy="-648.74" rx="27" ry="18"/>
<text text-anchor="middle" x="631.47" y="-645.62" font-family="Helvetica,sans-Serif" font-size="10.00" fill="#ffffff">scipy</text>
</g>
<!-- scipy&#45;&gt;mom6_bathy_aux -->
<g id="edge43" class="edge">
<title>scipy&#45;&gt;mom6_bathy_aux</title><style>.edge>path:hover{stroke-width:8}</style>
<path fill="none" stroke="black" d="M486.47,-537.32C477.15,-500.72 511.83,-469.45 541.67,-450.02"/>
<polygon fill="#7f06f9" stroke="black" points="543.19,-453.2 549.84,-444.94 539.5,-447.25 543.19,-453.2"/>
</g>
<!-- scipy&#45;&gt;mom6_bathy_grid -->
<g id="edge44" class="edge">
<title>scipy&#45;&gt;mom6_bathy_grid</title><style>.edge>path:hover{stroke-width:8}</style>
<path fill="none" stroke="black" d="M617.26,-633.33C610.96,-627.45 603.22,-620.91 595.47,-616.04 560.74,-594.2 541.33,-607.07 510.47,-580.04 494.67,-566.19 491.65,-559.68 486.47,-539.32"/>
<path fill="none" stroke="black" d="M486.47,-537.32C474.57,-490.57 502.56,-475.84 491.47,-428.89"/>
<path fill="none" stroke="black" d="M491.47,-426.89C486.44,-405.61 486.88,-381.04 488.6,-361.66"/>
<polygon fill="#7f06f9" stroke="black" points="492.07,-362.15 489.65,-351.84 485.11,-361.41 492.07,-362.15"/>
</g>
<!-- scipy&#45;&gt;mom6_bathy_mapping -->
<g id="edge45" class="edge">
<title>scipy&#45;&gt;mom6_bathy_mapping</title><style>.edge>path:hover{stroke-width:8}</style>
<path fill="none" stroke="black" d="M645.02,-632.96C657.59,-619.25 676.81,-598.28 693.47,-580.04 727.29,-543 729.77,-527.26 769.47,-496.6 820.71,-457.02 912.62,-492.08 898.47,-428.89"/>
</g>
<!-- scipy&#45;&gt;mom6_bathy_topo -->
<g id="edge46" class="edge">
<title>scipy&#45;&gt;mom6_bathy_topo</title><style>.edge>path:hover{stroke-width:8}</style>
<path fill="none" stroke="black" d="M616.62,-633.49C604.52,-620.78 588.37,-600.99 581.47,-580.04 569.87,-544.81 559.62,-526.57 581.47,-496.6 612.27,-454.35 654.61,-495.58 693.47,-460.6 704.91,-450.29 706.14,-444.24 707.47,-428.89"/>
<path fill="none" stroke="black" d="M707.47,-426.89C709.2,-402.98 698.7,-378.13 687.77,-359.25"/>
<polygon fill="#7f06f9" stroke="black" points="690.91,-357.68 682.69,-350.99 684.94,-361.34 690.91,-357.68"/>
</g>
<!-- scipy_sparse -->
<g id="node30" class="node">
<title>scipy_sparse</title><style>.edge>path:hover{stroke-width:8}</style>
<ellipse fill="#7a3db8" stroke="black" cx="824.47" cy="-538.32" rx="46.04" ry="18"/>
<text text-anchor="middle" x="824.47" y="-535.19" font-family="Helvetica,sans-Serif" font-size="10.00" fill="#ffffff">scipy.sparse</text>
</g>
<!-- scipy_sparse&#45;&gt;mom6_bathy_mapping -->
<g id="edge47" class="edge">
<title>scipy_sparse&#45;&gt;mom6_bathy_mapping</title><style>.edge>path:hover{stroke-width:8}</style>
<path fill="none" stroke="black" d="M845.91,-522.31C870.68,-502.94 907.03,-467.15 898.47,-428.89"/>
</g>
<!-- scipy_sparse_coo_matrix -->
<g id="node31" class="node">
<title>scipy_sparse_coo_matrix</title><style>.edge>path:hover{stroke-width:8}</style>
<ellipse fill="#8553b6" stroke="black" cx="898.47" cy="-648.74" rx="50.03" ry="32.7"/>
<text text-anchor="middle" x="898.47" y="-658.37" font-family="Helvetica,sans-Serif" font-size="10.00" fill="#ffffff">scipy.</text>
<text text-anchor="middle" x="898.47" y="-645.62" font-family="Helvetica,sans-Serif" font-size="10.00" fill="#ffffff">sparse.</text>
<text text-anchor="middle" x="898.47" y="-632.87" font-family="Helvetica,sans-Serif" font-size="10.00" fill="#ffffff">coo_matrix</text>
</g>
<!-- scipy_sparse_coo_matrix&#45;&gt;mom6_bathy_mapping -->
<g id="edge48" class="edge">
<title>scipy_sparse_coo_matrix&#45;&gt;mom6_bathy_mapping</title><style>.edge>path:hover{stroke-width:8}</style>
<path fill="none" stroke="black" d="M892.91,-615.92C890.36,-593.78 889.59,-563.93 898.47,-539.32"/>
</g>
<!-- scipy_sparse_csc_matrix -->
<g id="node32" class="node">
<title>scipy_sparse_csc_matrix</title><style>.edge>path:hover{stroke-width:8}</style>
<ellipse fill="#8553b6" stroke="black" cx="1015.47" cy="-648.74" rx="48.97" ry="32.7"/>
<text text-anchor="middle" x="1015.47" y="-658.37" font-family="Helvetica,sans-Serif" font-size="10.00" fill="#ffffff">scipy.</text>
<text text-anchor="middle" x="1015.47" y="-645.62" font-family="Helvetica,sans-Serif" font-size="10.00" fill="#ffffff">sparse.</text>
<text text-anchor="middle" x="1015.47" y="-632.87" font-family="Helvetica,sans-Serif" font-size="10.00" fill="#ffffff">csc_matrix</text>
</g>
<!-- scipy_sparse_csc_matrix&#45;&gt;mom6_bathy_mapping -->
<g id="edge49" class="edge">
<title>scipy_sparse_csc_matrix&#45;&gt;mom6_bathy_mapping</title><style>.edge>path:hover{stroke-width:8}</style>
<path fill="none" stroke="black" d="M1049.37,-624.87C1075.34,-604.24 1104.79,-572.17 1092.47,-539.32"/>
<path fill="none" stroke="black" d="M1092.47,-537.32C1057.77,-444.84 918.83,-525.55 898.47,-428.89"/>
</g>
<!-- scipy_spatial -->
<g id="node33" class="node">
<title>scipy_spatial</title><style>.edge>path:hover{stroke-width:8}</style>
<ellipse fill="#7a24d0" stroke="black" cx="637.47" cy="-538.32" rx="46.5" ry="18"/>
<text text-anchor="middle" x="637.47" y="-535.19" font-family="Helvetica,sans-Serif" font-size="10.00" fill="#ffffff">scipy.spatial</text>
</g>
<!-- scipy_spatial&#45;&gt;mom6_bathy_grid -->
<g id="edge50" class="edge">
<title>scipy_spatial&#45;&gt;mom6_bathy_grid</title><style>.edge>path:hover{stroke-width:8}</style>
<path fill="none" stroke="black" d="M602.24,-526.12C563.08,-511.26 503.7,-480.67 491.47,-428.89"/>
</g>
<!-- scipy_spatial&#45;&gt;mom6_bathy_mapping -->
<g id="edge51" class="edge">
<title>scipy_spatial&#45;&gt;mom6_bathy_mapping</title><style>.edge>path:hover{stroke-width:8}</style>
<path fill="none" stroke="black" d="M668.46,-524.56C737.64,-496.06 898.64,-429.65 898.47,-428.89"/>
<path fill="none" stroke="black" d="M898.47,-426.89C891.44,-395.53 865.35,-370.08 841.71,-352.79"/>
<polygon fill="#7a24d0" stroke="black" points="843.92,-350.06 833.72,-347.2 839.91,-355.8 843.92,-350.06"/>
</g>
<!-- scipy_spatial&#45;&gt;mom6_bathy_topo -->
<g id="edge52" class="edge">
<title>scipy_spatial&#45;&gt;mom6_bathy_topo</title><style>.edge>path:hover{stroke-width:8}</style>
<path fill="none" stroke="black" d="M655.1,-521.33C674.75,-501.79 704.21,-466.62 707.47,-428.89"/>
</g>
<!-- scipy_spatial_cKDTree -->
<g id="node34" class="node">
<title>scipy_spatial_cKDTree</title><style>.edge>path:hover{stroke-width:8}</style>
<ellipse fill="#853bce" stroke="black" cx="715.47" cy="-648.74" rx="39.42" ry="32.7"/>
<text text-anchor="middle" x="715.47" y="-658.37" font-family="Helvetica,sans-Serif" font-size="10.00" fill="#ffffff">scipy.</text>
<text text-anchor="middle" x="715.47" y="-645.62" font-family="Helvetica,sans-Serif" font-size="10.00" fill="#ffffff">spatial.</text>
<text text-anchor="middle" x="715.47" y="-632.87" font-family="Helvetica,sans-Serif" font-size="10.00" fill="#ffffff">cKDTree</text>
</g>
<!-- scipy_spatial_cKDTree&#45;&gt;mom6_bathy_grid -->
<g id="edge53" class="edge">
<title>scipy_spatial_cKDTree&#45;&gt;mom6_bathy_grid</title><style>.edge>path:hover{stroke-width:8}</style>
<path fill="none" stroke="black" d="M685.78,-626.9C679.84,-623.08 673.55,-619.28 667.47,-616.04 630.91,-596.53 612.75,-607.21 581.47,-580.04 522.44,-528.77 509.44,-504.98 491.47,-428.89"/>
</g>
<!-- scipy_spatial_cKDTree&#45;&gt;mom6_bathy_mapping -->
<g id="edge54" class="edge">
<title>scipy_spatial_cKDTree&#45;&gt;mom6_bathy_mapping</title><style>.edge>path:hover{stroke-width:8}</style>
<path fill="none" stroke="black" d="M754.05,-640.27C790.4,-631.46 844.4,-613.56 879.47,-580.04 893.9,-566.24 891.69,-558.1 898.47,-539.32"/>
<path fill="none" stroke="black" d="M898.47,-537.32C914.81,-491.99 909,-475.92 898.47,-428.89"/>
</g>
<!-- scipy_spatial_cKDTree&#45;&gt;mom6_bathy_topo -->
<g id="edge55" class="edge">
<title>scipy_spatial_cKDTree&#45;&gt;mom6_bathy_topo</title><style>.edge>path:hover{stroke-width:8}</style>
<path fill="none" stroke="black" d="M712.13,-615.81C708.16,-573.15 702.66,-495.25 707.47,-428.89"/>
</g>
<!-- visualCaseGen_custom_widget_types_case_creator -->
<g id="node35" class="node">
<title>visualCaseGen_custom_widget_types_case_creator</title><style>.edge>path:hover{stroke-width:8}</style>
<ellipse fill="#b653b6" stroke="black" cx="1681.47" cy="-225.08" rx="88.74" ry="32.7"/>
<text text-anchor="middle" x="1681.47" y="-234.7" font-family="Helvetica,sans-Serif" font-size="10.00" fill="#ffffff">visualCaseGen.</text>
<text text-anchor="middle" x="1681.47" y="-221.95" font-family="Helvetica,sans-Serif" font-size="10.00" fill="#ffffff">custom_widget_types.</text>
<text text-anchor="middle" x="1681.47" y="-209.2" font-family="Helvetica,sans-Serif" font-size="10.00" fill="#ffffff">case_creator</text>
</g>
<!-- visualCaseGen_custom_widget_types_case_creator&#45;&gt;case_py -->
<g id="edge56" class="edge">
<title>visualCaseGen_custom_widget_types_case_creator&#45;&gt;case_py</title><style>.edge>path:hover{stroke-width:8}</style>
<path fill="none" stroke="black" d="M1685.9,-192.04C1687.56,-165.74 1684.94,-129.58 1662.47,-109 1584.73,-37.8 1132.88,-161.94 1189.47,-73"/>
</g>
<!-- visualCaseGen_custom_widget_types_case_tools -->
<g id="node36" class="node">
<title>visualCaseGen_custom_widget_types_case_tools</title><style>.edge>path:hover{stroke-width:8}</style>
<ellipse fill="#c247c2" stroke="black" cx="1284.47" cy="-427.89" rx="88.74" ry="32.7"/>
<text text-anchor="middle" x="1284.47" y="-437.52" font-family="Helvetica,sans-Serif" font-size="10.00" fill="#ffffff">visualCaseGen.</text>
<text text-anchor="middle" x="1284.47" y="-424.77" font-family="Helvetica,sans-Serif" font-size="10.00" fill="#ffffff">custom_widget_types.</text>
<text text-anchor="middle" x="1284.47" y="-412.02" font-family="Helvetica,sans-Serif" font-size="10.00" fill="#ffffff">case_tools</text>
</g>
<!-- visualCaseGen_custom_widget_types_case_tools&#45;&gt;case_py -->
<g id="edge57" class="edge">
<title>visualCaseGen_custom_widget_types_case_tools&#45;&gt;case_py</title><style>.edge>path:hover{stroke-width:8}</style>
<path fill="none" stroke="black" d="M1316.64,-397.1C1326.2,-386.2 1335.46,-373.11 1340.47,-359.19 1350.31,-331.84 1348.03,-321.85 1340.47,-293.78 1319.06,-214.33 1276.43,-210.71 1247.47,-133.69"/>
</g>
<!-- visualCaseGen_custom_widget_types_case_tools&#45;&gt;CrocoDash_forcing_configurations -->
<g id="edge58" class="edge">
<title>visualCaseGen_custom_widget_types_case_tools&#45;&gt;CrocoDash_forcing_configurations</title><style>.edge>path:hover{stroke-width:8}</style>
<path fill="none" stroke="black" d="M1255.44,-396.61C1245.89,-385.48 1235.84,-372.37 1228.47,-359.19 1190.21,-290.82 1206.51,-262.45 1171.47,-192.38 1166.95,-183.34 1161.22,-174.08 1155.53,-165.66"/>
<polygon fill="#c247c2" stroke="black" points="1158.4,-163.65 1149.8,-157.46 1152.66,-167.66 1158.4,-163.65"/>
</g>
<!-- visualCaseGen_initialize -->
<g id="node37" class="node">
<title>visualCaseGen_initialize</title><style>.edge>path:hover{stroke-width:8}</style>
<ellipse fill="#b653b6" stroke="black" cx="1774.47" cy="-132.69" rx="64.88" ry="23.69"/>
<text text-anchor="middle" x="1774.47" y="-135.94" font-family="Helvetica,sans-Serif" font-size="10.00" fill="#ffffff">visualCaseGen.</text>
<text text-anchor="middle" x="1774.47" y="-123.19" font-family="Helvetica,sans-Serif" font-size="10.00" fill="#ffffff">initialize</text>
</g>
<!-- visualCaseGen_initialize&#45;&gt;case_py -->
<g id="edge59" class="edge">
<title>visualCaseGen_initialize&#45;&gt;case_py</title><style>.edge>path:hover{stroke-width:8}</style>
<path fill="none" stroke="black" d="M1726.8,-116.27C1716.56,-113.44 1705.72,-110.82 1695.47,-109 1639.97,-99.17 1159.21,-120.55 1189.47,-73"/>
</g>
<!-- xesmf -->
<g id="node38" class="node">
<title>xesmf</title><style>.edge>path:hover{stroke-width:8}</style>
<ellipse fill="#c1156b" stroke="black" cx="427.47" cy="-538.32" rx="28.15" ry="18"/>
<text text-anchor="middle" x="427.47" y="-535.19" font-family="Helvetica,sans-Serif" font-size="10.00" fill="#ffffff">xesmf</text>
</g>
<!-- xesmf&#45;&gt;case_py -->
<g id="edge60" class="edge">
<title>xesmf&#45;&gt;case_py</title><style>.edge>path:hover{stroke-width:8}</style>
<path fill="none" stroke="black" d="M404.24,-527.54C361.69,-509.47 274.67,-471.67 264.47,-460.6 212.93,-404.69 194.27,-362.67 226.47,-293.78 246.34,-251.28 271.9,-256.68 307.47,-226.08"/>
<path fill="none" stroke="black" d="M307.47,-224.08C328.72,-204.94 336.51,-201.93 363.47,-192.38 454.79,-160.02 494.38,-204.5 578.47,-156.38 589.88,-149.84 585.52,-139.19 597.47,-133.69"/>
<path fill="none" stroke="black" d="M597.47,-131.69C609.41,-126.19 604.73,-114.94 616.47,-109 673.39,-80.21 1155.26,-126.85 1189.47,-73"/>
</g>
<!-- xesmf&#45;&gt;mom6_bathy_chl -->
<g id="edge61" class="edge">
<title>xesmf&#45;&gt;mom6_bathy_chl</title><style>.edge>path:hover{stroke-width:8}</style>
<path fill="none" stroke="black" d="M427.42,-519.91C428,-497.72 431.21,-458.67 445.47,-428.89"/>
<path fill="none" stroke="black" d="M445.47,-426.89C458.96,-398.71 430.73,-390.15 426.47,-359.19 422.5,-330.39 425.4,-322.83 426.47,-293.78 426.94,-280.89 427.93,-266.64 428.9,-254.55"/>
<polygon fill="#c1156b" stroke="black" points="432.36,-255.08 429.72,-244.82 425.39,-254.49 432.36,-255.08"/>
</g>
<!-- xesmf&#45;&gt;mom6_bathy_mapping -->
<g id="edge62" class="edge">
<title>xesmf&#45;&gt;mom6_bathy_mapping</title><style>.edge>path:hover{stroke-width:8}</style>
<path fill="none" stroke="black" d="M440.55,-521.92C448.83,-513.18 460.24,-502.77 472.47,-496.6 544.52,-460.22 578.3,-496.74 650.47,-460.6 700.71,-435.43 747.04,-388.81 774.28,-357.96"/>
<polygon fill="#c1156b" stroke="black" points="776.87,-360.32 780.78,-350.47 771.58,-355.73 776.87,-360.32"/>
</g>
<!-- xesmf&#45;&gt;mom6_bathy_topo -->
<g id="edge63" class="edge">
<title>xesmf&#45;&gt;mom6_bathy_topo</title><style>.edge>path:hover{stroke-width:8}</style>
<path fill="none" stroke="black" d="M445.47,-426.89C460.42,-395.67 547.7,-363.34 607.73,-344.34"/>
<polygon fill="#c1156b" stroke="black" points="608.65,-347.72 617.15,-341.4 606.56,-341.04 608.65,-347.72"/>
</g>
<!-- xesmf__version -->
<g id="node39" class="node">
<title>xesmf__version</title><style>.edge>path:hover{stroke-width:8}</style>
<ellipse fill="#b65385" stroke="black" cx="427.47" cy="-648.74" rx="54.76" ry="18"/>
<text text-anchor="middle" x="427.47" y="-645.62" font-family="Helvetica,sans-Serif" font-size="10.00" fill="#ffffff">xesmf._version</text>
</g>
<!-- xesmf__version&#45;&gt;xesmf -->
<g id="edge64" class="edge">
<title>xesmf__version&#45;&gt;xesmf</title><style>.edge>path:hover{stroke-width:8}</style>
<path fill="none" stroke="black" d="M427.47,-630.32C427.47,-613.57 427.47,-587.93 427.47,-568.13"/>
<polygon fill="#b65385" stroke="black" points="430.97,-568.21 427.47,-558.21 423.97,-568.21 430.97,-568.21"/>
</g>
<!-- xesmf_data -->
<g id="node40" class="node">
<title>xesmf_data</title><style>.edge>path:hover{stroke-width:8}</style>
<ellipse fill="#b65385" stroke="black" cx="543.47" cy="-648.74" rx="42.83" ry="18"/>
<text text-anchor="middle" x="543.47" y="-645.62" font-family="Helvetica,sans-Serif" font-size="10.00" fill="#ffffff">xesmf.data</text>
</g>
<!-- xesmf_data&#45;&gt;xesmf -->
<g id="edge65" class="edge">
<title>xesmf_data&#45;&gt;xesmf</title><style>.edge>path:hover{stroke-width:8}</style>
<path fill="none" stroke="black" d="M526.85,-632.21C507.05,-613.7 473.83,-582.65 451.29,-561.59"/>
<polygon fill="#b65385" stroke="black" points="453.75,-559.09 444.05,-554.82 448.97,-564.2 453.75,-559.09"/>
</g>
<!-- xesmf_frontend -->
<g id="node41" class="node">
<title>xesmf_frontend</title><style>.edge>path:hover{stroke-width:8}</style>
<polygon fill="blue" stroke="black" points="316.22,-666.74 226.72,-666.74 226.72,-630.74 316.22,-630.74 316.22,-666.74"/>
<text text-anchor="middle" x="271.47" y="-645.62" font-family="Helvetica,sans-Serif" font-size="10.00" fill="white">xesmf.frontend</text>
</g>
<!-- xesmf_frontend&#45;&gt;xesmf -->
<g id="edge66" class="edge">
<title>xesmf_frontend&#45;&gt;xesmf</title><style>.edge>path:hover{stroke-width:8}</style>
<path fill="none" stroke="black" d="M296.53,-630.32C324.7,-610.74 370.3,-579.05 399.58,-558.7"/>
<polygon fill="blue" stroke="black" points="401.37,-561.72 407.59,-553.14 397.38,-555.97 401.37,-561.72"/>
</g>
<!-- xesmf_util&#45;&gt;xesmf -->
<g id="edge68" class="edge">
<title>xesmf_util&#45;&gt;xesmf</title><style>.edge>path:hover{stroke-width:8}</style>
<path fill="none" stroke="black" d="M344.42,-717.16C344.96,-693.34 348.2,-649.58 363.47,-616.04 372.96,-595.19 389.69,-575.43 403.67,-561.19"/>
<polygon fill="blue" stroke="black" points="405.75,-564.04 410.42,-554.53 400.84,-559.06 405.75,-564.04"/>
</g>
<!-- xesmf_util&#45;&gt;xesmf_frontend -->
<g id="edge69" class="edge">
<title>xesmf_util&#45;&gt;xesmf_frontend</title><style>.edge>path:hover{stroke-width:8}</style>
<path fill="none" stroke="black" d="M322.45,-708.9C313.36,-698.35 302.84,-686.15 293.73,-675.57"/>
<polygon fill="blue" stroke="black" points="319.53,-710.87 328.71,-716.16 324.83,-706.3 319.53,-710.87"/>
<polygon fill="blue" stroke="black" points="296.64,-673.58 287.46,-668.29 291.33,-678.15 296.64,-673.58"/>
</g>
</g>
</svg>
