<?xml version="1.0" encoding="UTF-8" standalone="no"?>
<!DOCTYPE svg PUBLIC "-//W3C//DTD SVG 1.1//EN"
 "http://www.w3.org/Graphics/SVG/1.1/DTD/svg11.dtd">
<!-- Generated by graphviz version 12.2.1 (20250203.1708)
 -->
<!-- Title: G Pages: 1 -->
<svg width="1758pt" height="678pt"
 viewBox="0.00 0.00 1758.07 677.94" xmlns="http://www.w3.org/2000/svg" xmlns:xlink="http://www.w3.org/1999/xlink">
<g id="graph0" class="graph" transform="scale(1 1) rotate(0) translate(4 673.94)">
<title>G</title><style>.edge>path:hover{stroke-width:8}</style>
<polygon fill="white" stroke="none" points="-4,4 -4,-673.94 1754.07,-673.94 1754.07,4 -4,4"/>
<!-- case_py -->
<g id="node1" class="node">
<title>case_py</title><style>.edge>path:hover{stroke-width:8}</style>
<ellipse fill="#4c6335" stroke="black" cx="904.98" cy="-18" rx="32.73" ry="18"/>
<text text-anchor="middle" x="904.98" y="-14.88" font-family="Helvetica,sans-Serif" font-size="10.00" fill="#ffffff">case.py</text>
</g>
<!-- CrocoDash -->
<g id="node2" class="node">
<title>CrocoDash</title><style>.edge>path:hover{stroke-width:8}</style>
<ellipse fill="#c24747" stroke="black" cx="178.98" cy="-132.69" rx="41.91" ry="18"/>
<text text-anchor="middle" x="178.98" y="-129.56" font-family="Helvetica,sans-Serif" font-size="10.00" fill="#ffffff">CrocoDash</text>
</g>
<!-- CrocoDash&#45;&gt;case_py -->
<g id="edge1" class="edge">
<title>CrocoDash&#45;&gt;case_py</title><style>.edge>path:hover{stroke-width:8}</style>
<path fill="none" stroke="black" d="M206.03,-118.63C215.04,-114.85 225.26,-111.17 234.98,-109 271.37,-100.89 894.22,-108.69 904.98,-73"/>
<path fill="none" stroke="black" d="M904.98,-72C907.34,-64.19 908.06,-55.43 908,-47.31"/>
<polygon fill="#c24747" stroke="black" points="911.51,-47.4 907.53,-37.59 904.52,-47.74 911.51,-47.4"/>
</g>
<!-- CrocoDash_grid -->
<g id="node3" class="node">
<title>CrocoDash_grid</title><style>.edge>path:hover{stroke-width:8}</style>
<ellipse fill="#b83d3d" stroke="black" cx="403.98" cy="-418.88" rx="55.22" ry="18"/>
<text text-anchor="middle" x="403.98" y="-415.75" font-family="Helvetica,sans-Serif" font-size="10.00" fill="#ffffff">CrocoDash.grid</text>
</g>
<!-- CrocoDash_grid&#45;&gt;case_py -->
<g id="edge2" class="edge">
<title>CrocoDash_grid&#45;&gt;case_py</title><style>.edge>path:hover{stroke-width:8}</style>
<path fill="none" stroke="black" d="M544.98,-325.49C556.61,-282.86 570.32,-262.27 544.98,-226.08"/>
<path fill="none" stroke="black" d="M544.98,-224.08C535.56,-210.62 537.68,-203.91 525.98,-192.38 503.3,-170 488.36,-176.9 463.98,-156.38 453.92,-147.9 435.26,-142.54 444.98,-133.69"/>
</g>
<!-- CrocoDash_raw_data_access_driver -->
<g id="node6" class="node">
<title>CrocoDash_raw_data_access_driver</title><style>.edge>path:hover{stroke-width:8}</style>
<ellipse fill="#964040" stroke="black" cx="444.98" cy="-225.08" rx="72.3" ry="32.7"/>
<text text-anchor="middle" x="444.98" y="-234.7" font-family="Helvetica,sans-Serif" font-size="10.00" fill="#ffffff">CrocoDash.</text>
<text text-anchor="middle" x="444.98" y="-221.95" font-family="Helvetica,sans-Serif" font-size="10.00" fill="#ffffff">raw_data_access.</text>
<text text-anchor="middle" x="444.98" y="-209.2" font-family="Helvetica,sans-Serif" font-size="10.00" fill="#ffffff">driver</text>
</g>
<!-- CrocoDash_grid&#45;&gt;CrocoDash_raw_data_access_driver -->
<g id="edge3" class="edge">
<title>CrocoDash_grid&#45;&gt;CrocoDash_raw_data_access_driver</title><style>.edge>path:hover{stroke-width:8}</style>
<path fill="none" stroke="black" d="M442.86,-405.8C468.69,-396.29 502.11,-380.97 525.98,-359.19 538.12,-348.12 540.66,-343.34 544.98,-327.49"/>
<path fill="none" stroke="black" d="M544.98,-325.49C552.9,-296.46 530.17,-272.39 504.39,-255.21"/>
<polygon fill="#b83d3d" stroke="black" points="506.42,-252.35 496.08,-250 502.69,-258.28 506.42,-252.35"/>
</g>
<!-- CrocoDash_raw_data_access -->
<g id="node4" class="node">
<title>CrocoDash_raw_data_access</title><style>.edge>path:hover{stroke-width:8}</style>
<ellipse fill="#c24747" stroke="black" cx="346.98" cy="-132.69" rx="70.18" ry="23.69"/>
<text text-anchor="middle" x="346.98" y="-135.94" font-family="Helvetica,sans-Serif" font-size="10.00" fill="#ffffff">CrocoDash.</text>
<text text-anchor="middle" x="346.98" y="-123.19" font-family="Helvetica,sans-Serif" font-size="10.00" fill="#ffffff">raw_data_access</text>
</g>
<!-- CrocoDash_raw_data_access&#45;&gt;case_py -->
<g id="edge4" class="edge">
<title>CrocoDash_raw_data_access&#45;&gt;case_py</title><style>.edge>path:hover{stroke-width:8}</style>
<path fill="none" stroke="black" d="M398.17,-116.22C408.93,-113.44 420.26,-110.84 430.98,-109 483.04,-100.07 889.73,-123.57 904.98,-73"/>
</g>
<!-- CrocoDash_raw_data_access_config -->
<g id="node5" class="node">
<title>CrocoDash_raw_data_access_config</title><style>.edge>path:hover{stroke-width:8}</style>
<ellipse fill="#c24747" stroke="black" cx="281.98" cy="-326.49" rx="72.3" ry="32.7"/>
<text text-anchor="middle" x="281.98" y="-336.11" font-family="Helvetica,sans-Serif" font-size="10.00" fill="#ffffff">CrocoDash.</text>
<text text-anchor="middle" x="281.98" y="-323.36" font-family="Helvetica,sans-Serif" font-size="10.00" fill="#ffffff">raw_data_access.</text>
<text text-anchor="middle" x="281.98" y="-310.61" font-family="Helvetica,sans-Serif" font-size="10.00" fill="#ffffff">config</text>
</g>
<!-- CrocoDash_raw_data_access_config&#45;&gt;case_py -->
<g id="edge5" class="edge">
<title>CrocoDash_raw_data_access_config&#45;&gt;case_py</title><style>.edge>path:hover{stroke-width:8}</style>
<path fill="none" stroke="black" d="M271.87,-294.04C266.97,-272.13 265.28,-243.77 281.98,-226.08"/>
</g>
<!-- CrocoDash_raw_data_access_config&#45;&gt;CrocoDash_raw_data_access_driver -->
<g id="edge6" class="edge">
<title>CrocoDash_raw_data_access_config&#45;&gt;CrocoDash_raw_data_access_driver</title><style>.edge>path:hover{stroke-width:8}</style>
<path fill="none" stroke="black" d="M324.38,-299.63C345.34,-286.85 370.81,-271.32 392.93,-257.82"/>
<polygon fill="#c24747" stroke="black" points="394.5,-260.96 401.22,-252.77 390.86,-254.99 394.5,-260.96"/>
</g>
<!-- CrocoDash_raw_data_access_driver&#45;&gt;case_py -->
<g id="edge7" class="edge">
<title>CrocoDash_raw_data_access_driver&#45;&gt;case_py</title><style>.edge>path:hover{stroke-width:8}</style>
<path fill="none" stroke="black" d="M434.58,-192.59C430.19,-172.67 429.2,-148.06 444.98,-133.69"/>
</g>
<!-- CrocoDash_raw_data_access_utils -->
<g id="node7" class="node">
<title>CrocoDash_raw_data_access_utils</title><style>.edge>path:hover{stroke-width:8}</style>
<ellipse fill="#b65353" stroke="black" cx="444.98" cy="-326.49" rx="72.3" ry="32.7"/>
<text text-anchor="middle" x="444.98" y="-336.11" font-family="Helvetica,sans-Serif" font-size="10.00" fill="#ffffff">CrocoDash.</text>
<text text-anchor="middle" x="444.98" y="-323.36" font-family="Helvetica,sans-Serif" font-size="10.00" fill="#ffffff">raw_data_access.</text>
<text text-anchor="middle" x="444.98" y="-310.61" font-family="Helvetica,sans-Serif" font-size="10.00" fill="#ffffff">utils</text>
</g>
<!-- CrocoDash_raw_data_access_utils&#45;&gt;CrocoDash_raw_data_access_driver -->
<g id="edge8" class="edge">
<title>CrocoDash_raw_data_access_utils&#45;&gt;CrocoDash_raw_data_access_driver</title><style>.edge>path:hover{stroke-width:8}</style>
<path fill="none" stroke="black" d="M444.98,-293.49C444.98,-285.77 444.98,-277.4 444.98,-269.27"/>
<polygon fill="#b65353" stroke="black" points="448.48,-269.53 444.98,-259.53 441.48,-269.53 448.48,-269.53"/>
</g>
<!-- CrocoDash_topo -->
<g id="node8" class="node">
<title>CrocoDash_topo</title><style>.edge>path:hover{stroke-width:8}</style>
<ellipse fill="#a44646" stroke="black" cx="629.98" cy="-326.49" rx="57.06" ry="18"/>
<text text-anchor="middle" x="629.98" y="-323.36" font-family="Helvetica,sans-Serif" font-size="10.00" fill="#ffffff">CrocoDash.topo</text>
</g>
<!-- CrocoDash_topo&#45;&gt;case_py -->
<g id="edge9" class="edge">
<title>CrocoDash_topo&#45;&gt;case_py</title><style>.edge>path:hover{stroke-width:8}</style>
<path fill="none" stroke="black" d="M614.19,-309.06C596.28,-289.98 566.73,-257.14 544.98,-226.08"/>
</g>
<!-- CrocoDash_vgrid -->
<g id="node9" class="node">
<title>CrocoDash_vgrid</title><style>.edge>path:hover{stroke-width:8}</style>
<ellipse fill="#ac4949" stroke="black" cx="64.98" cy="-418.88" rx="50.56" ry="23.69"/>
<text text-anchor="middle" x="64.98" y="-422.13" font-family="Helvetica,sans-Serif" font-size="10.00" fill="#ffffff">CrocoDash.</text>
<text text-anchor="middle" x="64.98" y="-409.38" font-family="Helvetica,sans-Serif" font-size="10.00" fill="#ffffff">vgrid</text>
</g>
<!-- CrocoDash_vgrid&#45;&gt;case_py -->
<g id="edge10" class="edge">
<title>CrocoDash_vgrid&#45;&gt;case_py</title><style>.edge>path:hover{stroke-width:8}</style>
<path fill="none" stroke="black" d="M78.68,-395.87C121.86,-326.67 253.15,-117.55 267.98,-109 329.4,-73.6 884.11,-140.75 904.98,-73"/>
</g>
<!-- mom6_bathy -->
<g id="node10" class="node">
<title>mom6_bathy</title><style>.edge>path:hover{stroke-width:8}</style>
<ellipse fill="#16f34d" stroke="black" cx="402.98" cy="-579.94" rx="49.26" ry="18"/>
<text text-anchor="middle" x="402.98" y="-576.82" font-family="Helvetica,sans-Serif" font-size="10.00" fill="#000000">mom6_bathy</text>
</g>
<!-- mom6_bathy&#45;&gt;case_py -->
<g id="edge11" class="edge">
<title>mom6_bathy&#45;&gt;case_py</title><style>.edge>path:hover{stroke-width:8}</style>
<path fill="none" stroke="black" d="M143.98,-501.26C114,-475.49 163.36,-362.35 181.98,-327.49"/>
<path fill="none" stroke="black" d="M181.98,-325.49C189.67,-310.97 190.31,-306.27 200.98,-293.78 231.47,-258.12 249.77,-260.2 281.98,-226.08"/>
<path fill="none" stroke="black" d="M281.98,-224.08C330.53,-172.65 369.97,-199.54 425.98,-156.38 436.4,-148.35 435.26,-142.54 444.98,-133.69"/>
<path fill="none" stroke="black" d="M444.98,-131.69C454.71,-122.83 452.3,-115.04 463.98,-109 507.65,-86.4 890.53,-119.99 904.98,-73"/>
</g>
<!-- mom6_bathy&#45;&gt;CrocoDash_grid -->
<g id="edge12" class="edge">
<title>mom6_bathy&#45;&gt;CrocoDash_grid</title><style>.edge>path:hover{stroke-width:8}</style>
<path fill="none" stroke="black" d="M432.42,-565.15C454.49,-552.66 481.74,-531.83 486.98,-503.26"/>
<path fill="none" stroke="black" d="M486.98,-501.26C491.87,-474.59 468.78,-453.51 445.73,-439.49"/>
<polygon fill="#16f34d" stroke="black" points="447.67,-436.57 437.25,-434.66 444.21,-442.65 447.67,-436.57"/>
</g>
<!-- mom6_bathy&#45;&gt;CrocoDash_topo -->
<g id="edge13" class="edge">
<title>mom6_bathy&#45;&gt;CrocoDash_topo</title><style>.edge>path:hover{stroke-width:8}</style>
<path fill="none" stroke="black" d="M486.98,-501.26C499.11,-435.08 559.62,-379.31 597.94,-349.89"/>
<polygon fill="#16f34d" stroke="black" points="599.58,-353.03 605.48,-344.23 595.38,-347.43 599.58,-353.03"/>
</g>
<!-- mom6_bathy&#45;&gt;CrocoDash_vgrid -->
<g id="edge14" class="edge">
<title>mom6_bathy&#45;&gt;CrocoDash_vgrid</title><style>.edge>path:hover{stroke-width:8}</style>
<path fill="none" stroke="black" d="M354.05,-577.29C302.99,-573.58 222.26,-561.92 162.98,-525.94 151.74,-519.12 153.96,-511.83 143.98,-503.26"/>
<path fill="none" stroke="black" d="M143.98,-501.26C134.01,-492.68 133.92,-488.22 124.98,-478.57 115.64,-468.48 105.04,-457.85 95.37,-448.46"/>
<polygon fill="#16f34d" stroke="black" points="97.89,-446.02 88.26,-441.61 93.03,-451.07 97.89,-446.02"/>
</g>
<!-- mom6_bathy_aux -->
<g id="node11" class="node">
<title>mom6_bathy_aux</title><style>.edge>path:hover{stroke-width:8}</style>
<ellipse fill="#40c060" stroke="black" cx="747.98" cy="-502.26" rx="61.19" ry="18"/>
<text text-anchor="middle" x="747.98" y="-499.13" font-family="Helvetica,sans-Serif" font-size="10.00" fill="#000000">mom6_bathy.aux</text>
</g>
<!-- mom6_bathy_chl -->
<g id="node12" class="node">
<title>mom6_bathy_chl</title><style>.edge>path:hover{stroke-width:8}</style>
<ellipse fill="#3d8f51" stroke="black" cx="792.98" cy="-326.49" rx="58.89" ry="18"/>
<text text-anchor="middle" x="792.98" y="-323.36" font-family="Helvetica,sans-Serif" font-size="10.00" fill="#ffffff">mom6_bathy.chl</text>
</g>
<!-- mom6_bathy_aux&#45;&gt;mom6_bathy_chl -->
<g id="edge15" class="edge">
<title>mom6_bathy_aux&#45;&gt;mom6_bathy_chl</title><style>.edge>path:hover{stroke-width:8}</style>
<path fill="none" stroke="black" d="M782.82,-487.12C809.37,-473.78 840.81,-451.16 836.98,-419.88"/>
<path fill="none" stroke="black" d="M836.98,-417.88C834.15,-394.71 822.27,-371.07 811.56,-353.79"/>
<polygon fill="#40c060" stroke="black" points="814.67,-352.15 806.3,-345.66 808.8,-355.96 814.67,-352.15"/>
</g>
<!-- mom6_bathy_topo -->
<g id="node14" class="node">
<title>mom6_bathy_topo</title><style>.edge>path:hover{stroke-width:8}</style>
<ellipse fill="#38a854" stroke="black" cx="747.98" cy="-418.88" rx="57.98" ry="23.69"/>
<text text-anchor="middle" x="747.98" y="-422.13" font-family="Helvetica,sans-Serif" font-size="10.00" fill="#ffffff">mom6_bathy.</text>
<text text-anchor="middle" x="747.98" y="-409.38" font-family="Helvetica,sans-Serif" font-size="10.00" fill="#ffffff">topo</text>
</g>
<!-- mom6_bathy_aux&#45;&gt;mom6_bathy_topo -->
<g id="edge16" class="edge">
<title>mom6_bathy_aux&#45;&gt;mom6_bathy_topo</title><style>.edge>path:hover{stroke-width:8}</style>
<path fill="none" stroke="black" d="M747.98,-484C747.98,-475.32 747.98,-464.48 747.98,-454.21"/>
<polygon fill="#40c060" stroke="black" points="751.48,-454.49 747.98,-444.49 744.48,-454.49 751.48,-454.49"/>
</g>
<!-- mom6_bathy_chl&#45;&gt;case_py -->
<g id="edge17" class="edge">
<title>mom6_bathy_chl&#45;&gt;case_py</title><style>.edge>path:hover{stroke-width:8}</style>
<path fill="none" stroke="black" d="M794.61,-308.03C798.09,-280.1 808.72,-225.21 839.98,-192.38 869.12,-161.77 904.43,-191.46 927.98,-156.38 939.72,-138.89 933.89,-129.21 927.98,-109 922.66,-90.78 899.5,-91.18 904.98,-73"/>
</g>
<!-- mom6_bathy_grid -->
<g id="node13" class="node">
<title>mom6_bathy_grid</title><style>.edge>path:hover{stroke-width:8}</style>
<ellipse fill="#40c060" stroke="black" cx="572.98" cy="-502.26" rx="57.98" ry="23.69"/>
<text text-anchor="middle" x="572.98" y="-505.51" font-family="Helvetica,sans-Serif" font-size="10.00" fill="#000000">mom6_bathy.</text>
<text text-anchor="middle" x="572.98" y="-492.76" font-family="Helvetica,sans-Serif" font-size="10.00" fill="#000000">grid</text>
</g>
<!-- mom6_bathy_grid&#45;&gt;CrocoDash_grid -->
<g id="edge18" class="edge">
<title>mom6_bathy_grid&#45;&gt;CrocoDash_grid</title><style>.edge>path:hover{stroke-width:8}</style>
<path fill="none" stroke="black" d="M536.31,-483.6C509.2,-470.54 472.28,-452.77 444.33,-439.31"/>
<polygon fill="#40c060" stroke="black" points="445.99,-436.22 435.46,-435.04 442.95,-442.53 445.99,-436.22"/>
</g>
<!-- mom6_bathy_grid&#45;&gt;mom6_bathy_chl -->
<g id="edge19" class="edge">
<title>mom6_bathy_grid&#45;&gt;mom6_bathy_chl</title><style>.edge>path:hover{stroke-width:8}</style>
<path fill="none" stroke="black" d="M591.99,-479.83C612.61,-457.27 647.14,-421.46 680.98,-395.19 704.02,-377.31 732.11,-360.34 754.39,-347.86"/>
<polygon fill="#40c060" stroke="black" points="755.8,-351.09 762.86,-343.19 752.41,-344.96 755.8,-351.09"/>
</g>
<!-- mom6_bathy_topo&#45;&gt;CrocoDash_topo -->
<g id="edge20" class="edge">
<title>mom6_bathy_topo&#45;&gt;CrocoDash_topo</title><style>.edge>path:hover{stroke-width:8}</style>
<path fill="none" stroke="black" d="M721.5,-397.59C703.25,-383.61 678.96,-365 659.99,-350.47"/>
<polygon fill="#38a854" stroke="black" points="662.15,-347.72 652.09,-344.42 657.9,-353.28 662.15,-347.72"/>
</g>
<!-- mom6_bathy_topo&#45;&gt;mom6_bathy_chl -->
<g id="edge21" class="edge">
<title>mom6_bathy_topo&#45;&gt;mom6_bathy_chl</title><style>.edge>path:hover{stroke-width:8}</style>
<path fill="none" stroke="black" d="M759.11,-395.53C765.21,-383.28 772.82,-367.99 779.28,-355"/>
<polygon fill="#38a854" stroke="black" points="782.39,-356.63 783.71,-346.11 776.12,-353.51 782.39,-356.63"/>
</g>
<!-- mom6_bathy_vgrid -->
<g id="node15" class="node">
<title>mom6_bathy_vgrid</title><style>.edge>path:hover{stroke-width:8}</style>
<ellipse fill="#4cb366" stroke="black" cx="57.98" cy="-502.26" rx="57.98" ry="23.69"/>
<text text-anchor="middle" x="57.98" y="-505.51" font-family="Helvetica,sans-Serif" font-size="10.00" fill="#000000">mom6_bathy.</text>
<text text-anchor="middle" x="57.98" y="-492.76" font-family="Helvetica,sans-Serif" font-size="10.00" fill="#000000">vgrid</text>
</g>
<!-- mom6_bathy_vgrid&#45;&gt;CrocoDash_vgrid -->
<g id="edge22" class="edge">
<title>mom6_bathy_vgrid&#45;&gt;CrocoDash_vgrid</title><style>.edge>path:hover{stroke-width:8}</style>
<path fill="none" stroke="black" d="M59.97,-478.15C60.61,-470.77 61.32,-462.42 62.01,-454.4"/>
<polygon fill="#4cb366" stroke="black" points="65.49,-454.81 62.86,-444.55 58.52,-454.21 65.49,-454.81"/>
</g>
<!-- numpy -->
<g id="node16" class="node">
<title>numpy</title><style>.edge>path:hover{stroke-width:8}</style>
<ellipse fill="#0cf3f3" stroke="black" cx="658.98" cy="-651.94" rx="30.44" ry="18"/>
<text text-anchor="middle" x="658.98" y="-648.82" font-family="Helvetica,sans-Serif" font-size="10.00" fill="#000000">numpy</text>
</g>
<!-- numpy&#45;&gt;mom6_bathy_aux -->
<g id="edge23" class="edge">
<title>numpy&#45;&gt;mom6_bathy_aux</title><style>.edge>path:hover{stroke-width:8}</style>
<path fill="none" stroke="black" d="M658.98,-578.94C659.15,-553.53 680.47,-534.86 702.21,-522.42"/>
<polygon fill="#0cf3f3" stroke="black" points="703.62,-525.63 710.81,-517.85 700.34,-519.45 703.62,-525.63"/>
</g>
<!-- numpy&#45;&gt;mom6_bathy_chl -->
<g id="edge24" class="edge">
<title>numpy&#45;&gt;mom6_bathy_chl</title><style>.edge>path:hover{stroke-width:8}</style>
<path fill="none" stroke="black" d="M688.61,-647.36C738.46,-640.65 835.68,-624.44 855.98,-597.94 904.4,-534.78 846.64,-498.88 836.98,-419.88"/>
</g>
<!-- numpy&#45;&gt;mom6_bathy_grid -->
<g id="edge25" class="edge">
<title>numpy&#45;&gt;mom6_bathy_grid</title><style>.edge>path:hover{stroke-width:8}</style>
<path fill="none" stroke="black" d="M658.92,-633.68C658.89,-619.51 658.87,-598.93 658.98,-580.94"/>
<path fill="none" stroke="black" d="M658.98,-578.94C659.13,-555.97 641.64,-538.32 622.4,-525.87"/>
<polygon fill="#0cf3f3" stroke="black" points="624.25,-522.9 613.87,-520.78 620.67,-528.91 624.25,-522.9"/>
</g>
<!-- numpy&#45;&gt;mom6_bathy_topo -->
<g id="edge26" class="edge">
<title>numpy&#45;&gt;mom6_bathy_topo</title><style>.edge>path:hover{stroke-width:8}</style>
<path fill="none" stroke="black" d="M658.98,-578.94C659.27,-533.54 655.03,-517.74 677.98,-478.57 685.32,-466.04 696.36,-454.97 707.52,-445.92"/>
<polygon fill="#0cf3f3" stroke="black" points="709.41,-448.88 715.22,-440.02 705.15,-443.32 709.41,-448.88"/>
</g>
<!-- numpy&#45;&gt;mom6_bathy_vgrid -->
<g id="edge27" class="edge">
<title>numpy&#45;&gt;mom6_bathy_vgrid</title><style>.edge>path:hover{stroke-width:8}</style>
<path fill="none" stroke="black" d="M629.24,-647.45C573.12,-640.52 448.01,-623.48 344.98,-597.94 261.26,-577.19 166.7,-544.04 109.76,-522.98"/>
<polygon fill="#0cf3f3" stroke="black" points="111.24,-519.79 100.65,-519.59 108.8,-526.36 111.24,-519.79"/>
</g>
<!-- ProConPy_config_var -->
<g id="node17" class="node">
<title>ProConPy_config_var</title><style>.edge>path:hover{stroke-width:8}</style>
<ellipse fill="#b69d53" stroke="black" cx="519.98" cy="-132.69" rx="46.85" ry="23.69"/>
<text text-anchor="middle" x="519.98" y="-135.94" font-family="Helvetica,sans-Serif" font-size="10.00" fill="#000000">ProConPy.</text>
<text text-anchor="middle" x="519.98" y="-123.19" font-family="Helvetica,sans-Serif" font-size="10.00" fill="#000000">config_var</text>
</g>
<!-- ProConPy_config_var&#45;&gt;case_py -->
<g id="edge28" class="edge">
<title>ProConPy_config_var&#45;&gt;case_py</title><style>.edge>path:hover{stroke-width:8}</style>
<path fill="none" stroke="black" d="M554.14,-116.12C561.24,-113.38 568.76,-110.82 575.98,-109 611.64,-100.01 894.37,-108.21 904.98,-73"/>
</g>
<!-- ProConPy_csp_solver -->
<g id="node18" class="node">
<title>ProConPy_csp_solver</title><style>.edge>path:hover{stroke-width:8}</style>
<ellipse fill="#b69d53" stroke="black" cx="632.98" cy="-132.69" rx="47.91" ry="23.69"/>
<text text-anchor="middle" x="632.98" y="-135.94" font-family="Helvetica,sans-Serif" font-size="10.00" fill="#000000">ProConPy.</text>
<text text-anchor="middle" x="632.98" y="-123.19" font-family="Helvetica,sans-Serif" font-size="10.00" fill="#000000">csp_solver</text>
</g>
<!-- ProConPy_csp_solver&#45;&gt;case_py -->
<g id="edge29" class="edge">
<title>ProConPy_csp_solver&#45;&gt;case_py</title><style>.edge>path:hover{stroke-width:8}</style>
<path fill="none" stroke="black" d="M668.16,-116.34C675.29,-113.61 682.8,-111.01 689.98,-109 736.64,-95.97 891,-119.38 904.98,-73"/>
</g>
<!-- ProConPy_dev_utils -->
<g id="node19" class="node">
<title>ProConPy_dev_utils</title><style>.edge>path:hover{stroke-width:8}</style>
<ellipse fill="#b69d53" stroke="black" cx="743.98" cy="-132.69" rx="45.25" ry="23.69"/>
<text text-anchor="middle" x="743.98" y="-135.94" font-family="Helvetica,sans-Serif" font-size="10.00" fill="#000000">ProConPy.</text>
<text text-anchor="middle" x="743.98" y="-123.19" font-family="Helvetica,sans-Serif" font-size="10.00" fill="#000000">dev_utils</text>
</g>
<!-- ProConPy_dev_utils&#45;&gt;case_py -->
<g id="edge30" class="edge">
<title>ProConPy_dev_utils&#45;&gt;case_py</title><style>.edge>path:hover{stroke-width:8}</style>
<path fill="none" stroke="black" d="M778.4,-116.79C784.87,-114.11 791.61,-111.41 797.98,-109 844.92,-91.27 890.5,-121.04 904.98,-73"/>
</g>
<!-- ProConPy_stage -->
<g id="node20" class="node">
<title>ProConPy_stage</title><style>.edge>path:hover{stroke-width:8}</style>
<ellipse fill="#b69d53" stroke="black" cx="862.98" cy="-132.69" rx="55.68" ry="18"/>
<text text-anchor="middle" x="862.98" y="-129.56" font-family="Helvetica,sans-Serif" font-size="10.00" fill="#000000">ProConPy.stage</text>
</g>
<!-- ProConPy_stage&#45;&gt;case_py -->
<g id="edge31" class="edge">
<title>ProConPy_stage&#45;&gt;case_py</title><style>.edge>path:hover{stroke-width:8}</style>
<path fill="none" stroke="black" d="M879.2,-115.36C888.86,-104.4 900.14,-89.07 904.98,-73"/>
</g>
<!-- regional_mom6 -->
<g id="node21" class="node">
<title>regional_mom6</title><style>.edge>path:hover{stroke-width:8}</style>
<ellipse fill="#4766c2" stroke="black" cx="228.98" cy="-502.26" rx="56.6" ry="18"/>
<text text-anchor="middle" x="228.98" y="-499.13" font-family="Helvetica,sans-Serif" font-size="10.00" fill="#ffffff">regional_mom6</text>
</g>
<!-- regional_mom6&#45;&gt;case_py -->
<g id="edge32" class="edge">
<title>regional_mom6&#45;&gt;case_py</title><style>.edge>path:hover{stroke-width:8}</style>
<path fill="none" stroke="black" d="M209.57,-485.02C193.18,-469.21 173.61,-444.09 181.98,-419.88"/>
<path fill="none" stroke="black" d="M181.98,-417.88C195.12,-379.91 163.05,-362.92 181.98,-327.49"/>
</g>
<!-- regional_mom6&#45;&gt;CrocoDash_topo -->
<g id="edge33" class="edge">
<title>regional_mom6&#45;&gt;CrocoDash_topo</title><style>.edge>path:hover{stroke-width:8}</style>
<path fill="none" stroke="black" d="M181.98,-417.88C207.34,-344.59 450.52,-377.05 525.98,-359.19 544.39,-354.83 564.32,-349.03 581.76,-343.58"/>
<polygon fill="#4766c2" stroke="black" points="582.35,-347.07 590.82,-340.71 580.23,-340.39 582.35,-347.07"/>
</g>
<!-- visualCaseGen_cime_interface -->
<g id="node22" class="node">
<title>visualCaseGen_cime_interface</title><style>.edge>path:hover{stroke-width:8}</style>
<ellipse fill="#8553b6" stroke="black" cx="1039.98" cy="-132.69" rx="64.88" ry="23.69"/>
<text text-anchor="middle" x="1039.98" y="-135.94" font-family="Helvetica,sans-Serif" font-size="10.00" fill="#ffffff">visualCaseGen.</text>
<text text-anchor="middle" x="1039.98" y="-123.19" font-family="Helvetica,sans-Serif" font-size="10.00" fill="#ffffff">cime_interface</text>
</g>
<!-- visualCaseGen_cime_interface&#45;&gt;case_py -->
<g id="edge34" class="edge">
<title>visualCaseGen_cime_interface&#45;&gt;case_py</title><style>.edge>path:hover{stroke-width:8}</style>
<path fill="none" stroke="black" d="M992.57,-116.05C952.54,-102.12 902.11,-82.51 904.98,-73"/>
</g>
<!-- visualCaseGen_custom_widget_types_case_creator -->
<g id="node23" class="node">
<title>visualCaseGen_custom_widget_types_case_creator</title><style>.edge>path:hover{stroke-width:8}</style>
<ellipse fill="#8553b6" stroke="black" cx="937.98" cy="-225.08" rx="88.74" ry="32.7"/>
<text text-anchor="middle" x="937.98" y="-234.7" font-family="Helvetica,sans-Serif" font-size="10.00" fill="#ffffff">visualCaseGen.</text>
<text text-anchor="middle" x="937.98" y="-221.95" font-family="Helvetica,sans-Serif" font-size="10.00" fill="#ffffff">custom_widget_types.</text>
<text text-anchor="middle" x="937.98" y="-209.2" font-family="Helvetica,sans-Serif" font-size="10.00" fill="#ffffff">case_creator</text>
</g>
<!-- visualCaseGen_custom_widget_types_case_creator&#45;&gt;case_py -->
<g id="edge35" class="edge">
<title>visualCaseGen_custom_widget_types_case_creator&#45;&gt;case_py</title><style>.edge>path:hover{stroke-width:8}</style>
<path fill="none" stroke="black" d="M1003.52,-202.71C1045.54,-188.29 1095.54,-169.56 1113.98,-156.38 1124.68,-148.73 1136.24,-146.43 1132.98,-133.69"/>
<path fill="none" stroke="black" d="M1132.98,-131.69C1129.73,-118.95 1125.38,-115.56 1113.98,-109 1073.13,-85.5 891.38,-118.12 904.98,-73"/>
</g>
<!-- visualCaseGen_custom_widget_types_case_tools -->
<g id="node24" class="node">
<title>visualCaseGen_custom_widget_types_case_tools</title><style>.edge>path:hover{stroke-width:8}</style>
<ellipse fill="#8553b6" stroke="black" cx="1132.98" cy="-225.08" rx="88.74" ry="32.7"/>
<text text-anchor="middle" x="1132.98" y="-234.7" font-family="Helvetica,sans-Serif" font-size="10.00" fill="#ffffff">visualCaseGen.</text>
<text text-anchor="middle" x="1132.98" y="-221.95" font-family="Helvetica,sans-Serif" font-size="10.00" fill="#ffffff">custom_widget_types.</text>
<text text-anchor="middle" x="1132.98" y="-209.2" font-family="Helvetica,sans-Serif" font-size="10.00" fill="#ffffff">case_tools</text>
</g>
<!-- visualCaseGen_custom_widget_types_case_tools&#45;&gt;case_py -->
<g id="edge36" class="edge">
<title>visualCaseGen_custom_widget_types_case_tools&#45;&gt;case_py</title><style>.edge>path:hover{stroke-width:8}</style>
<path fill="none" stroke="black" d="M1136.8,-192.23C1137.95,-174.69 1137.84,-152.69 1132.98,-133.69"/>
</g>
<!-- visualCaseGen_initialize_configvars -->
<g id="node25" class="node">
<title>visualCaseGen_initialize_configvars</title><style>.edge>path:hover{stroke-width:8}</style>
<ellipse fill="#8553b6" stroke="black" cx="1240.98" cy="-132.69" rx="80.26" ry="23.69"/>
<text text-anchor="middle" x="1240.98" y="-135.94" font-family="Helvetica,sans-Serif" font-size="10.00" fill="#ffffff">visualCaseGen.</text>
<text text-anchor="middle" x="1240.98" y="-123.19" font-family="Helvetica,sans-Serif" font-size="10.00" fill="#ffffff">initialize_configvars</text>
</g>
<!-- visualCaseGen_initialize_configvars&#45;&gt;case_py -->
<g id="edge37" class="edge">
<title>visualCaseGen_initialize_configvars&#45;&gt;case_py</title><style>.edge>path:hover{stroke-width:8}</style>
<path fill="none" stroke="black" d="M1181.23,-116.42C1169.9,-113.77 1158.11,-111.17 1146.98,-109 1093.61,-98.61 889.28,-125.05 904.98,-73"/>
</g>
<!-- visualCaseGen_initialize_stages -->
<g id="node26" class="node">
<title>visualCaseGen_initialize_stages</title><style>.edge>path:hover{stroke-width:8}</style>
<ellipse fill="#8553b6" stroke="black" cx="1406.98" cy="-132.69" rx="67.53" ry="23.69"/>
<text text-anchor="middle" x="1406.98" y="-135.94" font-family="Helvetica,sans-Serif" font-size="10.00" fill="#ffffff">visualCaseGen.</text>
<text text-anchor="middle" x="1406.98" y="-123.19" font-family="Helvetica,sans-Serif" font-size="10.00" fill="#ffffff">initialize_stages</text>
</g>
<!-- visualCaseGen_initialize_stages&#45;&gt;case_py -->
<g id="edge38" class="edge">
<title>visualCaseGen_initialize_stages&#45;&gt;case_py</title><style>.edge>path:hover{stroke-width:8}</style>
<path fill="none" stroke="black" d="M1358.46,-115.78C1349.1,-113.17 1339.3,-110.75 1329.98,-109 1283.4,-100.26 891.3,-118.37 904.98,-73"/>
</g>
<!-- visualCaseGen_initialize_widgets -->
<g id="node27" class="node">
<title>visualCaseGen_initialize_widgets</title><style>.edge>path:hover{stroke-width:8}</style>
<ellipse fill="#8553b6" stroke="black" cx="1563.98" cy="-132.69" rx="71.77" ry="23.69"/>
<text text-anchor="middle" x="1563.98" y="-135.94" font-family="Helvetica,sans-Serif" font-size="10.00" fill="#ffffff">visualCaseGen.</text>
<text text-anchor="middle" x="1563.98" y="-123.19" font-family="Helvetica,sans-Serif" font-size="10.00" fill="#ffffff">initialize_widgets</text>
</g>
<!-- visualCaseGen_initialize_widgets&#45;&gt;case_py -->
<g id="edge39" class="edge">
<title>visualCaseGen_initialize_widgets&#45;&gt;case_py</title><style>.edge>path:hover{stroke-width:8}</style>
<path fill="none" stroke="black" d="M1513.14,-115.51C1503.54,-112.96 1493.52,-110.63 1483.98,-109 1452.21,-103.57 895.68,-103.86 904.98,-73"/>
</g>
<!-- visualCaseGen_specs_options -->
<g id="node28" class="node">
<title>visualCaseGen_specs_options</title><style>.edge>path:hover{stroke-width:8}</style>
<ellipse fill="#8553b6" stroke="black" cx="1494.98" cy="-225.08" rx="64.88" ry="32.7"/>
<text text-anchor="middle" x="1494.98" y="-234.7" font-family="Helvetica,sans-Serif" font-size="10.00" fill="#ffffff">visualCaseGen.</text>
<text text-anchor="middle" x="1494.98" y="-221.95" font-family="Helvetica,sans-Serif" font-size="10.00" fill="#ffffff">specs.</text>
<text text-anchor="middle" x="1494.98" y="-209.2" font-family="Helvetica,sans-Serif" font-size="10.00" fill="#ffffff">options</text>
</g>
<!-- visualCaseGen_specs_options&#45;&gt;case_py -->
<g id="edge40" class="edge">
<title>visualCaseGen_specs_options&#45;&gt;case_py</title><style>.edge>path:hover{stroke-width:8}</style>
<path fill="none" stroke="black" d="M1543.33,-202.88C1585.46,-184.3 1640.53,-159.75 1644.98,-156.38 1655.46,-148.43 1668.81,-145.92 1663.98,-133.69"/>
<path fill="none" stroke="black" d="M1663.98,-131.69C1659.16,-119.45 1656.76,-114.85 1644.98,-109 1608.12,-90.69 893.1,-112.41 904.98,-73"/>
</g>
<!-- visualCaseGen_specs_relational_constraints -->
<g id="node29" class="node">
<title>visualCaseGen_specs_relational_constraints</title><style>.edge>path:hover{stroke-width:8}</style>
<ellipse fill="#8553b6" stroke="black" cx="1663.98" cy="-225.08" rx="86.09" ry="32.7"/>
<text text-anchor="middle" x="1663.98" y="-234.7" font-family="Helvetica,sans-Serif" font-size="10.00" fill="#ffffff">visualCaseGen.</text>
<text text-anchor="middle" x="1663.98" y="-221.95" font-family="Helvetica,sans-Serif" font-size="10.00" fill="#ffffff">specs.</text>
<text text-anchor="middle" x="1663.98" y="-209.2" font-family="Helvetica,sans-Serif" font-size="10.00" fill="#ffffff">relational_constraints</text>
</g>
<!-- visualCaseGen_specs_relational_constraints&#45;&gt;case_py -->
<g id="edge41" class="edge">
<title>visualCaseGen_specs_relational_constraints&#45;&gt;case_py</title><style>.edge>path:hover{stroke-width:8}</style>
<path fill="none" stroke="black" d="M1669.59,-192.06C1671.35,-174.27 1671.23,-152.08 1663.98,-133.69"/>
</g>
<!-- xesmf -->
<g id="node30" class="node">
<title>xesmf</title><style>.edge>path:hover{stroke-width:8}</style>
<ellipse fill="#cc33a6" stroke="black" cx="818.98" cy="-579.94" rx="28.15" ry="18"/>
<text text-anchor="middle" x="818.98" y="-576.82" font-family="Helvetica,sans-Serif" font-size="10.00" fill="#ffffff">xesmf</text>
</g>
<!-- xesmf&#45;&gt;mom6_bathy_chl -->
<g id="edge42" class="edge">
<title>xesmf&#45;&gt;mom6_bathy_chl</title><style>.edge>path:hover{stroke-width:8}</style>
<path fill="none" stroke="black" d="M836.98,-501.26C832.25,-465.4 841.37,-455.78 836.98,-419.88"/>
</g>
<!-- xesmf&#45;&gt;mom6_bathy_topo -->
<g id="edge43" class="edge">
<title>xesmf&#45;&gt;mom6_bathy_topo</title><style>.edge>path:hover{stroke-width:8}</style>
<path fill="none" stroke="black" d="M826.58,-562.29C832.64,-547.08 839.71,-523.88 836.98,-503.26"/>
<path fill="none" stroke="black" d="M836.98,-501.26C833.72,-476.53 814.22,-457.19 794.3,-443.58"/>
<polygon fill="#cc33a6" stroke="black" points="796.45,-440.81 786.14,-438.37 792.68,-446.7 796.45,-440.81"/>
</g>
</g>
</svg>
