<?xml version="1.0" encoding="UTF-8" standalone="no"?>
<!DOCTYPE svg PUBLIC "-//W3C//DTD SVG 1.1//EN"
 "http://www.w3.org/Graphics/SVG/1.1/DTD/svg11.dtd">
<!-- Generated by graphviz version 12.2.1 (20250203.1708)
 -->
<!-- Title: G Pages: 1 -->
<svg width="1731pt" height="761pt"
 viewBox="0.00 0.00 1731.00 761.32" xmlns="http://www.w3.org/2000/svg" xmlns:xlink="http://www.w3.org/1999/xlink">
<g id="graph0" class="graph" transform="scale(1 1) rotate(0) translate(4 757.32)">
<title>G</title><style>.edge>path:hover{stroke-width:8}</style>
<polygon fill="white" stroke="none" points="-4,4 -4,-757.32 1727,-757.32 1727,4 -4,4"/>
<!-- case_py -->
<g id="node1" class="node">
<title>case_py</title><style>.edge>path:hover{stroke-width:8}</style>
<ellipse fill="#546335" stroke="black" cx="716.91" cy="-18" rx="32.73" ry="18"/>
<text text-anchor="middle" x="716.91" y="-14.88" font-family="Helvetica,sans-Serif" font-size="10.00" fill="#ffffff">case.py</text>
</g>
<!-- CrocoDash -->
<g id="node2" class="node">
<title>CrocoDash</title><style>.edge>path:hover{stroke-width:8}</style>
<ellipse fill="#c24747" stroke="black" cx="41.91" cy="-132.69" rx="41.91" ry="18"/>
<text text-anchor="middle" x="41.91" y="-129.56" font-family="Helvetica,sans-Serif" font-size="10.00" fill="#ffffff">CrocoDash</text>
</g>
<!-- CrocoDash&#45;&gt;case_py -->
<g id="edge1" class="edge">
<title>CrocoDash&#45;&gt;case_py</title><style>.edge>path:hover{stroke-width:8}</style>
<path fill="none" stroke="black" d="M68.97,-118.65C77.97,-114.88 88.19,-111.19 97.91,-109 131.52,-101.43 727.34,-105.83 716.91,-73"/>
<path fill="none" stroke="black" d="M716.91,-72C714.44,-64.22 713.68,-55.47 713.75,-47.36"/>
<polygon fill="#c24747" stroke="black" points="717.23,-47.79 714.25,-37.62 710.24,-47.43 717.23,-47.79"/>
</g>
<!-- CrocoDash_grid -->
<g id="node3" class="node">
<title>CrocoDash_grid</title><style>.edge>path:hover{stroke-width:8}</style>
<ellipse fill="#b83d3d" stroke="black" cx="272.91" cy="-418.88" rx="55.22" ry="18"/>
<text text-anchor="middle" x="272.91" y="-415.75" font-family="Helvetica,sans-Serif" font-size="10.00" fill="#ffffff">CrocoDash.grid</text>
</g>
<!-- CrocoDash_grid&#45;&gt;case_py -->
<g id="edge2" class="edge">
<title>CrocoDash_grid&#45;&gt;case_py</title><style>.edge>path:hover{stroke-width:8}</style>
<path fill="none" stroke="black" d="M470.91,-325.49C472.11,-317.45 431.39,-233.61 388.91,-192.38 357.01,-161.41 278.86,-167.33 307.91,-133.69"/>
</g>
<!-- CrocoDash_raw_data_access_driver -->
<g id="node6" class="node">
<title>CrocoDash_raw_data_access_driver</title><style>.edge>path:hover{stroke-width:8}</style>
<ellipse fill="#964040" stroke="black" cx="307.91" cy="-225.08" rx="72.3" ry="32.7"/>
<text text-anchor="middle" x="307.91" y="-234.7" font-family="Helvetica,sans-Serif" font-size="10.00" fill="#ffffff">CrocoDash.</text>
<text text-anchor="middle" x="307.91" y="-221.95" font-family="Helvetica,sans-Serif" font-size="10.00" fill="#ffffff">raw_data_access.</text>
<text text-anchor="middle" x="307.91" y="-209.2" font-family="Helvetica,sans-Serif" font-size="10.00" fill="#ffffff">driver</text>
</g>
<!-- CrocoDash_grid&#45;&gt;CrocoDash_raw_data_access_driver -->
<g id="edge3" class="edge">
<title>CrocoDash_grid&#45;&gt;CrocoDash_raw_data_access_driver</title><style>.edge>path:hover{stroke-width:8}</style>
<path fill="none" stroke="black" d="M309.05,-404.8C318.12,-401.59 327.85,-398.21 336.91,-395.19 400.21,-374.07 461.11,-393.49 470.91,-327.49"/>
<path fill="none" stroke="black" d="M470.91,-325.49C473.33,-309.24 464.1,-304.8 451.91,-293.78 439.02,-282.12 403.99,-265.56 371.71,-251.73"/>
<polygon fill="#b83d3d" stroke="black" points="373.32,-248.62 362.75,-247.94 370.59,-255.06 373.32,-248.62"/>
</g>
<!-- CrocoDash_raw_data_access -->
<g id="node4" class="node">
<title>CrocoDash_raw_data_access</title><style>.edge>path:hover{stroke-width:8}</style>
<ellipse fill="#c24747" stroke="black" cx="209.91" cy="-132.69" rx="70.18" ry="23.69"/>
<text text-anchor="middle" x="209.91" y="-135.94" font-family="Helvetica,sans-Serif" font-size="10.00" fill="#ffffff">CrocoDash.</text>
<text text-anchor="middle" x="209.91" y="-123.19" font-family="Helvetica,sans-Serif" font-size="10.00" fill="#ffffff">raw_data_access</text>
</g>
<!-- CrocoDash_raw_data_access&#45;&gt;case_py -->
<g id="edge4" class="edge">
<title>CrocoDash_raw_data_access&#45;&gt;case_py</title><style>.edge>path:hover{stroke-width:8}</style>
<path fill="none" stroke="black" d="M261.56,-116.18C272.19,-113.43 283.35,-110.86 293.91,-109 340.37,-100.82 731.19,-117.96 716.91,-73"/>
</g>
<!-- CrocoDash_raw_data_access_config -->
<g id="node5" class="node">
<title>CrocoDash_raw_data_access_config</title><style>.edge>path:hover{stroke-width:8}</style>
<ellipse fill="#c24747" stroke="black" cx="207.91" cy="-326.49" rx="72.3" ry="32.7"/>
<text text-anchor="middle" x="207.91" y="-336.11" font-family="Helvetica,sans-Serif" font-size="10.00" fill="#ffffff">CrocoDash.</text>
<text text-anchor="middle" x="207.91" y="-323.36" font-family="Helvetica,sans-Serif" font-size="10.00" fill="#ffffff">raw_data_access.</text>
<text text-anchor="middle" x="207.91" y="-310.61" font-family="Helvetica,sans-Serif" font-size="10.00" fill="#ffffff">config</text>
</g>
<!-- CrocoDash_raw_data_access_config&#45;&gt;case_py -->
<g id="edge5" class="edge">
<title>CrocoDash_raw_data_access_config&#45;&gt;case_py</title><style>.edge>path:hover{stroke-width:8}</style>
<path fill="none" stroke="black" d="M198.83,-293.76C194.77,-272.56 193.66,-245.16 207.91,-226.08"/>
</g>
<!-- CrocoDash_raw_data_access_config&#45;&gt;CrocoDash_raw_data_access_driver -->
<g id="edge6" class="edge">
<title>CrocoDash_raw_data_access_config&#45;&gt;CrocoDash_raw_data_access_driver</title><style>.edge>path:hover{stroke-width:8}</style>
<path fill="none" stroke="black" d="M237.38,-296.2C247.75,-285.89 259.55,-274.15 270.5,-263.27"/>
<polygon fill="#c24747" stroke="black" points="272.96,-265.76 277.59,-256.23 268.03,-260.79 272.96,-265.76"/>
</g>
<!-- CrocoDash_raw_data_access_driver&#45;&gt;case_py -->
<g id="edge7" class="edge">
<title>CrocoDash_raw_data_access_driver&#45;&gt;case_py</title><style>.edge>path:hover{stroke-width:8}</style>
<path fill="none" stroke="black" d="M298.46,-192.47C294.8,-173.27 294.27,-149.48 307.91,-133.69"/>
</g>
<!-- CrocoDash_raw_data_access_utils -->
<g id="node7" class="node">
<title>CrocoDash_raw_data_access_utils</title><style>.edge>path:hover{stroke-width:8}</style>
<ellipse fill="#b65353" stroke="black" cx="370.91" cy="-326.49" rx="72.3" ry="32.7"/>
<text text-anchor="middle" x="370.91" y="-336.11" font-family="Helvetica,sans-Serif" font-size="10.00" fill="#ffffff">CrocoDash.</text>
<text text-anchor="middle" x="370.91" y="-323.36" font-family="Helvetica,sans-Serif" font-size="10.00" fill="#ffffff">raw_data_access.</text>
<text text-anchor="middle" x="370.91" y="-310.61" font-family="Helvetica,sans-Serif" font-size="10.00" fill="#ffffff">utils</text>
</g>
<!-- CrocoDash_raw_data_access_utils&#45;&gt;CrocoDash_raw_data_access_driver -->
<g id="edge8" class="edge">
<title>CrocoDash_raw_data_access_utils&#45;&gt;CrocoDash_raw_data_access_driver</title><style>.edge>path:hover{stroke-width:8}</style>
<path fill="none" stroke="black" d="M351.32,-294.58C345.69,-285.7 339.47,-275.87 333.53,-266.51"/>
<polygon fill="#b65353" stroke="black" points="336.61,-264.82 328.3,-258.25 330.7,-268.57 336.61,-264.82"/>
</g>
<!-- CrocoDash_topo -->
<g id="node8" class="node">
<title>CrocoDash_topo</title><style>.edge>path:hover{stroke-width:8}</style>
<ellipse fill="#a44646" stroke="black" cx="402.91" cy="-418.88" rx="57.06" ry="18"/>
<text text-anchor="middle" x="402.91" y="-415.75" font-family="Helvetica,sans-Serif" font-size="10.00" fill="#ffffff">CrocoDash.topo</text>
</g>
<!-- CrocoDash_topo&#45;&gt;case_py -->
<g id="edge9" class="edge">
<title>CrocoDash_topo&#45;&gt;case_py</title><style>.edge>path:hover{stroke-width:8}</style>
<path fill="none" stroke="black" d="M434.59,-403.47C473.43,-384.81 534.46,-351.78 536.91,-327.49"/>
<path fill="none" stroke="black" d="M536.91,-325.49C547.58,-220.04 366.91,-188.58 436.91,-109 478.35,-61.9 735.91,-132.79 716.91,-73"/>
</g>
<!-- CrocoDash_vgrid -->
<g id="node9" class="node">
<title>CrocoDash_vgrid</title><style>.edge>path:hover{stroke-width:8}</style>
<ellipse fill="#ac4949" stroke="black" cx="148.91" cy="-418.88" rx="50.56" ry="23.69"/>
<text text-anchor="middle" x="148.91" y="-422.13" font-family="Helvetica,sans-Serif" font-size="10.00" fill="#ffffff">CrocoDash.</text>
<text text-anchor="middle" x="148.91" y="-409.38" font-family="Helvetica,sans-Serif" font-size="10.00" fill="#ffffff">vgrid</text>
</g>
<!-- CrocoDash_vgrid&#45;&gt;case_py -->
<g id="edge10" class="edge">
<title>CrocoDash_vgrid&#45;&gt;case_py</title><style>.edge>path:hover{stroke-width:8}</style>
<path fill="none" stroke="black" d="M137.38,-395.77C125.69,-370.12 111.35,-327.08 126.91,-293.78 146.78,-251.28 179.84,-263.67 207.91,-226.08"/>
<path fill="none" stroke="black" d="M207.91,-224.08C217.32,-210.61 215.22,-203.91 226.91,-192.38 249.6,-170 264.54,-176.9 288.91,-156.38 298.97,-147.9 299.4,-143.72 307.91,-133.69"/>
<path fill="none" stroke="black" d="M307.91,-131.69C316.42,-121.66 315.26,-115.11 326.91,-109 365.46,-88.79 730.23,-114.43 716.91,-73"/>
</g>
<!-- driver -->
<g id="node10" class="node">
<title>driver</title><style>.edge>path:hover{stroke-width:8}</style>
<ellipse fill="#53b653" stroke="black" cx="362.91" cy="-132.69" rx="27.23" ry="18"/>
<text text-anchor="middle" x="362.91" y="-129.56" font-family="Helvetica,sans-Serif" font-size="10.00" fill="#000000">driver</text>
</g>
<!-- driver&#45;&gt;case_py -->
<g id="edge11" class="edge">
<title>driver&#45;&gt;case_py</title><style>.edge>path:hover{stroke-width:8}</style>
<path fill="none" stroke="black" d="M381.81,-119.21C388.53,-115.33 396.32,-111.43 403.91,-109 470.59,-87.64 738.11,-139.73 716.91,-73"/>
</g>
<!-- mom6_bathy -->
<g id="node11" class="node">
<title>mom6_bathy</title><style>.edge>path:hover{stroke-width:8}</style>
<ellipse fill="#10f9ac" stroke="black" cx="254.91" cy="-585.63" rx="49.26" ry="18"/>
<text text-anchor="middle" x="254.91" y="-582.51" font-family="Helvetica,sans-Serif" font-size="10.00" fill="#000000">mom6_bathy</text>
</g>
<!-- mom6_bathy&#45;&gt;case_py -->
<g id="edge12" class="edge">
<title>mom6_bathy&#45;&gt;case_py</title><style>.edge>path:hover{stroke-width:8}</style>
<path fill="none" stroke="black" d="M225.66,-570.99C201.75,-557.63 171.34,-534.71 167.91,-503.26"/>
<path fill="none" stroke="black" d="M167.91,-501.26C163.17,-457.77 108.56,-481.64 88.91,-442.57 77.33,-419.53 74.96,-160.42 130.91,-109 178.94,-64.86 736.59,-135.19 716.91,-73"/>
</g>
<!-- mom6_bathy&#45;&gt;CrocoDash_grid -->
<g id="edge13" class="edge">
<title>mom6_bathy&#45;&gt;CrocoDash_grid</title><style>.edge>path:hover{stroke-width:8}</style>
<path fill="none" stroke="black" d="M167.91,-501.26C164.52,-470.12 194.28,-449.11 222.97,-436.25"/>
<polygon fill="#10f9ac" stroke="black" points="224.16,-439.55 232.04,-432.47 221.46,-433.09 224.16,-439.55"/>
</g>
<!-- mom6_bathy&#45;&gt;CrocoDash_topo -->
<g id="edge14" class="edge">
<title>mom6_bathy&#45;&gt;CrocoDash_topo</title><style>.edge>path:hover{stroke-width:8}</style>
<path fill="none" stroke="black" d="M167.91,-501.26C166.83,-491.34 268.6,-465.19 336.91,-442.57 342.74,-440.64 348.84,-438.59 354.88,-436.53"/>
<polygon fill="#10f9ac" stroke="black" points="355.85,-439.9 364.18,-433.35 353.59,-433.28 355.85,-439.9"/>
</g>
<!-- mom6_bathy&#45;&gt;CrocoDash_vgrid -->
<g id="edge15" class="edge">
<title>mom6_bathy&#45;&gt;CrocoDash_vgrid</title><style>.edge>path:hover{stroke-width:8}</style>
<path fill="none" stroke="black" d="M167.91,-501.26C166.19,-485.44 162.45,-468.24 158.75,-453.74"/>
<polygon fill="#10f9ac" stroke="black" points="162.17,-452.99 156.21,-444.24 155.41,-454.8 162.17,-452.99"/>
</g>
<!-- mom6_bathy_aux -->
<g id="node12" class="node">
<title>mom6_bathy_aux</title><style>.edge>path:hover{stroke-width:8}</style>
<ellipse fill="#33cc99" stroke="black" cx="513.91" cy="-585.63" rx="61.19" ry="18"/>
<text text-anchor="middle" x="513.91" y="-582.51" font-family="Helvetica,sans-Serif" font-size="10.00" fill="#000000">mom6_bathy.aux</text>
</g>
<!-- mom6_bathy_chl -->
<g id="node13" class="node">
<title>mom6_bathy_chl</title><style>.edge>path:hover{stroke-width:8}</style>
<ellipse fill="#3d8f74" stroke="black" cx="536.91" cy="-418.88" rx="58.89" ry="18"/>
<text text-anchor="middle" x="536.91" y="-415.75" font-family="Helvetica,sans-Serif" font-size="10.00" fill="#ffffff">mom6_bathy.chl</text>
</g>
<!-- mom6_bathy_aux&#45;&gt;mom6_bathy_chl -->
<g id="edge16" class="edge">
<title>mom6_bathy_aux&#45;&gt;mom6_bathy_chl</title><style>.edge>path:hover{stroke-width:8}</style>
<path fill="none" stroke="black" d="M516.33,-567.31C520.28,-539.01 528.16,-482.57 532.94,-448.32"/>
<polygon fill="#33cc99" stroke="black" points="536.37,-449.1 534.28,-438.71 529.43,-448.13 536.37,-449.1"/>
</g>
<!-- mom6_bathy_grid -->
<g id="node14" class="node">
<title>mom6_bathy_grid</title><style>.edge>path:hover{stroke-width:8}</style>
<ellipse fill="#3ab089" stroke="black" cx="290.91" cy="-502.26" rx="57.98" ry="23.69"/>
<text text-anchor="middle" x="290.91" y="-505.51" font-family="Helvetica,sans-Serif" font-size="10.00" fill="#000000">mom6_bathy.</text>
<text text-anchor="middle" x="290.91" y="-492.76" font-family="Helvetica,sans-Serif" font-size="10.00" fill="#000000">grid</text>
</g>
<!-- mom6_bathy_aux&#45;&gt;mom6_bathy_grid -->
<g id="edge17" class="edge">
<title>mom6_bathy_aux&#45;&gt;mom6_bathy_grid</title><style>.edge>path:hover{stroke-width:8}</style>
<path fill="none" stroke="black" d="M476.59,-571.01C440.28,-557.76 384.77,-537.5 343.89,-522.59"/>
<polygon fill="#33cc99" stroke="black" points="345.33,-519.39 334.73,-519.25 342.93,-525.96 345.33,-519.39"/>
</g>
<!-- mom6_bathy_topo -->
<g id="node15" class="node">
<title>mom6_bathy_topo</title><style>.edge>path:hover{stroke-width:8}</style>
<ellipse fill="#38a883" stroke="black" cx="424.91" cy="-502.26" rx="57.98" ry="23.69"/>
<text text-anchor="middle" x="424.91" y="-505.51" font-family="Helvetica,sans-Serif" font-size="10.00" fill="#000000">mom6_bathy.</text>
<text text-anchor="middle" x="424.91" y="-492.76" font-family="Helvetica,sans-Serif" font-size="10.00" fill="#000000">topo</text>
</g>
<!-- mom6_bathy_aux&#45;&gt;mom6_bathy_topo -->
<g id="edge18" class="edge">
<title>mom6_bathy_aux&#45;&gt;mom6_bathy_topo</title><style>.edge>path:hover{stroke-width:8}</style>
<path fill="none" stroke="black" d="M495.9,-568.16C484.57,-557.8 469.63,-544.14 456.38,-532.03"/>
<polygon fill="#33cc99" stroke="black" points="458.84,-529.53 449.09,-525.37 454.11,-534.7 458.84,-529.53"/>
</g>
<!-- mom6_bathy_chl&#45;&gt;case_py -->
<g id="edge19" class="edge">
<title>mom6_bathy_chl&#45;&gt;case_py</title><style>.edge>path:hover{stroke-width:8}</style>
<path fill="none" stroke="black" d="M535.88,-400.5C535.03,-382.26 534.35,-352.78 536.91,-327.49"/>
</g>
<!-- mom6_bathy_grid&#45;&gt;CrocoDash_grid -->
<g id="edge20" class="edge">
<title>mom6_bathy_grid&#45;&gt;CrocoDash_grid</title><style>.edge>path:hover{stroke-width:8}</style>
<path fill="none" stroke="black" d="M285.9,-478.59C283.82,-469.19 281.39,-458.19 279.19,-448.26"/>
<polygon fill="#3ab089" stroke="black" points="282.66,-447.75 277.09,-438.74 275.83,-449.26 282.66,-447.75"/>
</g>
<!-- mom6_bathy_grid&#45;&gt;mom6_bathy_chl -->
<g id="edge21" class="edge">
<title>mom6_bathy_grid&#45;&gt;mom6_bathy_chl</title><style>.edge>path:hover{stroke-width:8}</style>
<path fill="none" stroke="black" d="M334.49,-486.41C342.29,-483.78 350.34,-481.08 357.91,-478.57 407.14,-462.25 419.65,-458.77 468.91,-442.57 475.05,-440.55 481.49,-438.42 487.86,-436.3"/>
<polygon fill="#3ab089" stroke="black" points="488.63,-439.73 497.02,-433.25 486.42,-433.09 488.63,-439.73"/>
</g>
<!-- mom6_bathy_topo&#45;&gt;CrocoDash_topo -->
<g id="edge22" class="edge">
<title>mom6_bathy_topo&#45;&gt;CrocoDash_topo</title><style>.edge>path:hover{stroke-width:8}</style>
<path fill="none" stroke="black" d="M418.78,-478.59C416.24,-469.19 413.27,-458.19 410.59,-448.26"/>
<polygon fill="#38a883" stroke="black" points="414,-447.47 408.01,-438.73 407.24,-449.29 414,-447.47"/>
</g>
<!-- mom6_bathy_topo&#45;&gt;mom6_bathy_chl -->
<g id="edge23" class="edge">
<title>mom6_bathy_topo&#45;&gt;mom6_bathy_chl</title><style>.edge>path:hover{stroke-width:8}</style>
<path fill="none" stroke="black" d="M452.6,-481.14C468.63,-469.49 488.85,-454.8 505.48,-442.72"/>
<polygon fill="#38a883" stroke="black" points="507.54,-445.55 513.57,-436.84 503.42,-439.89 507.54,-445.55"/>
</g>
<!-- mom6_bathy_vgrid -->
<g id="node16" class="node">
<title>mom6_bathy_vgrid</title><style>.edge>path:hover{stroke-width:8}</style>
<ellipse fill="#4cb391" stroke="black" cx="129.91" cy="-585.63" rx="57.98" ry="23.69"/>
<text text-anchor="middle" x="129.91" y="-588.88" font-family="Helvetica,sans-Serif" font-size="10.00" fill="#000000">mom6_bathy.</text>
<text text-anchor="middle" x="129.91" y="-576.13" font-family="Helvetica,sans-Serif" font-size="10.00" fill="#000000">vgrid</text>
</g>
<!-- mom6_bathy_vgrid&#45;&gt;CrocoDash_vgrid -->
<g id="edge24" class="edge">
<title>mom6_bathy_vgrid&#45;&gt;CrocoDash_vgrid</title><style>.edge>path:hover{stroke-width:8}</style>
<path fill="none" stroke="black" d="M132.55,-561.72C135.78,-533.77 141.26,-486.25 144.98,-453.99"/>
<polygon fill="#4cb391" stroke="black" points="148.42,-454.7 146.09,-444.36 141.47,-453.89 148.42,-454.7"/>
</g>
<!-- numpy -->
<g id="node17" class="node">
<title>numpy</title><style>.edge>path:hover{stroke-width:8}</style>
<ellipse fill="#0ca6f3" stroke="black" cx="636.91" cy="-735.32" rx="30.44" ry="18"/>
<text text-anchor="middle" x="636.91" y="-732.19" font-family="Helvetica,sans-Serif" font-size="10.00" fill="#000000">numpy</text>
</g>
<!-- numpy&#45;&gt;mom6_bathy_aux -->
<g id="edge25" class="edge">
<title>numpy&#45;&gt;mom6_bathy_aux</title><style>.edge>path:hover{stroke-width:8}</style>
<path fill="none" stroke="black" d="M424.91,-662.32C399.28,-645.26 435.34,-621.82 468.94,-605.56"/>
<polygon fill="#0ca6f3" stroke="black" points="470.27,-608.81 477.85,-601.41 467.3,-602.47 470.27,-608.81"/>
</g>
<!-- numpy&#45;&gt;mom6_bathy_chl -->
<g id="edge26" class="edge">
<title>numpy&#45;&gt;mom6_bathy_chl</title><style>.edge>path:hover{stroke-width:8}</style>
<path fill="none" stroke="black" d="M659.27,-722.75C707.24,-696.32 812.76,-628.62 774.91,-561.94 735.74,-492.95 648.31,-453.9 591.02,-434.84"/>
<polygon fill="#0ca6f3" stroke="black" points="592.38,-431.6 581.79,-431.86 590.23,-438.26 592.38,-431.6"/>
</g>
<!-- numpy&#45;&gt;mom6_bathy_grid -->
<g id="edge27" class="edge">
<title>numpy&#45;&gt;mom6_bathy_grid</title><style>.edge>path:hover{stroke-width:8}</style>
<path fill="none" stroke="black" d="M424.91,-662.32C396.91,-643.68 436.08,-618.36 424.91,-586.63"/>
<path fill="none" stroke="black" d="M424.91,-584.63C418.31,-565.88 375.61,-542.03 340.16,-525.01"/>
<polygon fill="#0ca6f3" stroke="black" points="341.82,-521.92 331.28,-520.82 338.84,-528.25 341.82,-521.92"/>
</g>
<!-- numpy&#45;&gt;mom6_bathy_topo -->
<g id="edge28" class="edge">
<title>numpy&#45;&gt;mom6_bathy_topo</title><style>.edge>path:hover{stroke-width:8}</style>
<path fill="none" stroke="black" d="M424.91,-584.63C419.66,-569.7 419,-552.25 419.93,-537.35"/>
<polygon fill="#0ca6f3" stroke="black" points="423.4,-537.82 420.81,-527.54 416.43,-537.19 423.4,-537.82"/>
</g>
<!-- numpy&#45;&gt;mom6_bathy_vgrid -->
<g id="edge29" class="edge">
<title>numpy&#45;&gt;mom6_bathy_vgrid</title><style>.edge>path:hover{stroke-width:8}</style>
<path fill="none" stroke="black" d="M607.67,-729.76C564.66,-721.98 483.16,-703.08 424.91,-664.32"/>
<path fill="none" stroke="black" d="M424.91,-662.32C338.3,-604.68 296.97,-637.82 196.91,-609.32 192.65,-608.11 188.26,-606.78 183.86,-605.41"/>
<polygon fill="#0ca6f3" stroke="black" points="185,-602.1 174.41,-602.37 182.86,-608.76 185,-602.1"/>
</g>
<!-- ProConPy_config_var -->
<g id="node18" class="node">
<title>ProConPy_config_var</title><style>.edge>path:hover{stroke-width:8}</style>
<ellipse fill="#b69553" stroke="black" cx="492.91" cy="-132.69" rx="46.85" ry="23.69"/>
<text text-anchor="middle" x="492.91" y="-135.94" font-family="Helvetica,sans-Serif" font-size="10.00" fill="#000000">ProConPy.</text>
<text text-anchor="middle" x="492.91" y="-123.19" font-family="Helvetica,sans-Serif" font-size="10.00" fill="#000000">config_var</text>
</g>
<!-- ProConPy_config_var&#45;&gt;case_py -->
<g id="edge30" class="edge">
<title>ProConPy_config_var&#45;&gt;case_py</title><style>.edge>path:hover{stroke-width:8}</style>
<path fill="none" stroke="black" d="M527.83,-116.46C534.74,-113.75 541.99,-111.13 548.91,-109 585.41,-97.79 728.47,-109.39 716.91,-73"/>
</g>
<!-- ProConPy_csp_solver -->
<g id="node19" class="node">
<title>ProConPy_csp_solver</title><style>.edge>path:hover{stroke-width:8}</style>
<ellipse fill="#b69553" stroke="black" cx="605.91" cy="-132.69" rx="47.91" ry="23.69"/>
<text text-anchor="middle" x="605.91" y="-135.94" font-family="Helvetica,sans-Serif" font-size="10.00" fill="#000000">ProConPy.</text>
<text text-anchor="middle" x="605.91" y="-123.19" font-family="Helvetica,sans-Serif" font-size="10.00" fill="#000000">csp_solver</text>
</g>
<!-- ProConPy_csp_solver&#45;&gt;case_py -->
<g id="edge31" class="edge">
<title>ProConPy_csp_solver&#45;&gt;case_py</title><style>.edge>path:hover{stroke-width:8}</style>
<path fill="none" stroke="black" d="M641.83,-116.76C675.26,-102.29 719.56,-81.34 716.91,-73"/>
</g>
<!-- ProConPy_dev_utils -->
<g id="node20" class="node">
<title>ProConPy_dev_utils</title><style>.edge>path:hover{stroke-width:8}</style>
<ellipse fill="#b69553" stroke="black" cx="716.91" cy="-132.69" rx="45.25" ry="23.69"/>
<text text-anchor="middle" x="716.91" y="-135.94" font-family="Helvetica,sans-Serif" font-size="10.00" fill="#000000">ProConPy.</text>
<text text-anchor="middle" x="716.91" y="-123.19" font-family="Helvetica,sans-Serif" font-size="10.00" fill="#000000">dev_utils</text>
</g>
<!-- ProConPy_dev_utils&#45;&gt;case_py -->
<g id="edge32" class="edge">
<title>ProConPy_dev_utils&#45;&gt;case_py</title><style>.edge>path:hover{stroke-width:8}</style>
<path fill="none" stroke="black" d="M720.1,-108.62C720.83,-97.6 720.52,-84.36 716.91,-73"/>
</g>
<!-- ProConPy_stage -->
<g id="node21" class="node">
<title>ProConPy_stage</title><style>.edge>path:hover{stroke-width:8}</style>
<ellipse fill="#b69553" stroke="black" cx="835.91" cy="-132.69" rx="55.68" ry="18"/>
<text text-anchor="middle" x="835.91" y="-129.56" font-family="Helvetica,sans-Serif" font-size="10.00" fill="#000000">ProConPy.stage</text>
</g>
<!-- ProConPy_stage&#45;&gt;case_py -->
<g id="edge33" class="edge">
<title>ProConPy_stage&#45;&gt;case_py</title><style>.edge>path:hover{stroke-width:8}</style>
<path fill="none" stroke="black" d="M802.27,-118.02C768.1,-103.69 719.78,-82.03 716.91,-73"/>
</g>
<!-- regional_mom6 -->
<g id="node22" class="node">
<title>regional_mom6</title><style>.edge>path:hover{stroke-width:8}</style>
<ellipse fill="#4747c2" stroke="black" cx="708.91" cy="-585.63" rx="56.6" ry="18"/>
<text text-anchor="middle" x="708.91" y="-582.51" font-family="Helvetica,sans-Serif" font-size="10.00" fill="#ffffff">regional_mom6</text>
</g>
<!-- regional_mom6&#45;&gt;case_py -->
<g id="edge34" class="edge">
<title>regional_mom6&#45;&gt;case_py</title><style>.edge>path:hover{stroke-width:8}</style>
<path fill="none" stroke="black" d="M724.5,-567.84C749.04,-539.59 793.91,-479.74 793.91,-419.88 793.91,-419.88 793.91,-419.88 793.91,-325.49 793.91,-265.73 776.17,-239.51 812.91,-192.38 838.89,-159.05 877.36,-191.46 900.91,-156.38 912.65,-138.89 914.3,-125.26 900.91,-109 847.95,-44.67 742.42,-152.33 716.91,-73"/>
</g>
<!-- regional_mom6&#45;&gt;CrocoDash_topo -->
<g id="edge35" class="edge">
<title>regional_mom6&#45;&gt;CrocoDash_topo</title><style>.edge>path:hover{stroke-width:8}</style>
<path fill="none" stroke="black" d="M680.95,-569.57C625.74,-539.85 502.73,-473.62 440.51,-440.12"/>
<polygon fill="#4747c2" stroke="black" points="442.5,-437.22 432.04,-435.56 439.18,-443.38 442.5,-437.22"/>
</g>
<!-- visualCaseGen_cime_interface -->
<g id="node23" class="node">
<title>visualCaseGen_cime_interface</title><style>.edge>path:hover{stroke-width:8}</style>
<ellipse fill="#9553b6" stroke="black" cx="1012.91" cy="-132.69" rx="64.88" ry="23.69"/>
<text text-anchor="middle" x="1012.91" y="-135.94" font-family="Helvetica,sans-Serif" font-size="10.00" fill="#ffffff">visualCaseGen.</text>
<text text-anchor="middle" x="1012.91" y="-123.19" font-family="Helvetica,sans-Serif" font-size="10.00" fill="#ffffff">cime_interface</text>
</g>
<!-- visualCaseGen_cime_interface&#45;&gt;case_py -->
<g id="edge36" class="edge">
<title>visualCaseGen_cime_interface&#45;&gt;case_py</title><style>.edge>path:hover{stroke-width:8}</style>
<path fill="none" stroke="black" d="M964.26,-116.76C954.27,-113.97 943.8,-111.23 933.91,-109 886.23,-98.24 731.71,-119.59 716.91,-73"/>
</g>
<!-- visualCaseGen_custom_widget_types_case_creator -->
<g id="node24" class="node">
<title>visualCaseGen_custom_widget_types_case_creator</title><style>.edge>path:hover{stroke-width:8}</style>
<ellipse fill="#9553b6" stroke="black" cx="910.91" cy="-225.08" rx="88.74" ry="32.7"/>
<text text-anchor="middle" x="910.91" y="-234.7" font-family="Helvetica,sans-Serif" font-size="10.00" fill="#ffffff">visualCaseGen.</text>
<text text-anchor="middle" x="910.91" y="-221.95" font-family="Helvetica,sans-Serif" font-size="10.00" fill="#ffffff">custom_widget_types.</text>
<text text-anchor="middle" x="910.91" y="-209.2" font-family="Helvetica,sans-Serif" font-size="10.00" fill="#ffffff">case_creator</text>
</g>
<!-- visualCaseGen_custom_widget_types_case_creator&#45;&gt;case_py -->
<g id="edge37" class="edge">
<title>visualCaseGen_custom_widget_types_case_creator&#45;&gt;case_py</title><style>.edge>path:hover{stroke-width:8}</style>
<path fill="none" stroke="black" d="M976.45,-202.71C1018.46,-188.29 1068.47,-169.56 1086.91,-156.38 1097.61,-148.73 1109.83,-146.24 1105.91,-133.69"/>
<path fill="none" stroke="black" d="M1105.91,-131.69C1101.99,-119.13 1098.55,-115.14 1086.91,-109 1013.84,-70.46 741.92,-151.73 716.91,-73"/>
</g>
<!-- visualCaseGen_custom_widget_types_case_tools -->
<g id="node25" class="node">
<title>visualCaseGen_custom_widget_types_case_tools</title><style>.edge>path:hover{stroke-width:8}</style>
<ellipse fill="#9553b6" stroke="black" cx="1105.91" cy="-225.08" rx="88.74" ry="32.7"/>
<text text-anchor="middle" x="1105.91" y="-234.7" font-family="Helvetica,sans-Serif" font-size="10.00" fill="#ffffff">visualCaseGen.</text>
<text text-anchor="middle" x="1105.91" y="-221.95" font-family="Helvetica,sans-Serif" font-size="10.00" fill="#ffffff">custom_widget_types.</text>
<text text-anchor="middle" x="1105.91" y="-209.2" font-family="Helvetica,sans-Serif" font-size="10.00" fill="#ffffff">case_tools</text>
</g>
<!-- visualCaseGen_custom_widget_types_case_tools&#45;&gt;case_py -->
<g id="edge38" class="edge">
<title>visualCaseGen_custom_widget_types_case_tools&#45;&gt;case_py</title><style>.edge>path:hover{stroke-width:8}</style>
<path fill="none" stroke="black" d="M1110.5,-192.01C1111.89,-174.4 1111.76,-152.41 1105.91,-133.69"/>
</g>
<!-- visualCaseGen_initialize_configvars -->
<g id="node26" class="node">
<title>visualCaseGen_initialize_configvars</title><style>.edge>path:hover{stroke-width:8}</style>
<ellipse fill="#9553b6" stroke="black" cx="1213.91" cy="-132.69" rx="80.26" ry="23.69"/>
<text text-anchor="middle" x="1213.91" y="-135.94" font-family="Helvetica,sans-Serif" font-size="10.00" fill="#ffffff">visualCaseGen.</text>
<text text-anchor="middle" x="1213.91" y="-123.19" font-family="Helvetica,sans-Serif" font-size="10.00" fill="#ffffff">initialize_configvars</text>
</g>
<!-- visualCaseGen_initialize_configvars&#45;&gt;case_py -->
<g id="edge39" class="edge">
<title>visualCaseGen_initialize_configvars&#45;&gt;case_py</title><style>.edge>path:hover{stroke-width:8}</style>
<path fill="none" stroke="black" d="M1155.27,-116.12C1143.62,-113.43 1131.43,-110.89 1119.91,-109 1075.55,-101.71 730.52,-115.85 716.91,-73"/>
</g>
<!-- visualCaseGen_initialize_stages -->
<g id="node27" class="node">
<title>visualCaseGen_initialize_stages</title><style>.edge>path:hover{stroke-width:8}</style>
<ellipse fill="#9553b6" stroke="black" cx="1379.91" cy="-132.69" rx="67.53" ry="23.69"/>
<text text-anchor="middle" x="1379.91" y="-135.94" font-family="Helvetica,sans-Serif" font-size="10.00" fill="#ffffff">visualCaseGen.</text>
<text text-anchor="middle" x="1379.91" y="-123.19" font-family="Helvetica,sans-Serif" font-size="10.00" fill="#ffffff">initialize_stages</text>
</g>
<!-- visualCaseGen_initialize_stages&#45;&gt;case_py -->
<g id="edge40" class="edge">
<title>visualCaseGen_initialize_stages&#45;&gt;case_py</title><style>.edge>path:hover{stroke-width:8}</style>
<path fill="none" stroke="black" d="M1331.84,-115.72C1322.34,-113.08 1312.38,-110.66 1302.91,-109 1270.79,-103.35 726.79,-104.09 716.91,-73"/>
</g>
<!-- visualCaseGen_initialize_widgets -->
<g id="node28" class="node">
<title>visualCaseGen_initialize_widgets</title><style>.edge>path:hover{stroke-width:8}</style>
<ellipse fill="#9553b6" stroke="black" cx="1536.91" cy="-132.69" rx="71.77" ry="23.69"/>
<text text-anchor="middle" x="1536.91" y="-135.94" font-family="Helvetica,sans-Serif" font-size="10.00" fill="#ffffff">visualCaseGen.</text>
<text text-anchor="middle" x="1536.91" y="-123.19" font-family="Helvetica,sans-Serif" font-size="10.00" fill="#ffffff">initialize_widgets</text>
</g>
<!-- visualCaseGen_initialize_widgets&#45;&gt;case_py -->
<g id="edge41" class="edge">
<title>visualCaseGen_initialize_widgets&#45;&gt;case_py</title><style>.edge>path:hover{stroke-width:8}</style>
<path fill="none" stroke="black" d="M1486.52,-115.52C1476.79,-112.93 1466.6,-110.59 1456.91,-109 1416.3,-102.34 729.37,-112.23 716.91,-73"/>
</g>
<!-- visualCaseGen_specs_options -->
<g id="node29" class="node">
<title>visualCaseGen_specs_options</title><style>.edge>path:hover{stroke-width:8}</style>
<ellipse fill="#9553b6" stroke="black" cx="1467.91" cy="-225.08" rx="64.88" ry="32.7"/>
<text text-anchor="middle" x="1467.91" y="-234.7" font-family="Helvetica,sans-Serif" font-size="10.00" fill="#ffffff">visualCaseGen.</text>
<text text-anchor="middle" x="1467.91" y="-221.95" font-family="Helvetica,sans-Serif" font-size="10.00" fill="#ffffff">specs.</text>
<text text-anchor="middle" x="1467.91" y="-209.2" font-family="Helvetica,sans-Serif" font-size="10.00" fill="#ffffff">options</text>
</g>
<!-- visualCaseGen_specs_options&#45;&gt;case_py -->
<g id="edge42" class="edge">
<title>visualCaseGen_specs_options&#45;&gt;case_py</title><style>.edge>path:hover{stroke-width:8}</style>
<path fill="none" stroke="black" d="M1516.26,-202.88C1558.39,-184.3 1613.46,-159.75 1617.91,-156.38 1628.39,-148.43 1641.82,-145.89 1636.91,-133.69"/>
<path fill="none" stroke="black" d="M1636.91,-131.69C1632.01,-119.49 1629.72,-114.8 1617.91,-109 1572.95,-86.9 732.08,-120.74 716.91,-73"/>
</g>
<!-- visualCaseGen_specs_relational_constraints -->
<g id="node30" class="node">
<title>visualCaseGen_specs_relational_constraints</title><style>.edge>path:hover{stroke-width:8}</style>
<ellipse fill="#9553b6" stroke="black" cx="1636.91" cy="-225.08" rx="86.09" ry="32.7"/>
<text text-anchor="middle" x="1636.91" y="-234.7" font-family="Helvetica,sans-Serif" font-size="10.00" fill="#ffffff">visualCaseGen.</text>
<text text-anchor="middle" x="1636.91" y="-221.95" font-family="Helvetica,sans-Serif" font-size="10.00" fill="#ffffff">specs.</text>
<text text-anchor="middle" x="1636.91" y="-209.2" font-family="Helvetica,sans-Serif" font-size="10.00" fill="#ffffff">relational_constraints</text>
</g>
<!-- visualCaseGen_specs_relational_constraints&#45;&gt;case_py -->
<g id="edge43" class="edge">
<title>visualCaseGen_specs_relational_constraints&#45;&gt;case_py</title><style>.edge>path:hover{stroke-width:8}</style>
<path fill="none" stroke="black" d="M1642.62,-192.02C1644.4,-174.22 1644.29,-152.03 1636.91,-133.69"/>
</g>
<!-- xesmf -->
<g id="node31" class="node">
<title>xesmf</title><style>.edge>path:hover{stroke-width:8}</style>
<ellipse fill="#cc3399" stroke="black" cx="602.91" cy="-663.32" rx="28.15" ry="18"/>
<text text-anchor="middle" x="602.91" y="-660.19" font-family="Helvetica,sans-Serif" font-size="10.00" fill="#ffffff">xesmf</text>
</g>
<!-- xesmf&#45;&gt;mom6_bathy_chl -->
<g id="edge44" class="edge">
<title>xesmf&#45;&gt;mom6_bathy_chl</title><style>.edge>path:hover{stroke-width:8}</style>
<path fill="none" stroke="black" d="M602.91,-584.63C582.2,-536.83 560.06,-480.31 547.41,-447.44"/>
<polygon fill="#cc3399" stroke="black" points="550.74,-446.34 543.89,-438.26 544.2,-448.85 550.74,-446.34"/>
</g>
<!-- xesmf&#45;&gt;mom6_bathy_topo -->
<g id="edge45" class="edge">
<title>xesmf&#45;&gt;mom6_bathy_topo</title><style>.edge>path:hover{stroke-width:8}</style>
<path fill="none" stroke="black" d="M606.7,-645C609.3,-629.12 611.01,-605.32 602.91,-586.63"/>
<path fill="none" stroke="black" d="M602.91,-584.63C584.24,-541.56 533.88,-521.28 491.48,-511.73"/>
<polygon fill="#cc3399" stroke="black" points="492.31,-508.33 481.81,-509.73 490.89,-515.18 492.31,-508.33"/>
</g>
</g>
</svg>
