<?xml version="1.0" encoding="UTF-8" standalone="no"?>
<!DOCTYPE svg PUBLIC "-//W3C//DTD SVG 1.1//EN"
 "http://www.w3.org/Graphics/SVG/1.1/DTD/svg11.dtd">
<!-- Generated by graphviz version 12.2.1 (0)
 -->
<!-- Title: G Pages: 1 -->
<svg width="1744pt" height="580pt"
 viewBox="0.00 0.00 1744.07 580.49" xmlns="http://www.w3.org/2000/svg" xmlns:xlink="http://www.w3.org/1999/xlink">
<g id="graph0" class="graph" transform="scale(1 1) rotate(0) translate(4 576.49)">
<title>G</title><style>.edge>path:hover{stroke-width:8}</style>
<polygon fill="white" stroke="none" points="-4,4 -4,-576.49 1740.07,-576.49 1740.07,4 -4,4"/>
<!-- case_py -->
<g id="node1" class="node">
<title>case_py</title><style>.edge>path:hover{stroke-width:8}</style>
<ellipse fill="#356335" stroke="black" cx="956.53" cy="-18" rx="29.88" ry="18"/>
<text text-anchor="middle" x="956.53" y="-14.12" font-family="Helvetica,sans-Serif" font-size="10.00" fill="#ffffff">case.py</text>
</g>
<!-- CrocoDash -->
<g id="node2" class="node">
<title>CrocoDash</title><style>.edge>path:hover{stroke-width:8}</style>
<ellipse fill="#c24747" stroke="black" cx="287.53" cy="-130.57" rx="38.76" ry="18"/>
<text text-anchor="middle" x="287.53" y="-126.69" font-family="Helvetica,sans-Serif" font-size="10.00" fill="#ffffff">CrocoDash</text>
</g>
<!-- CrocoDash&#45;&gt;case_py -->
<g id="edge1" class="edge">
<title>CrocoDash&#45;&gt;case_py</title><style>.edge>path:hover{stroke-width:8}</style>
<path fill="none" stroke="black" d="M956.53,-72C958.64,-64.12 959.28,-55.33 959.23,-47.22"/>
<polygon fill="#c24747" stroke="black" points="962.74,-47.35 958.8,-37.51 955.74,-47.66 962.74,-47.35"/>
<path fill="none" stroke="black" d="M314.53,-117.22C322.72,-113.99 331.85,-110.89 340.53,-109 374.03,-101.71 947.68,-106.12 956.53,-73"/>
</g>
<!-- CrocoDash_grid -->
<g id="node3" class="node">
<title>CrocoDash_grid</title><style>.edge>path:hover{stroke-width:8}</style>
<ellipse fill="#b83d3d" stroke="black" cx="256.53" cy="-399.79" rx="49.85" ry="18"/>
<text text-anchor="middle" x="256.53" y="-395.91" font-family="Helvetica,sans-Serif" font-size="10.00" fill="#ffffff">CrocoDash.grid</text>
</g>
<!-- CrocoDash_grid&#45;&gt;case_py -->
<g id="edge2" class="edge">
<title>CrocoDash_grid&#45;&gt;case_py</title><style>.edge>path:hover{stroke-width:8}</style>
<path fill="none" stroke="black" d="M354.53,-216.66C357.97,-178.99 319.77,-146.47 354.53,-131.57"/>
<path fill="none" stroke="black" d="M316.53,-311.7C327.55,-268.41 350.47,-263.14 354.53,-218.66"/>
</g>
<!-- CrocoDash_raw_data_access_driver -->
<g id="node5" class="node">
<title>CrocoDash_raw_data_access_driver</title><style>.edge>path:hover{stroke-width:8}</style>
<ellipse fill="#964040" stroke="black" cx="258.53" cy="-217.66" rx="67.53" ry="29.52"/>
<text text-anchor="middle" x="258.53" y="-225.03" font-family="Helvetica,sans-Serif" font-size="10.00" fill="#ffffff">CrocoDash.</text>
<text text-anchor="middle" x="258.53" y="-213.78" font-family="Helvetica,sans-Serif" font-size="10.00" fill="#ffffff">raw_data_access.</text>
<text text-anchor="middle" x="258.53" y="-202.53" font-family="Helvetica,sans-Serif" font-size="10.00" fill="#ffffff">driver</text>
</g>
<!-- CrocoDash_grid&#45;&gt;CrocoDash_raw_data_access_driver -->
<g id="edge3" class="edge">
<title>CrocoDash_grid&#45;&gt;CrocoDash_raw_data_access_driver</title><style>.edge>path:hover{stroke-width:8}</style>
<path fill="none" stroke="black" d="M273.66,-382.49C288.81,-366.64 309.57,-341.03 316.53,-313.7"/>
<path fill="none" stroke="black" d="M316.53,-311.7C321.97,-290.33 310.61,-269.26 296.55,-252.58"/>
<polygon fill="#b83d3d" stroke="black" points="299.35,-250.46 290.04,-245.41 294.17,-255.16 299.35,-250.46"/>
</g>
<!-- CrocoDash_raw_data_access -->
<g id="node4" class="node">
<title>CrocoDash_raw_data_access</title><style>.edge>path:hover{stroke-width:8}</style>
<ellipse fill="#c24747" stroke="black" cx="607.53" cy="-130.57" rx="65.41" ry="21.57"/>
<text text-anchor="middle" x="607.53" y="-132.32" font-family="Helvetica,sans-Serif" font-size="10.00" fill="#ffffff">CrocoDash.</text>
<text text-anchor="middle" x="607.53" y="-121.07" font-family="Helvetica,sans-Serif" font-size="10.00" fill="#ffffff">raw_data_access</text>
</g>
<!-- CrocoDash_raw_data_access&#45;&gt;case_py -->
<g id="edge4" class="edge">
<title>CrocoDash_raw_data_access&#45;&gt;case_py</title><style>.edge>path:hover{stroke-width:8}</style>
<path fill="none" stroke="black" d="M655.31,-115.42C664.3,-113.05 673.66,-110.79 682.53,-109 742.73,-96.85 940.67,-132.33 956.53,-73"/>
</g>
<!-- CrocoDash_raw_data_access_driver&#45;&gt;case_py -->
<g id="edge5" class="edge">
<title>CrocoDash_raw_data_access_driver&#45;&gt;case_py</title><style>.edge>path:hover{stroke-width:8}</style>
<path fill="none" stroke="black" d="M290.41,-191.48C304.59,-179.89 321.26,-165.73 335.53,-152.13 344.54,-143.55 343.15,-136.6 354.53,-131.57"/>
</g>
<!-- CrocoDash_raw_data_access_tables -->
<g id="node6" class="node">
<title>CrocoDash_raw_data_access_tables</title><style>.edge>path:hover{stroke-width:8}</style>
<ellipse fill="#c24747" stroke="black" cx="67.53" cy="-312.7" rx="67.53" ry="29.52"/>
<text text-anchor="middle" x="67.53" y="-320.07" font-family="Helvetica,sans-Serif" font-size="10.00" fill="#ffffff">CrocoDash.</text>
<text text-anchor="middle" x="67.53" y="-308.82" font-family="Helvetica,sans-Serif" font-size="10.00" fill="#ffffff">raw_data_access.</text>
<text text-anchor="middle" x="67.53" y="-297.57" font-family="Helvetica,sans-Serif" font-size="10.00" fill="#ffffff">tables</text>
</g>
<!-- CrocoDash_raw_data_access_tables&#45;&gt;case_py -->
<g id="edge6" class="edge">
<title>CrocoDash_raw_data_access_tables&#45;&gt;case_py</title><style>.edge>path:hover{stroke-width:8}</style>
<path fill="none" stroke="black" d="M85.64,-283.85C105.66,-255.37 140.55,-212.01 181.53,-188.13 242.26,-152.74 274.79,-187.5 335.53,-152.13 346.28,-145.87 343.15,-136.6 354.53,-131.57"/>
<path fill="none" stroke="black" d="M354.53,-129.57C365.97,-124.66 362.29,-114.34 373.53,-109 432.16,-81.16 940.1,-135.79 956.53,-73"/>
</g>
<!-- CrocoDash_raw_data_access_tables&#45;&gt;CrocoDash_raw_data_access_driver -->
<g id="edge7" class="edge">
<title>CrocoDash_raw_data_access_tables&#45;&gt;CrocoDash_raw_data_access_driver</title><style>.edge>path:hover{stroke-width:8}</style>
<path fill="none" stroke="black" d="M111.83,-290.12C139.33,-276.72 174.88,-259.4 204.09,-245.17"/>
<polygon fill="#c24747" stroke="black" points="205.32,-248.47 212.78,-240.94 202.26,-242.17 205.32,-248.47"/>
</g>
<!-- CrocoDash_raw_data_access_utils -->
<g id="node7" class="node">
<title>CrocoDash_raw_data_access_utils</title><style>.edge>path:hover{stroke-width:8}</style>
<ellipse fill="#b65353" stroke="black" cx="220.53" cy="-312.7" rx="67.53" ry="29.52"/>
<text text-anchor="middle" x="220.53" y="-320.07" font-family="Helvetica,sans-Serif" font-size="10.00" fill="#ffffff">CrocoDash.</text>
<text text-anchor="middle" x="220.53" y="-308.82" font-family="Helvetica,sans-Serif" font-size="10.00" fill="#ffffff">raw_data_access.</text>
<text text-anchor="middle" x="220.53" y="-297.57" font-family="Helvetica,sans-Serif" font-size="10.00" fill="#ffffff">utils</text>
</g>
<!-- CrocoDash_raw_data_access_utils&#45;&gt;CrocoDash_raw_data_access_driver -->
<g id="edge8" class="edge">
<title>CrocoDash_raw_data_access_utils&#45;&gt;CrocoDash_raw_data_access_driver</title><style>.edge>path:hover{stroke-width:8}</style>
<path fill="none" stroke="black" d="M232.14,-283.28C235.42,-275.24 239.05,-266.34 242.55,-257.79"/>
<polygon fill="#b65353" stroke="black" points="245.75,-259.21 246.29,-248.62 239.27,-256.56 245.75,-259.21"/>
</g>
<!-- CrocoDash_topo -->
<g id="node8" class="node">
<title>CrocoDash_topo</title><style>.edge>path:hover{stroke-width:8}</style>
<ellipse fill="#a44646" stroke="black" cx="434.53" cy="-130.57" rx="51.63" ry="18"/>
<text text-anchor="middle" x="434.53" y="-126.69" font-family="Helvetica,sans-Serif" font-size="10.00" fill="#ffffff">CrocoDash.topo</text>
</g>
<!-- CrocoDash_topo&#45;&gt;case_py -->
<g id="edge9" class="edge">
<title>CrocoDash_topo&#45;&gt;case_py</title><style>.edge>path:hover{stroke-width:8}</style>
<path fill="none" stroke="black" d="M469.78,-116.99C479.62,-113.92 490.39,-110.95 500.53,-109 550.43,-99.38 943.4,-122.1 956.53,-73"/>
</g>
<!-- CrocoDash_vgrid -->
<g id="node9" class="node">
<title>CrocoDash_vgrid</title><style>.edge>path:hover{stroke-width:8}</style>
<ellipse fill="#ac4949" stroke="black" cx="372.53" cy="-399.79" rx="48.44" ry="21.57"/>
<text text-anchor="middle" x="372.53" y="-401.54" font-family="Helvetica,sans-Serif" font-size="10.00" fill="#ffffff">CrocoDash.</text>
<text text-anchor="middle" x="372.53" y="-390.29" font-family="Helvetica,sans-Serif" font-size="10.00" fill="#ffffff">vgrid</text>
</g>
<!-- CrocoDash_vgrid&#45;&gt;case_py -->
<g id="edge10" class="edge">
<title>CrocoDash_vgrid&#45;&gt;case_py</title><style>.edge>path:hover{stroke-width:8}</style>
<path fill="none" stroke="black" d="M367.76,-377.99C360.69,-344.45 348.82,-276.36 354.53,-218.66"/>
</g>
<!-- mom6_bathy -->
<g id="node10" class="node">
<title>mom6_bathy</title><style>.edge>path:hover{stroke-width:8}</style>
<ellipse fill="#2fdbdb" stroke="black" cx="434.53" cy="-554.49" rx="42.75" ry="18"/>
<text text-anchor="middle" x="434.53" y="-550.61" font-family="Helvetica,sans-Serif" font-size="10.00" fill="#000000">mom6_bathy</text>
</g>
<!-- mom6_bathy&#45;&gt;CrocoDash_grid -->
<g id="edge11" class="edge">
<title>mom6_bathy&#45;&gt;CrocoDash_grid</title><style>.edge>path:hover{stroke-width:8}</style>
<path fill="none" stroke="black" d="M354.53,-477.92C337.54,-455.15 312.22,-435.46 291.57,-421.67"/>
<polygon fill="#2fdbdb" stroke="black" points="293.73,-418.9 283.44,-416.4 289.92,-424.77 293.73,-418.9"/>
<path fill="none" stroke="black" d="M414.14,-538.31C396.67,-524.53 371.68,-502.91 354.53,-479.92"/>
</g>
<!-- mom6_bathy&#45;&gt;CrocoDash_topo -->
<g id="edge12" class="edge">
<title>mom6_bathy&#45;&gt;CrocoDash_topo</title><style>.edge>path:hover{stroke-width:8}</style>
<path fill="none" stroke="black" d="M457.71,-539.1C470.85,-529.72 486.44,-516.3 495.53,-500.49 518.02,-461.38 514.53,-445.9 514.53,-400.79 514.53,-400.79 514.53,-400.79 514.53,-311.7 514.53,-256.14 521.57,-237.22 495.53,-188.13 488.53,-174.95 477.24,-163.19 466.26,-153.85"/>
<polygon fill="#2fdbdb" stroke="black" points="468.78,-151.38 458.79,-147.85 464.4,-156.84 468.78,-151.38"/>
</g>
<!-- mom6_bathy&#45;&gt;CrocoDash_vgrid -->
<g id="edge13" class="edge">
<title>mom6_bathy&#45;&gt;CrocoDash_vgrid</title><style>.edge>path:hover{stroke-width:8}</style>
<path fill="none" stroke="black" d="M354.53,-477.92C344.51,-464.49 348.11,-446.36 354.63,-431.06"/>
<polygon fill="#2fdbdb" stroke="black" points="357.63,-432.9 358.82,-422.37 351.33,-429.85 357.63,-432.9"/>
</g>
<!-- mom6_bathy_grid -->
<g id="node11" class="node">
<title>mom6_bathy_grid</title><style>.edge>path:hover{stroke-width:8}</style>
<ellipse fill="#53b6b6" stroke="black" cx="256.53" cy="-478.92" rx="52.15" ry="21.57"/>
<text text-anchor="middle" x="256.53" y="-480.67" font-family="Helvetica,sans-Serif" font-size="10.00" fill="#000000">mom6_bathy.</text>
<text text-anchor="middle" x="256.53" y="-469.42" font-family="Helvetica,sans-Serif" font-size="10.00" fill="#000000">grid</text>
</g>
<!-- mom6_bathy_grid&#45;&gt;CrocoDash_grid -->
<g id="edge14" class="edge">
<title>mom6_bathy_grid&#45;&gt;CrocoDash_grid</title><style>.edge>path:hover{stroke-width:8}</style>
<path fill="none" stroke="black" d="M256.53,-457.25C256.53,-448.75 256.53,-438.76 256.53,-429.56"/>
<polygon fill="#53b6b6" stroke="black" points="260.03,-429.63 256.53,-419.63 253.03,-429.63 260.03,-429.63"/>
</g>
<!-- mom6_bathy_topo -->
<g id="node12" class="node">
<title>mom6_bathy_topo</title><style>.edge>path:hover{stroke-width:8}</style>
<ellipse fill="#4cb3b3" stroke="black" cx="434.53" cy="-217.66" rx="52.15" ry="21.57"/>
<text text-anchor="middle" x="434.53" y="-219.41" font-family="Helvetica,sans-Serif" font-size="10.00" fill="#000000">mom6_bathy.</text>
<text text-anchor="middle" x="434.53" y="-208.16" font-family="Helvetica,sans-Serif" font-size="10.00" fill="#000000">topo</text>
</g>
<!-- mom6_bathy_topo&#45;&gt;CrocoDash_topo -->
<g id="edge15" class="edge">
<title>mom6_bathy_topo&#45;&gt;CrocoDash_topo</title><style>.edge>path:hover{stroke-width:8}</style>
<path fill="none" stroke="black" d="M434.53,-195.62C434.53,-184.96 434.53,-171.84 434.53,-160.27"/>
<polygon fill="#4cb3b3" stroke="black" points="438.03,-160.44 434.53,-150.44 431.03,-160.44 438.03,-160.44"/>
</g>
<!-- mom6_bathy_vgrid -->
<g id="node13" class="node">
<title>mom6_bathy_vgrid</title><style>.edge>path:hover{stroke-width:8}</style>
<ellipse fill="#53b6b6" stroke="black" cx="434.53" cy="-478.92" rx="52.15" ry="21.57"/>
<text text-anchor="middle" x="434.53" y="-480.67" font-family="Helvetica,sans-Serif" font-size="10.00" fill="#000000">mom6_bathy.</text>
<text text-anchor="middle" x="434.53" y="-469.42" font-family="Helvetica,sans-Serif" font-size="10.00" fill="#000000">vgrid</text>
</g>
<!-- mom6_bathy_vgrid&#45;&gt;CrocoDash_vgrid -->
<g id="edge16" class="edge">
<title>mom6_bathy_vgrid&#45;&gt;CrocoDash_vgrid</title><style>.edge>path:hover{stroke-width:8}</style>
<path fill="none" stroke="black" d="M418.56,-458.06C411.55,-449.33 403.18,-438.92 395.51,-429.38"/>
<polygon fill="#53b6b6" stroke="black" points="398.38,-427.36 389.39,-421.76 392.93,-431.75 398.38,-427.36"/>
</g>
<!-- ProConPy_config_var -->
<g id="node14" class="node">
<title>ProConPy_config_var</title><style>.edge>path:hover{stroke-width:8}</style>
<ellipse fill="#b6b653" stroke="black" cx="735.53" cy="-130.57" rx="44.19" ry="21.57"/>
<text text-anchor="middle" x="735.53" y="-132.32" font-family="Helvetica,sans-Serif" font-size="10.00" fill="#000000">ProConPy.</text>
<text text-anchor="middle" x="735.53" y="-121.07" font-family="Helvetica,sans-Serif" font-size="10.00" fill="#000000">config_var</text>
</g>
<!-- ProConPy_config_var&#45;&gt;case_py -->
<g id="edge17" class="edge">
<title>ProConPy_config_var&#45;&gt;case_py</title><style>.edge>path:hover{stroke-width:8}</style>
<path fill="none" stroke="black" d="M768.61,-115.8C775.15,-113.35 782,-110.95 788.53,-109 825.11,-98.06 946.67,-109.89 956.53,-73"/>
</g>
<!-- ProConPy_csp_solver -->
<g id="node15" class="node">
<title>ProConPy_csp_solver</title><style>.edge>path:hover{stroke-width:8}</style>
<ellipse fill="#b6b653" stroke="black" cx="842.53" cy="-130.57" rx="44.72" ry="21.57"/>
<text text-anchor="middle" x="842.53" y="-132.32" font-family="Helvetica,sans-Serif" font-size="10.00" fill="#000000">ProConPy.</text>
<text text-anchor="middle" x="842.53" y="-121.07" font-family="Helvetica,sans-Serif" font-size="10.00" fill="#000000">csp_solver</text>
</g>
<!-- ProConPy_csp_solver&#45;&gt;case_py -->
<g id="edge18" class="edge">
<title>ProConPy_csp_solver&#45;&gt;case_py</title><style>.edge>path:hover{stroke-width:8}</style>
<path fill="none" stroke="black" d="M876.11,-115.91C908.9,-102.13 954.21,-81.67 956.53,-73"/>
</g>
<!-- ProConPy_stage -->
<g id="node16" class="node">
<title>ProConPy_stage</title><style>.edge>path:hover{stroke-width:8}</style>
<ellipse fill="#b6b653" stroke="black" cx="956.53" cy="-130.57" rx="51.18" ry="18"/>
<text text-anchor="middle" x="956.53" y="-126.69" font-family="Helvetica,sans-Serif" font-size="10.00" fill="#000000">ProConPy.stage</text>
</g>
<!-- ProConPy_stage&#45;&gt;case_py -->
<g id="edge19" class="edge">
<title>ProConPy_stage&#45;&gt;case_py</title><style>.edge>path:hover{stroke-width:8}</style>
<path fill="none" stroke="black" d="M954.23,-112.19C953.29,-100.84 953.11,-85.81 956.53,-73"/>
</g>
<!-- regional_mom6 -->
<g id="node17" class="node">
<title>regional_mom6</title><style>.edge>path:hover{stroke-width:8}</style>
<ellipse fill="#4747c2" stroke="black" cx="591.53" cy="-312.7" rx="48.52" ry="18"/>
<text text-anchor="middle" x="591.53" y="-308.82" font-family="Helvetica,sans-Serif" font-size="10.00" fill="#ffffff">regional_mom6</text>
</g>
<!-- regional_mom6&#45;&gt;case_py -->
<g id="edge20" class="edge">
<title>regional_mom6&#45;&gt;case_py</title><style>.edge>path:hover{stroke-width:8}</style>
<path fill="none" stroke="black" d="M552.53,-216.66C526.72,-175.49 500.66,-144.78 533.53,-109 597.35,-39.52 932.17,-164.14 956.53,-73"/>
</g>
<!-- regional_mom6&#45;&gt;CrocoDash_topo -->
<g id="edge21" class="edge">
<title>regional_mom6&#45;&gt;CrocoDash_topo</title><style>.edge>path:hover{stroke-width:8}</style>
<path fill="none" stroke="black" d="M552.53,-216.66C534.17,-187.37 501.73,-165.08 475.5,-150.68"/>
<polygon fill="#4747c2" stroke="black" points="477.24,-147.64 466.77,-146.07 473.98,-153.83 477.24,-147.64"/>
<path fill="none" stroke="black" d="M586.18,-294.42C579.78,-275.1 567.97,-243.29 552.53,-218.66"/>
</g>
<!-- visualCaseGen_cime_interface -->
<g id="node18" class="node">
<title>visualCaseGen_cime_interface</title><style>.edge>path:hover{stroke-width:8}</style>
<ellipse fill="#b653b6" stroke="black" cx="1086.53" cy="-130.57" rx="60.63" ry="21.57"/>
<text text-anchor="middle" x="1086.53" y="-132.32" font-family="Helvetica,sans-Serif" font-size="10.00" fill="#ffffff">visualCaseGen.</text>
<text text-anchor="middle" x="1086.53" y="-121.07" font-family="Helvetica,sans-Serif" font-size="10.00" fill="#ffffff">cime_interface</text>
</g>
<!-- visualCaseGen_cime_interface&#45;&gt;case_py -->
<g id="edge22" class="edge">
<title>visualCaseGen_cime_interface&#45;&gt;case_py</title><style>.edge>path:hover{stroke-width:8}</style>
<path fill="none" stroke="black" d="M1042.86,-115.17C1004.13,-101.74 954.02,-82.39 956.53,-73"/>
</g>
<!-- visualCaseGen_custom_widget_types_case_creator -->
<g id="node19" class="node">
<title>visualCaseGen_custom_widget_types_case_creator</title><style>.edge>path:hover{stroke-width:8}</style>
<ellipse fill="#b653b6" stroke="black" cx="995.53" cy="-217.66" rx="80.79" ry="29.52"/>
<text text-anchor="middle" x="995.53" y="-225.03" font-family="Helvetica,sans-Serif" font-size="10.00" fill="#ffffff">visualCaseGen.</text>
<text text-anchor="middle" x="995.53" y="-213.78" font-family="Helvetica,sans-Serif" font-size="10.00" fill="#ffffff">custom_widget_types.</text>
<text text-anchor="middle" x="995.53" y="-202.53" font-family="Helvetica,sans-Serif" font-size="10.00" fill="#ffffff">case_creator</text>
</g>
<!-- visualCaseGen_custom_widget_types_case_creator&#45;&gt;case_py -->
<g id="edge23" class="edge">
<title>visualCaseGen_custom_widget_types_case_creator&#45;&gt;case_py</title><style>.edge>path:hover{stroke-width:8}</style>
<path fill="none" stroke="black" d="M1053.22,-196.58C1091.98,-182.52 1139.04,-164.17 1156.53,-152.13 1166.78,-145.08 1178.67,-143.61 1175.53,-131.57"/>
<path fill="none" stroke="black" d="M1175.53,-129.57C1172.39,-117.52 1167.44,-114.98 1156.53,-109 1116.93,-87.29 944.87,-116.63 956.53,-73"/>
</g>
<!-- visualCaseGen_custom_widget_types_case_tools -->
<g id="node20" class="node">
<title>visualCaseGen_custom_widget_types_case_tools</title><style>.edge>path:hover{stroke-width:8}</style>
<ellipse fill="#b653b6" stroke="black" cx="1175.53" cy="-217.66" rx="80.79" ry="29.52"/>
<text text-anchor="middle" x="1175.53" y="-225.03" font-family="Helvetica,sans-Serif" font-size="10.00" fill="#ffffff">visualCaseGen.</text>
<text text-anchor="middle" x="1175.53" y="-213.78" font-family="Helvetica,sans-Serif" font-size="10.00" fill="#ffffff">custom_widget_types.</text>
<text text-anchor="middle" x="1175.53" y="-202.53" font-family="Helvetica,sans-Serif" font-size="10.00" fill="#ffffff">case_tools</text>
</g>
<!-- visualCaseGen_custom_widget_types_case_tools&#45;&gt;case_py -->
<g id="edge24" class="edge">
<title>visualCaseGen_custom_widget_types_case_tools&#45;&gt;case_py</title><style>.edge>path:hover{stroke-width:8}</style>
<path fill="none" stroke="black" d="M1179.1,-187.83C1180.3,-171.14 1180.3,-149.86 1175.53,-131.57"/>
</g>
<!-- visualCaseGen_initialize_configvars -->
<g id="node21" class="node">
<title>visualCaseGen_initialize_configvars</title><style>.edge>path:hover{stroke-width:8}</style>
<ellipse fill="#b653b6" stroke="black" cx="1275.53" cy="-130.57" rx="71.77" ry="21.57"/>
<text text-anchor="middle" x="1275.53" y="-132.32" font-family="Helvetica,sans-Serif" font-size="10.00" fill="#ffffff">visualCaseGen.</text>
<text text-anchor="middle" x="1275.53" y="-121.07" font-family="Helvetica,sans-Serif" font-size="10.00" fill="#ffffff">initialize_configvars</text>
</g>
<!-- visualCaseGen_initialize_configvars&#45;&gt;case_py -->
<g id="edge25" class="edge">
<title>visualCaseGen_initialize_configvars&#45;&gt;case_py</title><style>.edge>path:hover{stroke-width:8}</style>
<path fill="none" stroke="black" d="M1221.54,-115.95C1210.96,-113.48 1199.92,-111.04 1189.53,-109 1138.12,-98.9 943,-123.62 956.53,-73"/>
</g>
<!-- visualCaseGen_initialize_stages -->
<g id="node22" class="node">
<title>visualCaseGen_initialize_stages</title><style>.edge>path:hover{stroke-width:8}</style>
<ellipse fill="#b653b6" stroke="black" cx="1425.53" cy="-130.57" rx="60.63" ry="21.57"/>
<text text-anchor="middle" x="1425.53" y="-132.32" font-family="Helvetica,sans-Serif" font-size="10.00" fill="#ffffff">visualCaseGen.</text>
<text text-anchor="middle" x="1425.53" y="-121.07" font-family="Helvetica,sans-Serif" font-size="10.00" fill="#ffffff">initialize_stages</text>
</g>
<!-- visualCaseGen_initialize_stages&#45;&gt;case_py -->
<g id="edge26" class="edge">
<title>visualCaseGen_initialize_stages&#45;&gt;case_py</title><style>.edge>path:hover{stroke-width:8}</style>
<path fill="none" stroke="black" d="M1382.05,-115.18C1373.66,-112.81 1364.88,-110.6 1356.53,-109 1312.71,-100.58 945.01,-116.11 956.53,-73"/>
</g>
<!-- visualCaseGen_initialize_widgets -->
<g id="node23" class="node">
<title>visualCaseGen_initialize_widgets</title><style>.edge>path:hover{stroke-width:8}</style>
<ellipse fill="#b653b6" stroke="black" cx="1567.53" cy="-130.57" rx="63.82" ry="21.57"/>
<text text-anchor="middle" x="1567.53" y="-132.32" font-family="Helvetica,sans-Serif" font-size="10.00" fill="#ffffff">visualCaseGen.</text>
<text text-anchor="middle" x="1567.53" y="-121.07" font-family="Helvetica,sans-Serif" font-size="10.00" fill="#ffffff">initialize_widgets</text>
</g>
<!-- visualCaseGen_initialize_widgets&#45;&gt;case_py -->
<g id="edge27" class="edge">
<title>visualCaseGen_initialize_widgets&#45;&gt;case_py</title><style>.edge>path:hover{stroke-width:8}</style>
<path fill="none" stroke="black" d="M1522.16,-115.04C1513.4,-112.68 1504.24,-110.52 1495.53,-109 1436.4,-98.7 941.03,-130.99 956.53,-73"/>
</g>
<!-- visualCaseGen_specs_options -->
<g id="node24" class="node">
<title>visualCaseGen_specs_options</title><style>.edge>path:hover{stroke-width:8}</style>
<ellipse fill="#b653b6" stroke="black" cx="1504.53" cy="-217.66" rx="60.63" ry="29.52"/>
<text text-anchor="middle" x="1504.53" y="-225.03" font-family="Helvetica,sans-Serif" font-size="10.00" fill="#ffffff">visualCaseGen.</text>
<text text-anchor="middle" x="1504.53" y="-213.78" font-family="Helvetica,sans-Serif" font-size="10.00" fill="#ffffff">specs.</text>
<text text-anchor="middle" x="1504.53" y="-202.53" font-family="Helvetica,sans-Serif" font-size="10.00" fill="#ffffff">options</text>
</g>
<!-- visualCaseGen_specs_options&#45;&gt;case_py -->
<g id="edge28" class="edge">
<title>visualCaseGen_specs_options&#45;&gt;case_py</title><style>.edge>path:hover{stroke-width:8}</style>
<path fill="none" stroke="black" d="M1659.53,-129.57C1654.91,-118.01 1651.79,-114.29 1640.53,-109 1571.63,-76.67 936.88,-146.52 956.53,-73"/>
<path fill="none" stroke="black" d="M1549.42,-197.56C1582.8,-182.96 1625.11,-163.47 1640.53,-152.13 1650.55,-144.76 1664.15,-143.12 1659.53,-131.57"/>
</g>
<!-- visualCaseGen_specs_relational_constraints -->
<g id="node25" class="node">
<title>visualCaseGen_specs_relational_constraints</title><style>.edge>path:hover{stroke-width:8}</style>
<ellipse fill="#b653b6" stroke="black" cx="1659.53" cy="-217.66" rx="76.54" ry="29.52"/>
<text text-anchor="middle" x="1659.53" y="-225.03" font-family="Helvetica,sans-Serif" font-size="10.00" fill="#ffffff">visualCaseGen.</text>
<text text-anchor="middle" x="1659.53" y="-213.78" font-family="Helvetica,sans-Serif" font-size="10.00" fill="#ffffff">specs.</text>
<text text-anchor="middle" x="1659.53" y="-202.53" font-family="Helvetica,sans-Serif" font-size="10.00" fill="#ffffff">relational_constraints</text>
</g>
<!-- visualCaseGen_specs_relational_constraints&#45;&gt;case_py -->
<g id="edge29" class="edge">
<title>visualCaseGen_specs_relational_constraints&#45;&gt;case_py</title><style>.edge>path:hover{stroke-width:8}</style>
<path fill="none" stroke="black" d="M1664.71,-188.07C1666.55,-171.06 1666.66,-149.4 1659.53,-131.57"/>
</g>
</g>
</svg>
