<?xml version="1.0" encoding="UTF-8" standalone="no"?>
<!DOCTYPE svg PUBLIC "-//W3C//DTD SVG 1.1//EN"
 "http://www.w3.org/Graphics/SVG/1.1/DTD/svg11.dtd">
<!-- Generated by graphviz version 12.2.1 (20250203.1708)
 -->
<!-- Title: G Pages: 1 -->
<svg width="1513pt" height="678pt"
 viewBox="0.00 0.00 1513.00 677.94" xmlns="http://www.w3.org/2000/svg" xmlns:xlink="http://www.w3.org/1999/xlink">
<g id="graph0" class="graph" transform="scale(1 1) rotate(0) translate(4 673.94)">
<title>G</title><style>.edge>path:hover{stroke-width:8}</style>
<polygon fill="white" stroke="none" points="-4,4 -4,-673.94 1509,-673.94 1509,4 -4,4"/>
<!-- case_py -->
<g id="node1" class="node">
<title>case_py</title><style>.edge>path:hover{stroke-width:8}</style>
<ellipse fill="#426335" stroke="black" cx="701.91" cy="-18" rx="32.73" ry="18"/>
<text text-anchor="middle" x="701.91" y="-14.88" font-family="Helvetica,sans-Serif" font-size="10.00" fill="#ffffff">case.py</text>
</g>
<!-- CrocoDash -->
<g id="node2" class="node">
<title>CrocoDash</title><style>.edge>path:hover{stroke-width:8}</style>
<ellipse fill="#c24747" stroke="black" cx="41.91" cy="-132.69" rx="41.91" ry="18"/>
<text text-anchor="middle" x="41.91" y="-129.56" font-family="Helvetica,sans-Serif" font-size="10.00" fill="#ffffff">CrocoDash</text>
</g>
<!-- CrocoDash&#45;&gt;case_py -->
<g id="edge1" class="edge">
<title>CrocoDash&#45;&gt;case_py</title><style>.edge>path:hover{stroke-width:8}</style>
<path fill="none" stroke="black" d="M68.97,-118.66C77.97,-114.89 88.19,-111.2 97.91,-109 130.7,-101.59 694.88,-105.87 701.91,-73"/>
<path fill="none" stroke="black" d="M701.91,-72C703.58,-64.23 704.12,-55.68 704.1,-47.75"/>
<polygon fill="#c24747" stroke="black" points="707.61,-47.77 703.78,-37.89 700.61,-48 707.61,-47.77"/>
</g>
<!-- CrocoDash_grid -->
<g id="node3" class="node">
<title>CrocoDash_grid</title><style>.edge>path:hover{stroke-width:8}</style>
<ellipse fill="#b83d3d" stroke="black" cx="292.91" cy="-418.88" rx="55.22" ry="18"/>
<text text-anchor="middle" x="292.91" y="-415.75" font-family="Helvetica,sans-Serif" font-size="10.00" fill="#ffffff">CrocoDash.grid</text>
</g>
<!-- CrocoDash_grid&#45;&gt;case_py -->
<g id="edge2" class="edge">
<title>CrocoDash_grid&#45;&gt;case_py</title><style>.edge>path:hover{stroke-width:8}</style>
<path fill="none" stroke="black" d="M328.63,-404.69C337.81,-401.45 347.69,-398.08 356.91,-395.19 427.1,-373.21 506.2,-401.02 507.91,-327.49"/>
<path fill="none" stroke="black" d="M507.91,-325.49C508.89,-283.51 470.8,-255.83 388.91,-192.38 353.77,-165.15 278.95,-167.41 307.91,-133.69"/>
</g>
<!-- CrocoDash_raw_data_access_driver -->
<g id="node6" class="node">
<title>CrocoDash_raw_data_access_driver</title><style>.edge>path:hover{stroke-width:8}</style>
<ellipse fill="#964040" stroke="black" cx="307.91" cy="-225.08" rx="72.3" ry="32.7"/>
<text text-anchor="middle" x="307.91" y="-234.7" font-family="Helvetica,sans-Serif" font-size="10.00" fill="#ffffff">CrocoDash.</text>
<text text-anchor="middle" x="307.91" y="-221.95" font-family="Helvetica,sans-Serif" font-size="10.00" fill="#ffffff">raw_data_access.</text>
<text text-anchor="middle" x="307.91" y="-209.2" font-family="Helvetica,sans-Serif" font-size="10.00" fill="#ffffff">driver</text>
</g>
<!-- CrocoDash_grid&#45;&gt;CrocoDash_raw_data_access_driver -->
<g id="edge3" class="edge">
<title>CrocoDash_grid&#45;&gt;CrocoDash_raw_data_access_driver</title><style>.edge>path:hover{stroke-width:8}</style>
<path fill="none" stroke="black" d="M294.27,-400.52C296.57,-371.17 301.28,-310.88 304.52,-269.48"/>
<polygon fill="#b83d3d" stroke="black" points="308,-269.83 305.29,-259.59 301.02,-269.28 308,-269.83"/>
</g>
<!-- CrocoDash_raw_data_access -->
<g id="node4" class="node">
<title>CrocoDash_raw_data_access</title><style>.edge>path:hover{stroke-width:8}</style>
<ellipse fill="#c24747" stroke="black" cx="209.91" cy="-132.69" rx="70.18" ry="23.69"/>
<text text-anchor="middle" x="209.91" y="-135.94" font-family="Helvetica,sans-Serif" font-size="10.00" fill="#ffffff">CrocoDash.</text>
<text text-anchor="middle" x="209.91" y="-123.19" font-family="Helvetica,sans-Serif" font-size="10.00" fill="#ffffff">raw_data_access</text>
</g>
<!-- CrocoDash_raw_data_access&#45;&gt;case_py -->
<g id="edge4" class="edge">
<title>CrocoDash_raw_data_access&#45;&gt;case_py</title><style>.edge>path:hover{stroke-width:8}</style>
<path fill="none" stroke="black" d="M261.57,-116.21C272.19,-113.46 283.35,-110.88 293.91,-109 338.72,-101.04 692.39,-117.5 701.91,-73"/>
</g>
<!-- CrocoDash_raw_data_access_config -->
<g id="node5" class="node">
<title>CrocoDash_raw_data_access_config</title><style>.edge>path:hover{stroke-width:8}</style>
<ellipse fill="#c24747" stroke="black" cx="207.91" cy="-326.49" rx="72.3" ry="32.7"/>
<text text-anchor="middle" x="207.91" y="-336.11" font-family="Helvetica,sans-Serif" font-size="10.00" fill="#ffffff">CrocoDash.</text>
<text text-anchor="middle" x="207.91" y="-323.36" font-family="Helvetica,sans-Serif" font-size="10.00" fill="#ffffff">raw_data_access.</text>
<text text-anchor="middle" x="207.91" y="-310.61" font-family="Helvetica,sans-Serif" font-size="10.00" fill="#ffffff">config</text>
</g>
<!-- CrocoDash_raw_data_access_config&#45;&gt;case_py -->
<g id="edge5" class="edge">
<title>CrocoDash_raw_data_access_config&#45;&gt;case_py</title><style>.edge>path:hover{stroke-width:8}</style>
<path fill="none" stroke="black" d="M198.83,-293.76C194.77,-272.56 193.66,-245.16 207.91,-226.08"/>
</g>
<!-- CrocoDash_raw_data_access_config&#45;&gt;CrocoDash_raw_data_access_driver -->
<g id="edge6" class="edge">
<title>CrocoDash_raw_data_access_config&#45;&gt;CrocoDash_raw_data_access_driver</title><style>.edge>path:hover{stroke-width:8}</style>
<path fill="none" stroke="black" d="M237.38,-296.2C247.75,-285.89 259.55,-274.15 270.5,-263.27"/>
<polygon fill="#c24747" stroke="black" points="272.96,-265.76 277.59,-256.23 268.03,-260.79 272.96,-265.76"/>
</g>
<!-- CrocoDash_raw_data_access_driver&#45;&gt;case_py -->
<g id="edge7" class="edge">
<title>CrocoDash_raw_data_access_driver&#45;&gt;case_py</title><style>.edge>path:hover{stroke-width:8}</style>
<path fill="none" stroke="black" d="M298.49,-192.5C294.85,-173.3 294.31,-149.52 307.91,-133.69"/>
</g>
<!-- CrocoDash_raw_data_access_utils -->
<g id="node7" class="node">
<title>CrocoDash_raw_data_access_utils</title><style>.edge>path:hover{stroke-width:8}</style>
<ellipse fill="#b65353" stroke="black" cx="407.91" cy="-326.49" rx="72.3" ry="32.7"/>
<text text-anchor="middle" x="407.91" y="-336.11" font-family="Helvetica,sans-Serif" font-size="10.00" fill="#ffffff">CrocoDash.</text>
<text text-anchor="middle" x="407.91" y="-323.36" font-family="Helvetica,sans-Serif" font-size="10.00" fill="#ffffff">raw_data_access.</text>
<text text-anchor="middle" x="407.91" y="-310.61" font-family="Helvetica,sans-Serif" font-size="10.00" fill="#ffffff">utils</text>
</g>
<!-- CrocoDash_raw_data_access_utils&#45;&gt;CrocoDash_raw_data_access_driver -->
<g id="edge8" class="edge">
<title>CrocoDash_raw_data_access_utils&#45;&gt;CrocoDash_raw_data_access_driver</title><style>.edge>path:hover{stroke-width:8}</style>
<path fill="none" stroke="black" d="M378.45,-296.2C368.07,-285.89 356.27,-274.15 345.33,-263.27"/>
<polygon fill="#b65353" stroke="black" points="347.8,-260.79 338.24,-256.23 342.86,-265.76 347.8,-260.79"/>
</g>
<!-- CrocoDash_topo -->
<g id="node8" class="node">
<title>CrocoDash_topo</title><style>.edge>path:hover{stroke-width:8}</style>
<ellipse fill="#a44646" stroke="black" cx="422.91" cy="-418.88" rx="57.06" ry="18"/>
<text text-anchor="middle" x="422.91" y="-415.75" font-family="Helvetica,sans-Serif" font-size="10.00" fill="#ffffff">CrocoDash.topo</text>
</g>
<!-- CrocoDash_topo&#45;&gt;case_py -->
<g id="edge9" class="edge">
<title>CrocoDash_topo&#45;&gt;case_py</title><style>.edge>path:hover{stroke-width:8}</style>
<path fill="none" stroke="black" d="M450.86,-402.95C475.33,-387.64 507.13,-361.3 507.91,-327.49"/>
</g>
<!-- CrocoDash_vgrid -->
<g id="node9" class="node">
<title>CrocoDash_vgrid</title><style>.edge>path:hover{stroke-width:8}</style>
<ellipse fill="#ac4949" stroke="black" cx="96.91" cy="-418.88" rx="50.56" ry="23.69"/>
<text text-anchor="middle" x="96.91" y="-422.13" font-family="Helvetica,sans-Serif" font-size="10.00" fill="#ffffff">CrocoDash.</text>
<text text-anchor="middle" x="96.91" y="-409.38" font-family="Helvetica,sans-Serif" font-size="10.00" fill="#ffffff">vgrid</text>
</g>
<!-- CrocoDash_vgrid&#45;&gt;case_py -->
<g id="edge10" class="edge">
<title>CrocoDash_vgrid&#45;&gt;case_py</title><style>.edge>path:hover{stroke-width:8}</style>
<path fill="none" stroke="black" d="M90.61,-395.08C76.06,-336.81 47.42,-181.94 130.91,-109 178.79,-67.17 688.26,-135.09 701.91,-73"/>
</g>
<!-- mom6_bathy -->
<g id="node10" class="node">
<title>mom6_bathy</title><style>.edge>path:hover{stroke-width:8}</style>
<ellipse fill="#16f394" stroke="black" cx="182.91" cy="-579.94" rx="49.26" ry="18"/>
<text text-anchor="middle" x="182.91" y="-576.82" font-family="Helvetica,sans-Serif" font-size="10.00" fill="#000000">mom6_bathy</text>
</g>
<!-- mom6_bathy&#45;&gt;case_py -->
<g id="edge11" class="edge">
<title>mom6_bathy&#45;&gt;case_py</title><style>.edge>path:hover{stroke-width:8}</style>
<path fill="none" stroke="black" d="M182.91,-501.26C198.86,-455.41 178.79,-438.52 156.91,-395.19 147.53,-376.6 134,-378.77 126.91,-359.19 117.02,-331.86 114.6,-320.12 126.91,-293.78 146.78,-251.28 179.84,-263.67 207.91,-226.08"/>
<path fill="none" stroke="black" d="M207.91,-224.08C217.34,-210.63 215.22,-203.91 226.91,-192.38 249.6,-170 264.54,-176.9 288.91,-156.38 298.97,-147.9 299.73,-143.99 307.91,-133.69"/>
<path fill="none" stroke="black" d="M307.91,-131.69C316.1,-121.39 315.27,-115.13 326.91,-109 363.95,-89.5 692.95,-113.89 701.91,-73"/>
</g>
<!-- mom6_bathy&#45;&gt;CrocoDash_grid -->
<g id="edge12" class="edge">
<title>mom6_bathy&#45;&gt;CrocoDash_grid</title><style>.edge>path:hover{stroke-width:8}</style>
<path fill="none" stroke="black" d="M182.91,-501.26C193.13,-471.87 221.68,-451.26 247.13,-438.13"/>
<polygon fill="#16f394" stroke="black" points="248.6,-441.31 256.06,-433.79 245.54,-435.01 248.6,-441.31"/>
</g>
<!-- mom6_bathy&#45;&gt;CrocoDash_topo -->
<g id="edge13" class="edge">
<title>mom6_bathy&#45;&gt;CrocoDash_topo</title><style>.edge>path:hover{stroke-width:8}</style>
<path fill="none" stroke="black" d="M182.91,-501.26C209.73,-424.17 279.66,-468.87 356.91,-442.57 362.72,-440.59 368.81,-438.51 374.85,-436.44"/>
<polygon fill="#16f394" stroke="black" points="375.82,-439.8 384.15,-433.25 373.55,-433.18 375.82,-439.8"/>
</g>
<!-- mom6_bathy&#45;&gt;CrocoDash_vgrid -->
<g id="edge14" class="edge">
<title>mom6_bathy&#45;&gt;CrocoDash_vgrid</title><style>.edge>path:hover{stroke-width:8}</style>
<path fill="none" stroke="black" d="M179.75,-561.57C177.61,-545.88 176.26,-522.37 182.91,-503.26"/>
<path fill="none" stroke="black" d="M182.91,-501.26C191.82,-475.66 168.74,-454.85 144.26,-440.68"/>
<polygon fill="#16f394" stroke="black" points="145.94,-437.6 135.48,-435.92 142.61,-443.76 145.94,-437.6"/>
</g>
<!-- mom6_bathy_chl -->
<g id="node11" class="node">
<title>mom6_bathy_chl</title><style>.edge>path:hover{stroke-width:8}</style>
<ellipse fill="#409671" stroke="black" cx="684.91" cy="-418.88" rx="58.89" ry="18"/>
<text text-anchor="middle" x="684.91" y="-415.75" font-family="Helvetica,sans-Serif" font-size="10.00" fill="#ffffff">mom6_bathy.chl</text>
</g>
<!-- mom6_bathy_chl&#45;&gt;case_py -->
<g id="edge15" class="edge">
<title>mom6_bathy_chl&#45;&gt;case_py</title><style>.edge>path:hover{stroke-width:8}</style>
<path fill="none" stroke="black" d="M676.55,-400.64C663.11,-371.87 637.25,-311.86 627.91,-257.78 622.97,-229.14 614.09,-217.95 627.91,-192.38 641.81,-166.68 666.23,-180.36 682.91,-156.38 704.61,-125.17 693.96,-110.16 701.91,-73"/>
</g>
<!-- mom6_bathy_grid -->
<g id="node12" class="node">
<title>mom6_bathy_grid</title><style>.edge>path:hover{stroke-width:8}</style>
<ellipse fill="#40c089" stroke="black" cx="550.91" cy="-502.26" rx="57.98" ry="23.69"/>
<text text-anchor="middle" x="550.91" y="-505.51" font-family="Helvetica,sans-Serif" font-size="10.00" fill="#000000">mom6_bathy.</text>
<text text-anchor="middle" x="550.91" y="-492.76" font-family="Helvetica,sans-Serif" font-size="10.00" fill="#000000">grid</text>
</g>
<!-- mom6_bathy_grid&#45;&gt;CrocoDash_grid -->
<g id="edge16" class="edge">
<title>mom6_bathy_grid&#45;&gt;CrocoDash_grid</title><style>.edge>path:hover{stroke-width:8}</style>
<path fill="none" stroke="black" d="M506.02,-486.97C497.05,-484.15 487.69,-481.24 478.91,-478.57 424.84,-462.07 410.69,-460.02 356.91,-442.57 351.17,-440.7 345.16,-438.67 339.22,-436.62"/>
<polygon fill="#40c089" stroke="black" points="340.7,-433.44 330.11,-433.44 338.39,-440.04 340.7,-433.44"/>
</g>
<!-- mom6_bathy_grid&#45;&gt;mom6_bathy_chl -->
<g id="edge17" class="edge">
<title>mom6_bathy_grid&#45;&gt;mom6_bathy_chl</title><style>.edge>path:hover{stroke-width:8}</style>
<path fill="none" stroke="black" d="M582.67,-481.97C602.75,-469.77 628.75,-453.99 649.5,-441.38"/>
<polygon fill="#40c089" stroke="black" points="651.19,-444.45 657.92,-436.27 647.56,-438.47 651.19,-444.45"/>
</g>
<!-- mom6_bathy_ocean_fill_and_grid_interp -->
<g id="node13" class="node">
<title>mom6_bathy_ocean_fill_and_grid_interp</title><style>.edge>path:hover{stroke-width:8}</style>
<ellipse fill="#4cb387" stroke="black" cx="899.91" cy="-502.26" rx="101.47" ry="23.69"/>
<text text-anchor="middle" x="899.91" y="-505.51" font-family="Helvetica,sans-Serif" font-size="10.00" fill="#000000">mom6_bathy.</text>
<text text-anchor="middle" x="899.91" y="-492.76" font-family="Helvetica,sans-Serif" font-size="10.00" fill="#000000">ocean_fill_and_grid_interp</text>
</g>
<!-- mom6_bathy_ocean_fill_and_grid_interp&#45;&gt;mom6_bathy_chl -->
<g id="edge18" class="edge">
<title>mom6_bathy_ocean_fill_and_grid_interp&#45;&gt;mom6_bathy_chl</title><style>.edge>path:hover{stroke-width:8}</style>
<path fill="none" stroke="black" d="M847.87,-481.56C812.43,-468.14 765.92,-450.54 731.67,-437.58"/>
<polygon fill="#4cb387" stroke="black" points="733.01,-434.34 722.42,-434.08 730.53,-440.89 733.01,-434.34"/>
</g>
<!-- mom6_bathy_topo -->
<g id="node14" class="node">
<title>mom6_bathy_topo</title><style>.edge>path:hover{stroke-width:8}</style>
<ellipse fill="#3db883" stroke="black" cx="684.91" cy="-502.26" rx="57.98" ry="23.69"/>
<text text-anchor="middle" x="684.91" y="-505.51" font-family="Helvetica,sans-Serif" font-size="10.00" fill="#000000">mom6_bathy.</text>
<text text-anchor="middle" x="684.91" y="-492.76" font-family="Helvetica,sans-Serif" font-size="10.00" fill="#000000">topo</text>
</g>
<!-- mom6_bathy_topo&#45;&gt;CrocoDash_topo -->
<g id="edge19" class="edge">
<title>mom6_bathy_topo&#45;&gt;CrocoDash_topo</title><style>.edge>path:hover{stroke-width:8}</style>
<path fill="none" stroke="black" d="M641.37,-486.27C633.58,-483.66 625.52,-481 617.91,-478.57 569.54,-463.1 514.05,-446.51 474.66,-434.93"/>
<polygon fill="#3db883" stroke="black" points="475.78,-431.61 465.2,-432.15 473.81,-438.33 475.78,-431.61"/>
</g>
<!-- mom6_bathy_topo&#45;&gt;mom6_bathy_chl -->
<g id="edge20" class="edge">
<title>mom6_bathy_topo&#45;&gt;mom6_bathy_chl</title><style>.edge>path:hover{stroke-width:8}</style>
<path fill="none" stroke="black" d="M684.91,-478.15C684.91,-469.03 684.91,-458.46 684.91,-448.84"/>
<polygon fill="#3db883" stroke="black" points="688.41,-448.86 684.91,-438.86 681.41,-448.86 688.41,-448.86"/>
</g>
<!-- mom6_bathy_vgrid -->
<g id="node15" class="node">
<title>mom6_bathy_vgrid</title><style>.edge>path:hover{stroke-width:8}</style>
<ellipse fill="#4cb387" stroke="black" cx="96.91" cy="-502.26" rx="57.98" ry="23.69"/>
<text text-anchor="middle" x="96.91" y="-505.51" font-family="Helvetica,sans-Serif" font-size="10.00" fill="#000000">mom6_bathy.</text>
<text text-anchor="middle" x="96.91" y="-492.76" font-family="Helvetica,sans-Serif" font-size="10.00" fill="#000000">vgrid</text>
</g>
<!-- mom6_bathy_vgrid&#45;&gt;CrocoDash_vgrid -->
<g id="edge21" class="edge">
<title>mom6_bathy_vgrid&#45;&gt;CrocoDash_vgrid</title><style>.edge>path:hover{stroke-width:8}</style>
<path fill="none" stroke="black" d="M96.91,-478.15C96.91,-470.77 96.91,-462.42 96.91,-454.4"/>
<polygon fill="#4cb387" stroke="black" points="100.41,-454.55 96.91,-444.55 93.41,-454.55 100.41,-454.55"/>
</g>
<!-- numpy -->
<g id="node16" class="node">
<title>numpy</title><style>.edge>path:hover{stroke-width:8}</style>
<ellipse fill="#0c90f3" stroke="black" cx="399.91" cy="-651.94" rx="30.44" ry="18"/>
<text text-anchor="middle" x="399.91" y="-648.82" font-family="Helvetica,sans-Serif" font-size="10.00" fill="#ffffff">numpy</text>
</g>
<!-- numpy&#45;&gt;mom6_bathy_chl -->
<g id="edge22" class="edge">
<title>numpy&#45;&gt;mom6_bathy_chl</title><style>.edge>path:hover{stroke-width:8}</style>
<path fill="none" stroke="black" d="M770.91,-578.94C789.87,-537.69 774.44,-517.99 751.91,-478.57 743.9,-464.55 731.28,-452.21 719.15,-442.5"/>
<polygon fill="#0c90f3" stroke="black" points="721.34,-439.77 711.25,-436.53 717.11,-445.35 721.34,-439.77"/>
</g>
<!-- numpy&#45;&gt;mom6_bathy_grid -->
<g id="edge23" class="edge">
<title>numpy&#45;&gt;mom6_bathy_grid</title><style>.edge>path:hover{stroke-width:8}</style>
<path fill="none" stroke="black" d="M430.54,-651.02C514.23,-650.42 742.39,-643.04 770.91,-580.94"/>
<path fill="none" stroke="black" d="M770.91,-578.94C771.14,-578.45 670.46,-544.01 605.24,-521.76"/>
<polygon fill="#0c90f3" stroke="black" points="606.73,-518.57 596.13,-518.66 604.47,-525.2 606.73,-518.57"/>
</g>
<!-- numpy&#45;&gt;mom6_bathy_ocean_fill_and_grid_interp -->
<g id="edge24" class="edge">
<title>numpy&#45;&gt;mom6_bathy_ocean_fill_and_grid_interp</title><style>.edge>path:hover{stroke-width:8}</style>
<path fill="none" stroke="black" d="M770.91,-578.94C782.01,-554.79 804.85,-537.85 828.28,-526.22"/>
<polygon fill="#0c90f3" stroke="black" points="829.71,-529.42 837.31,-522.04 826.76,-523.07 829.71,-529.42"/>
</g>
<!-- numpy&#45;&gt;mom6_bathy_topo -->
<g id="edge25" class="edge">
<title>numpy&#45;&gt;mom6_bathy_topo</title><style>.edge>path:hover{stroke-width:8}</style>
<path fill="none" stroke="black" d="M770.91,-578.94C781.42,-556.07 760.52,-537.31 736.7,-524.19"/>
<polygon fill="#0c90f3" stroke="black" points="738.6,-521.24 728.1,-519.79 735.41,-527.46 738.6,-521.24"/>
</g>
<!-- numpy&#45;&gt;mom6_bathy_vgrid -->
<g id="edge26" class="edge">
<title>numpy&#45;&gt;mom6_bathy_vgrid</title><style>.edge>path:hover{stroke-width:8}</style>
<path fill="none" stroke="black" d="M369.45,-649C305.57,-644.3 160.56,-630.29 124.91,-597.94 108.14,-582.73 101.23,-558.01 98.46,-537.64"/>
<polygon fill="#0c90f3" stroke="black" points="101.94,-537.34 97.42,-527.76 94.98,-538.07 101.94,-537.34"/>
</g>
<!-- ProConPy_config_var -->
<g id="node17" class="node">
<title>ProConPy_config_var</title><style>.edge>path:hover{stroke-width:8}</style>
<ellipse fill="#b6a853" stroke="black" cx="382.91" cy="-132.69" rx="46.85" ry="23.69"/>
<text text-anchor="middle" x="382.91" y="-135.94" font-family="Helvetica,sans-Serif" font-size="10.00" fill="#000000">ProConPy.</text>
<text text-anchor="middle" x="382.91" y="-123.19" font-family="Helvetica,sans-Serif" font-size="10.00" fill="#000000">config_var</text>
</g>
<!-- ProConPy_config_var&#45;&gt;case_py -->
<g id="edge27" class="edge">
<title>ProConPy_config_var&#45;&gt;case_py</title><style>.edge>path:hover{stroke-width:8}</style>
<path fill="none" stroke="black" d="M417.4,-116.16C424.42,-113.44 431.82,-110.89 438.91,-109 495.91,-93.81 689.57,-130.68 701.91,-73"/>
</g>
<!-- ProConPy_csp_solver -->
<g id="node18" class="node">
<title>ProConPy_csp_solver</title><style>.edge>path:hover{stroke-width:8}</style>
<ellipse fill="#b6a853" stroke="black" cx="495.91" cy="-132.69" rx="47.91" ry="23.69"/>
<text text-anchor="middle" x="495.91" y="-135.94" font-family="Helvetica,sans-Serif" font-size="10.00" fill="#000000">ProConPy.</text>
<text text-anchor="middle" x="495.91" y="-123.19" font-family="Helvetica,sans-Serif" font-size="10.00" fill="#000000">csp_solver</text>
</g>
<!-- ProConPy_csp_solver&#45;&gt;case_py -->
<g id="edge28" class="edge">
<title>ProConPy_csp_solver&#45;&gt;case_py</title><style>.edge>path:hover{stroke-width:8}</style>
<path fill="none" stroke="black" d="M531.82,-116.5C538.75,-113.83 546.01,-111.2 552.91,-109 617.84,-88.35 687.65,-139.62 701.91,-73"/>
</g>
<!-- ProConPy_stage -->
<g id="node19" class="node">
<title>ProConPy_stage</title><style>.edge>path:hover{stroke-width:8}</style>
<ellipse fill="#b6a853" stroke="black" cx="617.91" cy="-132.69" rx="55.68" ry="18"/>
<text text-anchor="middle" x="617.91" y="-129.56" font-family="Helvetica,sans-Serif" font-size="10.00" fill="#000000">ProConPy.stage</text>
</g>
<!-- ProConPy_stage&#45;&gt;case_py -->
<g id="edge29" class="edge">
<title>ProConPy_stage&#45;&gt;case_py</title><style>.edge>path:hover{stroke-width:8}</style>
<path fill="none" stroke="black" d="M655.87,-119.26C675.82,-110.17 697.11,-95.44 701.91,-73"/>
</g>
<!-- regional_mom6 -->
<g id="node20" class="node">
<title>regional_mom6</title><style>.edge>path:hover{stroke-width:8}</style>
<ellipse fill="#6a47c2" stroke="black" cx="464.91" cy="-579.94" rx="56.6" ry="18"/>
<text text-anchor="middle" x="464.91" y="-576.82" font-family="Helvetica,sans-Serif" font-size="10.00" fill="#ffffff">regional_mom6</text>
</g>
<!-- regional_mom6&#45;&gt;case_py -->
<g id="edge30" class="edge">
<title>regional_mom6&#45;&gt;case_py</title><style>.edge>path:hover{stroke-width:8}</style>
<path fill="none" stroke="black" d="M464.91,-501.26C465,-473.07 481.24,-469.68 488.91,-442.57 503.03,-392.69 503.66,-379.15 507.91,-327.49"/>
</g>
<!-- regional_mom6&#45;&gt;CrocoDash_topo -->
<g id="edge31" class="edge">
<title>regional_mom6&#45;&gt;CrocoDash_topo</title><style>.edge>path:hover{stroke-width:8}</style>
<path fill="none" stroke="black" d="M464.88,-561.51C464.86,-546.17 464.85,-523.23 464.91,-503.26"/>
<path fill="none" stroke="black" d="M464.91,-501.26C464.97,-481.17 454.75,-461.09 444.37,-445.9"/>
<polygon fill="#6a47c2" stroke="black" points="447.25,-443.92 438.53,-437.9 441.6,-448.04 447.25,-443.92"/>
</g>
<!-- visualCaseGen_cime_interface -->
<g id="node21" class="node">
<title>visualCaseGen_cime_interface</title><style>.edge>path:hover{stroke-width:8}</style>
<ellipse fill="#b653a8" stroke="black" cx="794.91" cy="-132.69" rx="64.88" ry="23.69"/>
<text text-anchor="middle" x="794.91" y="-135.94" font-family="Helvetica,sans-Serif" font-size="10.00" fill="#ffffff">visualCaseGen.</text>
<text text-anchor="middle" x="794.91" y="-123.19" font-family="Helvetica,sans-Serif" font-size="10.00" fill="#ffffff">cime_interface</text>
</g>
<!-- visualCaseGen_cime_interface&#45;&gt;case_py -->
<g id="edge32" class="edge">
<title>visualCaseGen_cime_interface&#45;&gt;case_py</title><style>.edge>path:hover{stroke-width:8}</style>
<path fill="none" stroke="black" d="M741.14,-119C717.93,-110.17 697.04,-95.78 701.91,-73"/>
</g>
<!-- visualCaseGen_custom_widget_types_case_creator -->
<g id="node22" class="node">
<title>visualCaseGen_custom_widget_types_case_creator</title><style>.edge>path:hover{stroke-width:8}</style>
<ellipse fill="#b653a8" stroke="black" cx="725.91" cy="-225.08" rx="88.74" ry="32.7"/>
<text text-anchor="middle" x="725.91" y="-234.7" font-family="Helvetica,sans-Serif" font-size="10.00" fill="#ffffff">visualCaseGen.</text>
<text text-anchor="middle" x="725.91" y="-221.95" font-family="Helvetica,sans-Serif" font-size="10.00" fill="#ffffff">custom_widget_types.</text>
<text text-anchor="middle" x="725.91" y="-209.2" font-family="Helvetica,sans-Serif" font-size="10.00" fill="#ffffff">case_creator</text>
</g>
<!-- visualCaseGen_custom_widget_types_case_creator&#45;&gt;case_py -->
<g id="edge33" class="edge">
<title>visualCaseGen_custom_widget_types_case_creator&#45;&gt;case_py</title><style>.edge>path:hover{stroke-width:8}</style>
<path fill="none" stroke="black" d="M790.19,-202.2C838.67,-183.68 895.61,-156.59 887.91,-133.69"/>
<path fill="none" stroke="black" d="M887.91,-131.69C860.3,-49.52 683.77,-157.76 701.91,-73"/>
</g>
<!-- visualCaseGen_custom_widget_types_case_tools -->
<g id="node23" class="node">
<title>visualCaseGen_custom_widget_types_case_tools</title><style>.edge>path:hover{stroke-width:8}</style>
<ellipse fill="#b653a8" stroke="black" cx="920.91" cy="-225.08" rx="88.74" ry="32.7"/>
<text text-anchor="middle" x="920.91" y="-234.7" font-family="Helvetica,sans-Serif" font-size="10.00" fill="#ffffff">visualCaseGen.</text>
<text text-anchor="middle" x="920.91" y="-221.95" font-family="Helvetica,sans-Serif" font-size="10.00" fill="#ffffff">custom_widget_types.</text>
<text text-anchor="middle" x="920.91" y="-209.2" font-family="Helvetica,sans-Serif" font-size="10.00" fill="#ffffff">case_tools</text>
</g>
<!-- visualCaseGen_custom_widget_types_case_tools&#45;&gt;case_py -->
<g id="edge34" class="edge">
<title>visualCaseGen_custom_widget_types_case_tools&#45;&gt;case_py</title><style>.edge>path:hover{stroke-width:8}</style>
<path fill="none" stroke="black" d="M908.9,-192.43C902.46,-175.15 894.51,-153.32 887.91,-133.69"/>
</g>
<!-- visualCaseGen_initialize_configvars -->
<g id="node24" class="node">
<title>visualCaseGen_initialize_configvars</title><style>.edge>path:hover{stroke-width:8}</style>
<ellipse fill="#b653a8" stroke="black" cx="995.91" cy="-132.69" rx="80.26" ry="23.69"/>
<text text-anchor="middle" x="995.91" y="-135.94" font-family="Helvetica,sans-Serif" font-size="10.00" fill="#ffffff">visualCaseGen.</text>
<text text-anchor="middle" x="995.91" y="-123.19" font-family="Helvetica,sans-Serif" font-size="10.00" fill="#ffffff">initialize_configvars</text>
</g>
<!-- visualCaseGen_initialize_configvars&#45;&gt;case_py -->
<g id="edge35" class="edge">
<title>visualCaseGen_initialize_configvars&#45;&gt;case_py</title><style>.edge>path:hover{stroke-width:8}</style>
<path fill="none" stroke="black" d="M935.86,-116.64C924.6,-113.98 912.92,-111.32 901.91,-109 857.72,-99.7 692.46,-117.16 701.91,-73"/>
</g>
<!-- visualCaseGen_initialize_stages -->
<g id="node25" class="node">
<title>visualCaseGen_initialize_stages</title><style>.edge>path:hover{stroke-width:8}</style>
<ellipse fill="#b653a8" stroke="black" cx="1161.91" cy="-132.69" rx="67.53" ry="23.69"/>
<text text-anchor="middle" x="1161.91" y="-135.94" font-family="Helvetica,sans-Serif" font-size="10.00" fill="#ffffff">visualCaseGen.</text>
<text text-anchor="middle" x="1161.91" y="-123.19" font-family="Helvetica,sans-Serif" font-size="10.00" fill="#ffffff">initialize_stages</text>
</g>
<!-- visualCaseGen_initialize_stages&#45;&gt;case_py -->
<g id="edge36" class="edge">
<title>visualCaseGen_initialize_stages&#45;&gt;case_py</title><style>.edge>path:hover{stroke-width:8}</style>
<path fill="none" stroke="black" d="M1113.38,-115.85C1104.01,-113.23 1094.22,-110.79 1084.91,-109 1042.94,-100.92 692.97,-114.8 701.91,-73"/>
</g>
<!-- visualCaseGen_initialize_widgets -->
<g id="node26" class="node">
<title>visualCaseGen_initialize_widgets</title><style>.edge>path:hover{stroke-width:8}</style>
<ellipse fill="#b653a8" stroke="black" cx="1318.91" cy="-132.69" rx="71.77" ry="23.69"/>
<text text-anchor="middle" x="1318.91" y="-135.94" font-family="Helvetica,sans-Serif" font-size="10.00" fill="#ffffff">visualCaseGen.</text>
<text text-anchor="middle" x="1318.91" y="-123.19" font-family="Helvetica,sans-Serif" font-size="10.00" fill="#ffffff">initialize_widgets</text>
</g>
<!-- visualCaseGen_initialize_widgets&#45;&gt;case_py -->
<g id="edge37" class="edge">
<title>visualCaseGen_initialize_widgets&#45;&gt;case_py</title><style>.edge>path:hover{stroke-width:8}</style>
<path fill="none" stroke="black" d="M1268.07,-115.55C1258.46,-112.99 1248.44,-110.65 1238.91,-109 1209.45,-103.89 695.66,-102.24 701.91,-73"/>
</g>
<!-- visualCaseGen_specs_options -->
<g id="node27" class="node">
<title>visualCaseGen_specs_options</title><style>.edge>path:hover{stroke-width:8}</style>
<ellipse fill="#b653a8" stroke="black" cx="1249.91" cy="-225.08" rx="64.88" ry="32.7"/>
<text text-anchor="middle" x="1249.91" y="-234.7" font-family="Helvetica,sans-Serif" font-size="10.00" fill="#ffffff">visualCaseGen.</text>
<text text-anchor="middle" x="1249.91" y="-221.95" font-family="Helvetica,sans-Serif" font-size="10.00" fill="#ffffff">specs.</text>
<text text-anchor="middle" x="1249.91" y="-209.2" font-family="Helvetica,sans-Serif" font-size="10.00" fill="#ffffff">options</text>
</g>
<!-- visualCaseGen_specs_options&#45;&gt;case_py -->
<g id="edge38" class="edge">
<title>visualCaseGen_specs_options&#45;&gt;case_py</title><style>.edge>path:hover{stroke-width:8}</style>
<path fill="none" stroke="black" d="M1298.26,-202.88C1340.39,-184.3 1395.46,-159.75 1399.91,-156.38 1410.39,-148.43 1423.71,-145.94 1418.91,-133.69"/>
<path fill="none" stroke="black" d="M1418.91,-131.69C1414.12,-119.44 1411.68,-114.87 1399.91,-109 1330.42,-74.34 685.66,-148.94 701.91,-73"/>
</g>
<!-- visualCaseGen_specs_relational_constraints -->
<g id="node28" class="node">
<title>visualCaseGen_specs_relational_constraints</title><style>.edge>path:hover{stroke-width:8}</style>
<ellipse fill="#b653a8" stroke="black" cx="1418.91" cy="-225.08" rx="86.09" ry="32.7"/>
<text text-anchor="middle" x="1418.91" y="-234.7" font-family="Helvetica,sans-Serif" font-size="10.00" fill="#ffffff">visualCaseGen.</text>
<text text-anchor="middle" x="1418.91" y="-221.95" font-family="Helvetica,sans-Serif" font-size="10.00" fill="#ffffff">specs.</text>
<text text-anchor="middle" x="1418.91" y="-209.2" font-family="Helvetica,sans-Serif" font-size="10.00" fill="#ffffff">relational_constraints</text>
</g>
<!-- visualCaseGen_specs_relational_constraints&#45;&gt;case_py -->
<g id="edge39" class="edge">
<title>visualCaseGen_specs_relational_constraints&#45;&gt;case_py</title><style>.edge>path:hover{stroke-width:8}</style>
<path fill="none" stroke="black" d="M1424.49,-192.07C1426.23,-174.29 1426.12,-152.1 1418.91,-133.69"/>
</g>
</g>
</svg>
