<?xml version="1.0" encoding="UTF-8" standalone="no"?>
<!DOCTYPE svg PUBLIC "-//W3C//DTD SVG 1.1//EN"
 "http://www.w3.org/Graphics/SVG/1.1/DTD/svg11.dtd">
<!-- Generated by graphviz version 12.2.1 (20250203.1708)
 -->
<!-- Title: G Pages: 1 -->
<svg width="1621pt" height="761pt"
 viewBox="0.00 0.00 1621.00 761.32" xmlns="http://www.w3.org/2000/svg" xmlns:xlink="http://www.w3.org/1999/xlink">
<g id="graph0" class="graph" transform="scale(1 1) rotate(0) translate(4 757.32)">
<title>G</title><style>.edge>path:hover{stroke-width:8}</style>
<polygon fill="white" stroke="none" points="-4,4 -4,-757.32 1617,-757.32 1617,4 -4,4"/>
<!-- case_py -->
<g id="node1" class="node">
<title>case_py</title><style>.edge>path:hover{stroke-width:8}</style>
<ellipse fill="#4c6335" stroke="black" cx="767.91" cy="-18" rx="32.73" ry="18"/>
<text text-anchor="middle" x="767.91" y="-14.88" font-family="Helvetica,sans-Serif" font-size="10.00" fill="#ffffff">case.py</text>
</g>
<!-- CrocoDash -->
<g id="node2" class="node">
<title>CrocoDash</title><style>.edge>path:hover{stroke-width:8}</style>
<ellipse fill="#c24747" stroke="black" cx="41.91" cy="-132.69" rx="41.91" ry="18"/>
<text text-anchor="middle" x="41.91" y="-129.56" font-family="Helvetica,sans-Serif" font-size="10.00" fill="#ffffff">CrocoDash</text>
</g>
<!-- CrocoDash&#45;&gt;case_py -->
<g id="edge1" class="edge">
<title>CrocoDash&#45;&gt;case_py</title><style>.edge>path:hover{stroke-width:8}</style>
<path fill="none" stroke="black" d="M68.96,-118.63C77.97,-114.85 88.19,-111.17 97.91,-109 134.3,-100.89 757.15,-108.69 767.91,-73"/>
<path fill="none" stroke="black" d="M767.91,-72C770.27,-64.19 770.99,-55.43 770.93,-47.31"/>
<polygon fill="#c24747" stroke="black" points="774.44,-47.4 770.46,-37.59 767.45,-47.74 774.44,-47.4"/>
</g>
<!-- CrocoDash_grid -->
<g id="node3" class="node">
<title>CrocoDash_grid</title><style>.edge>path:hover{stroke-width:8}</style>
<ellipse fill="#b83d3d" stroke="black" cx="239.91" cy="-418.88" rx="55.22" ry="18"/>
<text text-anchor="middle" x="239.91" y="-415.75" font-family="Helvetica,sans-Serif" font-size="10.00" fill="#ffffff">CrocoDash.grid</text>
</g>
<!-- CrocoDash_grid&#45;&gt;case_py -->
<g id="edge2" class="edge">
<title>CrocoDash_grid&#45;&gt;case_py</title><style>.edge>path:hover{stroke-width:8}</style>
<path fill="none" stroke="black" d="M465.91,-325.49C477.29,-282.8 491.35,-262.21 465.91,-226.08"/>
<path fill="none" stroke="black" d="M465.91,-224.08C419.34,-157.93 260.52,-199.25 307.91,-133.69"/>
</g>
<!-- CrocoDash_raw_data_access_driver -->
<g id="node6" class="node">
<title>CrocoDash_raw_data_access_driver</title><style>.edge>path:hover{stroke-width:8}</style>
<ellipse fill="#964040" stroke="black" cx="307.91" cy="-225.08" rx="72.3" ry="32.7"/>
<text text-anchor="middle" x="307.91" y="-234.7" font-family="Helvetica,sans-Serif" font-size="10.00" fill="#ffffff">CrocoDash.</text>
<text text-anchor="middle" x="307.91" y="-221.95" font-family="Helvetica,sans-Serif" font-size="10.00" fill="#ffffff">raw_data_access.</text>
<text text-anchor="middle" x="307.91" y="-209.2" font-family="Helvetica,sans-Serif" font-size="10.00" fill="#ffffff">driver</text>
</g>
<!-- CrocoDash_grid&#45;&gt;CrocoDash_raw_data_access_driver -->
<g id="edge3" class="edge">
<title>CrocoDash_grid&#45;&gt;CrocoDash_raw_data_access_driver</title><style>.edge>path:hover{stroke-width:8}</style>
<path fill="none" stroke="black" d="M275.26,-404.68C284.53,-401.4 294.55,-398.02 303.91,-395.19 378.61,-372.6 445.82,-402.89 465.91,-327.49"/>
<path fill="none" stroke="black" d="M465.91,-325.49C477.46,-282.15 430.34,-256.61 384.61,-242.3"/>
<polygon fill="#b83d3d" stroke="black" points="385.71,-238.97 375.12,-239.5 383.73,-245.69 385.71,-238.97"/>
</g>
<!-- CrocoDash_raw_data_access -->
<g id="node4" class="node">
<title>CrocoDash_raw_data_access</title><style>.edge>path:hover{stroke-width:8}</style>
<ellipse fill="#c24747" stroke="black" cx="209.91" cy="-132.69" rx="70.18" ry="23.69"/>
<text text-anchor="middle" x="209.91" y="-135.94" font-family="Helvetica,sans-Serif" font-size="10.00" fill="#ffffff">CrocoDash.</text>
<text text-anchor="middle" x="209.91" y="-123.19" font-family="Helvetica,sans-Serif" font-size="10.00" fill="#ffffff">raw_data_access</text>
</g>
<!-- CrocoDash_raw_data_access&#45;&gt;case_py -->
<g id="edge4" class="edge">
<title>CrocoDash_raw_data_access&#45;&gt;case_py</title><style>.edge>path:hover{stroke-width:8}</style>
<path fill="none" stroke="black" d="M261.1,-116.22C271.86,-113.44 283.19,-110.84 293.91,-109 345.97,-100.07 752.66,-123.57 767.91,-73"/>
</g>
<!-- CrocoDash_raw_data_access_config -->
<g id="node5" class="node">
<title>CrocoDash_raw_data_access_config</title><style>.edge>path:hover{stroke-width:8}</style>
<ellipse fill="#c24747" stroke="black" cx="202.91" cy="-326.49" rx="72.3" ry="32.7"/>
<text text-anchor="middle" x="202.91" y="-336.11" font-family="Helvetica,sans-Serif" font-size="10.00" fill="#ffffff">CrocoDash.</text>
<text text-anchor="middle" x="202.91" y="-323.36" font-family="Helvetica,sans-Serif" font-size="10.00" fill="#ffffff">raw_data_access.</text>
<text text-anchor="middle" x="202.91" y="-310.61" font-family="Helvetica,sans-Serif" font-size="10.00" fill="#ffffff">config</text>
</g>
<!-- CrocoDash_raw_data_access_config&#45;&gt;case_py -->
<g id="edge5" class="edge">
<title>CrocoDash_raw_data_access_config&#45;&gt;case_py</title><style>.edge>path:hover{stroke-width:8}</style>
<path fill="none" stroke="black" d="M193.68,-293.65C189.56,-272.4 188.43,-244.99 202.91,-226.08"/>
</g>
<!-- CrocoDash_raw_data_access_config&#45;&gt;CrocoDash_raw_data_access_driver -->
<g id="edge6" class="edge">
<title>CrocoDash_raw_data_access_config&#45;&gt;CrocoDash_raw_data_access_driver</title><style>.edge>path:hover{stroke-width:8}</style>
<path fill="none" stroke="black" d="M233.57,-296.47C244.67,-285.95 257.36,-273.94 269.08,-262.84"/>
<polygon fill="#c24747" stroke="black" points="271.45,-265.42 276.3,-256 266.64,-260.34 271.45,-265.42"/>
</g>
<!-- CrocoDash_raw_data_access_driver&#45;&gt;case_py -->
<g id="edge7" class="edge">
<title>CrocoDash_raw_data_access_driver&#45;&gt;case_py</title><style>.edge>path:hover{stroke-width:8}</style>
<path fill="none" stroke="black" d="M299.3,-192.39C296.15,-173.63 295.87,-150.35 307.91,-133.69"/>
</g>
<!-- CrocoDash_raw_data_access_utils -->
<g id="node7" class="node">
<title>CrocoDash_raw_data_access_utils</title><style>.edge>path:hover{stroke-width:8}</style>
<ellipse fill="#b65353" stroke="black" cx="365.91" cy="-326.49" rx="72.3" ry="32.7"/>
<text text-anchor="middle" x="365.91" y="-336.11" font-family="Helvetica,sans-Serif" font-size="10.00" fill="#ffffff">CrocoDash.</text>
<text text-anchor="middle" x="365.91" y="-323.36" font-family="Helvetica,sans-Serif" font-size="10.00" fill="#ffffff">raw_data_access.</text>
<text text-anchor="middle" x="365.91" y="-310.61" font-family="Helvetica,sans-Serif" font-size="10.00" fill="#ffffff">utils</text>
</g>
<!-- CrocoDash_raw_data_access_utils&#45;&gt;CrocoDash_raw_data_access_driver -->
<g id="edge8" class="edge">
<title>CrocoDash_raw_data_access_utils&#45;&gt;CrocoDash_raw_data_access_driver</title><style>.edge>path:hover{stroke-width:8}</style>
<path fill="none" stroke="black" d="M347.88,-294.58C342.75,-285.79 337.09,-276.08 331.67,-266.8"/>
<polygon fill="#b65353" stroke="black" points="334.76,-265.15 326.7,-258.28 328.71,-268.68 334.76,-265.15"/>
</g>
<!-- CrocoDash_topo -->
<g id="node8" class="node">
<title>CrocoDash_topo</title><style>.edge>path:hover{stroke-width:8}</style>
<ellipse fill="#a44646" stroke="black" cx="369.91" cy="-418.88" rx="57.06" ry="18"/>
<text text-anchor="middle" x="369.91" y="-415.75" font-family="Helvetica,sans-Serif" font-size="10.00" fill="#ffffff">CrocoDash.topo</text>
</g>
<!-- CrocoDash_topo&#45;&gt;case_py -->
<g id="edge9" class="edge">
<title>CrocoDash_topo&#45;&gt;case_py</title><style>.edge>path:hover{stroke-width:8}</style>
<path fill="none" stroke="black" d="M404.5,-404.1C427.44,-393.9 457.36,-378.44 479.91,-359.19 493.36,-347.72 501.54,-345 503.91,-327.49"/>
<path fill="none" stroke="black" d="M503.91,-325.49C510.25,-278.62 493.14,-264.76 465.91,-226.08"/>
</g>
<!-- CrocoDash_vgrid -->
<g id="node9" class="node">
<title>CrocoDash_vgrid</title><style>.edge>path:hover{stroke-width:8}</style>
<ellipse fill="#ac4949" stroke="black" cx="115.91" cy="-418.88" rx="50.56" ry="23.69"/>
<text text-anchor="middle" x="115.91" y="-422.13" font-family="Helvetica,sans-Serif" font-size="10.00" fill="#ffffff">CrocoDash.</text>
<text text-anchor="middle" x="115.91" y="-409.38" font-family="Helvetica,sans-Serif" font-size="10.00" fill="#ffffff">vgrid</text>
</g>
<!-- CrocoDash_vgrid&#45;&gt;case_py -->
<g id="edge10" class="edge">
<title>CrocoDash_vgrid&#45;&gt;case_py</title><style>.edge>path:hover{stroke-width:8}</style>
<path fill="none" stroke="black" d="M111.77,-395.01C108.21,-369.02 105.87,-326.04 121.91,-293.78 142.8,-251.77 174.38,-263.33 202.91,-226.08"/>
<path fill="none" stroke="black" d="M202.91,-224.08C213.3,-209.78 213.68,-204.09 226.91,-192.38 250.77,-171.26 264.54,-176.9 288.91,-156.38 298.97,-147.9 300.21,-144.35 307.91,-133.69"/>
<path fill="none" stroke="black" d="M307.91,-131.69C315.62,-121.03 315.23,-115.04 326.91,-109 370.58,-86.4 753.72,-120.07 767.91,-73"/>
</g>
<!-- mom6_bathy -->
<g id="node10" class="node">
<title>mom6_bathy</title><style>.edge>path:hover{stroke-width:8}</style>
<ellipse fill="#10f94a" stroke="black" cx="221.91" cy="-585.63" rx="49.26" ry="18"/>
<text text-anchor="middle" x="221.91" y="-582.51" font-family="Helvetica,sans-Serif" font-size="10.00" fill="#000000">mom6_bathy</text>
</g>
<!-- mom6_bathy&#45;&gt;case_py -->
<g id="edge11" class="edge">
<title>mom6_bathy&#45;&gt;case_py</title><style>.edge>path:hover{stroke-width:8}</style>
<path fill="none" stroke="black" d="M192.66,-570.99C168.75,-557.63 138.34,-534.71 134.91,-503.26"/>
<path fill="none" stroke="black" d="M134.91,-501.26C130.17,-457.77 75.56,-481.64 55.91,-442.57 43.08,-417.04 77.09,-153.01 130.91,-109 185.79,-64.12 747.04,-140.75 767.91,-73"/>
</g>
<!-- mom6_bathy&#45;&gt;CrocoDash_grid -->
<g id="edge12" class="edge">
<title>mom6_bathy&#45;&gt;CrocoDash_grid</title><style>.edge>path:hover{stroke-width:8}</style>
<path fill="none" stroke="black" d="M134.91,-501.26C131.52,-470.12 161.28,-449.11 189.97,-436.25"/>
<polygon fill="#10f94a" stroke="black" points="191.16,-439.55 199.04,-432.47 188.46,-433.09 191.16,-439.55"/>
</g>
<!-- mom6_bathy&#45;&gt;CrocoDash_topo -->
<g id="edge13" class="edge">
<title>mom6_bathy&#45;&gt;CrocoDash_topo</title><style>.edge>path:hover{stroke-width:8}</style>
<path fill="none" stroke="black" d="M134.91,-501.26C131.57,-470.6 172.61,-483.13 303.91,-442.57 309.85,-440.73 316.05,-438.73 322.17,-436.69"/>
<polygon fill="#10f94a" stroke="black" points="323.26,-440.01 331.61,-433.5 321.02,-433.38 323.26,-440.01"/>
</g>
<!-- mom6_bathy&#45;&gt;CrocoDash_vgrid -->
<g id="edge14" class="edge">
<title>mom6_bathy&#45;&gt;CrocoDash_vgrid</title><style>.edge>path:hover{stroke-width:8}</style>
<path fill="none" stroke="black" d="M134.91,-501.26C133.19,-485.44 129.45,-468.24 125.75,-453.74"/>
<polygon fill="#10f94a" stroke="black" points="129.17,-452.99 123.21,-444.24 122.41,-454.8 129.17,-452.99"/>
</g>
<!-- mom6_bathy_aux -->
<g id="node11" class="node">
<title>mom6_bathy_aux</title><style>.edge>path:hover{stroke-width:8}</style>
<ellipse fill="#33cc59" stroke="black" cx="462.91" cy="-585.63" rx="61.19" ry="18"/>
<text text-anchor="middle" x="462.91" y="-582.51" font-family="Helvetica,sans-Serif" font-size="10.00" fill="#000000">mom6_bathy.aux</text>
</g>
<!-- mom6_bathy_chl -->
<g id="node12" class="node">
<title>mom6_bathy_chl</title><style>.edge>path:hover{stroke-width:8}</style>
<ellipse fill="#3d8f51" stroke="black" cx="503.91" cy="-418.88" rx="58.89" ry="18"/>
<text text-anchor="middle" x="503.91" y="-415.75" font-family="Helvetica,sans-Serif" font-size="10.00" fill="#ffffff">mom6_bathy.chl</text>
</g>
<!-- mom6_bathy_aux&#45;&gt;mom6_bathy_chl -->
<g id="edge15" class="edge">
<title>mom6_bathy_aux&#45;&gt;mom6_bathy_chl</title><style>.edge>path:hover{stroke-width:8}</style>
<path fill="none" stroke="black" d="M467.22,-567.31C474.27,-539.01 488.31,-482.57 496.83,-448.32"/>
<polygon fill="#33cc59" stroke="black" points="500.21,-449.23 499.23,-438.68 493.42,-447.54 500.21,-449.23"/>
</g>
<!-- mom6_bathy_grid -->
<g id="node13" class="node">
<title>mom6_bathy_grid</title><style>.edge>path:hover{stroke-width:8}</style>
<ellipse fill="#3ab058" stroke="black" cx="239.91" cy="-502.26" rx="57.98" ry="23.69"/>
<text text-anchor="middle" x="239.91" y="-505.51" font-family="Helvetica,sans-Serif" font-size="10.00" fill="#000000">mom6_bathy.</text>
<text text-anchor="middle" x="239.91" y="-492.76" font-family="Helvetica,sans-Serif" font-size="10.00" fill="#000000">grid</text>
</g>
<!-- mom6_bathy_aux&#45;&gt;mom6_bathy_grid -->
<g id="edge16" class="edge">
<title>mom6_bathy_aux&#45;&gt;mom6_bathy_grid</title><style>.edge>path:hover{stroke-width:8}</style>
<path fill="none" stroke="black" d="M425.59,-571.01C389.28,-557.76 333.77,-537.5 292.89,-522.59"/>
<polygon fill="#33cc59" stroke="black" points="294.33,-519.39 283.73,-519.25 291.93,-525.96 294.33,-519.39"/>
</g>
<!-- mom6_bathy_topo -->
<g id="node14" class="node">
<title>mom6_bathy_topo</title><style>.edge>path:hover{stroke-width:8}</style>
<ellipse fill="#38a854" stroke="black" cx="373.91" cy="-502.26" rx="57.98" ry="23.69"/>
<text text-anchor="middle" x="373.91" y="-505.51" font-family="Helvetica,sans-Serif" font-size="10.00" fill="#ffffff">mom6_bathy.</text>
<text text-anchor="middle" x="373.91" y="-492.76" font-family="Helvetica,sans-Serif" font-size="10.00" fill="#ffffff">topo</text>
</g>
<!-- mom6_bathy_aux&#45;&gt;mom6_bathy_topo -->
<g id="edge17" class="edge">
<title>mom6_bathy_aux&#45;&gt;mom6_bathy_topo</title><style>.edge>path:hover{stroke-width:8}</style>
<path fill="none" stroke="black" d="M444.9,-568.16C433.57,-557.8 418.63,-544.14 405.38,-532.03"/>
<polygon fill="#33cc59" stroke="black" points="407.84,-529.53 398.09,-525.37 403.11,-534.7 407.84,-529.53"/>
</g>
<!-- mom6_bathy_chl&#45;&gt;case_py -->
<g id="edge18" class="edge">
<title>mom6_bathy_chl&#45;&gt;case_py</title><style>.edge>path:hover{stroke-width:8}</style>
<path fill="none" stroke="black" d="M502.53,-400.46C501.41,-382.19 500.5,-352.68 503.91,-327.49"/>
</g>
<!-- mom6_bathy_grid&#45;&gt;CrocoDash_grid -->
<g id="edge19" class="edge">
<title>mom6_bathy_grid&#45;&gt;CrocoDash_grid</title><style>.edge>path:hover{stroke-width:8}</style>
<path fill="none" stroke="black" d="M239.91,-478.15C239.91,-469.03 239.91,-458.46 239.91,-448.84"/>
<polygon fill="#3ab058" stroke="black" points="243.41,-448.86 239.91,-438.86 236.41,-448.86 243.41,-448.86"/>
</g>
<!-- mom6_bathy_grid&#45;&gt;mom6_bathy_chl -->
<g id="edge20" class="edge">
<title>mom6_bathy_grid&#45;&gt;mom6_bathy_chl</title><style>.edge>path:hover{stroke-width:8}</style>
<path fill="none" stroke="black" d="M283.41,-486.14C291.21,-483.54 299.29,-480.92 306.91,-478.57 363.79,-461.01 379,-459.99 435.91,-442.57 442.16,-440.65 448.71,-438.57 455.17,-436.47"/>
<polygon fill="#3ab058" stroke="black" points="456.06,-439.86 464.46,-433.41 453.87,-433.21 456.06,-439.86"/>
</g>
<!-- mom6_bathy_topo&#45;&gt;CrocoDash_topo -->
<g id="edge21" class="edge">
<title>mom6_bathy_topo&#45;&gt;CrocoDash_topo</title><style>.edge>path:hover{stroke-width:8}</style>
<path fill="none" stroke="black" d="M372.78,-478.15C372.33,-469.03 371.81,-458.46 371.34,-448.84"/>
<polygon fill="#38a854" stroke="black" points="374.83,-448.67 370.85,-438.85 367.84,-449.01 374.83,-448.67"/>
</g>
<!-- mom6_bathy_topo&#45;&gt;mom6_bathy_chl -->
<g id="edge22" class="edge">
<title>mom6_bathy_topo&#45;&gt;mom6_bathy_chl</title><style>.edge>path:hover{stroke-width:8}</style>
<path fill="none" stroke="black" d="M404.72,-481.97C424.12,-469.83 449.2,-454.13 469.28,-441.56"/>
<polygon fill="#38a854" stroke="black" points="471.08,-444.56 477.7,-436.29 467.37,-438.63 471.08,-444.56"/>
</g>
<!-- mom6_bathy_vgrid -->
<g id="node15" class="node">
<title>mom6_bathy_vgrid</title><style>.edge>path:hover{stroke-width:8}</style>
<ellipse fill="#4cb366" stroke="black" cx="96.91" cy="-585.63" rx="57.98" ry="23.69"/>
<text text-anchor="middle" x="96.91" y="-588.88" font-family="Helvetica,sans-Serif" font-size="10.00" fill="#000000">mom6_bathy.</text>
<text text-anchor="middle" x="96.91" y="-576.13" font-family="Helvetica,sans-Serif" font-size="10.00" fill="#000000">vgrid</text>
</g>
<!-- mom6_bathy_vgrid&#45;&gt;CrocoDash_vgrid -->
<g id="edge23" class="edge">
<title>mom6_bathy_vgrid&#45;&gt;CrocoDash_vgrid</title><style>.edge>path:hover{stroke-width:8}</style>
<path fill="none" stroke="black" d="M99.55,-561.72C102.78,-533.77 108.26,-486.25 111.98,-453.99"/>
<polygon fill="#4cb366" stroke="black" points="115.42,-454.7 113.09,-444.36 108.47,-453.89 115.42,-454.7"/>
</g>
<!-- numpy -->
<g id="node16" class="node">
<title>numpy</title><style>.edge>path:hover{stroke-width:8}</style>
<ellipse fill="#0cf3f3" stroke="black" cx="547.91" cy="-735.32" rx="30.44" ry="18"/>
<text text-anchor="middle" x="547.91" y="-732.19" font-family="Helvetica,sans-Serif" font-size="10.00" fill="#000000">numpy</text>
</g>
<!-- numpy&#45;&gt;mom6_bathy_aux -->
<g id="edge24" class="edge">
<title>numpy&#45;&gt;mom6_bathy_aux</title><style>.edge>path:hover{stroke-width:8}</style>
<path fill="none" stroke="black" d="M373.91,-662.32C349.48,-644.04 384.5,-621.11 417.53,-605.3"/>
<polygon fill="#0cf3f3" stroke="black" points="418.66,-608.64 426.27,-601.27 415.73,-602.28 418.66,-608.64"/>
</g>
<!-- numpy&#45;&gt;mom6_bathy_chl -->
<g id="edge25" class="edge">
<title>numpy&#45;&gt;mom6_bathy_chl</title><style>.edge>path:hover{stroke-width:8}</style>
<path fill="none" stroke="black" d="M571.82,-723.64C623.85,-698.79 739.85,-633.69 702.91,-561.94 671.12,-500.19 598.67,-459.34 550.53,-437.9"/>
<polygon fill="#0cf3f3" stroke="black" points="552.01,-434.73 541.44,-433.97 549.23,-441.15 552.01,-434.73"/>
</g>
<!-- numpy&#45;&gt;mom6_bathy_grid -->
<g id="edge26" class="edge">
<title>numpy&#45;&gt;mom6_bathy_grid</title><style>.edge>path:hover{stroke-width:8}</style>
<path fill="none" stroke="black" d="M373.91,-662.32C346.97,-642.17 385.08,-618.36 373.91,-586.63"/>
<path fill="none" stroke="black" d="M373.91,-584.63C367.31,-565.88 324.61,-542.03 289.16,-525.01"/>
<polygon fill="#0cf3f3" stroke="black" points="290.82,-521.92 280.28,-520.82 287.84,-528.25 290.82,-521.92"/>
</g>
<!-- numpy&#45;&gt;mom6_bathy_topo -->
<g id="edge27" class="edge">
<title>numpy&#45;&gt;mom6_bathy_topo</title><style>.edge>path:hover{stroke-width:8}</style>
<path fill="none" stroke="black" d="M373.91,-584.63C368.66,-569.7 368,-552.25 368.93,-537.35"/>
<polygon fill="#0cf3f3" stroke="black" points="372.4,-537.82 369.81,-527.54 365.43,-537.19 372.4,-537.82"/>
</g>
<!-- numpy&#45;&gt;mom6_bathy_vgrid -->
<g id="edge28" class="edge">
<title>numpy&#45;&gt;mom6_bathy_vgrid</title><style>.edge>path:hover{stroke-width:8}</style>
<path fill="none" stroke="black" d="M519.76,-727.82C483.36,-718.4 419.28,-698.25 373.91,-664.32"/>
<path fill="none" stroke="black" d="M373.91,-662.32C296.83,-604.67 256.24,-636.56 163.91,-609.32 159.66,-608.07 155.28,-606.71 150.88,-605.32"/>
<polygon fill="#0cf3f3" stroke="black" points="152.03,-602.01 141.44,-602.25 149.87,-608.67 152.03,-602.01"/>
</g>
<!-- ProConPy_config_var -->
<g id="node17" class="node">
<title>ProConPy_config_var</title><style>.edge>path:hover{stroke-width:8}</style>
<ellipse fill="#b69d53" stroke="black" cx="382.91" cy="-132.69" rx="46.85" ry="23.69"/>
<text text-anchor="middle" x="382.91" y="-135.94" font-family="Helvetica,sans-Serif" font-size="10.00" fill="#000000">ProConPy.</text>
<text text-anchor="middle" x="382.91" y="-123.19" font-family="Helvetica,sans-Serif" font-size="10.00" fill="#000000">config_var</text>
</g>
<!-- ProConPy_config_var&#45;&gt;case_py -->
<g id="edge29" class="edge">
<title>ProConPy_config_var&#45;&gt;case_py</title><style>.edge>path:hover{stroke-width:8}</style>
<path fill="none" stroke="black" d="M417.07,-116.12C424.17,-113.38 431.69,-110.82 438.91,-109 474.57,-100.01 757.3,-108.21 767.91,-73"/>
</g>
<!-- ProConPy_csp_solver -->
<g id="node18" class="node">
<title>ProConPy_csp_solver</title><style>.edge>path:hover{stroke-width:8}</style>
<ellipse fill="#b69d53" stroke="black" cx="495.91" cy="-132.69" rx="47.91" ry="23.69"/>
<text text-anchor="middle" x="495.91" y="-135.94" font-family="Helvetica,sans-Serif" font-size="10.00" fill="#000000">ProConPy.</text>
<text text-anchor="middle" x="495.91" y="-123.19" font-family="Helvetica,sans-Serif" font-size="10.00" fill="#000000">csp_solver</text>
</g>
<!-- ProConPy_csp_solver&#45;&gt;case_py -->
<g id="edge30" class="edge">
<title>ProConPy_csp_solver&#45;&gt;case_py</title><style>.edge>path:hover{stroke-width:8}</style>
<path fill="none" stroke="black" d="M531.09,-116.34C538.22,-113.61 545.73,-111.01 552.91,-109 599.57,-95.97 753.93,-119.38 767.91,-73"/>
</g>
<!-- ProConPy_dev_utils -->
<g id="node19" class="node">
<title>ProConPy_dev_utils</title><style>.edge>path:hover{stroke-width:8}</style>
<ellipse fill="#b69d53" stroke="black" cx="606.91" cy="-132.69" rx="45.25" ry="23.69"/>
<text text-anchor="middle" x="606.91" y="-135.94" font-family="Helvetica,sans-Serif" font-size="10.00" fill="#000000">ProConPy.</text>
<text text-anchor="middle" x="606.91" y="-123.19" font-family="Helvetica,sans-Serif" font-size="10.00" fill="#000000">dev_utils</text>
</g>
<!-- ProConPy_dev_utils&#45;&gt;case_py -->
<g id="edge31" class="edge">
<title>ProConPy_dev_utils&#45;&gt;case_py</title><style>.edge>path:hover{stroke-width:8}</style>
<path fill="none" stroke="black" d="M641.33,-116.79C647.8,-114.11 654.54,-111.41 660.91,-109 707.85,-91.27 753.43,-121.04 767.91,-73"/>
</g>
<!-- ProConPy_stage -->
<g id="node20" class="node">
<title>ProConPy_stage</title><style>.edge>path:hover{stroke-width:8}</style>
<ellipse fill="#b69d53" stroke="black" cx="725.91" cy="-132.69" rx="55.68" ry="18"/>
<text text-anchor="middle" x="725.91" y="-129.56" font-family="Helvetica,sans-Serif" font-size="10.00" fill="#000000">ProConPy.stage</text>
</g>
<!-- ProConPy_stage&#45;&gt;case_py -->
<g id="edge32" class="edge">
<title>ProConPy_stage&#45;&gt;case_py</title><style>.edge>path:hover{stroke-width:8}</style>
<path fill="none" stroke="black" d="M742.13,-115.36C751.78,-104.4 763.07,-89.07 767.91,-73"/>
</g>
<!-- regional_mom6 -->
<g id="node21" class="node">
<title>regional_mom6</title><style>.edge>path:hover{stroke-width:8}</style>
<ellipse fill="#4766c2" stroke="black" cx="636.91" cy="-585.63" rx="56.6" ry="18"/>
<text text-anchor="middle" x="636.91" y="-582.51" font-family="Helvetica,sans-Serif" font-size="10.00" fill="#ffffff">regional_mom6</text>
</g>
<!-- regional_mom6&#45;&gt;case_py -->
<g id="edge33" class="edge">
<title>regional_mom6&#45;&gt;case_py</title><style>.edge>path:hover{stroke-width:8}</style>
<path fill="none" stroke="black" d="M645.1,-567.77C658.57,-538.44 683.91,-475.8 683.91,-419.88 683.91,-419.88 683.91,-419.88 683.91,-325.49 683.91,-265.73 666.17,-239.51 702.91,-192.38 728.89,-159.05 767.36,-191.46 790.91,-156.38 802.65,-138.89 796.82,-129.21 790.91,-109 785.59,-90.78 762.43,-91.18 767.91,-73"/>
</g>
<!-- regional_mom6&#45;&gt;CrocoDash_topo -->
<g id="edge34" class="edge">
<title>regional_mom6&#45;&gt;CrocoDash_topo</title><style>.edge>path:hover{stroke-width:8}</style>
<path fill="none" stroke="black" d="M611.79,-569.13C563.89,-539.57 459.38,-475.09 404.75,-441.38"/>
<polygon fill="#4766c2" stroke="black" points="406.8,-438.52 396.45,-436.25 403.12,-444.48 406.8,-438.52"/>
</g>
<!-- visualCaseGen_cime_interface -->
<g id="node22" class="node">
<title>visualCaseGen_cime_interface</title><style>.edge>path:hover{stroke-width:8}</style>
<ellipse fill="#8553b6" stroke="black" cx="902.91" cy="-132.69" rx="64.88" ry="23.69"/>
<text text-anchor="middle" x="902.91" y="-135.94" font-family="Helvetica,sans-Serif" font-size="10.00" fill="#ffffff">visualCaseGen.</text>
<text text-anchor="middle" x="902.91" y="-123.19" font-family="Helvetica,sans-Serif" font-size="10.00" fill="#ffffff">cime_interface</text>
</g>
<!-- visualCaseGen_cime_interface&#45;&gt;case_py -->
<g id="edge35" class="edge">
<title>visualCaseGen_cime_interface&#45;&gt;case_py</title><style>.edge>path:hover{stroke-width:8}</style>
<path fill="none" stroke="black" d="M855.5,-116.05C815.47,-102.12 765.04,-82.51 767.91,-73"/>
</g>
<!-- visualCaseGen_custom_widget_types_case_creator -->
<g id="node23" class="node">
<title>visualCaseGen_custom_widget_types_case_creator</title><style>.edge>path:hover{stroke-width:8}</style>
<ellipse fill="#8553b6" stroke="black" cx="800.91" cy="-225.08" rx="88.74" ry="32.7"/>
<text text-anchor="middle" x="800.91" y="-234.7" font-family="Helvetica,sans-Serif" font-size="10.00" fill="#ffffff">visualCaseGen.</text>
<text text-anchor="middle" x="800.91" y="-221.95" font-family="Helvetica,sans-Serif" font-size="10.00" fill="#ffffff">custom_widget_types.</text>
<text text-anchor="middle" x="800.91" y="-209.2" font-family="Helvetica,sans-Serif" font-size="10.00" fill="#ffffff">case_creator</text>
</g>
<!-- visualCaseGen_custom_widget_types_case_creator&#45;&gt;case_py -->
<g id="edge36" class="edge">
<title>visualCaseGen_custom_widget_types_case_creator&#45;&gt;case_py</title><style>.edge>path:hover{stroke-width:8}</style>
<path fill="none" stroke="black" d="M866.45,-202.71C908.46,-188.29 958.47,-169.56 976.91,-156.38 987.61,-148.73 999.17,-146.43 995.91,-133.69"/>
<path fill="none" stroke="black" d="M995.91,-131.69C992.66,-118.95 988.31,-115.56 976.91,-109 936.06,-85.5 754.31,-118.12 767.91,-73"/>
</g>
<!-- visualCaseGen_custom_widget_types_case_tools -->
<g id="node24" class="node">
<title>visualCaseGen_custom_widget_types_case_tools</title><style>.edge>path:hover{stroke-width:8}</style>
<ellipse fill="#8553b6" stroke="black" cx="995.91" cy="-225.08" rx="88.74" ry="32.7"/>
<text text-anchor="middle" x="995.91" y="-234.7" font-family="Helvetica,sans-Serif" font-size="10.00" fill="#ffffff">visualCaseGen.</text>
<text text-anchor="middle" x="995.91" y="-221.95" font-family="Helvetica,sans-Serif" font-size="10.00" fill="#ffffff">custom_widget_types.</text>
<text text-anchor="middle" x="995.91" y="-209.2" font-family="Helvetica,sans-Serif" font-size="10.00" fill="#ffffff">case_tools</text>
</g>
<!-- visualCaseGen_custom_widget_types_case_tools&#45;&gt;case_py -->
<g id="edge37" class="edge">
<title>visualCaseGen_custom_widget_types_case_tools&#45;&gt;case_py</title><style>.edge>path:hover{stroke-width:8}</style>
<path fill="none" stroke="black" d="M999.73,-192.23C1000.88,-174.69 1000.77,-152.69 995.91,-133.69"/>
</g>
<!-- visualCaseGen_initialize_configvars -->
<g id="node25" class="node">
<title>visualCaseGen_initialize_configvars</title><style>.edge>path:hover{stroke-width:8}</style>
<ellipse fill="#8553b6" stroke="black" cx="1103.91" cy="-132.69" rx="80.26" ry="23.69"/>
<text text-anchor="middle" x="1103.91" y="-135.94" font-family="Helvetica,sans-Serif" font-size="10.00" fill="#ffffff">visualCaseGen.</text>
<text text-anchor="middle" x="1103.91" y="-123.19" font-family="Helvetica,sans-Serif" font-size="10.00" fill="#ffffff">initialize_configvars</text>
</g>
<!-- visualCaseGen_initialize_configvars&#45;&gt;case_py -->
<g id="edge38" class="edge">
<title>visualCaseGen_initialize_configvars&#45;&gt;case_py</title><style>.edge>path:hover{stroke-width:8}</style>
<path fill="none" stroke="black" d="M1044.16,-116.42C1032.83,-113.77 1021.04,-111.17 1009.91,-109 956.54,-98.61 752.21,-125.05 767.91,-73"/>
</g>
<!-- visualCaseGen_initialize_stages -->
<g id="node26" class="node">
<title>visualCaseGen_initialize_stages</title><style>.edge>path:hover{stroke-width:8}</style>
<ellipse fill="#8553b6" stroke="black" cx="1269.91" cy="-132.69" rx="67.53" ry="23.69"/>
<text text-anchor="middle" x="1269.91" y="-135.94" font-family="Helvetica,sans-Serif" font-size="10.00" fill="#ffffff">visualCaseGen.</text>
<text text-anchor="middle" x="1269.91" y="-123.19" font-family="Helvetica,sans-Serif" font-size="10.00" fill="#ffffff">initialize_stages</text>
</g>
<!-- visualCaseGen_initialize_stages&#45;&gt;case_py -->
<g id="edge39" class="edge">
<title>visualCaseGen_initialize_stages&#45;&gt;case_py</title><style>.edge>path:hover{stroke-width:8}</style>
<path fill="none" stroke="black" d="M1221.39,-115.78C1212.03,-113.17 1202.23,-110.75 1192.91,-109 1146.33,-100.26 754.23,-118.37 767.91,-73"/>
</g>
<!-- visualCaseGen_initialize_widgets -->
<g id="node27" class="node">
<title>visualCaseGen_initialize_widgets</title><style>.edge>path:hover{stroke-width:8}</style>
<ellipse fill="#8553b6" stroke="black" cx="1426.91" cy="-132.69" rx="71.77" ry="23.69"/>
<text text-anchor="middle" x="1426.91" y="-135.94" font-family="Helvetica,sans-Serif" font-size="10.00" fill="#ffffff">visualCaseGen.</text>
<text text-anchor="middle" x="1426.91" y="-123.19" font-family="Helvetica,sans-Serif" font-size="10.00" fill="#ffffff">initialize_widgets</text>
</g>
<!-- visualCaseGen_initialize_widgets&#45;&gt;case_py -->
<g id="edge40" class="edge">
<title>visualCaseGen_initialize_widgets&#45;&gt;case_py</title><style>.edge>path:hover{stroke-width:8}</style>
<path fill="none" stroke="black" d="M1376.07,-115.51C1366.47,-112.96 1356.45,-110.63 1346.91,-109 1315.14,-103.57 758.61,-103.86 767.91,-73"/>
</g>
<!-- visualCaseGen_specs_options -->
<g id="node28" class="node">
<title>visualCaseGen_specs_options</title><style>.edge>path:hover{stroke-width:8}</style>
<ellipse fill="#8553b6" stroke="black" cx="1357.91" cy="-225.08" rx="64.88" ry="32.7"/>
<text text-anchor="middle" x="1357.91" y="-234.7" font-family="Helvetica,sans-Serif" font-size="10.00" fill="#ffffff">visualCaseGen.</text>
<text text-anchor="middle" x="1357.91" y="-221.95" font-family="Helvetica,sans-Serif" font-size="10.00" fill="#ffffff">specs.</text>
<text text-anchor="middle" x="1357.91" y="-209.2" font-family="Helvetica,sans-Serif" font-size="10.00" fill="#ffffff">options</text>
</g>
<!-- visualCaseGen_specs_options&#45;&gt;case_py -->
<g id="edge41" class="edge">
<title>visualCaseGen_specs_options&#45;&gt;case_py</title><style>.edge>path:hover{stroke-width:8}</style>
<path fill="none" stroke="black" d="M1406.26,-202.88C1448.39,-184.3 1503.46,-159.75 1507.91,-156.38 1518.39,-148.43 1531.74,-145.92 1526.91,-133.69"/>
<path fill="none" stroke="black" d="M1526.91,-131.69C1522.09,-119.45 1519.69,-114.85 1507.91,-109 1471.05,-90.69 756.03,-112.41 767.91,-73"/>
</g>
<!-- visualCaseGen_specs_relational_constraints -->
<g id="node29" class="node">
<title>visualCaseGen_specs_relational_constraints</title><style>.edge>path:hover{stroke-width:8}</style>
<ellipse fill="#8553b6" stroke="black" cx="1526.91" cy="-225.08" rx="86.09" ry="32.7"/>
<text text-anchor="middle" x="1526.91" y="-234.7" font-family="Helvetica,sans-Serif" font-size="10.00" fill="#ffffff">visualCaseGen.</text>
<text text-anchor="middle" x="1526.91" y="-221.95" font-family="Helvetica,sans-Serif" font-size="10.00" fill="#ffffff">specs.</text>
<text text-anchor="middle" x="1526.91" y="-209.2" font-family="Helvetica,sans-Serif" font-size="10.00" fill="#ffffff">relational_constraints</text>
</g>
<!-- visualCaseGen_specs_relational_constraints&#45;&gt;case_py -->
<g id="edge42" class="edge">
<title>visualCaseGen_specs_relational_constraints&#45;&gt;case_py</title><style>.edge>path:hover{stroke-width:8}</style>
<path fill="none" stroke="black" d="M1532.52,-192.06C1534.28,-174.27 1534.16,-152.08 1526.91,-133.69"/>
</g>
<!-- xesmf -->
<g id="node30" class="node">
<title>xesmf</title><style>.edge>path:hover{stroke-width:8}</style>
<ellipse fill="#cc33a6" stroke="black" cx="551.91" cy="-663.32" rx="28.15" ry="18"/>
<text text-anchor="middle" x="551.91" y="-660.19" font-family="Helvetica,sans-Serif" font-size="10.00" fill="#ffffff">xesmf</text>
</g>
<!-- xesmf&#45;&gt;mom6_bathy_chl -->
<g id="edge43" class="edge">
<title>xesmf&#45;&gt;mom6_bathy_chl</title><style>.edge>path:hover{stroke-width:8}</style>
<path fill="none" stroke="black" d="M551.91,-584.63C531.97,-538.62 517.5,-481.89 509.93,-448.42"/>
<polygon fill="#cc33a6" stroke="black" points="513.35,-447.7 507.78,-438.69 506.52,-449.21 513.35,-447.7"/>
</g>
<!-- xesmf&#45;&gt;mom6_bathy_topo -->
<g id="edge44" class="edge">
<title>xesmf&#45;&gt;mom6_bathy_topo</title><style>.edge>path:hover{stroke-width:8}</style>
<path fill="none" stroke="black" d="M555.7,-645C558.3,-629.12 560.01,-605.32 551.91,-586.63"/>
<path fill="none" stroke="black" d="M551.91,-584.63C533.24,-541.56 482.88,-521.28 440.48,-511.73"/>
<polygon fill="#cc33a6" stroke="black" points="441.31,-508.33 430.81,-509.73 439.89,-515.18 441.31,-508.33"/>
</g>
</g>
</svg>
