<?xml version="1.0" encoding="UTF-8" standalone="no"?>
<!DOCTYPE svg PUBLIC "-//W3C//DTD SVG 1.1//EN"
 "http://www.w3.org/Graphics/SVG/1.1/DTD/svg11.dtd">
<!-- Generated by graphviz version 12.2.1 (20250203.1708)
 -->
<!-- Title: G Pages: 1 -->
<svg width="1680pt" height="863pt"
 viewBox="0.00 0.00 1680.07 862.73" xmlns="http://www.w3.org/2000/svg" xmlns:xlink="http://www.w3.org/1999/xlink">
<g id="graph0" class="graph" transform="scale(1 1) rotate(0) translate(4 858.73)">
<title>G</title><style>.edge>path:hover{stroke-width:8}</style>
<polygon fill="white" stroke="none" points="-4,4 -4,-858.73 1676.07,-858.73 1676.07,4 -4,4"/>
<!-- case_py -->
<g id="node1" class="node">
<title>case_py</title><style>.edge>path:hover{stroke-width:8}</style>
<ellipse fill="#5f6335" stroke="black" cx="826.98" cy="-18" rx="32.73" ry="18"/>
<text text-anchor="middle" x="826.98" y="-14.88" font-family="Helvetica,sans-Serif" font-size="10.00" fill="#ffffff">case.py</text>
</g>
<!-- CrocoDash -->
<g id="node2" class="node">
<title>CrocoDash</title><style>.edge>path:hover{stroke-width:8}</style>
<ellipse fill="#c24747" stroke="black" cx="100.98" cy="-132.69" rx="41.91" ry="18"/>
<text text-anchor="middle" x="100.98" y="-129.56" font-family="Helvetica,sans-Serif" font-size="10.00" fill="#ffffff">CrocoDash</text>
</g>
<!-- CrocoDash&#45;&gt;case_py -->
<g id="edge1" class="edge">
<title>CrocoDash&#45;&gt;case_py</title><style>.edge>path:hover{stroke-width:8}</style>
<path fill="none" stroke="black" d="M128.03,-118.63C137.04,-114.85 147.26,-111.17 156.98,-109 193.37,-100.89 816.22,-108.69 826.98,-73"/>
<path fill="none" stroke="black" d="M826.98,-72C829.34,-64.19 830.06,-55.43 830,-47.31"/>
<polygon fill="#c24747" stroke="black" points="833.51,-47.4 829.53,-37.59 826.52,-47.74 833.51,-47.4"/>
</g>
<!-- CrocoDash_grid -->
<g id="node3" class="node">
<title>CrocoDash_grid</title><style>.edge>path:hover{stroke-width:8}</style>
<ellipse fill="#b83d3d" stroke="black" cx="278.98" cy="-418.88" rx="55.22" ry="18"/>
<text text-anchor="middle" x="278.98" y="-415.75" font-family="Helvetica,sans-Serif" font-size="10.00" fill="#ffffff">CrocoDash.grid</text>
</g>
<!-- CrocoDash_grid&#45;&gt;case_py -->
<g id="edge2" class="edge">
<title>CrocoDash_grid&#45;&gt;case_py</title><style>.edge>path:hover{stroke-width:8}</style>
<path fill="none" stroke="black" d="M466.98,-325.49C481.21,-283.66 488.36,-264.74 466.98,-226.08"/>
<path fill="none" stroke="black" d="M466.98,-224.08C459.03,-209.7 459.68,-203.91 447.98,-192.38 425.3,-170 410.36,-176.9 385.98,-156.38 375.92,-147.9 357.26,-142.54 366.98,-133.69"/>
</g>
<!-- CrocoDash_raw_data_access_driver -->
<g id="node6" class="node">
<title>CrocoDash_raw_data_access_driver</title><style>.edge>path:hover{stroke-width:8}</style>
<ellipse fill="#964040" stroke="black" cx="366.98" cy="-225.08" rx="72.3" ry="32.7"/>
<text text-anchor="middle" x="366.98" y="-234.7" font-family="Helvetica,sans-Serif" font-size="10.00" fill="#ffffff">CrocoDash.</text>
<text text-anchor="middle" x="366.98" y="-221.95" font-family="Helvetica,sans-Serif" font-size="10.00" fill="#ffffff">raw_data_access.</text>
<text text-anchor="middle" x="366.98" y="-209.2" font-family="Helvetica,sans-Serif" font-size="10.00" fill="#ffffff">driver</text>
</g>
<!-- CrocoDash_grid&#45;&gt;CrocoDash_raw_data_access_driver -->
<g id="edge3" class="edge">
<title>CrocoDash_grid&#45;&gt;CrocoDash_raw_data_access_driver</title><style>.edge>path:hover{stroke-width:8}</style>
<path fill="none" stroke="black" d="M317.04,-405.39C365.23,-389.48 442.7,-363.49 447.98,-359.19 460.73,-348.83 461.69,-343.04 466.98,-327.49"/>
<path fill="none" stroke="black" d="M466.98,-325.49C476.82,-296.57 453.31,-272.22 426.62,-254.86"/>
<polygon fill="#b83d3d" stroke="black" points="428.74,-252.06 418.39,-249.81 425.08,-258.02 428.74,-252.06"/>
</g>
<!-- CrocoDash_raw_data_access -->
<g id="node4" class="node">
<title>CrocoDash_raw_data_access</title><style>.edge>path:hover{stroke-width:8}</style>
<ellipse fill="#c24747" stroke="black" cx="268.98" cy="-132.69" rx="70.18" ry="23.69"/>
<text text-anchor="middle" x="268.98" y="-135.94" font-family="Helvetica,sans-Serif" font-size="10.00" fill="#ffffff">CrocoDash.</text>
<text text-anchor="middle" x="268.98" y="-123.19" font-family="Helvetica,sans-Serif" font-size="10.00" fill="#ffffff">raw_data_access</text>
</g>
<!-- CrocoDash_raw_data_access&#45;&gt;case_py -->
<g id="edge4" class="edge">
<title>CrocoDash_raw_data_access&#45;&gt;case_py</title><style>.edge>path:hover{stroke-width:8}</style>
<path fill="none" stroke="black" d="M320.17,-116.22C330.93,-113.44 342.26,-110.84 352.98,-109 405.04,-100.07 811.73,-123.57 826.98,-73"/>
</g>
<!-- CrocoDash_raw_data_access_config -->
<g id="node5" class="node">
<title>CrocoDash_raw_data_access_config</title><style>.edge>path:hover{stroke-width:8}</style>
<ellipse fill="#c24747" stroke="black" cx="203.98" cy="-326.49" rx="72.3" ry="32.7"/>
<text text-anchor="middle" x="203.98" y="-336.11" font-family="Helvetica,sans-Serif" font-size="10.00" fill="#ffffff">CrocoDash.</text>
<text text-anchor="middle" x="203.98" y="-323.36" font-family="Helvetica,sans-Serif" font-size="10.00" fill="#ffffff">raw_data_access.</text>
<text text-anchor="middle" x="203.98" y="-310.61" font-family="Helvetica,sans-Serif" font-size="10.00" fill="#ffffff">config</text>
</g>
<!-- CrocoDash_raw_data_access_config&#45;&gt;case_py -->
<g id="edge5" class="edge">
<title>CrocoDash_raw_data_access_config&#45;&gt;case_py</title><style>.edge>path:hover{stroke-width:8}</style>
<path fill="none" stroke="black" d="M193.87,-294.04C188.97,-272.13 187.28,-243.77 203.98,-226.08"/>
</g>
<!-- CrocoDash_raw_data_access_config&#45;&gt;CrocoDash_raw_data_access_driver -->
<g id="edge6" class="edge">
<title>CrocoDash_raw_data_access_config&#45;&gt;CrocoDash_raw_data_access_driver</title><style>.edge>path:hover{stroke-width:8}</style>
<path fill="none" stroke="black" d="M246.38,-299.63C267.34,-286.85 292.81,-271.32 314.93,-257.82"/>
<polygon fill="#c24747" stroke="black" points="316.5,-260.96 323.22,-252.77 312.86,-254.99 316.5,-260.96"/>
</g>
<!-- CrocoDash_raw_data_access_driver&#45;&gt;case_py -->
<g id="edge7" class="edge">
<title>CrocoDash_raw_data_access_driver&#45;&gt;case_py</title><style>.edge>path:hover{stroke-width:8}</style>
<path fill="none" stroke="black" d="M356.58,-192.59C352.19,-172.67 351.2,-148.06 366.98,-133.69"/>
</g>
<!-- CrocoDash_raw_data_access_utils -->
<g id="node7" class="node">
<title>CrocoDash_raw_data_access_utils</title><style>.edge>path:hover{stroke-width:8}</style>
<ellipse fill="#b65353" stroke="black" cx="366.98" cy="-326.49" rx="72.3" ry="32.7"/>
<text text-anchor="middle" x="366.98" y="-336.11" font-family="Helvetica,sans-Serif" font-size="10.00" fill="#ffffff">CrocoDash.</text>
<text text-anchor="middle" x="366.98" y="-323.36" font-family="Helvetica,sans-Serif" font-size="10.00" fill="#ffffff">raw_data_access.</text>
<text text-anchor="middle" x="366.98" y="-310.61" font-family="Helvetica,sans-Serif" font-size="10.00" fill="#ffffff">utils</text>
</g>
<!-- CrocoDash_raw_data_access_utils&#45;&gt;CrocoDash_raw_data_access_driver -->
<g id="edge8" class="edge">
<title>CrocoDash_raw_data_access_utils&#45;&gt;CrocoDash_raw_data_access_driver</title><style>.edge>path:hover{stroke-width:8}</style>
<path fill="none" stroke="black" d="M366.98,-293.49C366.98,-285.77 366.98,-277.4 366.98,-269.27"/>
<polygon fill="#b65353" stroke="black" points="370.48,-269.53 366.98,-259.53 363.48,-269.53 370.48,-269.53"/>
</g>
<!-- CrocoDash_topo -->
<g id="node8" class="node">
<title>CrocoDash_topo</title><style>.edge>path:hover{stroke-width:8}</style>
<ellipse fill="#a44646" stroke="black" cx="413.98" cy="-418.88" rx="57.06" ry="18"/>
<text text-anchor="middle" x="413.98" y="-415.75" font-family="Helvetica,sans-Serif" font-size="10.00" fill="#ffffff">CrocoDash.topo</text>
</g>
<!-- CrocoDash_topo&#45;&gt;case_py -->
<g id="edge9" class="edge">
<title>CrocoDash_topo&#45;&gt;case_py</title><style>.edge>path:hover{stroke-width:8}</style>
<path fill="none" stroke="black" d="M445.99,-403.69C474.42,-388.67 510.65,-362.32 504.98,-327.49"/>
<path fill="none" stroke="black" d="M504.98,-325.49C497.39,-278.8 489.87,-267.47 466.98,-226.08"/>
</g>
<!-- CrocoDash_vgrid -->
<g id="node9" class="node">
<title>CrocoDash_vgrid</title><style>.edge>path:hover{stroke-width:8}</style>
<ellipse fill="#ac4949" stroke="black" cx="144.98" cy="-418.88" rx="50.56" ry="23.69"/>
<text text-anchor="middle" x="144.98" y="-422.13" font-family="Helvetica,sans-Serif" font-size="10.00" fill="#ffffff">CrocoDash.</text>
<text text-anchor="middle" x="144.98" y="-409.38" font-family="Helvetica,sans-Serif" font-size="10.00" fill="#ffffff">vgrid</text>
</g>
<!-- CrocoDash_vgrid&#45;&gt;case_py -->
<g id="edge10" class="edge">
<title>CrocoDash_vgrid&#45;&gt;case_py</title><style>.edge>path:hover{stroke-width:8}</style>
<path fill="none" stroke="black" d="M133.45,-395.77C121.76,-370.12 107.42,-327.08 122.98,-293.78 142.85,-251.28 171.77,-260.2 203.98,-226.08"/>
<path fill="none" stroke="black" d="M203.98,-224.08C250.87,-171.13 291.97,-199.54 347.98,-156.38 358.4,-148.35 357.26,-142.54 366.98,-133.69"/>
<path fill="none" stroke="black" d="M366.98,-131.69C376.71,-122.83 374.3,-115.04 385.98,-109 429.65,-86.4 812.79,-120.07 826.98,-73"/>
</g>
<!-- esmpy -->
<g id="node10" class="node">
<title>esmpy</title><style>.edge>path:hover{stroke-width:8}</style>
<ellipse fill="#6ec040" stroke="black" cx="1017.98" cy="-663.32" rx="29.98" ry="18"/>
<text text-anchor="middle" x="1017.98" y="-660.19" font-family="Helvetica,sans-Serif" font-size="10.00" fill="#000000">esmpy</text>
</g>
<!-- mom6_bathy_mapping -->
<g id="node15" class="node">
<title>mom6_bathy_mapping</title><style>.edge>path:hover{stroke-width:8}</style>
<ellipse fill="#2e6b39" stroke="black" cx="805.98" cy="-502.26" rx="57.98" ry="23.69"/>
<text text-anchor="middle" x="805.98" y="-505.51" font-family="Helvetica,sans-Serif" font-size="10.00" fill="#ffffff">mom6_bathy.</text>
<text text-anchor="middle" x="805.98" y="-492.76" font-family="Helvetica,sans-Serif" font-size="10.00" fill="#ffffff">mapping</text>
</g>
<!-- esmpy&#45;&gt;mom6_bathy_mapping -->
<g id="edge11" class="edge">
<title>esmpy&#45;&gt;mom6_bathy_mapping</title><style>.edge>path:hover{stroke-width:8}</style>
<path fill="none" stroke="black" d="M995.07,-651.21C972.5,-638.89 939.26,-616.7 923.98,-586.63"/>
</g>
<!-- mom6_bathy -->
<g id="node11" class="node">
<title>mom6_bathy</title><style>.edge>path:hover{stroke-width:8}</style>
<ellipse fill="#10f93a" stroke="black" cx="182.98" cy="-585.63" rx="49.26" ry="18"/>
<text text-anchor="middle" x="182.98" y="-582.51" font-family="Helvetica,sans-Serif" font-size="10.00" fill="#000000">mom6_bathy</text>
</g>
<!-- mom6_bathy&#45;&gt;case_py -->
<g id="edge12" class="edge">
<title>mom6_bathy&#45;&gt;case_py</title><style>.edge>path:hover{stroke-width:8}</style>
<path fill="none" stroke="black" d="M168.22,-568.05C155.85,-552.2 140.83,-527.22 144.98,-503.26"/>
<path fill="none" stroke="black" d="M144.98,-501.26C151.35,-464.5 99.45,-476.95 84.98,-442.57 76.82,-423.16 82.25,-416.07 84.98,-395.19 93.77,-328.02 134.61,-148.02 189.98,-109 247.93,-68.16 806.1,-140.75 826.98,-73"/>
</g>
<!-- mom6_bathy&#45;&gt;CrocoDash_grid -->
<g id="edge13" class="edge">
<title>mom6_bathy&#45;&gt;CrocoDash_grid</title><style>.edge>path:hover{stroke-width:8}</style>
<path fill="none" stroke="black" d="M144.98,-501.26C148.59,-480.42 197.19,-454.9 234.83,-438.05"/>
<polygon fill="#10f93a" stroke="black" points="235.98,-441.37 243.73,-434.15 233.16,-434.96 235.98,-441.37"/>
</g>
<!-- mom6_bathy&#45;&gt;CrocoDash_topo -->
<g id="edge14" class="edge">
<title>mom6_bathy&#45;&gt;CrocoDash_topo</title><style>.edge>path:hover{stroke-width:8}</style>
<path fill="none" stroke="black" d="M144.98,-501.26C160.66,-410.82 255.26,-469.58 342.98,-442.57 349.96,-440.42 357.32,-438.11 364.54,-435.83"/>
<polygon fill="#10f93a" stroke="black" points="365.43,-439.22 373.9,-432.85 363.31,-432.55 365.43,-439.22"/>
</g>
<!-- mom6_bathy&#45;&gt;CrocoDash_vgrid -->
<g id="edge15" class="edge">
<title>mom6_bathy&#45;&gt;CrocoDash_vgrid</title><style>.edge>path:hover{stroke-width:8}</style>
<path fill="none" stroke="black" d="M144.98,-501.26C147.65,-485.88 148.01,-468.62 147.57,-453.97"/>
<polygon fill="#10f93a" stroke="black" points="151.08,-454.2 147.13,-444.37 144.09,-454.52 151.08,-454.2"/>
</g>
<!-- mom6_bathy_aux -->
<g id="node12" class="node">
<title>mom6_bathy_aux</title><style>.edge>path:hover{stroke-width:8}</style>
<ellipse fill="#24d044" stroke="black" cx="631.98" cy="-585.63" rx="61.19" ry="18"/>
<text text-anchor="middle" x="631.98" y="-582.51" font-family="Helvetica,sans-Serif" font-size="10.00" fill="#000000">mom6_bathy.aux</text>
</g>
<!-- mom6_bathy_chl -->
<g id="node13" class="node">
<title>mom6_bathy_chl</title><style>.edge>path:hover{stroke-width:8}</style>
<ellipse fill="#3d8f4c" stroke="black" cx="588.98" cy="-418.88" rx="58.89" ry="18"/>
<text text-anchor="middle" x="588.98" y="-415.75" font-family="Helvetica,sans-Serif" font-size="10.00" fill="#ffffff">mom6_bathy.chl</text>
</g>
<!-- mom6_bathy_aux&#45;&gt;mom6_bathy_chl -->
<g id="edge16" class="edge">
<title>mom6_bathy_aux&#45;&gt;mom6_bathy_chl</title><style>.edge>path:hover{stroke-width:8}</style>
<path fill="none" stroke="black" d="M667.91,-570.61C698.31,-556.4 734.75,-532.4 719.98,-503.26"/>
<path fill="none" stroke="black" d="M719.98,-501.26C704.03,-469.78 669.77,-449.14 640.29,-436.53"/>
<polygon fill="#24d044" stroke="black" points="641.68,-433.31 631.09,-432.8 639.05,-439.8 641.68,-433.31"/>
</g>
<!-- mom6_bathy_grid -->
<g id="node14" class="node">
<title>mom6_bathy_grid</title><style>.edge>path:hover{stroke-width:8}</style>
<ellipse fill="#339945" stroke="black" cx="499.98" cy="-502.26" rx="57.98" ry="23.69"/>
<text text-anchor="middle" x="499.98" y="-505.51" font-family="Helvetica,sans-Serif" font-size="10.00" fill="#ffffff">mom6_bathy.</text>
<text text-anchor="middle" x="499.98" y="-492.76" font-family="Helvetica,sans-Serif" font-size="10.00" fill="#ffffff">grid</text>
</g>
<!-- mom6_bathy_aux&#45;&gt;mom6_bathy_grid -->
<g id="edge17" class="edge">
<title>mom6_bathy_aux&#45;&gt;mom6_bathy_grid</title><style>.edge>path:hover{stroke-width:8}</style>
<path fill="none" stroke="black" d="M606.53,-568.94C587.95,-557.49 562.37,-541.72 540.93,-528.5"/>
<polygon fill="#24d044" stroke="black" points="543.05,-525.69 532.7,-523.42 539.38,-531.65 543.05,-525.69"/>
</g>
<!-- mom6_bathy_aux&#45;&gt;mom6_bathy_mapping -->
<g id="edge18" class="edge">
<title>mom6_bathy_aux&#45;&gt;mom6_bathy_mapping</title><style>.edge>path:hover{stroke-width:8}</style>
<path fill="none" stroke="black" d="M663.49,-569.89C689.95,-557.52 728.16,-539.65 758.35,-525.53"/>
<polygon fill="#24d044" stroke="black" points="759.71,-528.76 767.29,-521.35 756.75,-522.42 759.71,-528.76"/>
</g>
<!-- mom6_bathy_topo -->
<g id="node16" class="node">
<title>mom6_bathy_topo</title><style>.edge>path:hover{stroke-width:8}</style>
<ellipse fill="#309142" stroke="black" cx="633.98" cy="-502.26" rx="57.98" ry="23.69"/>
<text text-anchor="middle" x="633.98" y="-505.51" font-family="Helvetica,sans-Serif" font-size="10.00" fill="#ffffff">mom6_bathy.</text>
<text text-anchor="middle" x="633.98" y="-492.76" font-family="Helvetica,sans-Serif" font-size="10.00" fill="#ffffff">topo</text>
</g>
<!-- mom6_bathy_aux&#45;&gt;mom6_bathy_topo -->
<g id="edge19" class="edge">
<title>mom6_bathy_aux&#45;&gt;mom6_bathy_topo</title><style>.edge>path:hover{stroke-width:8}</style>
<path fill="none" stroke="black" d="M632.41,-567.37C632.62,-558.7 632.89,-547.86 633.14,-537.58"/>
<polygon fill="#24d044" stroke="black" points="636.63,-537.95 633.38,-527.87 629.63,-537.78 636.63,-537.95"/>
</g>
<!-- mom6_bathy_chl&#45;&gt;case_py -->
<g id="edge20" class="edge">
<title>mom6_bathy_chl&#45;&gt;case_py</title><style>.edge>path:hover{stroke-width:8}</style>
<path fill="none" stroke="black" d="M563,-402.38C540.37,-386.82 510.35,-360.47 504.98,-327.49"/>
</g>
<!-- mom6_bathy_grid&#45;&gt;CrocoDash_grid -->
<g id="edge21" class="edge">
<title>mom6_bathy_grid&#45;&gt;CrocoDash_grid</title><style>.edge>path:hover{stroke-width:8}</style>
<path fill="none" stroke="black" d="M457.63,-485.66C419.79,-471.73 364.46,-451.35 325.42,-436.98"/>
<polygon fill="#339945" stroke="black" points="326.64,-433.7 316.04,-433.53 324.22,-440.27 326.64,-433.7"/>
</g>
<!-- mom6_bathy_grid&#45;&gt;mom6_bathy_chl -->
<g id="edge22" class="edge">
<title>mom6_bathy_grid&#45;&gt;mom6_bathy_chl</title><style>.edge>path:hover{stroke-width:8}</style>
<path fill="none" stroke="black" d="M522.9,-480.3C535.04,-469.2 550,-455.52 562.61,-443.99"/>
<polygon fill="#339945" stroke="black" points="564.77,-446.76 569.79,-437.42 560.05,-441.59 564.77,-446.76"/>
</g>
<!-- mom6_bathy_mapping&#45;&gt;case_py -->
<g id="edge23" class="edge">
<title>mom6_bathy_mapping&#45;&gt;case_py</title><style>.edge>path:hover{stroke-width:8}</style>
<path fill="none" stroke="black" d="M797.67,-478.52C779.54,-424.83 742.04,-287.52 793.98,-192.38 808.16,-166.41 835.8,-182.35 849.98,-156.38 860.07,-137.89 855.89,-129.21 849.98,-109 844.66,-90.78 821.5,-91.18 826.98,-73"/>
</g>
<!-- mom6_bathy_topo&#45;&gt;CrocoDash_topo -->
<g id="edge24" class="edge">
<title>mom6_bathy_topo&#45;&gt;CrocoDash_topo</title><style>.edge>path:hover{stroke-width:8}</style>
<path fill="none" stroke="black" d="M591.82,-485.66C554.3,-471.78 499.51,-451.51 460.67,-437.15"/>
<polygon fill="#309142" stroke="black" points="462.18,-433.98 451.59,-433.79 459.75,-440.54 462.18,-433.98"/>
</g>
<!-- mom6_bathy_topo&#45;&gt;mom6_bathy_chl -->
<g id="edge25" class="edge">
<title>mom6_bathy_topo&#45;&gt;mom6_bathy_chl</title><style>.edge>path:hover{stroke-width:8}</style>
<path fill="none" stroke="black" d="M621.69,-479.02C616.18,-469.07 609.65,-457.24 603.87,-446.8"/>
<polygon fill="#309142" stroke="black" points="607.04,-445.31 599.14,-438.25 600.92,-448.7 607.04,-445.31"/>
</g>
<!-- mom6_bathy_vgrid -->
<g id="node17" class="node">
<title>mom6_bathy_vgrid</title><style>.edge>path:hover{stroke-width:8}</style>
<ellipse fill="#4cb35f" stroke="black" cx="57.98" cy="-585.63" rx="57.98" ry="23.69"/>
<text text-anchor="middle" x="57.98" y="-588.88" font-family="Helvetica,sans-Serif" font-size="10.00" fill="#000000">mom6_bathy.</text>
<text text-anchor="middle" x="57.98" y="-576.13" font-family="Helvetica,sans-Serif" font-size="10.00" fill="#000000">vgrid</text>
</g>
<!-- mom6_bathy_vgrid&#45;&gt;CrocoDash_vgrid -->
<g id="edge26" class="edge">
<title>mom6_bathy_vgrid&#45;&gt;CrocoDash_vgrid</title><style>.edge>path:hover{stroke-width:8}</style>
<path fill="none" stroke="black" d="M69.9,-562.07C84.93,-533.6 110.88,-484.45 127.99,-452.05"/>
<polygon fill="#4cb35f" stroke="black" points="130.93,-453.98 132.51,-443.51 124.74,-450.72 130.93,-453.98"/>
</g>
<!-- mpi4py -->
<g id="node18" class="node">
<title>mpi4py</title><style>.edge>path:hover{stroke-width:8}</style>
<ellipse fill="#53b69b" stroke="black" cx="827.98" cy="-663.32" rx="32.28" ry="18"/>
<text text-anchor="middle" x="827.98" y="-660.19" font-family="Helvetica,sans-Serif" font-size="10.00" fill="#000000">mpi4py</text>
</g>
<!-- mpi4py&#45;&gt;mom6_bathy_mapping -->
<g id="edge27" class="edge">
<title>mpi4py&#45;&gt;mom6_bathy_mapping</title><style>.edge>path:hover{stroke-width:8}</style>
<path fill="none" stroke="black" d="M851.15,-650.49C882.22,-633.82 932.59,-603.57 923.98,-586.63"/>
</g>
<!-- numpy -->
<g id="node19" class="node">
<title>numpy</title><style>.edge>path:hover{stroke-width:8}</style>
<ellipse fill="#06b7f9" stroke="black" cx="655.98" cy="-836.73" rx="30.44" ry="18"/>
<text text-anchor="middle" x="655.98" y="-833.6" font-family="Helvetica,sans-Serif" font-size="10.00" fill="#000000">numpy</text>
</g>
<!-- numpy&#45;&gt;mom6_bathy_aux -->
<g id="edge28" class="edge">
<title>numpy&#45;&gt;mom6_bathy_aux</title><style>.edge>path:hover{stroke-width:8}</style>
<path fill="none" stroke="black" d="M653.65,-818.45C649.95,-787.26 644.28,-719.64 655.98,-664.32"/>
</g>
<!-- numpy&#45;&gt;mom6_bathy_chl -->
<g id="edge29" class="edge">
<title>numpy&#45;&gt;mom6_bathy_chl</title><style>.edge>path:hover{stroke-width:8}</style>
<path fill="none" stroke="black" d="M686.6,-834.96C797.6,-831.91 1174.37,-818.94 1212.98,-782.73 1251.86,-746.27 1231.98,-717.62 1231.98,-664.32 1231.98,-664.32 1231.98,-664.32 1231.98,-584.63 1231.98,-467.19 824.4,-432.32 658.24,-422.99"/>
<polygon fill="#06b7f9" stroke="black" points="658.87,-419.52 648.69,-422.46 658.48,-426.5 658.87,-419.52"/>
</g>
<!-- numpy&#45;&gt;mom6_bathy_grid -->
<g id="edge30" class="edge">
<title>numpy&#45;&gt;mom6_bathy_grid</title><style>.edge>path:hover{stroke-width:8}</style>
<path fill="none" stroke="black" d="M391.98,-662.32C370.66,-636.3 380.87,-618.38 391.98,-586.63"/>
<path fill="none" stroke="black" d="M391.98,-584.63C401.38,-557.78 426.09,-538.11 449.5,-524.85"/>
<polygon fill="#06b7f9" stroke="black" points="450.9,-528.07 458.07,-520.27 447.6,-521.89 450.9,-528.07"/>
</g>
<!-- numpy&#45;&gt;mom6_bathy_mapping -->
<g id="edge31" class="edge">
<title>numpy&#45;&gt;mom6_bathy_mapping</title><style>.edge>path:hover{stroke-width:8}</style>
<path fill="none" stroke="black" d="M686.86,-836.2C771.51,-836.83 1004.5,-833.77 1056.98,-782.73 1095.19,-745.56 1103.89,-709.73 1075.98,-664.32"/>
</g>
<!-- numpy&#45;&gt;mom6_bathy_topo -->
<g id="edge32" class="edge">
<title>numpy&#45;&gt;mom6_bathy_topo</title><style>.edge>path:hover{stroke-width:8}</style>
<path fill="none" stroke="black" d="M391.98,-662.32C361.25,-626.87 503.93,-558.57 583.52,-524.16"/>
<polygon fill="#06b7f9" stroke="black" points="584.64,-527.49 592.45,-520.33 581.88,-521.06 584.64,-527.49"/>
</g>
<!-- numpy&#45;&gt;mom6_bathy_vgrid -->
<g id="edge33" class="edge">
<title>numpy&#45;&gt;mom6_bathy_vgrid</title><style>.edge>path:hover{stroke-width:8}</style>
<path fill="none" stroke="black" d="M625.6,-833.65C586.05,-829.6 516.38,-817.66 468.98,-782.73 418.45,-745.48 419.39,-720.79 391.98,-664.32"/>
<path fill="none" stroke="black" d="M391.98,-662.32C312.74,-570.9 241.86,-640.57 124.98,-609.32 120.51,-608.12 115.9,-606.79 111.3,-605.38"/>
<polygon fill="#06b7f9" stroke="black" points="112.65,-602.14 102.06,-602.45 110.54,-608.81 112.65,-602.14"/>
</g>
<!-- scipy -->
<g id="node25" class="node">
<title>scipy</title><style>.edge>path:hover{stroke-width:8}</style>
<ellipse fill="#5b06ef" stroke="black" cx="504.98" cy="-750.02" rx="27" ry="18"/>
<text text-anchor="middle" x="504.98" y="-746.9" font-family="Helvetica,sans-Serif" font-size="10.00" fill="#ffffff">scipy</text>
</g>
<!-- numpy&#45;&gt;scipy -->
<g id="edge34" class="edge">
<title>numpy&#45;&gt;scipy</title><style>.edge>path:hover{stroke-width:8}</style>
<path fill="none" stroke="black" d="M630.67,-826.52C606.61,-817.22 569.91,-801.55 540.98,-782.73 536.62,-779.89 532.25,-776.55 528.13,-773.12"/>
<polygon fill="#06b7f9" stroke="black" points="530.57,-770.61 520.75,-766.64 525.95,-775.87 530.57,-770.61"/>
</g>
<!-- ProConPy_config_var -->
<g id="node20" class="node">
<title>ProConPy_config_var</title><style>.edge>path:hover{stroke-width:8}</style>
<ellipse fill="#b68953" stroke="black" cx="441.98" cy="-132.69" rx="46.85" ry="23.69"/>
<text text-anchor="middle" x="441.98" y="-135.94" font-family="Helvetica,sans-Serif" font-size="10.00" fill="#000000">ProConPy.</text>
<text text-anchor="middle" x="441.98" y="-123.19" font-family="Helvetica,sans-Serif" font-size="10.00" fill="#000000">config_var</text>
</g>
<!-- ProConPy_config_var&#45;&gt;case_py -->
<g id="edge35" class="edge">
<title>ProConPy_config_var&#45;&gt;case_py</title><style>.edge>path:hover{stroke-width:8}</style>
<path fill="none" stroke="black" d="M476.14,-116.12C483.24,-113.38 490.76,-110.82 497.98,-109 533.64,-100.01 816.37,-108.21 826.98,-73"/>
</g>
<!-- ProConPy_csp_solver -->
<g id="node21" class="node">
<title>ProConPy_csp_solver</title><style>.edge>path:hover{stroke-width:8}</style>
<ellipse fill="#b68953" stroke="black" cx="554.98" cy="-132.69" rx="47.91" ry="23.69"/>
<text text-anchor="middle" x="554.98" y="-135.94" font-family="Helvetica,sans-Serif" font-size="10.00" fill="#000000">ProConPy.</text>
<text text-anchor="middle" x="554.98" y="-123.19" font-family="Helvetica,sans-Serif" font-size="10.00" fill="#000000">csp_solver</text>
</g>
<!-- ProConPy_csp_solver&#45;&gt;case_py -->
<g id="edge36" class="edge">
<title>ProConPy_csp_solver&#45;&gt;case_py</title><style>.edge>path:hover{stroke-width:8}</style>
<path fill="none" stroke="black" d="M590.16,-116.34C597.29,-113.61 604.8,-111.01 611.98,-109 658.64,-95.97 813,-119.38 826.98,-73"/>
</g>
<!-- ProConPy_dev_utils -->
<g id="node22" class="node">
<title>ProConPy_dev_utils</title><style>.edge>path:hover{stroke-width:8}</style>
<ellipse fill="#b68953" stroke="black" cx="665.98" cy="-132.69" rx="45.25" ry="23.69"/>
<text text-anchor="middle" x="665.98" y="-135.94" font-family="Helvetica,sans-Serif" font-size="10.00" fill="#000000">ProConPy.</text>
<text text-anchor="middle" x="665.98" y="-123.19" font-family="Helvetica,sans-Serif" font-size="10.00" fill="#000000">dev_utils</text>
</g>
<!-- ProConPy_dev_utils&#45;&gt;case_py -->
<g id="edge37" class="edge">
<title>ProConPy_dev_utils&#45;&gt;case_py</title><style>.edge>path:hover{stroke-width:8}</style>
<path fill="none" stroke="black" d="M700.4,-116.79C706.87,-114.11 713.61,-111.41 719.98,-109 766.92,-91.27 812.5,-121.04 826.98,-73"/>
</g>
<!-- ProConPy_stage -->
<g id="node23" class="node">
<title>ProConPy_stage</title><style>.edge>path:hover{stroke-width:8}</style>
<ellipse fill="#b68953" stroke="black" cx="784.98" cy="-132.69" rx="55.68" ry="18"/>
<text text-anchor="middle" x="784.98" y="-129.56" font-family="Helvetica,sans-Serif" font-size="10.00" fill="#000000">ProConPy.stage</text>
</g>
<!-- ProConPy_stage&#45;&gt;case_py -->
<g id="edge38" class="edge">
<title>ProConPy_stage&#45;&gt;case_py</title><style>.edge>path:hover{stroke-width:8}</style>
<path fill="none" stroke="black" d="M801.2,-115.36C810.86,-104.4 822.14,-89.07 826.98,-73"/>
</g>
<!-- regional_mom6 -->
<g id="node24" class="node">
<title>regional_mom6</title><style>.edge>path:hover{stroke-width:8}</style>
<ellipse fill="#475ec2" stroke="black" cx="306.98" cy="-585.63" rx="56.6" ry="18"/>
<text text-anchor="middle" x="306.98" y="-582.51" font-family="Helvetica,sans-Serif" font-size="10.00" fill="#ffffff">regional_mom6</text>
</g>
<!-- regional_mom6&#45;&gt;case_py -->
<g id="edge39" class="edge">
<title>regional_mom6&#45;&gt;case_py</title><style>.edge>path:hover{stroke-width:8}</style>
<path fill="none" stroke="black" d="M413.98,-501.26C422.43,-491.17 423.48,-487.66 432.98,-478.57 451.99,-460.37 465.88,-464.78 479.98,-442.57 508.03,-398.38 513.39,-379.15 504.98,-327.49"/>
</g>
<!-- regional_mom6&#45;&gt;CrocoDash_topo -->
<g id="edge40" class="edge">
<title>regional_mom6&#45;&gt;CrocoDash_topo</title><style>.edge>path:hover{stroke-width:8}</style>
<path fill="none" stroke="black" d="M333.42,-569.29C356.87,-554.66 390.91,-530.81 413.98,-503.26"/>
<path fill="none" stroke="black" d="M413.98,-501.26C426.07,-486.82 425.57,-465.37 422.32,-448.11"/>
<polygon fill="#475ec2" stroke="black" points="425.75,-447.4 420.09,-438.45 418.93,-448.98 425.75,-447.4"/>
</g>
<!-- scipy&#45;&gt;mom6_bathy_aux -->
<g id="edge41" class="edge">
<title>scipy&#45;&gt;mom6_bathy_aux</title><style>.edge>path:hover{stroke-width:8}</style>
<path fill="none" stroke="black" d="M519.61,-734.41C525.86,-728.63 533.44,-722.23 540.98,-717.32 588.15,-686.62 644.34,-719.38 655.98,-664.32"/>
<path fill="none" stroke="black" d="M655.98,-662.32C659.44,-645.98 654.25,-628.16 647.83,-613.92"/>
<polygon fill="#5b06ef" stroke="black" points="651.06,-612.56 643.47,-605.16 644.79,-615.67 651.06,-612.56"/>
</g>
<!-- scipy&#45;&gt;mom6_bathy_grid -->
<g id="edge42" class="edge">
<title>scipy&#45;&gt;mom6_bathy_grid</title><style>.edge>path:hover{stroke-width:8}</style>
<path fill="none" stroke="black" d="M491.42,-734.27C476.18,-717.56 450.84,-689.38 429.98,-664.32"/>
<path fill="none" stroke="black" d="M429.98,-662.32C405.91,-633.38 379.55,-622.16 391.98,-586.63"/>
</g>
<!-- scipy&#45;&gt;mom6_bathy_mapping -->
<g id="edge43" class="edge">
<title>scipy&#45;&gt;mom6_bathy_mapping</title><style>.edge>path:hover{stroke-width:8}</style>
<path fill="none" stroke="black" d="M518.36,-734.04C524.63,-727.92 532.57,-721.35 540.98,-717.32 625.6,-676.79 664.53,-722.18 748.98,-681.32 759.18,-676.38 757.63,-668.92 767.98,-664.32"/>
<path fill="none" stroke="black" d="M767.98,-662.32C778.34,-657.72 777.43,-651.41 786.98,-645.32 842.85,-609.72 953.99,-645.69 923.98,-586.63"/>
<path fill="none" stroke="black" d="M923.98,-584.63C910.16,-557.43 882.51,-537.62 857.45,-524.36"/>
<polygon fill="#5b06ef" stroke="black" points="859.14,-521.29 848.64,-519.93 856,-527.54 859.14,-521.29"/>
</g>
<!-- scipy&#45;&gt;mom6_bathy_topo -->
<g id="edge44" class="edge">
<title>scipy&#45;&gt;mom6_bathy_topo</title><style>.edge>path:hover{stroke-width:8}</style>
<path fill="none" stroke="black" d="M496.83,-732.64C487.58,-711.71 475.23,-674.67 486.98,-645.32 500.39,-611.85 527.34,-619.11 542.98,-586.63"/>
<path fill="none" stroke="black" d="M542.98,-584.63C553.03,-561.72 573.16,-542.63 591.94,-528.72"/>
<polygon fill="#5b06ef" stroke="black" points="593.91,-531.61 600.05,-522.98 589.87,-525.9 593.91,-531.61"/>
</g>
<!-- scipy_sparse -->
<g id="node26" class="node">
<title>scipy_sparse</title><style>.edge>path:hover{stroke-width:8}</style>
<ellipse fill="#6a3db8" stroke="black" cx="923.98" cy="-663.32" rx="46.04" ry="18"/>
<text text-anchor="middle" x="923.98" y="-660.19" font-family="Helvetica,sans-Serif" font-size="10.00" fill="#ffffff">scipy.sparse</text>
</g>
<!-- scipy_sparse&#45;&gt;mom6_bathy_mapping -->
<g id="edge45" class="edge">
<title>scipy_sparse&#45;&gt;mom6_bathy_mapping</title><style>.edge>path:hover{stroke-width:8}</style>
<path fill="none" stroke="black" d="M928.23,-645.06C931.24,-629.01 933.27,-604.91 923.98,-586.63"/>
</g>
<!-- scipy_sparse_coo_matrix -->
<g id="node27" class="node">
<title>scipy_sparse_coo_matrix</title><style>.edge>path:hover{stroke-width:8}</style>
<ellipse fill="#7753b6" stroke="black" cx="1153.98" cy="-750.02" rx="50.03" ry="32.7"/>
<text text-anchor="middle" x="1153.98" y="-759.65" font-family="Helvetica,sans-Serif" font-size="10.00" fill="#ffffff">scipy.</text>
<text text-anchor="middle" x="1153.98" y="-746.9" font-family="Helvetica,sans-Serif" font-size="10.00" fill="#ffffff">sparse.</text>
<text text-anchor="middle" x="1153.98" y="-734.15" font-family="Helvetica,sans-Serif" font-size="10.00" fill="#ffffff">coo_matrix</text>
</g>
<!-- scipy_sparse_coo_matrix&#45;&gt;mom6_bathy_mapping -->
<g id="edge46" class="edge">
<title>scipy_sparse_coo_matrix&#45;&gt;mom6_bathy_mapping</title><style>.edge>path:hover{stroke-width:8}</style>
<path fill="none" stroke="black" d="M1125.03,-723.02C1108.88,-707.3 1089.38,-686.12 1075.98,-664.32"/>
</g>
<!-- scipy_sparse_csc_matrix -->
<g id="node28" class="node">
<title>scipy_sparse_csc_matrix</title><style>.edge>path:hover{stroke-width:8}</style>
<ellipse fill="#7753b6" stroke="black" cx="998.98" cy="-750.02" rx="48.97" ry="32.7"/>
<text text-anchor="middle" x="998.98" y="-759.65" font-family="Helvetica,sans-Serif" font-size="10.00" fill="#ffffff">scipy.</text>
<text text-anchor="middle" x="998.98" y="-746.9" font-family="Helvetica,sans-Serif" font-size="10.00" fill="#ffffff">sparse.</text>
<text text-anchor="middle" x="998.98" y="-734.15" font-family="Helvetica,sans-Serif" font-size="10.00" fill="#ffffff">csc_matrix</text>
</g>
<!-- scipy_sparse_csc_matrix&#45;&gt;mom6_bathy_mapping -->
<g id="edge47" class="edge">
<title>scipy_sparse_csc_matrix&#45;&gt;mom6_bathy_mapping</title><style>.edge>path:hover{stroke-width:8}</style>
<path fill="none" stroke="black" d="M1037.56,-729.4C1063.81,-713.28 1091.23,-689.12 1075.98,-664.32"/>
<path fill="none" stroke="black" d="M1075.98,-662.32C1036.47,-598.02 958.17,-653.91 923.98,-586.63"/>
</g>
<!-- scipy_spatial -->
<g id="node29" class="node">
<title>scipy_spatial</title><style>.edge>path:hover{stroke-width:8}</style>
<ellipse fill="#6324d0" stroke="black" cx="542.98" cy="-663.32" rx="46.5" ry="18"/>
<text text-anchor="middle" x="542.98" y="-660.19" font-family="Helvetica,sans-Serif" font-size="10.00" fill="#ffffff">scipy.spatial</text>
</g>
<!-- scipy_spatial&#45;&gt;mom6_bathy_grid -->
<g id="edge48" class="edge">
<title>scipy_spatial&#45;&gt;mom6_bathy_grid</title><style>.edge>path:hover{stroke-width:8}</style>
<path fill="none" stroke="black" d="M538.3,-644.99C531.33,-619.21 518.09,-570.23 509.15,-537.16"/>
<polygon fill="#6324d0" stroke="black" points="512.57,-536.39 506.58,-527.65 505.81,-538.21 512.57,-536.39"/>
</g>
<!-- scipy_spatial&#45;&gt;mom6_bathy_mapping -->
<g id="edge49" class="edge">
<title>scipy_spatial&#45;&gt;mom6_bathy_mapping</title><style>.edge>path:hover{stroke-width:8}</style>
<path fill="none" stroke="black" d="M583.82,-654.32C617.38,-646.48 665.22,-632.29 701.98,-609.32 733.84,-589.41 763.12,-557.82 782.43,-534.29"/>
<polygon fill="#6324d0" stroke="black" points="785.1,-536.55 788.63,-526.57 779.64,-532.17 785.1,-536.55"/>
</g>
<!-- scipy_spatial&#45;&gt;mom6_bathy_topo -->
<g id="edge50" class="edge">
<title>scipy_spatial&#45;&gt;mom6_bathy_topo</title><style>.edge>path:hover{stroke-width:8}</style>
<path fill="none" stroke="black" d="M539.15,-644.98C536.51,-629.09 534.78,-605.27 542.98,-586.63"/>
</g>
<!-- scipy_spatial_cKDTree -->
<g id="node30" class="node">
<title>scipy_spatial_cKDTree</title><style>.edge>path:hover{stroke-width:8}</style>
<ellipse fill="#713bce" stroke="black" cx="588.98" cy="-750.02" rx="39.42" ry="32.7"/>
<text text-anchor="middle" x="588.98" y="-759.65" font-family="Helvetica,sans-Serif" font-size="10.00" fill="#ffffff">scipy.</text>
<text text-anchor="middle" x="588.98" y="-746.9" font-family="Helvetica,sans-Serif" font-size="10.00" fill="#ffffff">spatial.</text>
<text text-anchor="middle" x="588.98" y="-734.15" font-family="Helvetica,sans-Serif" font-size="10.00" fill="#ffffff">cKDTree</text>
</g>
<!-- scipy_spatial_cKDTree&#45;&gt;mom6_bathy_grid -->
<g id="edge51" class="edge">
<title>scipy_spatial_cKDTree&#45;&gt;mom6_bathy_grid</title><style>.edge>path:hover{stroke-width:8}</style>
<path fill="none" stroke="black" d="M558.91,-728.25C553.05,-724.47 546.89,-720.66 540.98,-717.32 493.39,-690.41 464.95,-706.34 429.98,-664.32"/>
</g>
<!-- scipy_spatial_cKDTree&#45;&gt;mom6_bathy_mapping -->
<g id="edge52" class="edge">
<title>scipy_spatial_cKDTree&#45;&gt;mom6_bathy_mapping</title><style>.edge>path:hover{stroke-width:8}</style>
<path fill="none" stroke="black" d="M625.61,-737.41C659.17,-725.89 709.5,-706.35 748.98,-681.32 758.55,-675.25 757.63,-668.92 767.98,-664.32"/>
</g>
<!-- scipy_spatial_cKDTree&#45;&gt;mom6_bathy_topo -->
<g id="edge53" class="edge">
<title>scipy_spatial_cKDTree&#45;&gt;mom6_bathy_topo</title><style>.edge>path:hover{stroke-width:8}</style>
<path fill="none" stroke="black" d="M599.47,-718.35C604.97,-697.06 608.76,-668.48 598.98,-645.32 584.96,-612.11 528.46,-619.63 542.98,-586.63"/>
</g>
<!-- visualCaseGen_cime_interface -->
<g id="node31" class="node">
<title>visualCaseGen_cime_interface</title><style>.edge>path:hover{stroke-width:8}</style>
<ellipse fill="#ad53b6" stroke="black" cx="961.98" cy="-132.69" rx="64.88" ry="23.69"/>
<text text-anchor="middle" x="961.98" y="-135.94" font-family="Helvetica,sans-Serif" font-size="10.00" fill="#ffffff">visualCaseGen.</text>
<text text-anchor="middle" x="961.98" y="-123.19" font-family="Helvetica,sans-Serif" font-size="10.00" fill="#ffffff">cime_interface</text>
</g>
<!-- visualCaseGen_cime_interface&#45;&gt;case_py -->
<g id="edge54" class="edge">
<title>visualCaseGen_cime_interface&#45;&gt;case_py</title><style>.edge>path:hover{stroke-width:8}</style>
<path fill="none" stroke="black" d="M914.57,-116.05C874.54,-102.12 824.11,-82.51 826.98,-73"/>
</g>
<!-- visualCaseGen_custom_widget_types_case_creator -->
<g id="node32" class="node">
<title>visualCaseGen_custom_widget_types_case_creator</title><style>.edge>path:hover{stroke-width:8}</style>
<ellipse fill="#ad53b6" stroke="black" cx="891.98" cy="-225.08" rx="88.74" ry="32.7"/>
<text text-anchor="middle" x="891.98" y="-234.7" font-family="Helvetica,sans-Serif" font-size="10.00" fill="#ffffff">visualCaseGen.</text>
<text text-anchor="middle" x="891.98" y="-221.95" font-family="Helvetica,sans-Serif" font-size="10.00" fill="#ffffff">custom_widget_types.</text>
<text text-anchor="middle" x="891.98" y="-209.2" font-family="Helvetica,sans-Serif" font-size="10.00" fill="#ffffff">case_creator</text>
</g>
<!-- visualCaseGen_custom_widget_types_case_creator&#45;&gt;case_py -->
<g id="edge55" class="edge">
<title>visualCaseGen_custom_widget_types_case_creator&#45;&gt;case_py</title><style>.edge>path:hover{stroke-width:8}</style>
<path fill="none" stroke="black" d="M956.45,-202.34C1005.49,-183.8 1063.29,-156.58 1054.98,-133.69"/>
<path fill="none" stroke="black" d="M1054.98,-131.69C1050.5,-119.32 1047.38,-115.56 1035.98,-109 995.13,-85.5 813.38,-118.12 826.98,-73"/>
</g>
<!-- visualCaseGen_custom_widget_types_case_tools -->
<g id="node33" class="node">
<title>visualCaseGen_custom_widget_types_case_tools</title><style>.edge>path:hover{stroke-width:8}</style>
<ellipse fill="#ad53b6" stroke="black" cx="1086.98" cy="-225.08" rx="88.74" ry="32.7"/>
<text text-anchor="middle" x="1086.98" y="-234.7" font-family="Helvetica,sans-Serif" font-size="10.00" fill="#ffffff">visualCaseGen.</text>
<text text-anchor="middle" x="1086.98" y="-221.95" font-family="Helvetica,sans-Serif" font-size="10.00" fill="#ffffff">custom_widget_types.</text>
<text text-anchor="middle" x="1086.98" y="-209.2" font-family="Helvetica,sans-Serif" font-size="10.00" fill="#ffffff">case_tools</text>
</g>
<!-- visualCaseGen_custom_widget_types_case_tools&#45;&gt;case_py -->
<g id="edge56" class="edge">
<title>visualCaseGen_custom_widget_types_case_tools&#45;&gt;case_py</title><style>.edge>path:hover{stroke-width:8}</style>
<path fill="none" stroke="black" d="M1075.85,-192.24C1069.75,-174.91 1062.02,-153.09 1054.98,-133.69"/>
</g>
<!-- visualCaseGen_initialize_configvars -->
<g id="node34" class="node">
<title>visualCaseGen_initialize_configvars</title><style>.edge>path:hover{stroke-width:8}</style>
<ellipse fill="#ad53b6" stroke="black" cx="1162.98" cy="-132.69" rx="80.26" ry="23.69"/>
<text text-anchor="middle" x="1162.98" y="-135.94" font-family="Helvetica,sans-Serif" font-size="10.00" fill="#ffffff">visualCaseGen.</text>
<text text-anchor="middle" x="1162.98" y="-123.19" font-family="Helvetica,sans-Serif" font-size="10.00" fill="#ffffff">initialize_configvars</text>
</g>
<!-- visualCaseGen_initialize_configvars&#45;&gt;case_py -->
<g id="edge57" class="edge">
<title>visualCaseGen_initialize_configvars&#45;&gt;case_py</title><style>.edge>path:hover{stroke-width:8}</style>
<path fill="none" stroke="black" d="M1103.23,-116.42C1091.9,-113.77 1080.11,-111.17 1068.98,-109 1015.61,-98.61 811.28,-125.05 826.98,-73"/>
</g>
<!-- visualCaseGen_initialize_stages -->
<g id="node35" class="node">
<title>visualCaseGen_initialize_stages</title><style>.edge>path:hover{stroke-width:8}</style>
<ellipse fill="#ad53b6" stroke="black" cx="1328.98" cy="-132.69" rx="67.53" ry="23.69"/>
<text text-anchor="middle" x="1328.98" y="-135.94" font-family="Helvetica,sans-Serif" font-size="10.00" fill="#ffffff">visualCaseGen.</text>
<text text-anchor="middle" x="1328.98" y="-123.19" font-family="Helvetica,sans-Serif" font-size="10.00" fill="#ffffff">initialize_stages</text>
</g>
<!-- visualCaseGen_initialize_stages&#45;&gt;case_py -->
<g id="edge58" class="edge">
<title>visualCaseGen_initialize_stages&#45;&gt;case_py</title><style>.edge>path:hover{stroke-width:8}</style>
<path fill="none" stroke="black" d="M1280.46,-115.78C1271.1,-113.17 1261.3,-110.75 1251.98,-109 1205.4,-100.26 813.3,-118.37 826.98,-73"/>
</g>
<!-- visualCaseGen_initialize_widgets -->
<g id="node36" class="node">
<title>visualCaseGen_initialize_widgets</title><style>.edge>path:hover{stroke-width:8}</style>
<ellipse fill="#ad53b6" stroke="black" cx="1485.98" cy="-132.69" rx="71.77" ry="23.69"/>
<text text-anchor="middle" x="1485.98" y="-135.94" font-family="Helvetica,sans-Serif" font-size="10.00" fill="#ffffff">visualCaseGen.</text>
<text text-anchor="middle" x="1485.98" y="-123.19" font-family="Helvetica,sans-Serif" font-size="10.00" fill="#ffffff">initialize_widgets</text>
</g>
<!-- visualCaseGen_initialize_widgets&#45;&gt;case_py -->
<g id="edge59" class="edge">
<title>visualCaseGen_initialize_widgets&#45;&gt;case_py</title><style>.edge>path:hover{stroke-width:8}</style>
<path fill="none" stroke="black" d="M1435.14,-115.51C1425.54,-112.96 1415.52,-110.63 1405.98,-109 1374.21,-103.57 817.68,-103.86 826.98,-73"/>
</g>
<!-- visualCaseGen_specs_options -->
<g id="node37" class="node">
<title>visualCaseGen_specs_options</title><style>.edge>path:hover{stroke-width:8}</style>
<ellipse fill="#ad53b6" stroke="black" cx="1416.98" cy="-225.08" rx="64.88" ry="32.7"/>
<text text-anchor="middle" x="1416.98" y="-234.7" font-family="Helvetica,sans-Serif" font-size="10.00" fill="#ffffff">visualCaseGen.</text>
<text text-anchor="middle" x="1416.98" y="-221.95" font-family="Helvetica,sans-Serif" font-size="10.00" fill="#ffffff">specs.</text>
<text text-anchor="middle" x="1416.98" y="-209.2" font-family="Helvetica,sans-Serif" font-size="10.00" fill="#ffffff">options</text>
</g>
<!-- visualCaseGen_specs_options&#45;&gt;case_py -->
<g id="edge60" class="edge">
<title>visualCaseGen_specs_options&#45;&gt;case_py</title><style>.edge>path:hover{stroke-width:8}</style>
<path fill="none" stroke="black" d="M1465.33,-202.88C1507.46,-184.3 1562.53,-159.75 1566.98,-156.38 1577.46,-148.43 1590.81,-145.92 1585.98,-133.69"/>
<path fill="none" stroke="black" d="M1585.98,-131.69C1581.16,-119.45 1578.76,-114.85 1566.98,-109 1530.12,-90.69 815.1,-112.41 826.98,-73"/>
</g>
<!-- visualCaseGen_specs_relational_constraints -->
<g id="node38" class="node">
<title>visualCaseGen_specs_relational_constraints</title><style>.edge>path:hover{stroke-width:8}</style>
<ellipse fill="#ad53b6" stroke="black" cx="1585.98" cy="-225.08" rx="86.09" ry="32.7"/>
<text text-anchor="middle" x="1585.98" y="-234.7" font-family="Helvetica,sans-Serif" font-size="10.00" fill="#ffffff">visualCaseGen.</text>
<text text-anchor="middle" x="1585.98" y="-221.95" font-family="Helvetica,sans-Serif" font-size="10.00" fill="#ffffff">specs.</text>
<text text-anchor="middle" x="1585.98" y="-209.2" font-family="Helvetica,sans-Serif" font-size="10.00" fill="#ffffff">relational_constraints</text>
</g>
<!-- visualCaseGen_specs_relational_constraints&#45;&gt;case_py -->
<g id="edge61" class="edge">
<title>visualCaseGen_specs_relational_constraints&#45;&gt;case_py</title><style>.edge>path:hover{stroke-width:8}</style>
<path fill="none" stroke="black" d="M1591.59,-192.06C1593.35,-174.27 1593.23,-152.08 1585.98,-133.69"/>
</g>
<!-- xesmf -->
<g id="node39" class="node">
<title>xesmf</title><style>.edge>path:hover{stroke-width:8}</style>
<ellipse fill="#d92688" stroke="black" cx="711.98" cy="-663.32" rx="28.15" ry="18"/>
<text text-anchor="middle" x="711.98" y="-660.19" font-family="Helvetica,sans-Serif" font-size="10.00" fill="#ffffff">xesmf</text>
</g>
<!-- xesmf&#45;&gt;mom6_bathy_chl -->
<g id="edge62" class="edge">
<title>xesmf&#45;&gt;mom6_bathy_chl</title><style>.edge>path:hover{stroke-width:8}</style>
<path fill="none" stroke="black" d="M734.68,-652.05C757.38,-640.15 789.91,-618.05 796.98,-586.63"/>
<path fill="none" stroke="black" d="M796.98,-584.63C805.04,-548.86 763.67,-553.07 738.98,-525.94 730.13,-516.22 725.93,-514.99 719.98,-503.26"/>
</g>
<!-- xesmf&#45;&gt;mom6_bathy_mapping -->
<g id="edge63" class="edge">
<title>xesmf&#45;&gt;mom6_bathy_mapping</title><style>.edge>path:hover{stroke-width:8}</style>
<path fill="none" stroke="black" d="M796.98,-584.63C800.43,-569.31 802.58,-552.06 803.91,-537.4"/>
<polygon fill="#d92688" stroke="black" points="807.37,-538.04 804.69,-527.79 800.39,-537.47 807.37,-538.04"/>
</g>
<!-- xesmf&#45;&gt;mom6_bathy_topo -->
<g id="edge64" class="edge">
<title>xesmf&#45;&gt;mom6_bathy_topo</title><style>.edge>path:hover{stroke-width:8}</style>
<path fill="none" stroke="black" d="M714,-644.89C715.61,-623.96 715.71,-588.36 701.98,-561.94 695.52,-549.51 685.22,-538.57 674.57,-529.62"/>
<polygon fill="#d92688" stroke="black" points="676.83,-526.94 666.81,-523.51 672.5,-532.44 676.83,-526.94"/>
</g>
</g>
</svg>
