<?xml version="1.0" encoding="UTF-8" standalone="no"?>
<!DOCTYPE svg PUBLIC "-//W3C//DTD SVG 1.1//EN"
 "http://www.w3.org/Graphics/SVG/1.1/DTD/svg11.dtd">
<!-- Generated by graphviz version 12.2.1 (20250203.1708)
 -->
<!-- Title: G Pages: 1 -->
<svg width="1977pt" height="606pt"
 viewBox="0.00 0.00 1977.39 605.94" xmlns="http://www.w3.org/2000/svg" xmlns:xlink="http://www.w3.org/1999/xlink">
<g id="graph0" class="graph" transform="scale(1 1) rotate(0) translate(4 601.94)">
<title>G</title><style>.edge>path:hover{stroke-width:8}</style>
<polygon fill="white" stroke="none" points="-4,4 -4,-601.94 1973.39,-601.94 1973.39,4 -4,4"/>
<!-- case_py -->
<g id="node1" class="node">
<title>case_py</title><style>.edge>path:hover{stroke-width:8}</style>
<ellipse fill="#356335" stroke="black" cx="1001.3" cy="-18" rx="32.73" ry="18"/>
<text text-anchor="middle" x="1001.3" y="-14.88" font-family="Helvetica,sans-Serif" font-size="10.00" fill="#ffffff">case.py</text>
</g>
<!-- CrocoDash -->
<g id="node2" class="node">
<title>CrocoDash</title><style>.edge>path:hover{stroke-width:8}</style>
<ellipse fill="#c24747" stroke="black" cx="303.3" cy="-132.69" rx="41.91" ry="18"/>
<text text-anchor="middle" x="303.3" y="-129.56" font-family="Helvetica,sans-Serif" font-size="10.00" fill="#ffffff">CrocoDash</text>
</g>
<!-- CrocoDash&#45;&gt;case_py -->
<g id="edge1" class="edge">
<title>CrocoDash&#45;&gt;case_py</title><style>.edge>path:hover{stroke-width:8}</style>
<path fill="none" stroke="black" d="M330.35,-118.64C339.36,-114.87 349.58,-111.18 359.3,-109 394.16,-101.19 1009.59,-107.75 1001.3,-73"/>
<path fill="none" stroke="black" d="M1001.3,-72C999.46,-64.27 998.86,-55.73 998.87,-47.8"/>
<polygon fill="#c24747" stroke="black" points="1002.36,-48.06 999.23,-37.94 995.37,-47.8 1002.36,-48.06"/>
</g>
<!-- CrocoDash_grid -->
<g id="node3" class="node">
<title>CrocoDash_grid</title><style>.edge>path:hover{stroke-width:8}</style>
<ellipse fill="#b83d3d" stroke="black" cx="268.3" cy="-418.88" rx="55.22" ry="18"/>
<text text-anchor="middle" x="268.3" y="-415.75" font-family="Helvetica,sans-Serif" font-size="10.00" fill="#ffffff">CrocoDash.grid</text>
</g>
<!-- CrocoDash_grid&#45;&gt;case_py -->
<g id="edge2" class="edge">
<title>CrocoDash_grid&#45;&gt;case_py</title><style>.edge>path:hover{stroke-width:8}</style>
<path fill="none" stroke="black" d="M335.3,-325.49C347.22,-279.72 369.32,-273.21 373.3,-226.08"/>
<path fill="none" stroke="black" d="M373.3,-224.08C376.68,-184.05 336.41,-149.59 373.3,-133.69"/>
</g>
<!-- CrocoDash_raw_data_access_driver -->
<g id="node6" class="node">
<title>CrocoDash_raw_data_access_driver</title><style>.edge>path:hover{stroke-width:8}</style>
<ellipse fill="#964040" stroke="black" cx="273.3" cy="-225.08" rx="72.3" ry="32.7"/>
<text text-anchor="middle" x="273.3" y="-234.7" font-family="Helvetica,sans-Serif" font-size="10.00" fill="#ffffff">CrocoDash.</text>
<text text-anchor="middle" x="273.3" y="-221.95" font-family="Helvetica,sans-Serif" font-size="10.00" fill="#ffffff">raw_data_access.</text>
<text text-anchor="middle" x="273.3" y="-209.2" font-family="Helvetica,sans-Serif" font-size="10.00" fill="#ffffff">driver</text>
</g>
<!-- CrocoDash_grid&#45;&gt;CrocoDash_raw_data_access_driver -->
<g id="edge3" class="edge">
<title>CrocoDash_grid&#45;&gt;CrocoDash_raw_data_access_driver</title><style>.edge>path:hover{stroke-width:8}</style>
<path fill="none" stroke="black" d="M286.5,-401.73C303.52,-385.13 327.47,-357.54 335.3,-327.49"/>
<path fill="none" stroke="black" d="M335.3,-325.49C341.21,-302.82 329.25,-280.43 314.31,-262.66"/>
<polygon fill="#b83d3d" stroke="black" points="317.11,-260.53 307.82,-255.45 311.91,-265.22 317.11,-260.53"/>
</g>
<!-- CrocoDash_raw_data_access -->
<g id="node4" class="node">
<title>CrocoDash_raw_data_access</title><style>.edge>path:hover{stroke-width:8}</style>
<ellipse fill="#c24747" stroke="black" cx="642.3" cy="-132.69" rx="70.18" ry="23.69"/>
<text text-anchor="middle" x="642.3" y="-135.94" font-family="Helvetica,sans-Serif" font-size="10.00" fill="#ffffff">CrocoDash.</text>
<text text-anchor="middle" x="642.3" y="-123.19" font-family="Helvetica,sans-Serif" font-size="10.00" fill="#ffffff">raw_data_access</text>
</g>
<!-- CrocoDash_raw_data_access&#45;&gt;case_py -->
<g id="edge4" class="edge">
<title>CrocoDash_raw_data_access&#45;&gt;case_py</title><style>.edge>path:hover{stroke-width:8}</style>
<path fill="none" stroke="black" d="M693.01,-115.9C702.36,-113.34 712.08,-110.91 721.3,-109 752.02,-102.65 1008.58,-103.51 1001.3,-73"/>
</g>
<!-- CrocoDash_raw_data_access_config -->
<g id="node5" class="node">
<title>CrocoDash_raw_data_access_config</title><style>.edge>path:hover{stroke-width:8}</style>
<ellipse fill="#c24747" stroke="black" cx="72.3" cy="-326.49" rx="72.3" ry="32.7"/>
<text text-anchor="middle" x="72.3" y="-336.11" font-family="Helvetica,sans-Serif" font-size="10.00" fill="#ffffff">CrocoDash.</text>
<text text-anchor="middle" x="72.3" y="-323.36" font-family="Helvetica,sans-Serif" font-size="10.00" fill="#ffffff">raw_data_access.</text>
<text text-anchor="middle" x="72.3" y="-310.61" font-family="Helvetica,sans-Serif" font-size="10.00" fill="#ffffff">config</text>
</g>
<!-- CrocoDash_raw_data_access_config&#45;&gt;case_py -->
<g id="edge5" class="edge">
<title>CrocoDash_raw_data_access_config&#45;&gt;case_py</title><style>.edge>path:hover{stroke-width:8}</style>
<path fill="none" stroke="black" d="M91.73,-294.52C112.72,-263.75 149.03,-217.61 192.3,-192.38 256.02,-155.22 291.27,-194.69 354.3,-156.38 365.54,-149.54 361.3,-139.06 373.3,-133.69"/>
<path fill="none" stroke="black" d="M373.3,-131.69C385.65,-126.37 381.22,-114.89 393.3,-109 454.13,-79.34 1017.32,-138.75 1001.3,-73"/>
</g>
<!-- CrocoDash_raw_data_access_config&#45;&gt;CrocoDash_raw_data_access_driver -->
<g id="edge6" class="edge">
<title>CrocoDash_raw_data_access_config&#45;&gt;CrocoDash_raw_data_access_driver</title><style>.edge>path:hover{stroke-width:8}</style>
<path fill="none" stroke="black" d="M120.45,-301.68C148.93,-287.59 185.2,-269.65 215.27,-254.78"/>
<polygon fill="#c24747" stroke="black" points="216.43,-258.11 223.85,-250.54 213.33,-251.84 216.43,-258.11"/>
</g>
<!-- CrocoDash_raw_data_access_driver&#45;&gt;case_py -->
<g id="edge7" class="edge">
<title>CrocoDash_raw_data_access_driver&#45;&gt;case_py</title><style>.edge>path:hover{stroke-width:8}</style>
<path fill="none" stroke="black" d="M309.18,-196.39C323.69,-184.6 340.3,-170.37 354.3,-156.38 363.61,-147.08 361.3,-139.06 373.3,-133.69"/>
</g>
<!-- CrocoDash_raw_data_access_utils -->
<g id="node7" class="node">
<title>CrocoDash_raw_data_access_utils</title><style>.edge>path:hover{stroke-width:8}</style>
<ellipse fill="#b65353" stroke="black" cx="235.3" cy="-326.49" rx="72.3" ry="32.7"/>
<text text-anchor="middle" x="235.3" y="-336.11" font-family="Helvetica,sans-Serif" font-size="10.00" fill="#ffffff">CrocoDash.</text>
<text text-anchor="middle" x="235.3" y="-323.36" font-family="Helvetica,sans-Serif" font-size="10.00" fill="#ffffff">raw_data_access.</text>
<text text-anchor="middle" x="235.3" y="-310.61" font-family="Helvetica,sans-Serif" font-size="10.00" fill="#ffffff">utils</text>
</g>
<!-- CrocoDash_raw_data_access_utils&#45;&gt;CrocoDash_raw_data_access_driver -->
<g id="edge8" class="edge">
<title>CrocoDash_raw_data_access_utils&#45;&gt;CrocoDash_raw_data_access_driver</title><style>.edge>path:hover{stroke-width:8}</style>
<path fill="none" stroke="black" d="M247.43,-293.76C250.55,-285.61 253.95,-276.71 257.23,-268.13"/>
<polygon fill="#b65353" stroke="black" points="260.45,-269.51 260.75,-258.92 253.91,-267.01 260.45,-269.51"/>
</g>
<!-- CrocoDash_topo -->
<g id="node8" class="node">
<title>CrocoDash_topo</title><style>.edge>path:hover{stroke-width:8}</style>
<ellipse fill="#a44646" stroke="black" cx="459.3" cy="-132.69" rx="57.06" ry="18"/>
<text text-anchor="middle" x="459.3" y="-129.56" font-family="Helvetica,sans-Serif" font-size="10.00" fill="#ffffff">CrocoDash.topo</text>
</g>
<!-- CrocoDash_topo&#45;&gt;case_py -->
<g id="edge9" class="edge">
<title>CrocoDash_topo&#45;&gt;case_py</title><style>.edge>path:hover{stroke-width:8}</style>
<path fill="none" stroke="black" d="M495.36,-118.37C506.43,-114.78 518.74,-111.26 530.3,-109 581.82,-98.94 1013.49,-124.05 1001.3,-73"/>
</g>
<!-- CrocoDash_vgrid -->
<g id="node9" class="node">
<title>CrocoDash_vgrid</title><style>.edge>path:hover{stroke-width:8}</style>
<ellipse fill="#ac4949" stroke="black" cx="392.3" cy="-418.88" rx="50.56" ry="23.69"/>
<text text-anchor="middle" x="392.3" y="-422.13" font-family="Helvetica,sans-Serif" font-size="10.00" fill="#ffffff">CrocoDash.</text>
<text text-anchor="middle" x="392.3" y="-409.38" font-family="Helvetica,sans-Serif" font-size="10.00" fill="#ffffff">vgrid</text>
</g>
<!-- CrocoDash_vgrid&#45;&gt;case_py -->
<g id="edge10" class="edge">
<title>CrocoDash_vgrid&#45;&gt;case_py</title><style>.edge>path:hover{stroke-width:8}</style>
<path fill="none" stroke="black" d="M387.17,-394.86C379.78,-358.86 367.64,-287.05 373.3,-226.08"/>
</g>
<!-- mom6_bathy -->
<g id="node10" class="node">
<title>mom6_bathy</title><style>.edge>path:hover{stroke-width:8}</style>
<ellipse fill="#2fdbdb" stroke="black" cx="459.3" cy="-579.94" rx="49.26" ry="18"/>
<text text-anchor="middle" x="459.3" y="-576.82" font-family="Helvetica,sans-Serif" font-size="10.00" fill="#000000">mom6_bathy</text>
</g>
<!-- mom6_bathy&#45;&gt;CrocoDash_grid -->
<g id="edge11" class="edge">
<title>mom6_bathy&#45;&gt;CrocoDash_grid</title><style>.edge>path:hover{stroke-width:8}</style>
<path fill="none" stroke="black" d="M437.56,-563.52C423.97,-553.46 406.44,-539.7 392.3,-525.94 382.87,-516.77 381.33,-513.68 373.3,-503.26"/>
<path fill="none" stroke="black" d="M373.3,-501.26C354.43,-476.74 326.5,-455.57 304.19,-440.98"/>
<polygon fill="#2fdbdb" stroke="black" points="306.3,-438.17 295.98,-435.75 302.54,-444.07 306.3,-438.17"/>
</g>
<!-- mom6_bathy&#45;&gt;CrocoDash_topo -->
<g id="edge12" class="edge">
<title>mom6_bathy&#45;&gt;CrocoDash_topo</title><style>.edge>path:hover{stroke-width:8}</style>
<path fill="none" stroke="black" d="M485.82,-564.44C500.06,-555.27 516.63,-542.1 526.3,-525.94 550.9,-484.85 545.3,-467.77 545.3,-419.88 545.3,-419.88 545.3,-419.88 545.3,-325.49 545.3,-265.73 554.77,-244.92 526.3,-192.38 518.61,-178.18 506.05,-165.81 493.87,-156.13"/>
<polygon fill="#2fdbdb" stroke="black" points="496.03,-153.37 485.93,-150.17 491.83,-158.97 496.03,-153.37"/>
</g>
<!-- mom6_bathy&#45;&gt;CrocoDash_vgrid -->
<g id="edge13" class="edge">
<title>mom6_bathy&#45;&gt;CrocoDash_vgrid</title><style>.edge>path:hover{stroke-width:8}</style>
<path fill="none" stroke="black" d="M373.3,-501.26C362.56,-487.3 366.28,-468.28 373.16,-452.14"/>
<polygon fill="#2fdbdb" stroke="black" points="376.18,-453.92 377.36,-443.39 369.87,-450.89 376.18,-453.92"/>
</g>
<!-- mom6_bathy_grid -->
<g id="node11" class="node">
<title>mom6_bathy_grid</title><style>.edge>path:hover{stroke-width:8}</style>
<ellipse fill="#53b6b6" stroke="black" cx="268.3" cy="-502.26" rx="57.98" ry="23.69"/>
<text text-anchor="middle" x="268.3" y="-505.51" font-family="Helvetica,sans-Serif" font-size="10.00" fill="#000000">mom6_bathy.</text>
<text text-anchor="middle" x="268.3" y="-492.76" font-family="Helvetica,sans-Serif" font-size="10.00" fill="#000000">grid</text>
</g>
<!-- mom6_bathy_grid&#45;&gt;CrocoDash_grid -->
<g id="edge14" class="edge">
<title>mom6_bathy_grid&#45;&gt;CrocoDash_grid</title><style>.edge>path:hover{stroke-width:8}</style>
<path fill="none" stroke="black" d="M268.3,-478.15C268.3,-469.03 268.3,-458.46 268.3,-448.84"/>
<polygon fill="#53b6b6" stroke="black" points="271.8,-448.86 268.3,-438.86 264.8,-448.86 271.8,-448.86"/>
</g>
<!-- mom6_bathy_topo -->
<g id="node12" class="node">
<title>mom6_bathy_topo</title><style>.edge>path:hover{stroke-width:8}</style>
<ellipse fill="#4cb3b3" stroke="black" cx="459.3" cy="-225.08" rx="57.98" ry="23.69"/>
<text text-anchor="middle" x="459.3" y="-228.33" font-family="Helvetica,sans-Serif" font-size="10.00" fill="#000000">mom6_bathy.</text>
<text text-anchor="middle" x="459.3" y="-215.58" font-family="Helvetica,sans-Serif" font-size="10.00" fill="#000000">topo</text>
</g>
<!-- mom6_bathy_topo&#45;&gt;CrocoDash_topo -->
<g id="edge15" class="edge">
<title>mom6_bathy_topo&#45;&gt;CrocoDash_topo</title><style>.edge>path:hover{stroke-width:8}</style>
<path fill="none" stroke="black" d="M459.3,-201.27C459.3,-189.46 459.3,-174.92 459.3,-162.36"/>
<polygon fill="#4cb3b3" stroke="black" points="462.8,-162.58 459.3,-152.58 455.8,-162.58 462.8,-162.58"/>
</g>
<!-- mom6_bathy_vgrid -->
<g id="node13" class="node">
<title>mom6_bathy_vgrid</title><style>.edge>path:hover{stroke-width:8}</style>
<ellipse fill="#53b6b6" stroke="black" cx="459.3" cy="-502.26" rx="57.98" ry="23.69"/>
<text text-anchor="middle" x="459.3" y="-505.51" font-family="Helvetica,sans-Serif" font-size="10.00" fill="#000000">mom6_bathy.</text>
<text text-anchor="middle" x="459.3" y="-492.76" font-family="Helvetica,sans-Serif" font-size="10.00" fill="#000000">vgrid</text>
</g>
<!-- mom6_bathy_vgrid&#45;&gt;CrocoDash_vgrid -->
<g id="edge16" class="edge">
<title>mom6_bathy_vgrid&#45;&gt;CrocoDash_vgrid</title><style>.edge>path:hover{stroke-width:8}</style>
<path fill="none" stroke="black" d="M441.35,-479.45C433.93,-470.44 425.2,-459.84 417.18,-450.1"/>
<polygon fill="#53b6b6" stroke="black" points="420.09,-448.13 411.04,-442.63 414.69,-452.58 420.09,-448.13"/>
</g>
<!-- ProConPy_config_var -->
<g id="node14" class="node">
<title>ProConPy_config_var</title><style>.edge>path:hover{stroke-width:8}</style>
<ellipse fill="#b6b653" stroke="black" cx="777.3" cy="-132.69" rx="46.85" ry="23.69"/>
<text text-anchor="middle" x="777.3" y="-135.94" font-family="Helvetica,sans-Serif" font-size="10.00" fill="#000000">ProConPy.</text>
<text text-anchor="middle" x="777.3" y="-123.19" font-family="Helvetica,sans-Serif" font-size="10.00" fill="#000000">config_var</text>
</g>
<!-- ProConPy_config_var&#45;&gt;case_py -->
<g id="edge17" class="edge">
<title>ProConPy_config_var&#45;&gt;case_py</title><style>.edge>path:hover{stroke-width:8}</style>
<path fill="none" stroke="black" d="M812.21,-116.46C819.13,-113.75 826.38,-111.13 833.3,-109 869.8,-97.79 1010.17,-110.14 1001.3,-73"/>
</g>
<!-- ProConPy_csp_solver -->
<g id="node15" class="node">
<title>ProConPy_csp_solver</title><style>.edge>path:hover{stroke-width:8}</style>
<ellipse fill="#b6b653" stroke="black" cx="890.3" cy="-132.69" rx="47.91" ry="23.69"/>
<text text-anchor="middle" x="890.3" y="-135.94" font-family="Helvetica,sans-Serif" font-size="10.00" fill="#000000">ProConPy.</text>
<text text-anchor="middle" x="890.3" y="-123.19" font-family="Helvetica,sans-Serif" font-size="10.00" fill="#000000">csp_solver</text>
</g>
<!-- ProConPy_csp_solver&#45;&gt;case_py -->
<g id="edge18" class="edge">
<title>ProConPy_csp_solver&#45;&gt;case_py</title><style>.edge>path:hover{stroke-width:8}</style>
<path fill="none" stroke="black" d="M926.28,-116.7C959.46,-102.29 1003.33,-81.48 1001.3,-73"/>
</g>
<!-- ProConPy_dev_utils -->
<g id="node16" class="node">
<title>ProConPy_dev_utils</title><style>.edge>path:hover{stroke-width:8}</style>
<ellipse fill="#b6b653" stroke="black" cx="1001.3" cy="-132.69" rx="45.25" ry="23.69"/>
<text text-anchor="middle" x="1001.3" y="-135.94" font-family="Helvetica,sans-Serif" font-size="10.00" fill="#000000">ProConPy.</text>
<text text-anchor="middle" x="1001.3" y="-123.19" font-family="Helvetica,sans-Serif" font-size="10.00" fill="#000000">dev_utils</text>
</g>
<!-- ProConPy_dev_utils&#45;&gt;case_py -->
<g id="edge19" class="edge">
<title>ProConPy_dev_utils&#45;&gt;case_py</title><style>.edge>path:hover{stroke-width:8}</style>
<path fill="none" stroke="black" d="M1003.76,-108.54C1004.3,-97.62 1004.05,-84.5 1001.3,-73"/>
</g>
<!-- ProConPy_stage -->
<g id="node17" class="node">
<title>ProConPy_stage</title><style>.edge>path:hover{stroke-width:8}</style>
<ellipse fill="#b6b653" stroke="black" cx="1120.3" cy="-132.69" rx="55.68" ry="18"/>
<text text-anchor="middle" x="1120.3" y="-129.56" font-family="Helvetica,sans-Serif" font-size="10.00" fill="#000000">ProConPy.stage</text>
</g>
<!-- ProConPy_stage&#45;&gt;case_py -->
<g id="edge20" class="edge">
<title>ProConPy_stage&#45;&gt;case_py</title><style>.edge>path:hover{stroke-width:8}</style>
<path fill="none" stroke="black" d="M1086.4,-118.09C1052.01,-103.82 1003.5,-82.21 1001.3,-73"/>
</g>
<!-- regional_mom6 -->
<g id="node18" class="node">
<title>regional_mom6</title><style>.edge>path:hover{stroke-width:8}</style>
<ellipse fill="#4747c2" stroke="black" cx="630.3" cy="-326.49" rx="56.6" ry="18"/>
<text text-anchor="middle" x="630.3" y="-323.36" font-family="Helvetica,sans-Serif" font-size="10.00" fill="#ffffff">regional_mom6</text>
</g>
<!-- regional_mom6&#45;&gt;case_py -->
<g id="edge21" class="edge">
<title>regional_mom6&#45;&gt;case_py</title><style>.edge>path:hover{stroke-width:8}</style>
<path fill="none" stroke="black" d="M583.3,-224.08C554.92,-180.61 528.13,-147.18 563.3,-109 596.39,-73.09 1012.64,-120.5 1001.3,-73"/>
</g>
<!-- regional_mom6&#45;&gt;CrocoDash_topo -->
<g id="edge22" class="edge">
<title>regional_mom6&#45;&gt;CrocoDash_topo</title><style>.edge>path:hover{stroke-width:8}</style>
<path fill="none" stroke="black" d="M623.82,-308.21C615.77,-287.76 600.94,-253.09 583.3,-226.08"/>
<path fill="none" stroke="black" d="M583.3,-224.08C573.64,-209.28 572.51,-204.12 559.3,-192.38 541.91,-176.91 519.84,-163.45 500.86,-153.33"/>
<polygon fill="#4747c2" stroke="black" points="502.51,-150.25 492.02,-148.76 499.29,-156.46 502.51,-150.25"/>
</g>
<!-- visualCaseGen_cime_interface -->
<g id="node19" class="node">
<title>visualCaseGen_cime_interface</title><style>.edge>path:hover{stroke-width:8}</style>
<ellipse fill="#b653b6" stroke="black" cx="1259.3" cy="-132.69" rx="64.88" ry="23.69"/>
<text text-anchor="middle" x="1259.3" y="-135.94" font-family="Helvetica,sans-Serif" font-size="10.00" fill="#ffffff">visualCaseGen.</text>
<text text-anchor="middle" x="1259.3" y="-123.19" font-family="Helvetica,sans-Serif" font-size="10.00" fill="#ffffff">cime_interface</text>
</g>
<!-- visualCaseGen_cime_interface&#45;&gt;case_py -->
<g id="edge23" class="edge">
<title>visualCaseGen_cime_interface&#45;&gt;case_py</title><style>.edge>path:hover{stroke-width:8}</style>
<path fill="none" stroke="black" d="M1211.74,-116.31C1202.99,-113.71 1193.9,-111.15 1185.3,-109 1144.89,-98.88 1010.97,-113.53 1001.3,-73"/>
</g>
<!-- visualCaseGen_custom_widget_types_case_creator -->
<g id="node20" class="node">
<title>visualCaseGen_custom_widget_types_case_creator</title><style>.edge>path:hover{stroke-width:8}</style>
<ellipse fill="#b653b6" stroke="black" cx="1157.3" cy="-225.08" rx="88.74" ry="32.7"/>
<text text-anchor="middle" x="1157.3" y="-234.7" font-family="Helvetica,sans-Serif" font-size="10.00" fill="#ffffff">visualCaseGen.</text>
<text text-anchor="middle" x="1157.3" y="-221.95" font-family="Helvetica,sans-Serif" font-size="10.00" fill="#ffffff">custom_widget_types.</text>
<text text-anchor="middle" x="1157.3" y="-209.2" font-family="Helvetica,sans-Serif" font-size="10.00" fill="#ffffff">case_creator</text>
</g>
<!-- visualCaseGen_custom_widget_types_case_creator&#45;&gt;case_py -->
<g id="edge24" class="edge">
<title>visualCaseGen_custom_widget_types_case_creator&#45;&gt;case_py</title><style>.edge>path:hover{stroke-width:8}</style>
<path fill="none" stroke="black" d="M1222.84,-202.71C1264.85,-188.29 1314.86,-169.56 1333.3,-156.38 1344,-148.73 1356.12,-146.27 1352.3,-133.69"/>
<path fill="none" stroke="black" d="M1352.3,-131.69C1348.49,-119.1 1344.9,-115.2 1333.3,-109 1267.85,-74.02 1018.53,-145.18 1001.3,-73"/>
</g>
<!-- visualCaseGen_custom_widget_types_case_tools -->
<g id="node21" class="node">
<title>visualCaseGen_custom_widget_types_case_tools</title><style>.edge>path:hover{stroke-width:8}</style>
<ellipse fill="#b653b6" stroke="black" cx="1352.3" cy="-225.08" rx="88.74" ry="32.7"/>
<text text-anchor="middle" x="1352.3" y="-234.7" font-family="Helvetica,sans-Serif" font-size="10.00" fill="#ffffff">visualCaseGen.</text>
<text text-anchor="middle" x="1352.3" y="-221.95" font-family="Helvetica,sans-Serif" font-size="10.00" fill="#ffffff">custom_widget_types.</text>
<text text-anchor="middle" x="1352.3" y="-209.2" font-family="Helvetica,sans-Serif" font-size="10.00" fill="#ffffff">case_tools</text>
</g>
<!-- visualCaseGen_custom_widget_types_case_tools&#45;&gt;case_py -->
<g id="edge25" class="edge">
<title>visualCaseGen_custom_widget_types_case_tools&#45;&gt;case_py</title><style>.edge>path:hover{stroke-width:8}</style>
<path fill="none" stroke="black" d="M1356.77,-192.04C1358.13,-174.45 1357.99,-152.46 1352.3,-133.69"/>
</g>
<!-- visualCaseGen_initialize_configvars -->
<g id="node22" class="node">
<title>visualCaseGen_initialize_configvars</title><style>.edge>path:hover{stroke-width:8}</style>
<ellipse fill="#b653b6" stroke="black" cx="1460.3" cy="-132.69" rx="80.26" ry="23.69"/>
<text text-anchor="middle" x="1460.3" y="-135.94" font-family="Helvetica,sans-Serif" font-size="10.00" fill="#ffffff">visualCaseGen.</text>
<text text-anchor="middle" x="1460.3" y="-123.19" font-family="Helvetica,sans-Serif" font-size="10.00" fill="#ffffff">initialize_configvars</text>
</g>
<!-- visualCaseGen_initialize_configvars&#45;&gt;case_py -->
<g id="edge26" class="edge">
<title>visualCaseGen_initialize_configvars&#45;&gt;case_py</title><style>.edge>path:hover{stroke-width:8}</style>
<path fill="none" stroke="black" d="M1401.39,-116.15C1389.82,-113.47 1377.72,-110.93 1366.3,-109 1326.12,-102.2 1010.76,-112.64 1001.3,-73"/>
</g>
<!-- visualCaseGen_initialize_stages -->
<g id="node23" class="node">
<title>visualCaseGen_initialize_stages</title><style>.edge>path:hover{stroke-width:8}</style>
<ellipse fill="#b653b6" stroke="black" cx="1626.3" cy="-132.69" rx="67.53" ry="23.69"/>
<text text-anchor="middle" x="1626.3" y="-135.94" font-family="Helvetica,sans-Serif" font-size="10.00" fill="#ffffff">visualCaseGen.</text>
<text text-anchor="middle" x="1626.3" y="-123.19" font-family="Helvetica,sans-Serif" font-size="10.00" fill="#ffffff">initialize_stages</text>
</g>
<!-- visualCaseGen_initialize_stages&#45;&gt;case_py -->
<g id="edge27" class="edge">
<title>visualCaseGen_initialize_stages&#45;&gt;case_py</title><style>.edge>path:hover{stroke-width:8}</style>
<path fill="none" stroke="black" d="M1578.22,-115.75C1568.73,-113.11 1558.77,-110.68 1549.3,-109 1519.26,-103.66 1008.38,-102.68 1001.3,-73"/>
</g>
<!-- visualCaseGen_initialize_widgets -->
<g id="node24" class="node">
<title>visualCaseGen_initialize_widgets</title><style>.edge>path:hover{stroke-width:8}</style>
<ellipse fill="#b653b6" stroke="black" cx="1783.3" cy="-132.69" rx="71.77" ry="23.69"/>
<text text-anchor="middle" x="1783.3" y="-135.94" font-family="Helvetica,sans-Serif" font-size="10.00" fill="#ffffff">visualCaseGen.</text>
<text text-anchor="middle" x="1783.3" y="-123.19" font-family="Helvetica,sans-Serif" font-size="10.00" fill="#ffffff">initialize_widgets</text>
</g>
<!-- visualCaseGen_initialize_widgets&#45;&gt;case_py -->
<g id="edge28" class="edge">
<title>visualCaseGen_initialize_widgets&#45;&gt;case_py</title><style>.edge>path:hover{stroke-width:8}</style>
<path fill="none" stroke="black" d="M1732.91,-115.54C1723.17,-112.95 1712.99,-110.6 1703.3,-109 1664.77,-102.63 1010.37,-110.98 1001.3,-73"/>
</g>
<!-- visualCaseGen_specs_options -->
<g id="node25" class="node">
<title>visualCaseGen_specs_options</title><style>.edge>path:hover{stroke-width:8}</style>
<ellipse fill="#b653b6" stroke="black" cx="1714.3" cy="-225.08" rx="64.88" ry="32.7"/>
<text text-anchor="middle" x="1714.3" y="-234.7" font-family="Helvetica,sans-Serif" font-size="10.00" fill="#ffffff">visualCaseGen.</text>
<text text-anchor="middle" x="1714.3" y="-221.95" font-family="Helvetica,sans-Serif" font-size="10.00" fill="#ffffff">specs.</text>
<text text-anchor="middle" x="1714.3" y="-209.2" font-family="Helvetica,sans-Serif" font-size="10.00" fill="#ffffff">options</text>
</g>
<!-- visualCaseGen_specs_options&#45;&gt;case_py -->
<g id="edge29" class="edge">
<title>visualCaseGen_specs_options&#45;&gt;case_py</title><style>.edge>path:hover{stroke-width:8}</style>
<path fill="none" stroke="black" d="M1762.65,-202.88C1804.78,-184.3 1859.85,-159.75 1864.3,-156.38 1874.78,-148.43 1888.19,-145.9 1883.3,-133.69"/>
<path fill="none" stroke="black" d="M1883.3,-131.69C1878.41,-119.48 1876.1,-114.81 1864.3,-109 1821.25,-87.8 1012.44,-119.68 1001.3,-73"/>
</g>
<!-- visualCaseGen_specs_relational_constraints -->
<g id="node26" class="node">
<title>visualCaseGen_specs_relational_constraints</title><style>.edge>path:hover{stroke-width:8}</style>
<ellipse fill="#b653b6" stroke="black" cx="1883.3" cy="-225.08" rx="86.09" ry="32.7"/>
<text text-anchor="middle" x="1883.3" y="-234.7" font-family="Helvetica,sans-Serif" font-size="10.00" fill="#ffffff">visualCaseGen.</text>
<text text-anchor="middle" x="1883.3" y="-221.95" font-family="Helvetica,sans-Serif" font-size="10.00" fill="#ffffff">specs.</text>
<text text-anchor="middle" x="1883.3" y="-209.2" font-family="Helvetica,sans-Serif" font-size="10.00" fill="#ffffff">relational_constraints</text>
</g>
<!-- visualCaseGen_specs_relational_constraints&#45;&gt;case_py -->
<g id="edge30" class="edge">
<title>visualCaseGen_specs_relational_constraints&#45;&gt;case_py</title><style>.edge>path:hover{stroke-width:8}</style>
<path fill="none" stroke="black" d="M1888.99,-192.03C1890.77,-174.23 1890.65,-152.04 1883.3,-133.69"/>
</g>
</g>
</svg>
